<svg width="120" height="120" viewBox="0 0 120 120" fill="none" xmlns="http://www.w3.org/2000/svg">
<g clip-path="url(#clip0_2087_19971)">
<g clip-path="url(#clip1_2087_19971)">
<path d="M6.67347 61.2927C-1.75102 77.7706 -9.28571 80.5993 -15 75.9047V134H169C166.469 112.464 157.005 55.6408 141.784 61.2929C119.975 69.391 120.041 51 114 51C107.959 51 94.9184 91.5 83 91.5C71.0816 91.5 61.8265 61.2929 53.5 61.2929C45.1735 61.2929 37 76.2566 29 61.2927C21 46.3287 17.2041 40.6952 6.67347 61.2927Z" fill="url(#paint0_linear_2087_19971)" fill-opacity="0.9" stroke="#24B3D0" stroke-width="4" stroke-linecap="round"/>
</g>
<g clip-path="url(#clip2_2087_19971)">
<rect x="4.5" y="83.5" width="3" height="36" rx="0.5" fill="#24B3D0" stroke="#24B3D0"/>
<rect x="10.5" y="65.5" width="3" height="54" rx="0.5" fill="#24B3D0" stroke="#24B3D0"/>
<rect x="0.5" y="-0.5" width="3" height="36" rx="0.5" transform="matrix(1 0 0 -1 16 119)" fill="#24B3D0" stroke="#24B3D0"/>
<rect x="0.5" y="-0.5" width="3" height="16" rx="0.5" transform="matrix(1 0 0 -1 22 119)" fill="#24B3D0" stroke="#24B3D0"/>
<rect x="0.5" y="-0.5" width="3" height="36" rx="0.5" transform="matrix(1 0 0 -1 28 119)" fill="#24B3D0" stroke="#24B3D0"/>
<rect x="34.5" y="91.5" width="3" height="28" rx="0.5" fill="#24B3D0" stroke="#24B3D0"/>
<rect x="40.5" y="89.5" width="3" height="30" rx="0.5" fill="#24B3D0" stroke="#24B3D0"/>
<rect x="46.5" y="81.5" width="3" height="38" rx="0.5" fill="#24B3D0" stroke="#24B3D0"/>
<rect x="52.5" y="73.5" width="3" height="46" rx="0.5" fill="#24B3D0" stroke="#24B3D0"/>
<rect x="58.5" y="83.5" width="3" height="36" rx="0.5" fill="#24B3D0" stroke="#24B3D0"/>
<rect x="64.5" y="89.5" width="3" height="30" rx="0.5" fill="#24B3D0" stroke="#24B3D0"/>
<rect x="70.5" y="103.5" width="3" height="16" rx="0.5" fill="#24B3D0" stroke="#24B3D0"/>
<rect x="76.5" y="99.5" width="3" height="20" rx="0.5" fill="#24B3D0" stroke="#24B3D0"/>
<rect x="0.5" y="-0.5" width="3" height="23" rx="0.5" transform="matrix(1 0 0 -1 82 119)" fill="#24B3D0" stroke="#24B3D0"/>
<rect x="0.5" y="-0.5" width="3" height="20" rx="0.5" transform="matrix(1 0 0 -1 88 119)" fill="#24B3D0" stroke="#24B3D0"/>
<rect x="0.5" y="-0.5" width="3" height="30" rx="0.5" transform="matrix(1 0 0 -1 94 119)" fill="#24B3D0" stroke="#24B3D0"/>
<rect x="100.5" y="103.5" width="3" height="16" rx="0.5" fill="#24B3D0" stroke="#24B3D0"/>
<rect x="106.5" y="73.5" width="3" height="46" rx="0.5" fill="#24B3D0" stroke="#24B3D0"/>
<rect x="112.5" y="99.5" width="3" height="20" rx="0.5" fill="#24B3D0" stroke="#24B3D0"/>
</g>
<rect x="64" width="56" height="120" fill="url(#paint1_linear_2087_19971)"/>
<path d="M71.9986 41.5974C71.8923 41.6712 71.7826 41.7411 71.6696 41.8069L68.0007 43.9438L53.6122 35.5635V28.4281L67.9935 20.052L71.6696 22.1931C71.799 22.2684 71.9241 22.3492 72.0447 22.4351L61.768 28.4098V28.3952L57.6493 30.8044V33.2547L61.768 35.6587V33.2251L74.0983 26.0436C74.1103 26.1841 74.1164 26.3257 74.1164 26.4683V30.791L65.9058 35.5969L65.9057 38.0652L71.9986 41.5974Z" fill="#0366C1"/>
<path d="M63.8748 17.6532L62.1719 16.6614C60.6579 15.7795 58.7925 15.7795 57.2784 16.6614L47.7807 22.1931C46.2667 23.0749 45.334 24.7046 45.334 26.4683V37.5317C45.334 39.2954 46.2667 40.9251 47.7807 41.8069L57.2784 47.3386C58.7925 48.2205 60.6579 48.2205 62.1719 47.3386L63.882 46.3427L49.4935 37.9624L49.4935 26.0324L49.4991 26.0357L49.4935 26.0293L63.8748 17.6532Z" fill="#0366C1"/>
</g>
<defs>
<linearGradient id="paint0_linear_2087_19971" x1="61.1633" y1="22.7546" x2="63.8052" y2="133.951" gradientUnits="userSpaceOnUse">
<stop stop-color="#24B3D0" stop-opacity="0.7"/>
<stop offset="0.225446" stop-color="#24B3D0" stop-opacity="0.7"/>
<stop offset="0.887849" stop-color="#0982F1" stop-opacity="0"/>
</linearGradient>
<linearGradient id="paint1_linear_2087_19971" x1="120" y1="60" x2="64" y2="60" gradientUnits="userSpaceOnUse">
<stop stop-color="#1E2327"/>
<stop offset="0.26059" stop-color="#1E2327" stop-opacity="0.87"/>
<stop offset="1" stop-color="#1E2327" stop-opacity="0"/>
</linearGradient>
<clipPath id="clip0_2087_19971">
<rect width="120" height="120" fill="white"/>
</clipPath>
<clipPath id="clip1_2087_19971">
<rect width="120" height="76" fill="white" transform="translate(0 44)"/>
</clipPath>
<clipPath id="clip2_2087_19971">
<rect width="112" height="70" fill="white" transform="translate(4 50)"/>
</clipPath>
</defs>
</svg>
