<svg width="24" height="24" viewBox="0 0 24 24" fill="none" xmlns="http://www.w3.org/2000/svg">
<path fill-rule="evenodd" clip-rule="evenodd" d="M1.77375 0.0488281C0.794438 0.0488281 0 0.815997 0 1.76114V22.2411C0 23.1863 0.794531 23.9528 1.77375 23.9528H22.2262C23.2059 23.9528 24 23.1862 24 22.2408V1.76114C24 0.815997 23.2059 0.0488281 22.2262 0.0488281H1.77375ZM7.2933 9.29124V20.0529H3.70192V9.29124H7.2933ZM7.53002 5.96308C7.53002 6.99581 6.75049 7.82218 5.49836 7.82218L5.49808 7.82208H5.47483C4.26949 7.82208 3.49023 6.99571 3.49023 5.96299C3.49023 4.90682 4.29302 4.10352 5.52218 4.10352C6.75049 4.10352 7.50659 4.90682 7.53002 5.96308ZM12.8723 20.0529H9.28118L9.28109 20.0533C9.28109 20.0533 9.32825 10.3012 9.28137 9.29162H12.8726V10.8149C13.35 10.0818 14.2044 9.03894 16.1093 9.03894C18.4721 9.03894 20.2436 10.5771 20.2436 13.8825V20.0529H16.6526V14.2963C16.6526 12.8495 16.1325 11.8627 14.8334 11.8627C13.841 11.8627 13.2501 12.5282 12.9906 13.1711C12.8957 13.4005 12.8723 13.7225 12.8723 14.0438V20.0529Z" fill="white"/>
</svg>
