<svg xmlns="http://www.w3.org/2000/svg" width="72" height="72" fill="none">
  <rect width="72" height="72" fill="#1482E5" fill-opacity=".5" rx="36" />
  <path
  fill="#E5E9EB"
  d="M47.666 22.666c.92 0 1.667.746 1.667 1.667v3.333a1.667 1.667 0 1 1-3.334 0v-3.333c0-.92.746-1.667 1.667-1.667ZM37.666 44.333a1.667 1.667 0 1 0-3.333 0v3.333a1.667 1.667 0 1 0 3.333 0v-3.333ZM36 22.666c.92 0 1.666.746 1.666 1.667v13.333a1.667 1.667 0 1 1-3.333 0V24.333c0-.92.746-1.667 1.666-1.667ZM26 24.333a1.667 1.667 0 1 0-3.334 0v6.666a1.667 1.667 0 0 0 3.333 0v-6.666ZM26 37.666a1.667 1.667 0 1 0-3.334 0v10a1.667 1.667 0 1 0 3.333 0v-10ZM49.333 34.333a1.667 1.667 0 1 0-3.334 0v13.333a1.667 1.667 0 1 0 3.334 0V34.333Z"
  />
  <path
  fill="#E5E9EB"
  fill-rule="evenodd"
  d="M47.667 36a5 5 0 1 1 0-10 5 5 0 0 1 0 10Zm0-3.333a1.667 1.667 0 1 1 0-3.334 1.667 1.667 0 0 1 0 3.334ZM31 41a5 5 0 1 0 10 0 5 5 0 0 0-10 0Zm3.334 0a1.667 1.667 0 1 0 3.333 0 1.667 1.667 0 0 0-3.333 0ZM19.334 34.333a5 5 0 1 0 10 0 5 5 0 0 0-10 0Zm3.333 0a1.667 1.667 0 1 0 3.334 0 1.667 1.667 0 0 0-3.334 0Z"
  clip-rule="evenodd"
  />
</svg>