<svg width="192" height="183" viewBox="0 0 192 183" fill="none" xmlns="http://www.w3.org/2000/svg">
<g filter="url(#filter0_d_5427_29241)">
<path d="M23.7421 83.485C23.7421 84.9115 24.8969 86.0648 26.3233 86.0648C27.7483 86.0648 28.903 84.9115 28.903 83.485C28.903 67.9624 41.05 55.4979 56.5579 55.1081C57.9814 55.0697 59.1081 53.8854 59.0711 52.4619C59.0342 51.037 57.8381 49.894 56.4265 49.9472C38.0982 50.4094 23.7421 65.142 23.7421 83.485Z" fill="url(#paint0_linear_5427_29241)"/>
<path fill-rule="evenodd" clip-rule="evenodd" d="M129.447 124.775H134.71V130.626C133.167 131.519 132.129 133.187 132.129 135.097C132.129 137.949 134.44 140.26 137.29 140.26C140.141 140.26 142.452 137.949 142.452 135.097C142.452 133.187 141.414 131.519 139.871 130.627V124.775H142.452C143.32 124.775 144.18 124.742 145.032 124.677V153.854C143.49 154.746 142.452 156.414 142.452 158.323C142.452 161.173 144.763 163.484 147.613 163.484C150.463 163.484 152.774 161.173 152.774 158.323C152.774 156.414 151.736 154.746 150.194 153.854V123.874C164.973 120.37 176 107.062 176 91.2271C176 72.729 160.952 57.6775 142.452 57.6775C142.322 57.6775 142.191 57.6775 142.061 57.6804C142.321 55.9395 142.452 54.2103 142.452 52.5166C142.452 32.595 126.244 16.3872 106.323 16.3872C89.353 16.3872 74.7533 28.3009 71.1015 44.5884C66.6553 42.998 62.023 42.1947 57.2903 42.1947C34.5232 42.1947 16 60.7179 16 83.485C16 98.6348 24.2918 112.036 36.677 119.206C36.656 119.339 36.6451 119.475 36.6451 119.613V156.433C35.102 157.325 34.0639 158.994 34.0639 160.905C34.0639 163.755 36.3749 166.066 39.2263 166.066C42.0763 166.066 44.3873 163.755 44.3873 160.905C44.3873 158.993 43.349 157.325 41.8061 156.433V121.718C43.4747 122.395 45.1982 122.967 46.9684 123.424V135.787C45.4255 136.68 44.3873 138.348 44.3873 140.26C44.3873 143.11 46.6982 145.42 49.5482 145.42C52.3996 145.42 54.7091 143.11 54.7091 140.26C54.7091 138.349 53.6718 136.68 52.1294 135.788V124.409C52.6539 124.474 53.1817 124.53 53.7124 124.576C54.0195 124.704 54.3562 124.775 54.7091 124.775H57.2903V148.691C55.7471 149.583 54.7091 151.251 54.7091 153.163C54.7091 156.012 57.02 158.323 59.8715 158.323C62.7214 158.323 65.0324 156.012 65.0324 153.163C65.0324 151.251 63.9941 149.583 62.4512 148.69V124.775H65.1347C66.4538 141.361 80.3723 154.452 97.29 154.452C114.209 154.452 128.128 141.361 129.447 124.775ZM129.447 119.613H142.452C158.105 119.613 170.839 106.88 170.839 91.2271C170.839 75.5731 158.105 62.8399 142.452 62.8399C141.436 62.8399 140.366 62.9078 139.178 63.0437C138.337 63.147 137.505 62.8207 136.947 62.1887C136.387 61.5567 136.175 60.6899 136.373 59.8674C136.981 57.3733 137.29 54.9014 137.29 52.5166C137.29 35.4405 123.399 21.5496 106.323 21.5496C90.8281 21.5496 77.6401 33.134 75.6466 48.5001C75.5433 49.3078 75.0604 50.0181 74.3472 50.4197C73.6398 50.8155 72.7775 50.8539 72.0332 50.5231C67.3404 48.4218 62.3818 47.3557 57.2903 47.3557C37.3687 47.3557 21.1609 63.562 21.1609 83.485C21.1609 102.423 35.9718 118.238 54.8804 119.487C55.1048 119.502 55.3204 119.546 55.5242 119.613H65.1347C66.454 103.029 80.3724 89.9366 97.29 89.9366C114.209 89.9366 128.127 103.029 129.447 119.613ZM70.1933 122.194C70.1933 107.252 82.3492 95.0975 97.29 95.0975C112.231 95.0975 124.387 107.252 124.387 122.194C124.387 137.136 112.231 149.291 97.29 149.291C82.3492 149.291 70.1933 137.136 70.1933 122.194Z" fill="url(#paint1_linear_5427_29241)"/>
<path fill-rule="evenodd" clip-rule="evenodd" d="M97.4846 97.9999L97.5104 98.0004C98.3358 98.0153 99.0685 98.5202 99.394 99.2801L109.824 123.574C110.066 124.138 110.059 124.784 109.797 125.344C109.774 125.394 109.748 125.444 109.721 125.491L109.728 125.479L109.711 125.51C109.714 125.504 109.718 125.498 109.721 125.491L99.3397 144.837C99.3438 144.829 99.3479 144.821 99.352 144.812L99.3309 144.853L99.3397 144.837C99.217 145.081 99.0498 145.298 98.8484 145.476C98.4842 145.798 98.0136 145.989 97.5138 145.999L97.4449 146L97.422 145.998C96.9956 145.987 96.5985 145.846 96.2716 145.612C96.1172 145.502 95.977 145.371 95.8556 145.22C95.7818 145.129 95.7153 145.031 95.6569 144.928L84.2959 125.522C83.9156 124.872 83.9142 124.101 84.2212 123.475L95.5809 99.2206L95.5823 99.2176C95.9507 98.4243 96.724 98.0208 97.4588 98.0006L97.4846 97.9999ZM95.3787 109.566L89.0883 122.996L95.3787 124.608V109.566ZM99.5692 135.512L103.699 127.816L99.5692 128.971V135.512ZM95.3787 136.12L90.4793 127.752L95.3787 129.007V136.12ZM99.5692 110.34V124.547L105.015 123.025L99.5692 110.34Z" fill="url(#paint2_linear_5427_29241)"/>
</g>
<defs>
<filter id="filter0_d_5427_29241" x="0" y="0.387207" width="192" height="181.678" filterUnits="userSpaceOnUse" color-interpolation-filters="sRGB">
<feFlood flood-opacity="0" result="BackgroundImageFix"/>
<feColorMatrix in="SourceAlpha" type="matrix" values="0 0 0 0 0 0 0 0 0 0 0 0 0 0 0 0 0 0 127 0" result="hardAlpha"/>
<feOffset/>
<feGaussianBlur stdDeviation="8"/>
<feComposite in2="hardAlpha" operator="out"/>
<feColorMatrix type="matrix" values="0 0 0 0 0.192157 0 0 0 0 0.847059 0 0 0 0 0.74902 0 0 0 0.5 0"/>
<feBlend mode="normal" in2="BackgroundImageFix" result="effect1_dropShadow_5427_29241"/>
<feBlend mode="normal" in="SourceGraphic" in2="effect1_dropShadow_5427_29241" result="shape"/>
</filter>
<linearGradient id="paint0_linear_5427_29241" x1="35.4286" y1="-1.07527" x2="144.383" y2="239.393" gradientUnits="userSpaceOnUse">
<stop stop-color="#31D8BF"/>
<stop offset="1" stop-color="#0965F1"/>
</linearGradient>
<linearGradient id="paint1_linear_5427_29241" x1="35.4286" y1="-1.07527" x2="144.383" y2="239.393" gradientUnits="userSpaceOnUse">
<stop stop-color="#31D8BF"/>
<stop offset="1" stop-color="#0965F1"/>
</linearGradient>
<linearGradient id="paint2_linear_5427_29241" x1="35.4286" y1="-1.07527" x2="144.383" y2="239.393" gradientUnits="userSpaceOnUse">
<stop stop-color="#31D8BF"/>
<stop offset="1" stop-color="#0965F1"/>
</linearGradient>
</defs>
</svg>
