<svg width="120" height="120" viewBox="0 0 120 120" fill="none" xmlns="http://www.w3.org/2000/svg">
<g clip-path="url(#clip0_2087_20534)">
<g clip-path="url(#clip1_2087_20534)">
<g clip-path="url(#clip2_2087_20534)">
<path d="M136.581 95.5994C161.672 113.299 201.981 107.639 219 102.596V165H-329C-321.463 141.866 -294.811 78.0431 -249.742 86.9006C-136.203 109.215 -125.02 74.609 -107.028 74.609C-89.0373 74.609 -93.4135 109.215 -57.9175 109.215C-22.4215 109.215 -14.6415 47 10.1571 47C34.9556 47 42.0062 111.673 65.8323 95.5994C89.6584 79.5256 105.218 73.4744 136.581 95.5994Z" fill="url(#paint0_linear_2087_20534)" fill-opacity="0.6" stroke="#24B3D0" stroke-width="4" stroke-linecap="round"/>
<path d="M347.24 74.6603C377.001 95.6602 424.814 88.9444 445 82.9615V157H-205C-196.06 129.553 -164.447 53.8308 -110.989 64.3397C23.6823 90.8141 36.9477 49.7564 58.2875 49.7564C79.6273 49.7564 74.4366 90.8141 116.539 90.8141C158.642 90.8141 167.87 17 197.285 17C226.699 17 235.062 93.7308 263.323 74.6603C291.584 55.5897 310.04 48.4102 347.24 74.6603Z" fill="url(#paint1_linear_2087_20534)" fill-opacity="0.9" stroke="#7C7C7C" stroke-width="4" stroke-linecap="round"/>
</g>
</g>
<path d="M119 0V120H121V0H119Z" fill="#181C1F" mask="url(#path-1-inside-1_2087_20534)"/>
<rect x="46" width="74" height="120" fill="url(#paint2_linear_2087_20534)"/>
</g>
<defs>
<linearGradient id="paint0_linear_2087_20534" x1="-7.83405" y1="12.5833" x2="-9.49999" y2="165" gradientUnits="userSpaceOnUse">
<stop stop-color="#24B3D0" stop-opacity="0.7"/>
<stop offset="0.225446" stop-color="#24B3D0" stop-opacity="0.7"/>
<stop offset="0.887849" stop-color="#0982F1" stop-opacity="0"/>
</linearGradient>
<linearGradient id="paint1_linear_2087_20534" x1="175.5" y1="17" x2="177" y2="144" gradientUnits="userSpaceOnUse">
<stop stop-color="#AFAFAF" stop-opacity="0.7"/>
<stop offset="0.626606" stop-color="#797979" stop-opacity="0.5"/>
<stop offset="0.887849" stop-color="#B4B4B4" stop-opacity="0"/>
</linearGradient>
<linearGradient id="paint2_linear_2087_20534" x1="120" y1="60" x2="46" y2="60" gradientUnits="userSpaceOnUse">
<stop stop-color="#1E2327"/>
<stop offset="0.26059" stop-color="#1E2327" stop-opacity="0.87"/>
<stop offset="1" stop-color="#1E2327" stop-opacity="0"/>
</linearGradient>
<clipPath id="clip0_2087_20534">
<rect width="120" height="120" fill="white"/>
</clipPath>
<clipPath id="clip1_2087_20534">
<path d="M0 0H120V120H0V0Z" fill="white"/>
</clipPath>
<clipPath id="clip2_2087_20534">
<rect width="120" height="120" fill="white"/>
</clipPath>
</defs>
</svg>
