<svg width="64" height="64" viewBox="0 0 64 64" fill="none" xmlns="http://www.w3.org/2000/svg">
<g clip-path="url(#clip0_348_3183)">
<path d="M32 63.0409C49.1429 63.0409 63.04 49.1439 63.04 32.0009C63.04 14.858 49.1429 0.960938 32 0.960938C14.857 0.960938 0.959961 14.858 0.959961 32.0009C0.959961 49.1439 14.857 63.0409 32 63.0409Z" fill="url(#paint0_linear_348_3183)"/>
<path d="M45.5837 44.369L35.0877 18.993C34.4957 17.681 33.6157 17.041 32.4557 17.041H31.5277C30.3677 17.041 29.4877 17.681 28.8957 18.993L24.3277 30.049H20.8717C19.8397 30.057 18.9997 30.889 18.9917 31.929V31.953C18.9997 32.985 19.8397 33.825 20.8717 33.833H22.7277L18.3677 44.369C18.2877 44.601 18.2397 44.841 18.2397 45.089C18.2397 45.681 18.4237 46.145 18.7517 46.505C19.0797 46.865 19.5517 47.041 20.1437 47.041C20.5357 47.033 20.9117 46.913 21.2237 46.681C21.5597 46.449 21.7917 46.113 21.9757 45.729L26.7757 33.825H30.1037C31.1357 33.817 31.9757 32.985 31.9837 31.945V31.897C31.9757 30.865 31.1357 30.025 30.1037 30.017H28.3277L31.9917 20.889L41.9757 45.721C42.1597 46.105 42.3917 46.441 42.7277 46.673C43.0397 46.905 43.4237 47.025 43.8077 47.033C44.3997 47.033 44.8637 46.857 45.1997 46.497C45.5357 46.137 45.7117 45.673 45.7117 45.081C45.7197 44.841 45.6797 44.593 45.5837 44.369Z" fill="white"/>
</g>
<defs>
<linearGradient id="paint0_linear_348_3183" x1="55.1429" y1="12.5279" x2="8.95542" y2="51.3899" gradientUnits="userSpaceOnUse">
<stop stop-color="#B6509E"/>
<stop offset="1" stop-color="#2EBAC6"/>
</linearGradient>
<clipPath id="clip0_348_3183">
<rect width="64" height="64" fill="white"/>
</clipPath>
</defs>
</svg>
