<svg width="64" height="64" viewBox="0 0 64 64" fill="none" xmlns="http://www.w3.org/2000/svg">
<path fill-rule="evenodd" clip-rule="evenodd" d="M24.2296 18.4888C16.7681 18.4888 10.7193 24.5376 10.7193 31.9992C10.7193 39.4372 16.7299 45.4713 24.159 45.5094L27.9043 53.9899C26.7088 54.1882 25.4813 54.2913 24.2296 54.2913C11.918 54.2913 1.9375 44.3108 1.9375 31.9992C1.9375 19.6876 11.918 9.70703 24.2296 9.70703C36.5412 9.70703 46.5218 19.6876 46.5218 31.9992C46.5218 36.8862 44.9492 41.406 42.2824 45.08L37.5383 34.338C37.6709 33.5783 37.74 32.7968 37.74 31.9992C37.74 24.5376 31.6912 18.4888 24.2296 18.4888ZM62.0551 29.2969H51.9224V53.9533H62.0551V29.2969Z" fill="white"/>
<path fill-rule="evenodd" clip-rule="evenodd" d="M53.621 19.8366C52.5951 20.2469 51.9224 21.2405 51.9224 22.3454V26.2579L60.4275 22.5724C61.4157 22.1442 62.0552 21.17 62.0552 20.0931V16.4629L53.621 19.8366ZM26.2554 40.1064H35.8815L42.2989 54.2924H32.5039L26.2554 40.1064Z" fill="#00B3ED"/>
</svg>
