<svg width="139" height="30" viewBox="0 0 139 30" fill="none" xmlns="http://www.w3.org/2000/svg">
<path d="M123.301 9.91992C125.354 9.91992 127.245 11.4511 127.245 13.6001C127.245 15.9104 125.597 17.549 123.301 17.549C121.006 17.549 119.358 15.9104 119.358 13.6001C119.331 11.4242 121.222 9.91992 123.301 9.91992ZM52.4003 9.91992C54.4531 9.91992 56.3438 11.4511 56.3438 13.6001C56.3438 15.9104 54.6962 17.549 52.4003 17.549C50.1045 17.549 48.4569 15.9104 48.4569 13.6001C48.4569 11.4242 50.3476 9.91992 52.4003 9.91992ZM63.4744 9.94682C64.0686 9.94682 64.6358 10.0811 65.176 10.296V12.5256C64.7979 12.0152 64.1767 11.7466 63.5554 11.7466C62.421 11.7466 61.6377 12.6062 61.6377 13.7344C61.6377 14.8627 62.421 15.6686 63.5824 15.6686C64.1767 15.6686 64.7979 15.3731 65.176 14.9164V17.1461C64.5548 17.3341 64.1226 17.4684 63.5284 17.4684C62.5291 17.4684 61.5837 17.0923 60.8544 16.4208C60.0712 15.7223 59.693 14.7821 59.693 13.7076C59.693 12.7405 60.0712 11.8003 60.7464 11.1019C61.4757 10.4034 62.475 9.94682 63.4744 9.94682ZM132.809 10.1617L136.212 14.5403H136.239V10.1617H138.103V17.3072H136.239L132.836 12.9286H132.809V17.3072H130.945V10.1617H132.809ZM110.148 10.1617L111.606 13.9762L113.146 10.1617H115.009L116.09 17.3072H114.226L113.713 13.1972H113.686L111.957 17.3072H111.228L109.58 13.1972H109.553L108.959 17.3072H107.095L108.311 10.1617H110.148ZM103.53 10.1617V11.7466H101.315V12.9286H103.422V14.5135H101.315V15.7492H103.53V17.3341H99.452V10.1885H103.53V10.1617ZM93.347 10.1617L96.048 17.3072H94.077L93.618 16.0715H91.052L90.565 17.3072H88.594L91.349 10.1617H93.347ZM81.841 10.1617C83.84 10.1617 85.488 11.7197 85.488 13.7344C85.488 15.7492 83.84 17.3072 81.841 17.3072H79.221V10.1617H81.841ZM71.0372 10.1617V13.1166H71.0642L73.306 10.1617H75.6019L72.7658 13.5464L75.872 17.3072H73.4681L71.0642 14.218H71.0372V17.3072H69.1735V10.1617H71.0372ZM43.1089 10.1617V15.7223H45.3507V17.3072H41.2722V10.1617H43.1089ZM34.6548 10.1617C35.9243 10.1617 36.7886 10.6452 36.7886 12.0152C36.7886 12.6599 36.5725 13.1703 36.0053 13.4658V13.4927C37.0317 13.627 37.4638 14.3254 37.4638 15.3194C37.4638 16.8237 36.1944 17.3072 34.8709 17.3072H32.0078V10.1617H34.6548ZM35.5731 15.1313C35.5731 14.2717 34.6548 14.3523 34.0336 14.3523H33.8445V15.8835H34.2496C34.8168 15.8835 35.5731 15.8298 35.5731 15.1313ZM123.301 11.7197C122.194 11.7197 121.276 12.6331 121.276 13.6001C121.276 14.8358 122.194 15.7223 123.301 15.7223C124.409 15.7223 125.327 14.809 125.327 13.6001C125.3 12.6062 124.409 11.7197 123.301 11.7197ZM52.4003 11.7197C51.2929 11.7197 50.3746 12.6331 50.3746 13.6001C50.3746 14.8358 51.2929 15.7223 52.4003 15.7223C53.5077 15.7223 54.4261 14.809 54.4261 13.6001C54.4261 12.6062 53.5077 11.7197 52.4003 11.7197ZM81.517 11.7197H81.085V15.7223H81.49C82.597 15.7223 83.543 15.1045 83.543 13.7076C83.543 12.445 82.705 11.7197 81.517 11.7197ZM92.321 12.3644L91.538 14.6478H93.077L92.321 12.3644ZM33.9795 11.5854H33.8445V12.9823H34.0606C34.5467 12.9823 35.0599 12.9017 35.0599 12.2838C35.0599 11.6123 34.4927 11.5854 33.9795 11.5854Z" fill="white"/>
<path d="M7.77926 6.12082L11.1826 4.15982L14.6668 6.17451L22.0135 0.237816V10.4189V22.9371L11.1826 29.1962L0.351562 22.9102V12.2456V0.103516L7.77926 6.12082ZM2.24226 13.2933V21.8357L11.1826 26.9934L20.1228 21.8357V13.4276L11.1826 18.6927L2.24226 13.2933ZM2.62036 11.3054L11.2096 16.49L19.9068 11.386L11.2096 6.36262L2.62036 11.3054ZM16.6386 7.03422L20.1228 9.07572V4.18671C18.9614 5.15371 17.8 6.09392 16.6386 7.03422ZM2.24226 8.96832L5.72646 6.92672L2.24226 4.07922C2.24226 5.71792 2.24226 7.32962 2.24226 8.96832Z" fill="white"/>
</svg>
