<svg width="192" height="64" viewBox="0 0 192 64" fill="none" xmlns="http://www.w3.org/2000/svg">
<path d="M24.2412 21.8531C27.5666 23.7974 31.3446 25.0084 35.3705 25.2743C35.9281 25.3111 36.4904 25.3298 37.057 25.3298C40.523 25.3298 43.8312 24.6302 46.8574 23.36V13.078C43.8312 14.3483 40.523 15.0479 37.057 15.0479C32.3997 15.0479 28.0272 13.7847 24.2412 11.5711C24.1606 11.524 24.0803 11.4764 24.0002 11.4285V21.7069C24.0808 21.7552 24.1611 21.8039 24.2412 21.8531Z" fill="white"/>
<path d="M10.9434 48.9333C15.6007 48.9333 19.9733 50.1964 23.7593 52.4101C23.8503 52.4633 23.9409 52.517 24.0312 52.5713V42.2929C23.9403 42.2385 23.8496 42.1836 23.7594 42.1282C20.4339 40.1838 16.6559 38.9727 12.6299 38.7069C12.0723 38.67 11.51 38.6514 10.9434 38.6514C7.47747 38.6514 4.16923 39.3509 1.14307 40.6212V50.9031C4.16923 49.6329 7.47747 48.9333 10.9434 48.9333Z" fill="white"/>
<path d="M10.9434 33.5104C11.0577 33.5104 11.1718 33.5111 11.2857 33.5127C12.6716 33.5311 14.0316 33.6614 15.3574 33.8953C18.3644 34.4256 21.1962 35.4886 23.7592 36.9871C23.9209 37.0817 24.0816 37.178 24.2413 37.276C27.5667 39.2203 31.3446 40.4313 35.3705 40.6972C35.7243 40.7206 36.0799 40.7366 36.4374 40.7453C36.5297 40.7475 36.6222 40.7492 36.7147 40.7505C36.8287 40.752 36.9427 40.7527 37.057 40.7527C40.523 40.7527 43.8312 40.0532 46.8574 38.7829V28.501C43.8312 29.7712 40.523 30.4708 37.057 30.4708C36.9427 30.4708 36.8287 30.47 36.7147 30.4685C35.3288 30.4501 33.9689 30.3198 32.643 30.0859C29.636 29.5555 26.8042 28.4926 24.2412 26.9941C24.0795 26.8995 23.9188 26.8032 23.7592 26.7052C20.4338 24.7608 16.6558 23.5498 12.6299 23.2839C12.2761 23.2606 11.9205 23.2445 11.5631 23.2359C11.4707 23.2337 11.3783 23.2319 11.2857 23.2307C11.1718 23.2292 11.0577 23.2284 10.9434 23.2284C7.47747 23.2284 4.16923 23.928 1.14307 25.1983V35.4802C4.16923 34.2099 7.47747 33.5104 10.9434 33.5104Z" fill="white"/>
<path d="M66.8 47V18.2H78.22C80.1667 18.2 81.76 18.5933 83 19.38C84.2533 20.1533 85.18 21.1467 85.78 22.36C86.3933 23.5733 86.7 24.8267 86.7 26.12C86.7 27.7067 86.32 29.0533 85.56 30.16C84.8133 31.2667 83.7933 32.0133 82.5 32.4V31.4C84.3133 31.8133 85.6867 32.6733 86.62 33.98C87.5667 35.2867 88.04 36.7733 88.04 38.44C88.04 40.1467 87.7133 41.64 87.06 42.92C86.4067 44.2 85.4333 45.2 84.14 45.92C82.86 46.64 81.2733 47 79.38 47H66.8ZM71.68 42.46H78.78C79.62 42.46 80.3733 42.2933 81.04 41.96C81.7067 41.6133 82.2267 41.1333 82.6 40.52C82.9867 39.8933 83.18 39.1533 83.18 38.3C83.18 37.5267 83.0133 36.8333 82.68 36.22C82.3467 35.6067 81.86 35.12 81.22 34.76C80.58 34.3867 79.8133 34.2 78.92 34.2H71.68V42.46ZM71.68 29.7H78.16C78.8533 29.7 79.4733 29.5667 80.02 29.3C80.5667 29.0333 81 28.64 81.32 28.12C81.64 27.6 81.8 26.96 81.8 26.2C81.8 25.2 81.48 24.3667 80.84 23.7C80.2 23.0333 79.3067 22.7 78.16 22.7H71.68V29.7ZM90.8344 47V17.6H95.6544V47H90.8344ZM108.145 47.62C106.545 47.62 105.225 47.3533 104.185 46.82C103.145 46.2867 102.319 45.6067 101.705 44.78C101.092 43.9533 100.639 43.0733 100.345 42.14C100.052 41.2067 99.8586 40.3267 99.7653 39.5C99.6853 38.66 99.6453 37.98 99.6453 37.46V25.4H104.525V35.8C104.525 36.4667 104.572 37.22 104.665 38.06C104.759 38.8867 104.972 39.6867 105.305 40.46C105.652 41.22 106.159 41.8467 106.825 42.34C107.505 42.8333 108.419 43.08 109.565 43.08C110.179 43.08 110.785 42.98 111.385 42.78C111.985 42.58 112.525 42.24 113.005 41.76C113.499 41.2667 113.892 40.5933 114.185 39.74C114.479 38.8867 114.625 37.8067 114.625 36.5L117.485 37.72C117.485 39.56 117.125 41.2267 116.405 42.72C115.699 44.2133 114.652 45.4067 113.265 46.3C111.879 47.18 110.172 47.62 108.145 47.62ZM115.205 47V40.3H114.625V25.4H119.465V47H115.205ZM133.304 47.6C131.118 47.6 129.198 47.1267 127.544 46.18C125.891 45.2333 124.598 43.92 123.664 42.24C122.744 40.56 122.284 38.6267 122.284 36.44C122.284 34.08 122.738 32.0333 123.644 30.3C124.551 28.5533 125.811 27.2 127.424 26.24C129.038 25.28 130.904 24.8 133.024 24.8C135.264 24.8 137.164 25.3267 138.724 26.38C140.298 27.42 141.464 28.8933 142.224 30.8C142.984 32.7067 143.271 34.9533 143.084 37.54H138.304V35.78C138.291 33.4333 137.878 31.72 137.064 30.64C136.251 29.56 134.971 29.02 133.224 29.02C131.251 29.02 129.784 29.6333 128.824 30.86C127.864 32.0733 127.384 33.8533 127.384 36.2C127.384 38.3867 127.864 40.08 128.824 41.28C129.784 42.48 131.184 43.08 133.024 43.08C134.211 43.08 135.231 42.82 136.084 42.3C136.951 41.7667 137.618 41 138.084 40L142.844 41.44C142.018 43.3867 140.738 44.9 139.004 45.98C137.284 47.06 135.384 47.6 133.304 47.6ZM125.864 37.54V33.9H140.724V37.54H125.864ZM147.827 47V25.06C147.827 24.5133 147.847 23.9133 147.887 23.26C147.927 22.5933 148.04 21.9333 148.227 21.28C148.414 20.6267 148.754 20.0333 149.247 19.5C149.86 18.82 150.52 18.3533 151.227 18.1C151.947 17.8333 152.654 17.6867 153.347 17.66C154.04 17.62 154.647 17.6 155.167 17.6H157.867V21.52H155.367C154.447 21.52 153.76 21.7533 153.307 22.22C152.867 22.6733 152.647 23.2733 152.647 24.02V47H147.827ZM144.347 29.18V25.4H157.867V29.18H144.347ZM160.45 22.12V17.7H165.27V22.12H160.45ZM160.45 47V25.4H165.27V47H160.45ZM184.601 47V36.6C184.601 35.92 184.554 35.1667 184.461 34.34C184.368 33.5133 184.148 32.72 183.801 31.96C183.468 31.1867 182.961 30.5533 182.281 30.06C181.614 29.5667 180.708 29.32 179.561 29.32C178.948 29.32 178.341 29.42 177.741 29.62C177.141 29.82 176.594 30.1667 176.101 30.66C175.621 31.14 175.234 31.8067 174.941 32.66C174.648 33.5 174.501 34.58 174.501 35.9L171.641 34.68C171.641 32.84 171.994 31.1733 172.701 29.68C173.421 28.1867 174.474 27 175.861 26.12C177.248 25.2267 178.954 24.78 180.981 24.78C182.581 24.78 183.901 25.0467 184.941 25.58C185.981 26.1133 186.808 26.7933 187.421 27.62C188.034 28.4467 188.488 29.3267 188.781 30.26C189.074 31.1933 189.261 32.08 189.341 32.92C189.434 33.7467 189.481 34.42 189.481 34.94V47H184.601ZM169.621 47V25.4H173.921V32.1H174.501V47H169.621Z" fill="white"/>
</svg>
