<svg width="48" height="64" viewBox="0 0 48 64" fill="none" xmlns="http://www.w3.org/2000/svg">
<path d="M24.2412 21.8531C27.5666 23.7974 31.3446 25.0084 35.3705 25.2743C35.9281 25.3111 36.4904 25.3298 37.057 25.3298C40.523 25.3298 43.8312 24.6302 46.8574 23.36V13.078C43.8312 14.3483 40.523 15.0479 37.057 15.0479C32.3997 15.0479 28.0272 13.7847 24.2412 11.5711C24.1606 11.524 24.0803 11.4764 24.0002 11.4285V21.7069C24.0808 21.7552 24.1611 21.8039 24.2412 21.8531Z" fill="#1570EF"/>
<path d="M10.9434 48.9333C15.6007 48.9333 19.9733 50.1964 23.7593 52.4101C23.8503 52.4633 23.9409 52.517 24.0312 52.5713V42.2929C23.9403 42.2385 23.8496 42.1836 23.7594 42.1282C20.4339 40.1838 16.6559 38.9727 12.6299 38.7069C12.0723 38.67 11.51 38.6514 10.9434 38.6514C7.47747 38.6514 4.16923 39.3509 1.14307 40.6212V50.9031C4.16923 49.6329 7.47747 48.9333 10.9434 48.9333Z" fill="#1570EF"/>
<path d="M10.9434 33.5104C11.0577 33.5104 11.1718 33.5111 11.2857 33.5127C12.6716 33.5311 14.0316 33.6614 15.3574 33.8953C18.3644 34.4256 21.1962 35.4886 23.7592 36.9871C23.9209 37.0817 24.0816 37.178 24.2413 37.276C27.5667 39.2203 31.3446 40.4313 35.3705 40.6972C35.7243 40.7206 36.0799 40.7366 36.4374 40.7453C36.5297 40.7475 36.6222 40.7492 36.7147 40.7505C36.8287 40.752 36.9427 40.7527 37.057 40.7527C40.523 40.7527 43.8312 40.0532 46.8574 38.7829V28.501C43.8312 29.7712 40.523 30.4708 37.057 30.4708C36.9427 30.4708 36.8287 30.47 36.7147 30.4685C35.3288 30.4501 33.9689 30.3198 32.643 30.0859C29.636 29.5555 26.8042 28.4926 24.2412 26.9941C24.0795 26.8995 23.9188 26.8032 23.7592 26.7052C20.4338 24.7608 16.6558 23.5498 12.6299 23.2839C12.2761 23.2606 11.9205 23.2445 11.5631 23.2359C11.4707 23.2337 11.3783 23.2319 11.2857 23.2307C11.1718 23.2292 11.0577 23.2284 10.9434 23.2284C7.47747 23.2284 4.16923 23.928 1.14307 25.1983V35.4802C4.16923 34.2099 7.47747 33.5104 10.9434 33.5104Z" fill="#1570EF"/>
</svg>
