<svg width="1588" height="684" viewBox="0 0 1588 684" fill="none" xmlns="http://www.w3.org/2000/svg">
<path fill-rule="evenodd" clip-rule="evenodd" d="M84.25 146.759L0 293.441V325.887C0 343.733 0.176 358.146 0.392 357.917C0.819 357.462 202.934 5.921 204.878 2.25L206.07 0L187.285 0.038L168.5 0.077L84.25 146.759ZM177.951 308.25L0.5 615.5L0.265 648.5L0.03 681.5L3.265 675.945C5.044 672.89 85.025 534.403 181 368.195C276.975 201.988 355.742 66 356.037 66C356.935 66 430.52 194.104 430.227 195.157C430.034 195.853 178.806 632.049 152.277 677.75L149.81 682L168.655 681.985L187.5 681.971L271.5 536.033C317.7 455.768 355.725 390.079 356 390.059C356.275 390.038 367.975 409.913 382 434.224C396.025 458.536 412.75 487.527 419.166 498.649L430.831 518.871L386.353 596.185C361.89 638.708 340.759 675.413 339.395 677.75L336.916 682H355.738H374.56L420.726 601.75C446.117 557.612 467.168 520.768 467.505 519.874C467.905 518.816 451.834 490.051 421.512 437.547L374.904 356.846L420.986 276.916C446.331 232.954 467.316 196.34 467.619 195.551C468.15 194.166 357.37 1 356.044 1C355.691 1 275.549 139.262 177.951 308.25ZM618 195.08V278.16L657.75 277.754C700.056 277.321 703.221 276.989 713.126 271.936C730.029 263.313 738.456 237.656 730.963 217.63C726.927 206.845 719.501 199.521 709.356 196.323L703.993 194.633L710.181 191.326C718.497 186.884 721.492 183.801 725.631 175.429C735.765 154.932 727.62 127.322 708.697 118.03C697.985 112.769 690.803 112 652.412 112H618V195.08ZM684.177 140.737C690.803 143.692 694.293 149.237 694.829 157.66C695.31 165.217 693.37 171.313 689.218 175.291C684.646 179.671 678.754 181.228 664.75 181.756L652 182.236V159.99V137.744L665.75 138.197C676.849 138.563 680.402 139.053 684.177 140.737ZM791.452 159.396C775.845 163.188 760.606 175.548 753.72 190C747.298 203.477 745.503 218.75 748.573 233.792C751.073 246.043 756.027 255.236 764.897 264.086C776.811 275.973 789.223 281 806.661 281C818.317 281 824.671 279.685 833.5 275.444C842.036 271.344 848.628 265.774 853.334 258.684C856.976 253.198 860.593 245.26 859.809 244.476C859.117 243.784 836.334 237 834.703 237C833.9 237 832.693 238.328 832.021 239.95C826.067 254.323 803.678 258.518 789.139 247.986C784.5 244.626 780.008 237.512 778.982 231.903L778.269 228H819.615H860.962L861.623 225.366C862.579 221.558 861.313 205.502 859.506 198.5C854.209 177.982 839.607 163.751 819.5 159.511C811.15 157.75 798.442 157.698 791.452 159.396ZM908.451 159.461C898.475 161.273 890.845 165.32 884.518 172.154C878.224 178.952 875.726 185.385 875.668 194.947C875.609 204.617 878.234 211.364 884.486 217.617C890.656 223.787 896.366 226.824 911.803 232.147C925.73 236.949 928.207 238.176 930.912 241.615C933.385 244.759 933.563 248.01 931.483 252.033C929.294 256.266 924.716 258.323 918.76 257.751C912.309 257.131 908.858 254.47 907 248.682L905.5 244.01L890.111 244.005L874.721 244L875.342 249.241C876.174 256.265 881.087 265.942 886.136 270.504C895.891 279.317 912.161 283.413 928.648 281.207C950.218 278.321 963.679 265.548 964.787 246.915C965.438 235.971 963.255 229.208 956.908 222.496C950.538 215.76 943.845 212.265 926.339 206.533C911.542 201.687 907.615 199.298 906.384 194.395C905.347 190.263 908.601 184.908 913.208 183.164C921.721 179.942 933 185.49 933 192.9V196H948.14H963.28L962.72 190.575C961.008 173.989 947.989 161.625 929.5 159.024C920.711 157.788 917.267 157.859 908.451 159.461ZM1017.5 158.626C1006.77 160.74 1003.84 161.57 999.5 163.722C992.968 166.964 986.475 173.263 983.233 179.5C981.135 183.535 980.549 186.291 980.196 193.784C979.78 202.604 979.915 203.385 982.9 209.448C988.063 219.935 995.031 224.81 1014.62 231.637C1029.49 236.821 1032.18 238.145 1034.91 241.615C1040.41 248.599 1034.44 258 1024.52 258C1017.05 258 1011.72 253.861 1010.35 246.996L1009.75 244H994.375H979V246.318C979 250.416 982.089 259.363 985.191 264.247C991.185 273.688 1001.62 279.452 1015.98 281.266C1038.36 284.091 1058.08 275.717 1065.73 260.142C1068.22 255.065 1068.5 253.449 1068.5 244C1068.5 234.97 1068.18 232.899 1066.21 229.209C1060.92 219.303 1050.61 212.785 1030.19 206.441C1016.08 202.058 1012.49 200.019 1011.01 195.544C1008.85 188.989 1014.61 181.988 1022.15 182.006C1029.89 182.024 1037 187.329 1037 193.077V196H1052.52H1068.04L1067.58 193.75C1067.32 192.512 1066.83 189.7 1066.47 187.5C1065.58 181.947 1060.38 172.539 1056.14 168.817C1047.43 161.174 1029.11 156.34 1017.5 158.626ZM1124.65 159.584C1115.65 161.763 1105.81 167.453 1098.63 174.63C1069.99 203.269 1077.3 256.864 1112.23 274.347C1122.04 279.255 1129.59 281 1141 281C1163.94 281 1181.48 270.946 1190.54 252.608C1192.62 248.413 1194.08 244.75 1193.8 244.468C1193.52 244.186 1187.52 242.283 1180.47 240.238C1170.74 237.415 1167.56 236.833 1167.23 237.817C1166.34 240.472 1160.3 247.554 1157.06 249.741C1145.9 257.258 1127.69 254.461 1118.59 243.834C1115.58 240.318 1112 232.16 1112 228.818C1112 228.368 1130.65 228 1153.44 228H1194.88L1195.55 223.489C1196.34 218.256 1195.46 208.178 1193.45 199.266C1188.8 178.704 1173.75 163.81 1153.25 159.464C1144.81 157.677 1132.31 157.729 1124.65 159.584ZM1264.97 159.302C1257.49 160.991 1250.76 165.126 1246.57 170.606L1243.1 175.157L1242.8 168.829L1242.5 162.5L1226.75 162.225L1211 161.949V220V278.051L1226.75 277.775L1242.5 277.5L1243 238C1243.48 200.421 1243.6 198.305 1245.59 194.5C1250.29 185.491 1261.77 182.687 1270.51 188.414C1271.75 189.229 1273.83 192.057 1275.14 194.698C1277.48 199.462 1277.5 199.81 1277.81 238.75L1278.13 278H1294.02H1309.91L1310.21 238.25L1310.5 198.5L1312.96 194.201C1316.38 188.239 1320.88 185.665 1327.89 185.672C1334.84 185.678 1339.07 187.77 1342.15 192.726C1344.49 196.485 1344.5 196.659 1345 237L1345.5 277.5L1361.3 277.776L1377.09 278.051L1376.8 230.776L1376.5 183.5L1373.88 177.914C1366.8 162.81 1349.57 155.415 1330.56 159.318C1321 161.281 1315.06 164.738 1309.48 171.578L1305.36 176.634L1302.14 171.771C1295.15 161.208 1279.62 155.997 1264.97 159.302ZM1436.07 159.591C1415.57 165.101 1399.92 181.385 1394.34 203C1392.16 211.468 1392.17 227.365 1394.37 236C1399.93 257.87 1416.36 274.572 1437.1 279.463C1445.4 281.419 1460.95 281.424 1468.45 279.472C1477.52 277.109 1487.21 271.512 1493.32 265.102C1498.48 259.695 1505 248.799 1505 245.589C1505 244.609 1502.09 243.253 1496.25 241.51C1491.44 240.074 1485.62 238.287 1483.33 237.539L1479.17 236.179L1477.86 239.339C1475.55 244.92 1468.77 250.719 1462.4 252.572C1445.04 257.618 1426.91 247.569 1424.3 231.449L1423.74 228H1465.37H1507V217.66C1507 206.06 1504.67 194.981 1500.37 186.162C1496.77 178.788 1487.32 168.984 1480.09 165.131C1467.72 158.533 1448.84 156.158 1436.07 159.591ZM1577.34 159.041C1575.06 159.494 1571.39 160.779 1569.2 161.897C1564.69 164.2 1558.28 171.187 1557.21 174.973C1556.71 176.766 1556.35 175.321 1556 170L1555.5 162.5L1539.75 162.225L1524 161.949V219.975V278H1539.94H1555.88L1556.19 243.25C1556.47 211.618 1556.67 208.186 1558.36 205C1563.09 196.137 1569.94 191.917 1580.75 191.21L1588 190.737V174.368V158L1584.75 158.11C1582.96 158.17 1579.63 158.589 1577.34 159.041ZM819.364 187.368C824.925 190.626 828.963 196.306 829.717 201.928L830.263 206H804.632C784.781 206 779.005 205.718 779.022 204.75C779.064 202.356 783.136 194.48 785.809 191.624C787.289 190.041 790.75 187.656 793.5 186.322C797.811 184.231 799.614 183.947 806.592 184.261C813.201 184.558 815.542 185.128 819.364 187.368ZM1152.52 187.055C1158.09 189.923 1162.67 196.196 1163.67 202.322L1164.26 206H1138.52H1112.78L1113.47 203.25C1114.79 197.954 1117.29 193.916 1121.59 190.128C1127.19 185.202 1130.8 184.062 1140.03 184.303C1145.87 184.456 1148.66 185.071 1152.52 187.055ZM1463.62 186.79C1470.07 190.107 1473.8 195.132 1475.45 202.75L1476.16 206H1450.58H1425L1425.01 203.75C1425.02 200.404 1430.48 191.504 1434.1 188.926C1439.49 185.09 1443.95 183.942 1452 184.318C1457.13 184.558 1460.8 185.34 1463.62 186.79ZM687.624 210.745C695.745 215.013 699.614 222.582 698.785 232.582C698.182 239.855 695.209 244.947 689.491 248.5C684.719 251.466 684.478 251.504 668.332 251.836L652 252.172V229.981V207.79L667.75 208.184C681.504 208.528 684.023 208.852 687.624 210.745ZM606 317.754C606 318.691 660.389 472.601 662.535 477.737C663.84 480.862 664.132 481 669.414 481C673.885 481 675.13 480.626 675.988 479.023C677.009 477.114 735 318.245 735 317.355C735 317.113 731.547 317.047 727.328 317.208L719.656 317.5L695.336 385C681.96 422.125 670.675 453.299 670.257 454.275C669.735 455.496 661.972 434.415 645.401 386.775L621.303 317.5L613.652 317.208C609.443 317.047 606 317.293 606 317.754ZM979 352.46V365.919L970.75 366.21L962.5 366.5V372.5V378.5L970.699 378.79L978.898 379.079L979.199 420.29C979.495 460.882 979.535 461.575 981.804 466.5C986.71 477.15 993.2 481.169 1006.5 481.792C1011.57 482.03 1017.35 481.714 1019.75 481.069L1024 479.923V473.845C1024 468 1023.91 467.794 1021.75 468.469C1020.51 468.855 1015.9 469.385 1011.5 469.647C1004.68 470.052 1003.03 469.824 1000.3 468.105C993.519 463.834 993.532 463.926 993.207 419.277L992.915 379.054L1007.71 378.777L1022.5 378.5V372.5V366.5L1007.75 366.223L993 365.947V352.473V339H986H979V352.46ZM773 365.089C753.345 368.478 735.478 386.14 730.549 407.053C728.603 415.312 728.598 431.671 730.541 439.912C735.259 459.927 749.425 474.755 769.319 480.501C772.954 481.551 778.583 482.167 784.319 482.143C799.053 482.08 809.86 478.3 819.428 469.862C824.282 465.582 832 454.884 832 452.437C832 451.748 829.295 450.27 825.989 449.154L819.978 447.124L817.883 451.23C814.707 457.455 806.882 464.509 800.262 467.116C792.048 470.35 776.958 470.353 768.753 467.122C761.736 464.358 753.375 456.943 749.734 450.253C746.872 444.994 744.039 434.591 744.015 429.25L744 426H789H834V419.588C834 388.049 815.416 366.791 785.995 364.678C781.873 364.382 776.025 364.567 773 365.089ZM899.992 364.963C889.395 366.352 882.308 369.455 873.679 376.484L868 381.11V373.509V365.909L861.25 366.204L854.5 366.5V423.5V480.5L861.198 480.794L867.895 481.089L868.198 440.794L868.5 400.5L871.466 395.145C874.949 388.856 881.709 382.527 887.918 379.74C894.122 376.956 906.963 376.266 914.079 378.334C920.875 380.31 927.074 385.482 930.162 391.753C932.473 396.445 932.506 396.99 933 438.5L933.5 480.5L940.299 480.797L947.098 481.094L946.799 437.297L946.5 393.5L943.349 386.849C941.616 383.191 938.368 378.368 936.133 376.133C927.515 367.515 913.523 363.19 899.992 364.963ZM1203.44 364.992C1193.45 366.46 1183.9 372.492 1178.89 380.5L1177.01 383.5L1177 374.704L1177 365.909L1170.25 366.204L1163.5 366.5V423.5V480.5L1170.25 480.796L1177 481.091L1177.01 447.796C1177.01 429.483 1177.44 411.881 1177.96 408.679C1180.81 391.278 1192.25 379.835 1208.3 378.337L1215 377.711V370.855V364L1211.75 364.125C1209.96 364.193 1206.22 364.584 1203.44 364.992ZM1266 365.089C1246.34 368.478 1228.48 386.14 1223.55 407.053C1221.6 415.312 1221.6 431.671 1223.54 439.912C1228.26 459.927 1242.42 474.755 1262.32 480.501C1265.95 481.551 1271.58 482.167 1277.32 482.143C1292.05 482.08 1302.86 478.3 1312.43 469.862C1317.28 465.582 1325 454.884 1325 452.437C1325 451.748 1322.3 450.271 1318.99 449.155L1312.99 447.126L1311.36 450.313C1304.6 463.511 1290.5 470.936 1274.5 469.712C1256.05 468.301 1242.79 456.944 1238.54 438.913C1237.71 435.386 1237.02 431.038 1237.02 429.25L1237 426H1282H1327V419.588C1327 388.049 1308.42 366.791 1278.99 364.678C1274.87 364.382 1269.03 364.567 1266 365.089ZM1048.01 405.204C1048.02 446.898 1048.29 449.763 1052.98 459C1059.73 472.298 1071.05 479.948 1086.87 481.906C1102.2 483.803 1117.27 478.857 1127.58 468.551C1138.38 457.754 1139.16 453.239 1138.79 404L1138.5 366.5H1132H1125.5L1125 407.53L1124.5 448.559L1121.94 453.53C1118.86 459.514 1111.52 465.423 1104.57 467.516C1098.12 469.456 1087.55 469.406 1081.68 467.408C1075.3 465.233 1067.82 458.273 1064.89 451.779C1062.53 446.567 1062.49 445.992 1062 406.5L1061.5 366.5L1054.75 366.204L1048 365.909L1048.01 405.204ZM798.165 380.218C805.544 383.596 810.103 387.836 813.755 394.715C816.376 399.653 819 409.142 819 413.684C819 414.749 811.87 415 781.667 415H744.335L745.076 409.54C747.037 395.089 757.205 383.003 771.286 378.386C777.884 376.223 791.459 377.148 798.165 380.218ZM1291.17 380.218C1298.54 383.596 1303.1 387.836 1306.76 394.715C1309.38 399.653 1312 409.142 1312 413.684C1312 414.749 1304.87 415 1274.67 415H1237.33L1238.08 409.54C1240.07 394.866 1249.96 383.182 1264.5 378.338C1270.85 376.22 1284.54 377.185 1291.17 380.218ZM623 599.903V682H630H637V649V616L657.75 615.983C681.392 615.963 688.751 614.849 698.072 609.881C724.338 595.882 729.971 554.84 708.565 533.435C697.238 522.107 686.825 519.485 649.25 518.497L623 517.806V599.903ZM670.108 531.987C685.949 533.528 695.715 538.325 701.84 547.572C706.094 553.994 707.438 559.006 707.318 568C707.111 583.541 699.37 594.786 685 600.422C678.851 602.834 658.728 604.487 646.75 603.564L637 602.813V566.907V531L648.75 531.026C655.212 531.04 664.823 531.472 670.108 531.987ZM947.667 540.667C947.3 541.033 947 547.333 947 554.667V568H939H931V574V580H939H947L947.031 615.75C947.064 653.9 947.768 663.666 950.936 669.874C953.63 675.156 960.069 680.469 965.792 682.132C971.595 683.818 984.207 683.805 989.25 682.107C992.96 680.858 993 680.788 993 675.481C993 669.375 992.302 668.555 988.374 670.048C986.838 670.632 982.591 671.165 978.938 671.233C970.81 671.384 966.626 669.275 963.598 663.5C961.587 659.665 961.487 657.856 961.188 619.75L960.875 580H975.938H991V574.027V568.053L976.25 567.777L961.5 567.5L961.222 553.75L960.944 540H954.638C951.171 540 948.033 540.3 947.667 540.667ZM767.112 567.581C749.363 572.354 735.583 587.114 730.31 607C727.676 616.936 727.948 634.395 730.887 644C734.315 655.204 738.434 662.125 746.046 669.474C754.144 677.292 762.545 681.489 773.506 683.193C791.098 685.928 806.341 679.63 818.084 664.774L821.931 659.907L822.216 670.704L822.5 681.5L829.25 681.796L836 682.091V625.046V568H829H822V576.799V585.598L816.25 580.049C806.12 570.273 795.072 565.947 780.54 566.066C776.118 566.102 770.076 566.784 767.112 567.581ZM896.3 567.862C889.369 570.257 883.298 574.591 880.11 579.419L877.5 583.372L877.208 575.686L876.916 568H869.958H863V625.046V682.091L869.75 681.796L876.5 681.5L877.002 644C877.486 607.886 877.589 606.291 879.786 600.853C882.537 594.042 888.602 586.904 894.649 583.36C897.944 581.429 901.098 580.589 906.8 580.126L914.5 579.5L914.796 572.75L915.091 566L908.296 566.033C904.437 566.051 899.253 566.842 896.3 567.862ZM1055.27 567.542C1047.6 569.607 1040.39 573.558 1034.87 578.721L1030 583.274V575.637V568H1023H1016V625V682H1022.95H1029.9L1030.2 641.75C1030.5 601.851 1030.52 601.462 1032.82 597.155C1036.17 590.872 1043.25 584.232 1049.79 581.24C1054.58 579.045 1056.95 578.629 1064.98 578.57C1073.51 578.507 1075.11 578.798 1080.32 581.359C1084.09 583.207 1087.18 585.652 1089.08 588.273C1094.73 596.07 1095 598.52 1095 642.182V682H1102.05H1109.1L1108.8 638.75C1108.5 596.386 1108.45 595.384 1106.21 589.853C1100.25 575.095 1085.62 565.919 1068.28 566.066C1064 566.102 1058.14 566.766 1055.27 567.542ZM1165.98 568.276C1148.85 574.114 1135.33 588.838 1130.41 607C1128.23 615.024 1127.94 633.168 1129.87 641C1137.01 670.083 1164.25 688.018 1193.73 683.046C1208.6 680.537 1223.26 670.32 1229.42 658.16L1232.07 652.927L1228.48 651.428C1220.69 648.173 1219.89 648.406 1215.5 655.203C1210.95 662.24 1204.43 667.2 1196.72 669.489C1190.24 671.414 1177.81 671.431 1171.39 669.522C1156.59 665.129 1145.66 650.918 1144.25 634.25L1143.73 628H1188.36H1233V618.71C1233 602.321 1228.43 590.304 1218.38 580.212C1208.52 570.324 1196.97 565.975 1180.7 566.026C1174.9 566.044 1170.59 566.703 1165.98 568.276ZM1290.5 566.953C1281.92 569.094 1274.27 574.488 1269.89 581.5L1268.01 584.5L1268 576.25L1268 568H1261H1254V625.046V682.091L1260.75 681.796L1267.5 681.5L1268.03 644C1268.61 603.008 1268.65 602.725 1274.93 593.604C1281.07 584.683 1287.47 581.009 1298.5 580.086L1305.5 579.5L1305.8 572.75L1306.09 566L1299.8 566.102C1296.33 566.159 1292.15 566.541 1290.5 566.953ZM1346 567.37C1335.61 570.402 1327.28 576.756 1323.51 584.533C1320.74 590.239 1320.27 601.789 1322.56 607.783C1324.93 613.994 1332.17 621.552 1339.1 625.052C1342.2 626.617 1349.41 629.114 1355.12 630.602C1378 636.563 1385.1 642.523 1383.74 654.612C1382.67 664.077 1374.6 670.027 1361.79 670.792C1345.69 671.753 1335.31 664.994 1332.54 651.75C1331.98 649.068 1331.79 649 1324.98 649C1317.18 649 1317.31 648.829 1319.36 656.5C1323.62 672.456 1333.3 680.662 1350.89 683.225C1371.87 686.283 1391.71 677.416 1396.56 662.814C1400.31 651.518 1397.92 640.358 1389.86 631.533C1383.78 624.882 1378.52 622.291 1361.35 617.486C1340.65 611.69 1335 607.313 1335 597.059C1335 590.925 1338.17 585.571 1343.75 582.293C1348.14 579.715 1349.31 579.5 1359 579.5C1368.64 579.5 1369.88 579.724 1374.15 582.236C1379.14 585.169 1383 591.308 1383 596.316C1383 598.989 1383.03 599 1390.47 599H1397.95L1397.38 595.75C1394.85 581.485 1388.67 573.409 1376.72 568.751C1370.13 566.185 1352.74 565.403 1346 567.37ZM1196.37 581.038C1208.04 585.405 1216.69 597.305 1217.75 610.446L1218.27 617H1181.01H1143.74L1144.42 611.915C1146.54 595.939 1157.54 583.131 1172.38 579.351C1178.94 577.681 1189.36 578.414 1196.37 581.038ZM798.456 582.351C814.372 589.638 822.164 603.001 822.159 623C822.152 649.962 804.43 670.307 781 670.253C772.029 670.233 766.535 668.399 759.473 663.068C749.466 655.512 743.975 643.801 743.264 628.5C742.119 603.866 753.405 584.651 771.734 580.025C773.806 579.502 779.379 579.223 784.12 579.404C790.808 579.66 794.02 580.32 798.456 582.351Z" fill="white"/>
</svg>
