<svg width="119" height="32" viewBox="0 0 119 32" fill="none" xmlns="http://www.w3.org/2000/svg">
<path d="M110.545 16.8545C110.545 15.4364 109.709 14.3636 108.382 14.3636C107.055 14.3636 106.218 15.4364 106.218 16.8545C106.218 18.2727 107.055 19.3454 108.382 19.3454C109.709 19.3454 110.545 18.2727 110.545 16.8545ZM110.473 13.4182V9.6909C110.473 9.43635 110.636 9.23635 110.873 9.16362L112.836 8.63635V21.2182H110.655V20.1454C110.109 20.9454 109.109 21.4182 107.873 21.4182C105.327 21.4182 103.855 19.3818 103.855 16.8364C103.855 14.2909 105.345 12.2545 107.873 12.2545C109.127 12.2727 110.018 12.8 110.473 13.4182ZM97.0182 12.4727V13.5454C97.4182 12.8 98.3273 12.2727 99.6182 12.2727C101.727 12.2727 102.836 13.6727 102.836 15.7636V21.2364H100.473V16.0364C100.473 15.0182 100.036 14.3091 98.9818 14.3091C97.8364 14.3091 97.2 15.0364 97.2 16.2182V21.2364H94.8364V12.4909H97.0182V12.4727ZM89.2909 21.4364C86.7273 21.4364 85.3091 20.3273 85.3091 17.4909V12.4727H87.6728V17.5273C87.6728 18.7454 88.2182 19.3091 89.2728 19.3091C90.3273 19.3091 90.8727 18.7454 90.8727 17.5273V12.4727H93.2364V17.4909C93.2546 20.3273 91.8364 21.4364 89.2909 21.4364ZM77.4728 16.8545C77.4728 18.4182 78.4364 19.3454 79.6909 19.3454C80.9455 19.3454 81.9091 18.4182 81.9091 16.8545C81.9091 15.2909 80.9455 14.3636 79.6909 14.3636C78.4546 14.3636 77.4728 15.2727 77.4728 16.8545ZM79.6909 21.4364C76.8909 21.4364 75.0909 19.3454 75.0909 16.8545C75.0909 14.3636 76.8728 12.2727 79.6909 12.2727C82.4909 12.2727 84.2909 14.3636 84.2909 16.8545C84.2909 19.3454 82.5091 21.4364 79.6909 21.4364ZM67.8728 16.8545C67.8728 18.2727 68.7091 19.3454 70.0364 19.3454C71.3637 19.3454 72.2 18.2727 72.2 16.8545C72.2 15.4364 71.3637 14.3636 70.0364 14.3636C68.7091 14.3636 67.8728 15.4364 67.8728 16.8545ZM67.9455 20.2909V23.9273C67.9455 24.1818 67.7818 24.3818 67.5455 24.4545L65.5818 24.9636V12.4727H67.7637V13.5454C68.3091 12.7454 69.3091 12.2727 70.5455 12.2727C73.0909 12.2727 74.5637 14.3091 74.5637 16.8545C74.5637 19.4 73.0728 21.4364 70.5455 21.4364C69.2909 21.4364 68.4 20.8909 67.9455 20.2909ZM58.5273 16.2545V21.2364H56.1637V16.0364C56.1637 15.0727 55.8182 14.3091 54.7637 14.3091C53.6546 14.3091 53.0546 15.0182 53.0546 16.2V21.2364H50.6909V12.4727H52.8728V13.5454C53.2728 12.8 54.1455 12.2727 55.4 12.2727C56.5818 12.2727 57.4364 12.7454 57.9455 13.5091C58.7091 12.6545 59.6 12.2727 60.8546 12.2727C62.9637 12.2727 64.0364 13.7273 64.0364 15.7636V21.2364H61.6728V16.0364C61.6728 15.0727 61.3273 14.3091 60.2728 14.3091C59.1091 14.3091 58.5273 15.0364 58.5273 16.2545ZM42.7637 16.8545C42.7637 18.4182 43.7273 19.3454 44.9818 19.3454C46.2364 19.3454 47.2 18.4182 47.2 16.8545C47.2 15.2909 46.2364 14.3636 44.9818 14.3636C43.7273 14.3636 42.7637 15.2727 42.7637 16.8545ZM44.9818 21.4364C42.1818 21.4364 40.3818 19.3454 40.3818 16.8545C40.3818 14.3636 42.1637 12.2727 44.9818 12.2727C47.8 12.2727 49.5818 14.3636 49.5818 16.8545C49.5818 19.3454 47.7818 21.4364 44.9818 21.4364ZM28.0728 15.2727C28.0728 11.5636 30.6364 9.10908 34.0364 9.10908C37 9.10908 39.3273 10.8545 39.7818 13.7454H37.1818C36.8364 12.2545 35.6364 11.4182 34.0364 11.4182C31.8728 11.4182 30.6364 12.9273 30.6364 15.2545C30.6364 17.6 31.8546 19.0909 34.0364 19.0909C35.6182 19.0909 36.8182 18.2545 37.1818 16.7636H39.7818C39.3273 19.6545 37 21.4 34.0364 21.4C30.6364 21.4545 28.0728 18.9818 28.0728 15.2727Z" fill="white"/>
<path d="M4.72718 21.9636C4.12718 21.6 3.74536 20.9273 3.74536 20.2364V16.2909C3.74536 16.1455 3.78173 16 3.85445 15.8727C4.09082 15.4727 4.61809 15.3273 5.01809 15.5637L13.9272 20.7637C14.4545 21.0727 14.7635 21.6182 14.7635 22.2364V26.3273C14.7635 26.5091 14.709 26.6909 14.6181 26.8546C14.3272 27.3273 13.6908 27.4909 13.2181 27.2L4.72718 21.9636ZM18.0181 14.4727C18.5454 14.7818 18.8545 15.3273 18.8545 15.9455V24.2546C18.8545 24.5091 18.7272 24.7273 18.509 24.8546L16.5635 25.9455C16.5454 25.9637 16.509 25.9636 16.4908 25.9818V21.3818C16.4908 20.7818 16.1817 20.2364 15.6726 19.9273L7.85445 15.2546V10C7.85445 9.85456 7.89082 9.70911 7.96354 9.58184C8.19991 9.18184 8.72718 9.03638 9.12718 9.27274L18.0181 14.4727ZM21.909 8.32729C22.4363 8.63638 22.7454 9.18183 22.7454 9.80001V21.9273C22.7454 22.1818 22.5999 22.4 22.3817 22.5273L20.5272 23.5273V15.0909C20.5272 14.4909 20.2181 13.9455 19.709 13.6364L11.709 8.83638V3.90911C11.709 3.76365 11.7454 3.6182 11.8181 3.49093C12.0545 3.09093 12.5817 2.94547 12.9817 3.18183L21.909 8.32729Z" fill="white"/>
</svg>
