<svg width="258" height="80" viewBox="0 0 258 80" fill="none" xmlns="http://www.w3.org/2000/svg">
<path d="M2 52.7514V38.933C2 34.9916 3.50467 31.8101 6.51401 29.3883C9.52334 26.919 13.4966 25.6844 18.4338 25.6844C23.371 25.6844 27.3443 26.8952 30.3536 29.317C33.3629 31.6913 34.8676 34.8254 34.8676 38.7193V39.2891H27.3913V38.648C27.3913 36.6061 26.5684 34.9679 24.9227 33.7332C23.277 32.4511 21.114 31.8101 18.4338 31.8101C15.7536 31.8101 13.5907 32.4749 11.9449 33.8045C10.2992 35.0866 9.47632 36.8198 9.47632 39.0042V52.6089C9.47632 54.7933 10.2992 56.5503 11.9449 57.8799C13.5907 59.2095 15.7536 59.8743 18.4338 59.8743C21.114 59.8743 23.277 59.257 24.9227 58.0223C26.5684 56.7402 27.3913 55.0782 27.3913 53.0363V52.3953H34.8676V52.9651C34.8676 56.8589 33.3629 60.0168 30.3536 62.4386C27.3443 64.8129 23.371 66 18.4338 66C13.4966 66 9.52334 64.7891 6.51401 62.3673C3.50467 59.898 2 56.6927 2 52.7514Z" fill="white"/>
<path d="M53.9028 65.4302H46.4265V26.2542H53.9028V29.7444C56.4419 27.0377 59.9685 25.6844 64.4825 25.6844C68.9025 25.6844 72.4761 26.9665 75.2033 29.5307C77.9305 32.0475 79.2941 35.3953 79.2941 39.574V40.7137H71.8178V39.5028C71.8178 37.176 70.9949 35.324 69.3492 33.9469C67.7034 32.5223 65.5405 31.8101 62.8603 31.8101C60.1801 31.8101 58.0171 32.5223 56.3714 33.9469C54.7257 35.324 53.9028 37.176 53.9028 39.5028V65.4302Z" fill="white"/>
<path d="M88.4549 26.2542H96.0017L107.287 54.6746L118.572 26.2542H126.119L110.249 65.4302H104.324L88.4549 26.2542Z" fill="white"/>
<path d="M142.756 15.5698V52.1816C142.756 54.5084 143.579 56.3841 145.224 57.8087C146.87 59.1858 149.033 59.8743 151.713 59.8743C154.393 59.8743 156.556 59.1858 158.202 57.8087C159.848 56.3841 160.671 54.5084 160.671 52.1816V15.5698H168.147V52.0391C168.147 56.2179 166.642 59.5894 163.633 62.1536C160.624 64.7179 156.65 66 151.713 66C146.776 66 142.803 64.7179 139.793 62.1536C136.784 59.5894 135.279 56.2179 135.279 52.0391V15.5698H142.756Z" fill="white"/>
<path d="M195.858 66C190.92 66 186.971 64.8366 184.008 62.5098C181.046 60.1355 179.565 57.0014 179.565 53.1075V50.757H187.041V53.1788C187.041 55.1732 187.864 56.7877 189.51 58.0223C191.156 59.257 193.342 59.8743 196.069 59.8743C198.796 59.8743 201.006 59.257 202.699 58.0223C204.392 56.7402 205.238 55.0782 205.238 53.0363C205.238 51.4218 204.603 49.9497 203.334 48.6201C202.111 47.2905 200.583 46.1983 198.749 45.3436C196.916 44.4888 194.894 43.5154 192.684 42.4232C190.521 41.2835 188.522 40.1676 186.689 39.0754C184.855 37.9358 183.303 36.4162 182.033 34.5168C180.811 32.6173 180.2 30.4567 180.2 28.0349C180.2 24.1411 181.634 21.007 184.502 18.6327C187.37 16.2109 191.155 15 195.858 15C200.513 15 204.227 16.1634 207.002 18.4902C209.776 20.7696 211.163 23.8087 211.163 27.6075V29.5307H203.687V27.6075C203.687 25.6606 202.981 24.0936 201.571 22.9064C200.16 21.7193 198.232 21.1257 195.787 21.1257C193.342 21.1257 191.367 21.7193 189.862 22.9064C188.358 24.0461 187.605 25.5656 187.605 27.4651C187.605 29.0321 188.217 30.4804 189.439 31.8101C190.709 33.1397 192.26 34.2318 194.094 35.0866C195.975 35.9413 197.997 36.9385 200.16 38.0782C202.323 39.1704 204.321 40.2863 206.155 41.426C208.036 42.5656 209.588 44.1089 210.81 46.0559C212.08 47.9553 212.715 50.1159 212.715 52.5377C212.715 56.574 211.163 59.8268 208.059 62.2961C205.003 64.7654 200.936 66 195.858 66Z" fill="white"/>
<path d="M224.132 65.4302V15.5698H240.566C245.503 15.5698 249.477 16.8282 252.486 19.345C255.495 21.8142 257 25.0908 257 29.1746V51.8254C257 55.9092 255.495 59.2095 252.486 61.7263C249.477 64.1955 245.503 65.4302 240.566 65.4302H224.132ZM231.609 21.4818V59.5182H240.566C243.246 59.5182 245.409 58.8296 247.055 57.4525C248.701 56.0279 249.524 54.1522 249.524 51.8254V29.1033C249.524 26.824 248.701 24.9958 247.055 23.6187C245.409 22.1941 243.246 21.4818 240.566 21.4818H231.609Z" fill="white"/>
</svg>
