<svg width="190" height="76" viewBox="0 0 190 76" fill="none" xmlns="http://www.w3.org/2000/svg">
<g filter="url(#filter0_d_3105_12863)">
<path d="M75.6303 47.0005C74.7592 47.0005 74.0623 46.7516 73.5396 46.2539C73.0419 45.7561 72.793 45.0716 72.793 44.2005V20.8672H91.1236V23.9659H76.3396V32.1045H90.0036V35.1659H76.3396V43.9019H91.1236V47.0005H75.6303Z" fill="#E5E9EB"/>
<path d="M102.972 47.0005C100.931 47.0005 99.4505 46.5525 98.5296 45.6565C97.6336 44.7605 97.1856 43.317 97.1856 41.3259V31.3952H93.9003V28.3712H97.223V22.7339H100.658V28.3712H105.511V31.3952H100.658V41.2512C100.658 42.2219 100.844 42.9187 101.218 43.3419C101.616 43.765 102.251 43.9765 103.122 43.9765H105.511V47.0005H102.972Z" fill="#E5E9EB"/>
<path d="M109.977 20.8672H113.449V30.7232C114.021 29.9267 114.743 29.2921 115.614 28.8192C116.485 28.3214 117.344 28.0725 118.19 28.0725H120.729C122.521 28.0725 123.965 28.6699 125.06 29.8645C126.18 31.0592 126.74 32.6272 126.74 34.5685V47.0005H123.268V34.5685C123.268 33.5481 123.006 32.7267 122.484 32.1045C121.961 31.4574 121.277 31.1339 120.43 31.1339H118.041C116.971 31.1339 116 31.5445 115.129 32.3659C114.258 33.1623 113.698 34.2076 113.449 35.5019V47.0005H109.977V20.8672Z" fill="#E5E9EB"/>
<path d="M138.276 47.2992C136.086 47.2992 134.319 46.677 132.975 45.4325C131.655 44.1632 130.996 42.5081 130.996 40.4672V35.3152C130.996 33.125 131.655 31.3703 132.975 30.0512C134.319 28.7321 136.086 28.0725 138.276 28.0725H141.337C143.453 28.0725 145.158 28.7196 146.452 30.0139C147.746 31.3081 148.393 33.0254 148.393 35.1659V38.6752H134.468V40.4672C134.468 41.6121 134.816 42.533 135.513 43.2299C136.21 43.9267 137.131 44.2752 138.276 44.2752H141.151C142.271 44.2752 143.179 43.989 143.876 43.4165C144.573 42.8192 144.921 42.0352 144.921 41.0645H148.319C148.319 42.9312 147.659 44.437 146.34 45.5819C145.021 46.7267 143.279 47.2992 141.113 47.2992H138.276ZM144.921 35.9125V35.1659C144.921 33.9214 144.585 32.9259 143.913 32.1792C143.266 31.4325 142.407 31.0592 141.337 31.0592H138.276C137.131 31.0592 136.21 31.4574 135.513 32.2539C134.816 33.0254 134.468 34.0583 134.468 35.3525V35.9125H144.921Z" fill="#E5E9EB"/>
<path d="M152.67 28.3712H155.992V30.9472C156.54 30.101 157.262 29.4165 158.158 28.8939C159.079 28.3463 159.987 28.0725 160.883 28.0725H163.347C165.139 28.0725 166.583 28.6699 167.678 29.8645C168.798 31.0592 169.358 32.6272 169.358 34.5685V47.0005H165.886V34.5685C165.886 33.5481 165.624 32.7267 165.102 32.1045C164.579 31.4574 163.895 31.1339 163.048 31.1339H160.734C159.663 31.1339 158.693 31.5445 157.822 32.3659C156.951 33.1872 156.391 34.2574 156.142 35.5765V47.0005H152.67V28.3712Z" fill="#E5E9EB"/>
<path d="M179.925 47.2992C178.058 47.2992 176.565 46.8263 175.445 45.8805C174.325 44.9099 173.765 43.6281 173.765 42.0352V40.8032C173.765 39.2352 174.35 37.9783 175.52 37.0325C176.69 36.0619 178.22 35.5765 180.112 35.5765H182.464C183.21 35.5765 184.007 35.6885 184.853 35.9125C185.699 36.1365 186.421 36.4476 187.018 36.8459V34.1205C187.018 33.1996 186.732 32.4654 186.16 31.9179C185.587 31.3454 184.841 31.0592 183.92 31.0592H180.858C179.913 31.0592 179.153 31.2832 178.581 31.7312C178.009 32.1792 177.722 32.7641 177.722 33.4859H174.288C174.288 31.8681 174.885 30.5614 176.08 29.5659C177.299 28.5703 178.892 28.0725 180.858 28.0725H183.92C185.886 28.0725 187.466 28.6325 188.661 29.7525C189.856 30.8476 190.453 32.3036 190.453 34.1205V47.0005H187.205V44.4992C186.633 45.3454 185.886 46.0299 184.965 46.5525C184.044 47.0503 183.111 47.2992 182.165 47.2992H179.925ZM182.352 44.4245C183.447 44.4245 184.418 44.1134 185.264 43.4912C186.11 42.8441 186.695 41.9854 187.018 40.9152V39.7952C186.546 39.3721 185.898 39.0361 185.077 38.7872C184.256 38.5383 183.409 38.4139 182.538 38.4139H180.149C179.278 38.4139 178.569 38.6379 178.021 39.0859C177.473 39.5339 177.2 40.1312 177.2 40.8779V41.9979C177.2 42.7445 177.461 43.3419 177.984 43.7899C178.531 44.213 179.253 44.4245 180.149 44.4245H182.352Z" fill="#E5E9EB"/>
</g>
<path d="M20.3677 57.8553C10.2832 54.2669 4.1452 47.2877 2.54477 36.7464C0.924748 26.076 6.00837 16.0296 15.2968 10.6442C24.7535 5.16121 36.9848 6.35641 45.1764 13.6482C51.4044 19.1921 54.3513 26.2033 54.0024 34.5226C53.4893 46.758 43.8665 57.1823 31.7544 58.7885C27.9017 59.2994 24.1326 58.9918 20.3677 57.8553ZM28.4903 22.9176C32.0275 22.9176 35.5647 22.9176 39.1695 22.9176C39.1695 24.959 39.1695 26.9267 39.1695 28.8892C40.0392 28.8892 40.8399 28.8892 41.6259 28.8892C41.6259 26.0347 41.6259 23.2289 41.6259 20.4251C41.5036 20.4122 41.4343 20.3986 41.365 20.3986C35.1608 20.3974 28.9565 20.392 22.7523 20.4143C22.4825 20.4153 22.1401 20.6071 21.9558 20.8185C20.3643 22.6441 18.7998 24.4934 17.2302 26.3381C15.3189 28.5844 13.4104 30.8332 11.4954 33.0871C11.667 33.3059 11.804 33.4939 11.9545 33.6705C15.265 37.5551 18.5825 41.4339 21.8798 45.3298C22.184 45.6893 22.4895 45.8184 22.9483 45.8174C28.9427 45.8042 34.937 45.8086 40.9314 45.8086C41.1582 45.8086 41.385 45.8086 41.6288 45.8086C41.6288 42.9258 41.6288 40.1225 41.6288 37.2987C40.7932 37.2987 40.0084 37.2987 39.1401 37.2987C39.1401 39.2976 39.1401 41.2653 39.1401 43.2438C34.6408 43.2438 30.2255 43.2438 25.6709 43.2438C28.6471 39.7988 31.5434 36.4463 34.4364 33.0977C31.5082 29.7104 28.6213 26.3708 25.6363 22.9176C26.6442 22.9176 27.4973 22.9176 28.4903 22.9176Z" fill="white"/>
<path d="M28.4201 22.9189C27.497 22.9189 26.644 22.9189 25.6361 22.9189C28.6211 26.372 31.508 29.7116 34.4361 33.099C31.5432 36.4476 28.6469 39.8001 25.6706 43.245C30.2253 43.245 34.6406 43.245 39.1398 43.245C39.1398 41.2666 39.1398 39.2989 39.1398 37.3C40.0082 37.3 40.793 37.3 41.6286 37.3C41.6286 40.1238 41.6286 42.9271 41.6286 45.8099C41.3847 45.8099 41.1579 45.8099 40.9311 45.8099C34.9368 45.8099 28.9424 45.8055 22.9481 45.8187C22.4893 45.8197 22.1838 45.6906 21.8795 45.3311C18.5823 41.4352 15.2648 37.5564 11.9542 33.6718C11.8038 33.4952 11.6667 33.3072 11.4951 33.0884C13.4102 30.8345 15.3187 28.5857 17.23 26.3394C18.7996 24.4947 20.3641 22.6454 21.9556 20.8198C22.1398 20.6084 22.4823 20.4166 22.7521 20.4156C28.9563 20.3933 35.1605 20.3987 41.3648 20.3999C41.4341 20.3999 41.5033 20.4135 41.6256 20.4264C41.6256 23.2301 41.6256 26.036 41.6256 28.8905C40.8397 28.8905 40.039 28.8905 39.1692 28.8905C39.1692 26.928 39.1692 24.9603 39.1692 22.9189C35.5645 22.9189 32.0273 22.9189 28.4201 22.9189ZM15.9903 31.6986C15.6004 32.1565 15.2105 32.6144 14.7929 33.1049C17.4962 36.2788 20.1758 39.4248 22.8858 42.6064C25.6575 39.4004 28.3777 36.2541 31.105 33.0995C28.3495 29.914 25.6306 26.771 22.8813 23.5928C20.575 26.3069 18.3157 28.9656 15.9903 31.6986Z" fill="#1F1F1F"/>
<path d="M16.0235 31.6624C18.3158 28.9665 20.5751 26.3078 22.8814 23.5938C25.6307 26.772 28.3496 29.915 31.1051 33.1004C28.3778 36.255 25.6576 39.4014 22.8859 42.6074C20.1759 39.4257 17.4964 36.2798 14.793 33.1059C15.2106 32.6154 15.6005 32.1575 16.0235 31.6624Z" fill="white"/>
<defs>
<filter id="filter0_d_3105_12863" x="48.793" y="0.867188" width="165.66" height="74.4297" filterUnits="userSpaceOnUse" color-interpolation-filters="sRGB">
<feFlood flood-opacity="0" result="BackgroundImageFix"/>
<feColorMatrix in="SourceAlpha" type="matrix" values="0 0 0 0 0 0 0 0 0 0 0 0 0 0 0 0 0 0 127 0" result="hardAlpha"/>
<feOffset dy="4"/>
<feGaussianBlur stdDeviation="12"/>
<feComposite in2="hardAlpha" operator="out"/>
<feColorMatrix type="matrix" values="0 0 0 0 0 0 0 0 0 0 0 0 0 0 0 0 0 0 0.25 0"/>
<feBlend mode="normal" in2="BackgroundImageFix" result="effect1_dropShadow_3105_12863"/>
<feBlend mode="normal" in="SourceGraphic" in2="effect1_dropShadow_3105_12863" result="shape"/>
</filter>
</defs>
</svg>
