<svg width="584" height="92" viewBox="0 0 584 92" fill="none" xmlns="http://www.w3.org/2000/svg">
<path fill-rule="evenodd" clip-rule="evenodd" d="M0.667 0.667C0.3 1.033 0 3.517 0 6.187C0 9.942 1.014 13.059 4.482 19.963L8.963 28.887L4.732 29.193L0.5 29.5V60V90.5L45.75 90.76L91 91.02V45.51V0H60.5H30L29.882 3.25C29.816 5.038 29.816 6.837 29.882 7.25C30.11 8.697 27.887 7.966 20 4C13.678 0.822 10.944 0 6.689 0C3.743 0 1.033 0.3 0.667 0.667ZM20.823 7.467L30 11.933V19.467C30 23.61 29.88 27 29.734 27C29.588 27 24.083 21.6 17.5 15C6.09 3.56 5.674 3 8.588 3C10.27 3 15.775 5.01 20.823 7.467ZM59 15.5C59 22.375 58.836 28 58.635 28C58.434 28 52.907 22.375 46.352 15.5L34.433 3H46.717H59V15.5ZM88 15C88 21.6 87.854 27 87.675 27C87.496 27 82.055 21.6 75.583 15L63.815 3H75.908H88V15ZM15.5 17L27.469 29H19.959H12.45L7.725 20.013C5.125 15.069 3 9.672 3 8.013C3 6.356 3.12 5 3.266 5C3.412 5 8.917 10.4 15.5 17ZM73.984 17.283L85.467 29H73.734H62V16.833C62 10.142 62.112 4.869 62.25 5.117C62.388 5.364 67.668 10.839 73.984 17.283ZM44.452 17.639L55.403 29H43.702H32V17.5C32 11.175 32.337 6.063 32.75 6.139C33.163 6.216 38.428 11.391 44.452 17.639ZM229.75 20.303C225.339 21.538 225.135 22.203 228.497 24.406L230.994 26.042L230.698 44.292C230.535 54.329 230.059 63.095 229.642 63.771C229.224 64.447 228.009 65 226.941 65C225.873 65 225 65.45 225 66C225 66.625 231 67 241 67C256.664 67 260.048 66.258 254 64.15L251 63.104V49.082V35.06L247.36 37.53C245.359 38.889 243.334 40 242.86 40C241.181 40 242.033 41.54 244.25 42.513C246.329 43.425 246.522 44.236 246.786 53.196C247.049 62.144 246.911 62.977 244.993 64.004C243.85 64.615 241.247 64.977 239.208 64.808L235.5 64.5L235.231 41.75C235.083 29.237 234.633 19.057 234.231 19.126C233.829 19.196 231.813 19.725 229.75 20.303ZM246.179 22.284C244.364 24.472 247.273 27.874 249.691 26.391C252.194 24.856 252.018 21.574 249.412 21.202C248.264 21.038 246.809 21.525 246.179 22.284ZM150 22.921C150 23.427 151.35 24.138 153 24.5L156 25.159V44.604V64.05L153 64.65C147.001 65.85 150.222 67 159.583 67C166.611 67 169.06 66.679 168.765 65.796C168.545 65.134 166.932 64.221 165.182 63.767L162 62.943V53.471V44H170.087C178.154 44 178.176 44.007 179.306 47C181.142 51.864 182 50.484 182 42.667C182 34.171 180.967 32.172 179.413 37.66L178.325 41.5L170.163 41.79L162 42.081V33.04V24H171.8C182.19 24 184 24.688 184 28.641C184 29.874 184.45 31.16 185 31.5C185.616 31.881 186 30.177 186 27.059V22H168C157.702 22 150 22.394 150 22.921ZM336 23C336 23.55 337.121 24 338.492 24C339.862 24 341.472 24.788 342.07 25.75C342.668 26.712 347.12 36.483 351.963 47.461C356.806 58.44 361.216 67.572 361.765 67.755C362.313 67.938 363.075 66.836 363.459 65.306C364.437 61.41 377.835 28.984 379.596 26.25C380.394 25.013 381.909 24 382.964 24C384.019 24 385.16 23.55 385.5 23C385.895 22.361 382.844 22 377.059 22C371.686 22 368 22.407 368 23C368 23.55 369.364 24 371.031 24C372.979 24 374.299 24.617 374.725 25.725C375.399 27.483 370 44.272 365.585 54.144C363.565 58.661 363.071 59.187 362.43 57.5C362.013 56.4 359.032 49.494 355.807 42.154C348.44 25.39 348.328 24.597 353.25 24.19C355.313 24.019 357 23.456 357 22.94C357 22.413 352.384 22 346.5 22C340.167 22 336 22.397 336 23ZM460 32.6C460 33.48 458.425 35.775 456.5 37.7C452.423 41.777 452.345 42 455 42C456.879 42 457 42.667 457 53C457 62.667 457.242 64.242 459 66C461.238 68.238 465.613 68.589 469.453 66.839C472.28 65.552 473.027 63.363 470.25 64.506C462.884 67.539 462 66.299 462 52.932V42.11L466.672 41.805C473.344 41.37 473.691 39 467.083 39H462V35C462 32.8 461.55 31 461 31C460.45 31 460 31.72 460 32.6ZM29.817 44.25C30.005 51.206 29.748 56 29.187 56C28.317 56 6 33.215 6 32.327C6 32.112 11.287 32.063 17.75 32.218L29.5 32.5L29.817 44.25ZM59 45.529V59.058L45.75 58.779L32.5 58.5L32.221 45.25L31.942 32H45.471H59V45.529ZM88 45.5V59H75H62V45.5V32H75H88V45.5ZM15.954 47.14L27.407 59H15.204H3V47C3 40.4 3.337 35.063 3.75 35.14C4.163 35.217 9.654 40.617 15.954 47.14ZM515.597 38.493C514.705 39.854 512.855 41.249 511.487 41.593C508.386 42.371 508.228 44.751 511.25 45.18C513.403 45.486 513.5 45.909 513.5 55C513.5 61.867 513.154 64.535 512.25 64.625C511.563 64.694 510.325 64.806 509.5 64.875C508.675 64.944 508 65.45 508 66C508 66.6 512 67 518 67C528.405 67 531.282 65.719 523.5 64.552L519 63.877V55.55C519 48.885 519.376 46.757 520.883 44.897C522.519 42.876 523.094 42.722 525.283 43.719C528.669 45.262 531.554 43.322 530.555 40.174C529.553 37.017 525.475 37.371 521.923 40.923L519 43.846V40.482C519 36.152 517.648 35.362 515.597 38.493ZM197.31 40.077C190.509 44.433 188.25 54.839 192.786 60.915C196.474 65.855 199.775 67.5 206 67.5C212.225 67.5 215.526 65.855 219.214 60.915C223.795 54.78 221.459 44.301 214.561 40.038C210.079 37.268 201.666 37.287 197.31 40.077ZM298.691 40.028C296.755 41.551 296 43.058 296 45.398C296 49.302 298.562 51.919 305.213 54.807C313.053 58.213 313.181 65.5 305.4 65.5C301.985 65.5 301.217 65.032 299.009 61.604L296.5 57.708L296.182 61.486C296.007 63.563 296.328 65.728 296.897 66.297C297.465 66.865 300.401 67.535 303.421 67.785C308.494 68.206 309.146 68.008 311.957 65.197C317.309 59.845 315.042 53.236 306.724 49.946C300.242 47.382 298.298 43.845 301.571 40.571C303.955 38.188 305.941 38.657 309.516 42.449C313.246 46.403 314.001 46.248 313.08 41.716C312.448 38.61 312.237 38.49 306.904 38.206C302.502 37.971 300.837 38.341 298.691 40.028ZM393.509 40.171C390.091 42.86 387.051 49.347 387.022 54.016C386.975 61.468 393.306 68.025 400.5 67.976C403.837 67.954 411.354 64.854 412.477 63.038C413.699 61.06 412.253 60.709 409.842 62.398C406.926 64.441 400.106 64.463 397.217 62.439C394.281 60.383 392 55.84 392 52.05V49H402C412.76 49 413.404 48.614 410.883 43.684C407.848 37.749 398.891 35.938 393.509 40.171ZM420.558 41.563L416.617 45.043L418.808 46.578C420.75 47.939 421 49.016 421 56.038C421 63.656 420.904 63.986 418.5 64.589C413.633 65.811 416.099 67 423.5 67C430.826 67 433.378 65.814 428.619 64.619C425.699 63.886 425.031 61.599 425.014 52.273C425.001 45.825 425.248 44.883 427.302 43.538C431.349 40.886 435.313 40.623 438.032 42.825C440.287 44.651 440.514 45.606 440.788 54.424L441.086 64.033L438.043 64.641C432.512 65.748 434.879 67 442.5 67C450.168 67 452.193 65.784 447.5 64C445.056 63.071 445 62.819 445 52.699C445 43.173 444.816 42.175 442.686 40.174C439.746 37.413 434.692 37.345 429.739 40C427.686 41.1 425.823 42 425.597 42C425.372 42 425.423 41.1 425.71 40C426.454 37.155 425.078 37.573 420.558 41.563ZM540.401 40.02C533.114 44.689 531.703 58.165 537.857 64.319C540.692 67.154 541.662 67.5 546.769 67.5C551.161 67.5 553.259 66.958 555.75 65.182C559.511 62.499 560.221 59.97 556.535 62.385C553.224 64.554 545.811 64.48 543.073 62.25C540.572 60.213 538.043 53.552 538.747 50.859C539.18 49.205 540.324 49 549.117 49C555.351 49 559 48.612 559 47.95C559 45.941 555.997 41.111 553.783 39.561C550.697 37.399 544.14 37.624 540.401 40.02ZM567.691 40.028C565.725 41.575 565 43.049 565 45.501C565 49.367 566.948 51.672 571.96 53.735C581.702 57.745 583.079 66.708 573.817 65.818C571.228 65.57 569.956 64.648 568.002 61.604L565.5 57.708L565.182 61.486C565.007 63.563 565.328 65.728 565.897 66.297C566.465 66.865 569.401 67.535 572.421 67.785C577.494 68.206 578.146 68.008 580.957 65.197C582.686 63.468 584 61.1 584 59.712C584 56.36 580.387 52.056 576.082 50.279C569.266 47.466 567.242 43.901 570.571 40.571C572.98 38.163 574.947 38.664 578.701 42.644L582.138 46.289L581.819 42.394L581.5 38.5L575.941 38.206C571.501 37.971 569.84 38.338 567.691 40.028ZM211.81 41.256C217.522 45.993 217.083 61.744 211.15 64.92C208.597 66.286 203.451 66.312 200.945 64.97C193.729 61.109 194.671 43.169 202.256 39.991C204.917 38.877 209.705 39.511 211.81 41.256ZM258 39.93C258 40.442 259.012 41.005 260.25 41.18C262.359 41.48 262.507 42.002 262.606 49.5C262.776 62.378 262.882 62.973 265.455 65.545C268.576 68.667 272.291 68.667 277.75 65.546L282 63.116V65.641C282 67.271 282.443 67.983 283.25 67.648C283.938 67.363 286.188 66.579 288.25 65.907C292.682 64.461 293.072 63.256 289.25 62.816L286.5 62.5L286.826 50.75L287.152 39H281.076C274.732 39 272.609 40.643 278.25 41.187L281.5 41.5L281.79 50.965C282.062 59.824 281.934 60.543 279.79 62.193C276.548 64.688 269.397 64.611 268.035 62.066C267.466 61.002 267 55.377 267 49.566V39H262.5C260.025 39 258 39.419 258 39.93ZM405.061 41.061C406.21 42.21 406.985 44.092 406.811 45.311C406.527 47.31 405.915 47.504 399.75 47.548C391.97 47.603 391.271 46.575 395.923 41.923C399.364 38.482 402.213 38.213 405.061 41.061ZM473 40C473 40.55 473.9 41 475 41C476.838 41 477 41.669 477.006 49.25C477.009 53.787 477.476 59.174 478.044 61.221C479.877 67.818 485.55 69.791 491.774 65.996C495.172 63.925 497.086 63.458 496.882 64.75C496.432 67.598 497.102 67.875 501.055 66.48C507.188 64.317 507.887 63.612 504.5 63.006L501.5 62.47L501.459 50.985L501.417 39.5L495.709 39.2C492.198 39.016 490 39.304 490 39.95C490 40.528 491.302 41 492.893 41C494.609 41 496.033 41.644 496.393 42.582C497.248 44.811 497.121 59.272 496.235 60.6C493.78 64.276 484.755 65.278 483.035 62.066C482.466 61.002 482 55.377 482 49.566V39H477.5C475.025 39 473 39.45 473 40ZM551.545 41.455C554.238 44.147 554.713 46.513 552.714 47.28C551.648 47.689 540.128 47.562 539.224 47.131C538.266 46.675 542.502 40.737 544.302 40.012C547.784 38.61 548.928 38.838 551.545 41.455ZM29.935 73.557C30.022 79.851 29.742 85 29.312 85C28.461 85 6.001 62.859 5.998 62.016C5.997 61.732 11.347 61.638 17.886 61.807L29.776 62.114L29.935 73.557ZM79.75 71.277C87.226 79.231 88 80.426 88 84.027C88 87.948 87.951 88 84.269 88C80.899 88 79.639 87.105 71.269 78.77C62.624 70.161 62 69.267 62 65.492V61.444L66.75 61.972C71.192 62.466 72.036 63.07 79.75 71.277ZM88 68.988V75.806L81.5 69.073C77.925 65.37 74.999 62.151 74.998 61.92C74.997 61.689 77.922 61.651 81.498 61.835L88 62.171V68.988ZM59 75V88H45.5H32V75V62H45.5H59V75ZM15.5 76L27.469 88H15.234H3V76C3 69.4 3.12 64 3.266 64C3.412 64 8.917 69.4 15.5 76ZM69.5 81L76.446 88H69.223H62V81C62 77.15 62.125 74 62.277 74C62.429 74 65.68 77.15 69.5 81Z" fill="white"/>
</svg>
