<svg width="104" height="104" viewBox="0 0 104 104" fill="none" xmlns="http://www.w3.org/2000/svg">
<g clip-path="url(#clip0_1423_807)">
<path d="M104 52C104 23.2812 80.7188 0 52 0C23.2812 0 0 23.2812 0 52C0 80.7188 23.2812 104 52 104C80.7188 104 104 80.7188 104 52Z" fill="url(#paint0_linear_1423_807)"/>
<g style="mix-blend-mode:screen" opacity="0.8">
<path fill-rule="evenodd" clip-rule="evenodd" d="M81.0794 77.314V66.996L81.0518 66.9952L73.9505 50.6298H62.5881L69.3347 66.6402H47.3371C43.0954 66.6402 39.0923 64.9697 36.0653 61.9366C33.0383 58.9019 31.369 54.8902 31.369 50.6404C31.369 46.3906 33.0383 42.3789 36.0653 39.3458C39.0919 36.3128 43.0954 34.6423 47.3371 34.6423L68.2968 34.6191L63.8585 23.9453L47.3371 23.9685C32.6601 23.9685 20.1846 35.9321 20.1846 50.6404C20.1846 65.3487 32.6601 77.314 47.3371 77.314H81.0794ZM45.5533 49.2067C48.4949 49.2067 50.8792 46.8172 50.8792 43.8698C50.8792 40.9225 48.4949 38.5329 45.5533 38.5329C42.6116 38.5329 40.2273 40.9225 40.2273 43.8698C40.2273 46.8172 42.6116 49.2067 45.5533 49.2067ZM50.8792 57.5678C50.8792 60.5151 48.4949 62.9047 45.5533 62.9047C42.6116 62.9047 40.2273 60.5151 40.2273 57.5678C40.2273 54.6204 42.6116 52.2309 45.5533 52.2309C48.4949 52.2309 50.8792 54.6204 50.8792 57.5678Z" fill="white"/>
<path d="M81.0794 66.9968H82.095V66.0117L81.1103 65.9816L81.0794 66.9968ZM81.0794 77.3148V78.3304H82.095V77.3148H81.0794ZM81.0518 66.996L80.1198 67.4002L80.3766 67.9913L81.0209 68.0112L81.0518 66.996ZM73.9505 50.6307L74.8825 50.226L74.6172 49.615H73.9505V50.6307ZM62.5881 50.6307V49.615H61.0582L61.6525 51.0247L62.5881 50.6307ZM69.3347 66.641V67.6566H70.8647L70.2707 66.2465L69.3347 66.641ZM47.3371 34.6431V35.6587H47.3379L47.3371 34.6431ZM68.2968 34.6199L68.298 35.6356L69.8186 35.6339L69.2348 34.2299L68.2968 34.6199ZM63.8585 23.9461L64.7961 23.5561L64.5357 22.9297L63.8568 22.9305L63.8585 23.9461ZM47.3371 23.9693V24.9849H47.3383L47.3371 23.9693ZM80.0638 66.9968V77.3148H82.095V66.9968H80.0638ZM81.0209 68.0112L81.0485 68.0121L81.1103 65.9816L81.0827 65.9808L81.0209 68.0112ZM73.019 51.0349L80.1198 67.4002L81.9833 66.5918L74.8825 50.226L73.019 51.0349ZM62.5881 51.6463H73.9505V49.615H62.5881V51.6463ZM70.2707 66.2465L63.5241 50.2362L61.6525 51.0247L68.3987 67.0354L70.2707 66.2465ZM47.3371 67.6566H69.3347V65.6253H47.3371V67.6566ZM35.3462 62.6548C38.5617 65.8768 42.8229 67.6566 47.3371 67.6566V65.6253C43.3684 65.6253 39.6224 64.0645 36.7839 61.22L35.3462 62.6548ZM30.3534 50.6412C30.3534 55.1628 32.1312 59.4317 35.3462 62.6548L36.7844 61.2204C33.9451 58.3738 32.3847 54.6192 32.3847 50.6412H30.3534ZM35.3462 38.6292C32.1312 41.8508 30.3534 46.1197 30.3534 50.6412H32.3847C32.3847 46.6628 33.9451 42.9087 36.7844 40.0641L35.3462 38.6292ZM47.3371 33.6275C42.8229 33.6275 38.5617 35.4072 35.3462 38.6292L36.7844 40.0641C39.6228 37.2195 43.3684 35.6587 47.3371 35.6587V33.6275ZM68.2955 33.6043L47.3359 33.6275L47.3379 35.6587L68.298 35.6356L68.2955 33.6043ZM62.9204 24.3361L67.3591 35.0099L69.2348 34.2299L64.7961 23.5561L62.9204 24.3361ZM47.3383 24.9849L63.8597 24.9617L63.8568 22.9305L47.3355 22.9537L47.3383 24.9849ZM21.2002 50.6412C21.2002 36.5179 33.1968 24.9849 47.3371 24.9849V22.9537C32.1234 22.9537 19.1689 35.3479 19.1689 50.6412H21.2002ZM47.3371 76.2992C33.1968 76.2992 21.2002 64.7645 21.2002 50.6412H19.1689C19.1689 65.9345 32.1234 78.3304 47.3371 78.3304V76.2992ZM81.0794 76.2992H47.3371V78.3304H81.0794V76.2992ZM49.8636 43.8707C49.8636 46.259 47.9319 48.1919 45.5533 48.1919V50.2232C49.0576 50.2232 51.8948 47.377 51.8948 43.8707H49.8636ZM45.5533 39.5494C47.9319 39.5494 49.8636 41.4823 49.8636 43.8707H51.8948C51.8948 40.3643 49.0576 37.5181 45.5533 37.5181V39.5494ZM41.2429 43.8707C41.2429 41.4823 43.1747 39.5494 45.5533 39.5494V37.5181C42.0489 37.5181 39.2117 40.3643 39.2117 43.8707H41.2429ZM45.5533 48.1919C43.1747 48.1919 41.2429 46.259 41.2429 43.8707H39.2117C39.2117 47.377 42.0489 50.2232 45.5533 50.2232V48.1919ZM45.5533 63.9211C49.0576 63.9211 51.8948 61.0749 51.8948 57.5686H49.8636C49.8636 59.9569 47.9319 61.8899 45.5533 61.8899V63.9211ZM39.2117 57.5686C39.2117 61.0749 42.0489 63.9211 45.5533 63.9211V61.8899C43.1747 61.8899 41.2429 59.9569 41.2429 57.5686H39.2117ZM45.5533 51.2161C42.0489 51.2161 39.2117 54.0623 39.2117 57.5686H41.2429C41.2429 55.1798 43.1747 53.2473 45.5533 53.2473V51.2161ZM51.8948 57.5686C51.8948 54.0623 49.0576 51.2161 45.5533 51.2161V53.2473C47.9319 53.2473 49.8636 55.1798 49.8636 57.5686H51.8948Z" fill="black"/>
</g>
</g>
<defs>
<linearGradient id="paint0_linear_1423_807" x1="52" y1="0" x2="52" y2="104" gradientUnits="userSpaceOnUse">
<stop stop-color="#B3B2D3"/>
<stop offset="0.526" stop-color="#8C8ADA"/>
<stop offset="1" stop-color="#6D69DE"/>
</linearGradient>
<clipPath id="clip0_1423_807">
<rect width="104" height="104" fill="white"/>
</clipPath>
</defs>
</svg>
