<svg width="564" height="200" viewBox="0 0 564 200" fill="none" xmlns="http://www.w3.org/2000/svg">
<mask id="mask0_876_256985" style="mask-type:luminance" maskUnits="userSpaceOnUse" x="34" y="45" width="132" height="110">
<path d="M165.008 45H34.5V155H165.008V45Z" fill="white"/>
</mask>
<g mask="url(#mask0_876_256985)">
<path fill-rule="evenodd" clip-rule="evenodd" d="M165.008 134.134L144.735 100.057H119.232L139.732 134.134H88.7295C70.354 134.134 56.4853 118.7 56.4853 100.055C56.4853 81.4101 70.36 65.9723 88.7295 65.9723H132.572L120.089 45H88.7295C59.2863 45 34.5 69.7282 34.5 100.055C34.5 130.382 59.3063 155 88.7295 155H165.008M96.4477 84.529C96.4477 90.3207 91.8849 95.0152 86.2569 95.0152C80.6289 95.0152 76.0661 90.3207 76.0661 84.529C76.0661 78.7373 80.6289 74.0429 86.2569 74.0429C91.8849 74.0429 96.4477 78.7373 96.4477 84.529ZM86.2569 124.058C91.8849 124.058 96.4477 119.364 96.4477 113.572C96.4477 107.78 91.8849 103.086 86.2569 103.086C80.6289 103.086 76.0661 107.78 76.0661 113.572C76.0661 119.364 80.6289 124.058 86.2569 124.058Z" fill="white"/>
</g>
<mask id="mask1_876_256985" style="mask-type:luminance" maskUnits="userSpaceOnUse" x="197" y="64" width="320" height="72">
<path d="M516.324 64H197V136H516.324V64Z" fill="white"/>
</mask>
<g mask="url(#mask1_876_256985)">
<path fill-rule="evenodd" clip-rule="evenodd" d="M429.391 100.322C429.391 111.832 438.1 121.762 449.579 121.762H478.413C489.907 121.762 498.6 111.832 498.6 100.322C498.6 88.8122 489.892 78.8812 478.413 78.8812H449.579C438.085 78.8812 429.391 88.8122 429.391 100.322ZM480.985 64C500.499 64 516.324 80.4598 516.324 100C516.324 119.54 500.499 136 480.985 136H447.145C427.632 136 411.806 119.54 411.806 100C411.806 80.4598 427.616 64 447.145 64H480.985Z" fill="white"/>
<path fill-rule="evenodd" clip-rule="evenodd" d="M308.986 65.2261V134.774H325.914V106.483H386.277V134.774H403.112V65.2261H386.17V92.4598H325.806V65.2261H308.986Z" fill="white"/>
<path fill-rule="evenodd" clip-rule="evenodd" d="M296.024 64.613H232.339C212.825 64.613 197 80.4598 197 100C197 119.54 212.825 135.387 232.339 135.387H298.779V118.054L281.468 99.2337H260.454L282.31 120.199H234.222C222.59 120.199 214.677 111.065 214.677 99.4176C214.677 87.7701 222.575 78.9425 234.222 78.9425H296.024V64.613Z" fill="white"/>
</g>
</svg>
