<svg width="159" height="33" viewBox="0 0 159 33" fill="none" xmlns="http://www.w3.org/2000/svg">
<path d="M49.2026 12.9407C48.634 12.9407 48.0887 12.7148 47.6866 12.3127C47.2845 11.9107 47.0586 11.3653 47.0586 10.7967C47.0586 10.2281 47.2845 9.68271 47.6866 9.28063C48.0887 8.87854 48.634 8.65266 49.2026 8.65266C49.4893 8.64092 49.7754 8.68742 50.0436 8.78934C50.3118 8.89126 50.5566 9.04649 50.7631 9.24565C50.9696 9.44481 51.1337 9.68377 51.2453 9.94809C51.3569 10.2124 51.4137 10.4966 51.4124 10.7835C51.4118 11.0711 51.3538 11.3556 51.2419 11.6205C51.1299 11.8854 50.9663 12.1253 50.7605 12.3262C50.5548 12.5271 50.311 12.6849 50.0435 12.7904C49.776 12.8959 49.4901 12.947 49.2026 12.9407Z" fill="white"/>
<path d="M149.211 26.7177C146.596 26.7177 144.589 24.2738 144.589 21.1485C144.567 20.2963 144.716 19.4484 145.028 18.6551C145.34 17.8618 145.809 17.1393 146.406 16.5307C147.002 15.9221 147.716 15.4396 148.503 15.1121C149.29 14.7847 150.135 14.6188 150.987 14.6243C151.772 14.6348 152.545 14.8077 153.26 15.1321L153.347 15.1715V12.6197C153.347 11.4333 153.205 11.3544 152.597 11.2097L152.413 11.165L151.624 10.9335L157.017 9.1814V23.5925C157.017 24.8841 157.188 25.2077 157.974 25.434L158.453 25.555L158.308 25.8943L153.352 26.7125V24.2843L153.242 24.4238C152.1 25.8654 150.598 26.7177 149.211 26.7177ZM151.158 15.3136C149.385 15.3136 148.527 16.871 148.527 20.0778C148.527 22.8874 149.566 24.6316 151.237 24.6316C151.781 24.6261 152.303 24.4122 152.694 24.034C153.086 23.6557 153.317 23.1418 153.341 22.598V17.505C153.344 15.8503 151.871 15.3136 151.158 15.3136Z" fill="white"/>
<path d="M46.04 26.3312L46.0979 26.0024L46.9371 25.8708C47.0955 25.8594 47.2436 25.788 47.3511 25.6712C47.4587 25.5544 47.5176 25.4009 47.5159 25.2421V18.1839C47.5159 16.8501 46.9055 16.5134 46.3741 16.3687L46.0585 16.2898L51.1778 14.6245V25.2263C51.1732 25.3788 51.2239 25.5278 51.3206 25.6458C51.4173 25.7638 51.5535 25.8428 51.704 25.8682L52.5826 26.005L52.6405 26.3338L46.04 26.3312Z" fill="white"/>
<path d="M103.143 32.5948L103.201 32.2659L104.04 32.1344C104.198 32.123 104.346 32.0516 104.454 31.9348C104.561 31.8179 104.62 31.6644 104.618 31.5057V18.2889C104.618 17.3919 104.216 16.6184 103.661 16.4474L103.135 16.3133L108.283 14.6165V17.0551L108.394 16.9157C109.527 15.4767 110.927 14.6165 112.313 14.6165C114.926 14.6243 116.72 17.3129 116.72 20.4356C116.72 24.6 113.537 26.7125 110.406 26.7125C109.698 26.7331 108.994 26.5984 108.344 26.3179L108.257 26.2784V31.4978C108.255 31.657 108.314 31.8108 108.422 31.9277C108.531 32.0446 108.679 32.1158 108.838 32.1265L109.675 32.258L109.733 32.5869L103.143 32.5948ZM110.364 16.6447C109.819 16.6667 109.301 16.8909 108.912 17.2737C108.523 17.6564 108.29 18.1702 108.259 18.7151V23.9976C108.263 24.5253 108.47 25.0312 108.839 25.4089C109.207 25.7867 109.708 26.0069 110.235 26.0232C111.437 26.0232 112.976 25.0578 112.976 20.9644C112.968 18.1548 112.034 16.6447 110.364 16.6447Z" fill="white"/>
<path d="M76.1172 25.2447V18.8573C76.1148 18.5901 76.0593 18.326 75.9538 18.0805C75.8483 17.835 75.6949 17.6129 75.5027 17.4273C75.3105 17.2417 75.0832 17.0962 74.8341 16.9993C74.5851 16.9025 74.3192 16.8562 74.0521 16.8632C73.5472 16.8759 73.0664 17.0819 72.709 17.4388C72.3517 17.7957 72.145 18.2761 72.1317 18.781V25.2315C72.1304 25.3812 72.1827 25.5263 72.2792 25.6407C72.3758 25.7551 72.5101 25.8311 72.6578 25.855L73.5365 25.9918L73.5943 26.3206H67.2227L67.2806 25.9918L67.9304 25.855C68.0768 25.8313 68.21 25.7565 68.3064 25.6437C68.4027 25.531 68.456 25.3877 68.4565 25.2394V12.4647C68.4571 12.1704 68.3691 11.8828 68.2039 11.6393C68.0388 11.3958 67.8041 11.2076 67.5305 11.0993L66.957 10.8731L72.1685 9.17627V16.9842L72.2816 16.8132C72.2974 16.7922 73.768 14.6245 76.3724 14.6245C77.2718 14.6461 78.1298 15.0069 78.7742 15.6347C79.3766 16.2634 79.7397 17.3709 79.7397 18.5916L79.766 25.2473C79.7647 25.397 79.8171 25.5421 79.9136 25.6565C80.0101 25.7709 80.1444 25.8469 80.2921 25.8708L81.1708 26.0076L81.2287 26.3364H74.8702L74.9281 26.0076L75.5779 25.8708C75.7243 25.8471 75.8575 25.7722 75.9539 25.6595C76.0502 25.5468 76.1034 25.4035 76.104 25.2552" fill="white"/>
<path d="M32.0969 10.2678C32.0987 10.109 32.0398 9.95555 31.9322 9.83871C31.8247 9.72187 31.6766 9.65047 31.5182 9.63909L30.679 9.50755L30.6211 9.17871H37.8608L37.7977 9.50755L36.9585 9.63909C36.8001 9.65047 36.652 9.72187 36.5444 9.83871C36.4369 9.95555 36.378 10.109 36.3797 10.2678V25.0735C36.3797 25.7706 37.2926 25.6654 37.2926 25.6654C39.9023 25.6654 41.5201 24.6868 43.2696 20.8749L43.5563 20.2488H44.3745L43.6431 26.331H30.6211L30.679 26.0021L31.5182 25.8706C31.6766 25.8592 31.8247 25.7878 31.9322 25.671C32.0398 25.5541 32.0987 25.4007 32.0969 25.2419V10.2678Z" fill="white"/>
<path d="M87.2554 26.7177C86.3734 26.7073 85.5312 26.3491 84.9119 25.7209C84.2927 25.0928 83.9465 24.2456 83.9486 23.3635V16.6105H81.3652L82.97 15.032H83.5145C83.5716 15.032 83.6282 15.0207 83.6809 14.9987C83.7336 14.9767 83.7813 14.9444 83.8215 14.9038C83.8616 14.8632 83.8933 14.815 83.9147 14.7621C83.936 14.7091 83.9467 14.6524 83.946 14.5953V13.1932L87.3659 12.0593V15.0373H90.649L89.1469 16.6157H87.3764V22.9531C87.3764 24.5763 88.5366 25.1656 89.3179 25.1656C89.6517 25.1623 89.9803 25.0822 90.2781 24.9314L90.3228 24.913L90.6464 25.2892C89.7125 26.1231 88.7707 26.7177 87.2554 26.7177Z" fill="white"/>
<path d="M122.681 19.4624L129.718 19.5703C129.744 19.3519 129.749 18.6548 129.739 18.4101C129.66 16.6317 128.424 14.6245 125.19 14.6245C121.536 14.6245 118.779 17.2999 118.779 20.9382C118.779 24.2503 121.176 26.7258 124.356 26.7258C126.908 26.7258 128.7 25.5893 129.694 23.2822L129.431 23.056C129.113 23.5541 128.672 23.962 128.15 24.2403C127.629 24.5186 127.044 24.6579 126.453 24.6449C124.175 24.6449 122.686 22.8034 122.66 19.9386C122.657 19.7796 122.664 19.6206 122.681 19.4624ZM122.681 18.5837C122.86 16.366 123.625 15.3585 124.83 15.3585C124.994 15.355 125.158 15.3855 125.31 15.448C125.462 15.5104 125.599 15.6035 125.714 15.7215C126.214 16.2292 126.456 17.0369 126.432 18.5627V18.6232L122.678 18.6495L122.681 18.5837Z" fill="white"/>
<path d="M135.45 19.4624L142.487 19.5703C142.514 19.3519 142.519 18.6548 142.508 18.4101C142.429 16.6317 141.193 14.6245 137.96 14.6245C134.306 14.6245 131.549 17.2999 131.549 20.9382C131.549 24.2503 133.945 26.7258 137.126 26.7258C139.678 26.7258 141.469 25.5893 142.464 23.2822L142.201 23.056C141.883 23.5594 141.44 23.9719 140.915 24.2531C140.391 24.5344 139.802 24.6748 139.207 24.6607C136.929 24.6607 135.44 22.8192 135.413 19.9543C135.416 19.7898 135.428 19.6255 135.45 19.4624ZM135.45 18.5837C135.629 16.366 136.395 15.3585 137.599 15.3585C137.764 15.355 137.927 15.3855 138.079 15.448C138.231 15.5104 138.369 15.6035 138.483 15.7215C138.983 16.2292 139.225 17.0369 139.202 18.5627V18.6232L135.448 18.6495L135.45 18.5837Z" fill="white"/>
<path d="M98.0672 19.6307C96.5125 19.0336 95.3418 18.5785 95.3418 17.4288C95.3418 16.3765 96.0758 15.7636 97.1333 15.7636C97.6541 15.764 98.1647 15.9078 98.6091 16.1792L100.577 19.0362L101.25 19.0099L101.119 15.1506L99.8508 15.5637C98.9779 15.295 98.0703 15.1558 97.157 15.1506C94.3605 15.1506 92.4954 16.6265 92.4954 18.931C92.4954 21.054 94.1001 21.859 96.0705 22.614C97.52 23.1848 98.8696 23.5926 98.8696 25.0553C98.8696 25.8892 98.0804 26.7047 96.7966 26.7047C95.4496 26.7047 94.7499 26.0313 93.8712 24.737L93.1504 23.2375L92.4585 23.4058L92.2139 26.4443C93.6624 26.9614 95.1875 27.2317 96.7255 27.244C100.195 27.244 101.777 25.4025 101.777 23.3848C101.771 21.1066 99.8535 20.3568 98.0672 19.6307Z" fill="white"/>
<path d="M62.1433 24.1344H58.0262C57.7803 24.1163 57.55 24.0074 57.3799 23.829C57.2097 23.6506 57.1119 23.4154 57.1054 23.169C57.1005 23.0379 57.1219 22.9072 57.1683 22.7846C57.2148 22.6619 57.2853 22.5499 57.3758 22.4549C57.4663 22.36 57.5749 22.2842 57.6952 22.232C57.8155 22.1798 57.945 22.1522 58.0762 22.1509C58.1322 22.1467 58.1885 22.1467 58.2445 22.1509C58.636 22.222 59.0332 22.2564 59.431 22.2535C62.5563 22.2535 64.674 20.6251 64.674 18.3285C64.674 17.6445 64.5609 17.1473 64.1742 16.7132L65.6079 15.3978L65.2607 14.385L62.8088 15.3952C61.8215 14.884 60.7243 14.6213 59.6125 14.6297C56.5661 14.6297 54.4984 16.5869 54.4984 18.652C54.4984 20.433 55.506 21.4169 56.9792 21.9325V21.9588C55.456 22.3982 54.0617 23.432 54.0617 24.8263C54.0617 26.0654 55.3008 27.1755 56.8266 27.3571C55.2771 27.9516 53.7539 28.6487 53.7539 30.0167C53.7539 31.7477 55.406 32.6001 58.7523 32.6001C63.014 32.6001 66.0367 30.2324 66.0367 27.4597C66.042 25.3867 64.4425 24.1344 62.1433 24.1344ZM58.3892 16.0845C58.503 15.8653 58.6749 15.6817 58.886 15.5537C59.0971 15.4256 59.3393 15.3581 59.5862 15.3584C60.5569 15.3584 61.1646 16.187 61.1646 18.5442C61.1646 20.9013 60.7095 21.701 59.5862 21.701C58.6365 21.701 58.0893 20.7619 58.0893 18.5152C58.0867 17.4156 58.1472 16.5948 58.3892 16.0845ZM59.0943 31.7109C57.4685 31.7109 56.5135 30.7533 56.5135 29.359C56.5135 28.3068 57.6605 27.3886 58.7023 27.3886H60.9016C62.7431 27.5175 63.6138 27.9148 63.6138 29.2301C63.6138 30.6954 61.1883 31.7109 59.1074 31.7109H59.0943Z" fill="white"/>
<path d="M17.7545 17.755H9.17837V9.17886L0.599609 0.600098V9.17886V17.755V26.3338H9.17837H17.7545H26.3333L17.7545 17.755Z" fill="white"/>
</svg>
