<svg width="24" height="24" viewBox="0 0 24 24" fill="none" xmlns="http://www.w3.org/2000/svg">
<path d="M10.5551 21.657C15.7071 21.657 19.8836 17.4805 19.8836 12.3285C19.8836 7.17651 15.7071 3 10.5551 3C5.40313 3 1.22662 7.17651 1.22662 12.3285C1.22662 17.4805 5.40313 21.657 10.5551 21.657Z" fill="#2EB6EA"/>
<path d="M10.5011 21.6703C1.21309 21.6703 -2.44541 9.45283 5.74909 4.30933C4.77709 14.5153 9.96109 14.7448 14.7806 14.5153C22.8401 14.1373 22.8536 21.6703 22.8536 21.6703H10.5011Z" fill="#1542CD"/>
<path fill-rule="evenodd" clip-rule="evenodd" d="M19.3706 15.3931C17.9666 18.9976 14.5106 21.5626 10.4471 21.6841C10.5416 21.6841 10.6361 21.6841 10.7306 21.6841H23.0021C23.0021 21.6841 23.0021 17.2696 19.3706 15.3931Z" fill="#745DDF"/>
</svg>
