<svg width="1045" height="146" viewBox="0 0 1045 146" fill="none" xmlns="http://www.w3.org/2000/svg">
<path fill-rule="evenodd" clip-rule="evenodd" d="M31.6088 9.60001C38.6908 14.88 45.8358 20.262 47.4858 21.559C49.1358 22.855 54.3108 26.77 58.9858 30.256C63.6608 33.743 80.2278 46.25 95.8018 58.048C111.376 69.847 125.433 80.4 127.04 81.5C132.708 85.38 132.986 87.08 132.986 117.901V146H121.986H110.986V121.865V97.729L108.434 95.365C107.031 94.064 105.686 93 105.446 93C105.206 93 104.216 92.343 103.247 91.541C94.1718 84.021 24.3388 32.282 23.7538 32.644C23.3308 32.905 22.9858 58.516 22.9858 89.559V146H11.9858H0.98584L1.02785 78.25C1.06685 15.552 1.20084 10.254 2.82884 7.20001C5.23484 2.68901 9.61383 0.0149885 14.6088 0.00698853C18.2638 0.000988525 20.1948 1.09101 31.6088 9.60001ZM274.819 1.71899C281.276 5.42499 280.986 1.86599 280.986 77.404V146H269.994H259.002L258.744 88.947L258.486 31.895L244.486 42.559C236.786 48.424 227.608 55.31 224.091 57.861C220.574 60.413 217.199 62.962 216.591 63.527C215.983 64.092 211.211 67.717 205.986 71.584C183.813 87.994 179.521 91.29 179.153 92.187C178.969 92.634 178.323 93 177.717 93C177.111 93 175.573 93.978 174.3 95.174C172.004 97.332 171.986 97.54 171.986 121.674V146H160.986H149.986V118.149C149.986 100.852 150.394 89.129 151.062 87.212C151.69 85.411 154.291 82.503 157.312 80.226C160.158 78.081 168.782 71.641 176.478 65.913C184.173 60.186 191.148 54.947 191.978 54.272C192.807 53.596 198.472 49.321 204.567 44.772C210.662 40.222 223.64 30.425 233.409 23C262.252 1.076 263.874 0 268.09 0C270.144 0 273.171 0.772994 274.819 1.71899ZM392.856 24.62C395.127 26.612 396.986 28.624 396.986 29.092C396.986 29.56 398.921 33.218 401.286 37.221C403.651 41.225 405.898 45.175 406.28 46C406.661 46.825 407.539 48.374 408.23 49.442C410.893 53.557 415.677 61.569 416.327 63C416.702 63.825 417.872 65.85 418.927 67.5C419.982 69.15 421.953 72.525 423.307 75C427.881 83.365 429.484 85.987 430.027 85.994C430.581 86 446.695 59.006 454.497 45C455.876 42.525 457.562 39.616 458.245 38.536C458.928 37.455 461.144 33.855 463.17 30.536C467.669 23.167 471.049 21 478.046 21C482.139 21 484.037 21.564 486.653 23.56C493.05 28.439 492.986 27.821 492.986 84.622V136H482.486H471.986V93.429C471.986 58.391 471.755 51.091 470.68 52.179C469.962 52.905 469.057 54.175 468.669 55C468.281 55.825 467.181 57.689 466.225 59.142C465.269 60.596 462.939 64.421 461.049 67.642C459.159 70.864 455.221 77.228 452.299 81.785C449.377 86.341 446.986 90.345 446.986 90.682C446.986 91.019 445.43 93.192 443.529 95.513C437.468 102.91 429.645 104.907 422.004 101.009C417.272 98.595 415.693 96.514 404.548 78C393.935 60.369 394.247 60.878 390.236 54.618L386.986 49.546V92.773V136H376.486H365.986L366.008 85.25C366.032 28.749 365.939 29.583 372.92 23.709C375.674 21.392 377.05 21 382.432 21C388.237 21 389.046 21.281 392.856 24.62ZM596.013 22.719C599.832 25.374 601.711 28.022 604.021 34C605.19 37.025 606.615 40.369 607.188 41.432C607.761 42.494 608.591 44.519 609.033 45.932C609.475 47.344 610.717 50.75 611.793 53.5C616.171 64.684 622.117 79.622 622.939 81.5C623.42 82.6 625.489 87.775 627.535 93C629.582 98.225 631.831 103.85 632.532 105.5C633.234 107.15 634.998 111.65 636.453 115.5C637.907 119.35 640.197 125.117 641.542 128.316C642.886 131.515 643.986 134.552 643.986 135.066C643.986 135.584 639.397 136 633.675 136H623.365L617.801 122.75C614.74 115.462 611.969 108.712 611.643 107.75C611.099 106.148 609.01 106 586.986 106C564.951 106 562.876 106.147 562.358 107.75C562.047 108.712 561.185 110.85 560.442 112.5C557.431 119.188 554.176 126.761 552.383 131.246L550.486 135.993L540.736 135.996C535.128 135.998 530.986 135.59 530.986 135.034C530.986 134.503 531.723 132.365 532.625 130.284C534.703 125.485 535.029 124.676 540.011 112C542.281 106.225 544.52 100.6 544.986 99.5C545.452 98.4 547.691 92.775 549.961 87C552.23 81.225 554.461 75.6 554.917 74.5C555.373 73.4 556.439 70.7 557.286 68.5C559.391 63.032 568.576 39.889 571.639 32.334C574.992 24.066 579.106 21.144 587.513 21.06C591.666 21.019 594.31 21.535 596.013 22.719ZM697.062 23.578C699.452 26.12 699.493 26.487 699.986 49.593L700.486 73.031L726.454 47.015L752.423 21H757.219C761.557 21 762.205 21.311 763.997 24.25C768.127 31.023 767.903 31.377 744.792 54.649C723.924 75.662 723.628 76.019 725.542 77.863C731.921 84.01 780.544 134.356 780.819 135.1C781.006 135.604 775.473 136 768.239 136H755.324L747.673 128.25C743.465 123.988 731.278 111.613 720.591 100.75C709.905 89.887 700.896 81 700.573 81C700.25 81 699.986 93.375 699.986 108.5V136H689.986H679.986V81.577V27.153L682.575 24.077C684.795 21.438 685.839 21 689.901 21C693.698 21 695.118 21.511 697.062 23.578ZM896.948 23.46C900.359 27.09 900.171 33.584 896.567 36.684C893.894 38.984 893.68 39 866.43 39H838.986V52.952V66.904L864.407 67.202C889.747 67.499 889.837 67.508 892.407 69.924C896.297 73.581 896.063 79.916 891.909 83.411L888.833 86H863.909H838.986V101.442V116.884L866.738 117.192C894.314 117.498 894.504 117.515 896.829 119.842C898.557 121.571 899.187 123.359 899.237 126.677C899.295 130.47 898.852 131.541 896.396 133.549L893.486 135.928L863.186 135.964C830.696 136.003 829.929 135.898 824.141 130.633C818.946 125.907 818.986 126.316 818.986 78.597C818.986 32.45 819.094 31.124 823.208 26.583C828.304 20.96 827.925 21.014 862.562 21.007L894.637 21L896.948 23.46ZM1015.65 23.044C1024.35 25.981 1031.4 32.648 1034.13 40.5C1035.84 45.429 1036.12 48.133 1035.74 55.65C1035.33 63.736 1034.87 65.539 1031.8 71.15C1027.97 78.148 1021.04 84.252 1014.74 86.174C1012.67 86.802 1010.99 87.49 1010.99 87.703C1010.99 87.915 1013.12 90.959 1015.74 94.468C1021.54 102.269 1043.18 132.689 1044.29 134.611C1044.95 135.766 1042.9 136 1032.13 136H1019.17L1013.84 128.75C1010.9 124.762 1008.16 121.35 1007.74 121.167C1007.33 120.983 1006.99 120.402 1006.99 119.874C1006.99 119.347 1006.53 118.372 1005.97 117.708C1005.41 117.044 1002.03 112.45 998.448 107.5C994.868 102.55 991.274 97.707 990.462 96.739C989.65 95.77 988.986 94.694 988.986 94.349C988.986 92.163 984.749 91.061 976.236 91.032L966.986 91V113.5V136H956.486H945.986V87.035C945.986 29.186 945.794 30.476 955.495 23.282C958.398 21.129 959.238 21.062 984.042 21.032C1007.19 21.003 1010.17 21.192 1015.65 23.044ZM966.986 55.624V72.248L984.736 71.799C1000.23 71.407 1002.96 71.089 1006.25 69.294C1012.31 65.984 1014.09 62.975 1014.12 55.974C1014.18 42.935 1006.52 39.045 980.736 39.016L966.986 39V55.624ZM584.957 49.25C584.258 51.038 583.141 53.85 582.476 55.5C576.787 69.606 570.986 84.935 570.986 85.865C570.986 86.665 575.736 87 587.053 87H603.121L602.442 84.75C602.069 83.512 601.2 81.15 600.511 79.5C599.143 76.226 598.296 74.044 591.867 57.25C589.499 51.063 587.261 46 586.895 46C586.528 46 585.657 47.462 584.957 49.25Z" fill="white"/>
</svg>
