<svg id="Nexus-Mutual-Logo" data-name="Nexus-Mutual-Logo" xmlns="http://www.w3.org/2000/svg" viewBox="0 0 1281.49 415.31"><defs><style>.cls-1{fill:#fff;}</style></defs><path class="cls-1" d="M525.48,62.2V177.6H487.81V.65h38.73l82,111.16V.65h37.67v177H609.84Z"/><path class="cls-1" d="M738.5,46.28c38.21,0,64.2,28.65,64.2,70.57v7.42H707.47c2.12,16.19,15.12,29.72,36.87,29.72,11.94,0,26-4.78,34.22-12.74L793.42,163c-12.73,11.67-32.9,17.77-52.79,17.77-39,0-68.45-26.26-68.45-67.38C672.18,76.26,699.51,46.28,738.5,46.28Zm-31.56,55.18h63.13c-.79-12.2-9.28-28.39-31.57-28.39C717.55,73.07,708.53,88.73,706.94,101.46Z"/><path class="cls-1" d="M879.46,134.36,850,177.6H812.61L858,111.81,815.26,49.46h37.68L879.46,89l26.27-39.53H943.4l-43,62.35,45.9,65.79H908.64Z"/><path class="cls-1" d="M1049.52,161.41c-8.76,9.82-24.15,19.37-45.1,19.37-28.12,0-41.39-15.39-41.39-40.32v-91h33.69v77.73c0,17.78,9.29,23.61,23.61,23.61,13,0,23.35-7.16,29.19-14.59V49.46h33.69V177.6h-33.69Z"/><path class="cls-1" d="M1120.09,137.27c9.28,8.76,28.38,17.51,44.3,17.51,14.59,0,21.49-5.83,21.49-13.79,0-8.76-11.68-11.15-25.74-13.8-22-4.24-50.4-9.81-50.4-40.59,0-21.48,18.83-40.32,52.53-40.32,21.75,0,39,7.43,51.73,17.51l-13.53,23.08c-7.7-8.23-22.29-14.86-37.94-14.86-12.2,0-20.16,5.57-20.16,12.74,0,7.43,10.08,9.55,24.41,12.47,22,4.24,51.46,10.34,51.46,42.44,0,23.35-19.9,41.12-55.44,41.12-22.29,0-43.78-7.43-57.3-19.9Z"/><path class="cls-1" d="M633.07,286.18,586,411.94H570.46L523.37,286.18V411.94H487.81V239h49.84l40.57,101.86L618.79,239h50.09v173H633.07Z"/><path class="cls-1" d="M787.05,395.76c-8.75,9.81-24.14,19.36-45.09,19.36-28.12,0-41.39-15.38-41.39-40.32v-91h33.69v77.73c0,17.77,9.29,23.61,23.61,23.61,13,0,23.35-7.17,29.18-14.59V283.81h33.7V411.94h-33.7Z"/><path class="cls-1" d="M863,380.11V313.25H841.8V283.81H863v-35h34v35h26v29.44H897v57.84c0,8,4.24,14.06,11.67,14.06,5,0,9.81-1.86,11.67-3.72l7.16,25.47c-5,4.51-14.06,8.22-28.12,8.22C875.75,415.12,863,402.92,863,380.11Z"/><path class="cls-1" d="M1032.54,395.76c-8.76,9.81-24.14,19.36-45.1,19.36-28.12,0-41.38-15.38-41.38-40.32v-91h33.69v77.73c0,17.77,9.28,23.61,23.61,23.61,13,0,23.34-7.17,29.18-14.59V283.81h33.69V411.94h-33.69Z"/><path class="cls-1" d="M1176.59,398.68c-8.75,10.34-23.87,16.44-40.59,16.44-20.42,0-44.56-13.79-44.56-42.44,0-30,24.14-40.86,44.56-40.86,17,0,32.1,5.31,40.59,15.66V329.7c0-13-11.14-21.48-28.12-21.48-13.79,0-26.53,5-37.4,15.11l-12.74-22.54c15.66-13.8,35.82-20.16,56-20.16,29.18,0,56,11.67,56,48.54v82.77h-33.69Zm0-33.43c-5.57-7.43-16.18-11.14-27.06-11.14-13.26,0-24.14,6.9-24.14,19.36,0,11.94,10.88,18.84,24.14,18.84,10.88,0,21.49-3.71,27.06-11.14Z"/><path class="cls-1" d="M1243.72,235h33.69V411.94h-33.69Z"/><path class="cls-1" d="M400.07,292a41,41,0,1,0-56.89-59,41,41,0,0,0,56.89,59Z"/><path class="cls-1" d="M120.65,397.84a41,41,0,1,0,59-56.89,41,41,0,0,0-59,56.89Z"/><path class="cls-1" d="M15.36,116.35a41,41,0,1,0,56.89,59,41,41,0,0,0-56.89-59Z"/><path class="cls-1" d="M296.47,12.22a41,41,0,1,0-59,56.89,41,41,0,0,0,59-56.89Z"/><path class="cls-1" d="M384.25,138.67A39,39,0,0,0,395.52,109l0-.31c-1.85-33.68-42.68-49.3-66.53-25.46l-38.6,39.3c-12.36,12.36-40.91,14.24-55.59-.44L142.44,28.7a39.05,39.05,0,0,0-28-11.86c-34.75,0-52.14,42-27.57,66.6L125.77,121c14.15,15.41,12.61,42.56,0,55.17L32.24,269.9A39,39,0,0,0,20.81,297v.87c-.41,35,41.87,52.78,66.6,28.05l38.87-39c13.52-13.53,41.65-13.68,55.82.49l92,92.49a39,39,0,0,0,28.74,11.41h.12c34.19-1,50.62-42.4,26.44-66.58l-37.15-37.53c-13.77-13.77-14.81-40.36-.09-55.08ZM238.49,235.2a43.06,43.06,0,0,1-59.8-62,43.06,43.06,0,1,1,59.8,62Z"/></svg>