<svg width="129" height="32" viewBox="0 0 129 32" fill="none" xmlns="http://www.w3.org/2000/svg">
<g clip-path="url(#clip0_1770_5090)">
<path d="M34.5781 18.1197C34.5781 13.8029 37.732 10.6959 42.065 10.6959C46.3981 10.6959 49.5519 13.8029 49.5519 18.1197C49.5519 22.4365 46.3981 25.5435 42.065 25.5435C37.7594 25.5435 34.5781 22.4365 34.5781 18.1197ZM46.4255 18.1197C46.4255 15.4252 44.6978 13.3905 42.065 13.3905C39.4322 13.3905 37.732 15.4252 37.732 18.1197C37.732 20.7868 39.4322 22.8489 42.065 22.8489C44.6978 22.8214 46.4255 20.7868 46.4255 18.1197Z" fill="#E5E9EB"/>
<path d="M50.7305 23.2595L52.3759 20.9224C53.3906 21.9672 54.9538 22.8471 56.9284 22.8471C58.6013 22.8471 59.424 22.0772 59.424 21.2524C59.424 18.7228 51.1692 20.455 51.1692 15.0384C51.1692 12.6463 53.2261 10.6666 56.5993 10.6666C58.8755 10.6666 60.7678 11.354 62.1939 12.6738L60.4936 14.9009C59.3418 13.8286 57.7785 13.3337 56.325 13.3337C55.0087 13.3337 54.2957 13.9111 54.2957 14.7634C54.2957 17.0456 62.523 15.5058 62.523 20.8674C62.523 23.507 60.6581 25.4866 56.7913 25.4866C54.0488 25.5416 52.0743 24.6068 50.7305 23.2595Z" fill="#E5E9EB"/>
<path d="M77.0579 25.2938V15.2305L73.027 25.2938H71.6831L67.6516 15.2305V25.2938H64.6074V10.9137H68.8857L72.3687 19.6022L75.8517 10.9137H80.1572V25.2663H77.0579V25.2938Z" fill="#E5E9EB"/>
<path d="M82.2695 18.1181C82.2695 13.8013 85.4234 10.6943 89.7562 10.6943C94.0897 10.6943 97.2435 13.8013 97.2435 18.1181C97.2435 22.4349 94.0897 25.5419 89.7562 25.5419C85.4234 25.5419 82.2695 22.4349 82.2695 18.1181ZM94.1169 18.1181C94.1169 15.4235 92.3894 13.3889 89.7562 13.3889C87.1237 13.3889 85.4234 15.4235 85.4234 18.1181C85.4234 20.7851 87.1237 22.8473 89.7562 22.8473C92.3894 22.8198 94.1169 20.7851 94.1169 18.1181Z" fill="#E5E9EB"/>
<path d="M98.4219 23.2595L100.068 20.9224C101.082 21.9672 102.645 22.8471 104.62 22.8471C106.293 22.8471 107.115 22.0772 107.115 21.2524C107.115 18.7228 98.8607 20.455 98.8607 15.0384C98.8607 12.6463 100.917 10.6666 104.291 10.6666C106.567 10.6666 108.459 11.354 109.886 12.6738L108.185 14.9009C107.033 13.8286 105.47 13.3337 104.017 13.3337C102.7 13.3337 101.987 13.9111 101.987 14.7634C101.987 17.0456 110.214 15.5058 110.214 20.8674C110.214 23.507 108.35 25.4866 104.483 25.4866C101.74 25.5416 99.7657 24.6068 98.4219 23.2595Z" fill="#E5E9EB"/>
<path d="M112.271 25.2938V10.9137H115.343V25.2663H112.271V25.2938Z" fill="#E5E9EB"/>
<path d="M117.207 23.2595L118.852 20.9224C119.867 21.9672 121.43 22.8471 123.404 22.8471C125.077 22.8471 125.901 22.0772 125.901 21.2524C125.901 18.7228 117.645 20.455 117.645 15.0384C117.645 12.6463 119.703 10.6666 123.076 10.6666C125.352 10.6666 127.244 11.354 128.67 12.6738L126.97 14.9009C125.818 13.8286 124.255 13.3337 122.801 13.3337C121.485 13.3337 120.772 13.9111 120.772 14.7634C120.772 17.0456 128.999 15.5058 128.999 20.8674C128.999 23.507 127.135 25.4866 123.267 25.4866C120.498 25.5416 118.523 24.6068 117.207 23.2595Z" fill="#E5E9EB"/>
<path d="M29.1717 5.65681C28.8468 4.40237 27.8024 3.14793 25.9225 1.75148C24.414 0.639053 22.8127 0 21.5363 0C21.2809 0 21.0489 0.0236675 20.8168 0.0710047C20.2366 0.189348 19.726 0.615383 19.4011 1.25444C19.0065 2.01183 18.9137 3.02959 19.1691 3.64497C19.2619 3.83432 19.3779 4.07101 19.5172 4.28402C18.2871 5.04142 17.5909 5.25444 17.498 5.27811C20.7008 6.36686 23.3697 8.63907 25.0407 11.5976L25.0639 11.3136C25.1335 10.5325 25.3656 9.63313 25.6905 8.71007C26.0154 8.80473 26.3403 8.85207 26.6652 8.85207C27.5239 8.85207 28.2666 8.49707 28.7308 7.858C29.1949 7.21893 29.3805 6.36687 29.1717 5.65681Z" fill="#6E6E6E"/>
<path d="M25.8301 8.02356C27.942 8.61523 28.8007 6.95843 28.5222 5.84601C28.2205 4.73359 27.2458 3.59749 25.5284 2.31939C23.811 1.04128 22.0704 0.520571 20.9564 0.757254C19.8424 0.993941 19.5175 2.72175 19.796 3.38447C19.912 3.64483 20.1673 4.02353 20.5154 4.44956C20.0745 4.75725 19.6567 4.99394 19.3086 5.20696C21.4437 6.17737 23.3004 7.69216 24.6929 9.58563C24.8553 8.94663 25.0874 8.37856 25.2963 7.88149C25.4587 7.90516 25.6444 7.95249 25.8301 8.02356Z" fill="url(#paint0_radial_1770_5090)"/>
<path d="M13.7389 31.2187C20.9039 31.2187 26.7122 25.2951 26.7122 17.988C26.7122 10.6808 20.9039 4.7572 13.7389 4.7572C6.57397 4.7572 0.765625 10.6808 0.765625 17.988C0.765625 25.2951 6.57397 31.2187 13.7389 31.2187Z" fill="url(#paint1_radial_1770_5090)"/>
<path opacity="0.6" d="M27.4546 4.75729C25.6908 2.86379 24.2055 2.36675 22.4185 1.96439C21.026 1.63303 21.3973 0.828294 23.0915 0.993974C22.2792 0.709947 21.5133 0.638943 20.9564 0.757287C19.8424 0.993974 19.5174 2.72178 19.796 3.38451C19.912 3.64486 20.1673 4.02356 20.5154 4.44959C19.8888 4.87563 19.355 5.18332 18.9141 5.42001C19.1229 5.51468 19.3782 5.63303 19.68 5.79871C20.469 6.22474 21.3277 6.93477 21.3277 6.93477C20.0281 5.79871 20.3065 5.27799 22.0936 3.99989C22.6505 3.59752 23.6717 3.64486 24.6232 4.1419C25.5748 4.63894 26.6888 5.89338 26.6888 5.89338L25.6212 7.97624C25.6908 7.99991 25.7604 8.02357 25.8301 8.04724C26.5031 8.23657 27.0369 8.18924 27.4546 8.02357C27.942 7.71584 29.2184 6.67444 27.4546 4.75729Z" fill="#939393"/>
<path d="M22.3955 3.10053C22.8597 3.28988 23.4631 3.62124 24.2057 4.11828C25.0877 4.71 25.8535 5.37272 26.3409 5.89343C25.5286 6.98216 24.9948 8.47329 24.6699 9.51476C24.8323 9.75143 25.018 9.98809 25.1805 10.2248C25.3429 9.63309 25.6214 8.75736 25.9927 7.88156C26.0855 7.90529 26.2016 7.90529 26.3177 7.90529C26.5962 7.90529 26.9211 7.85789 27.1763 7.64489C27.362 7.50289 27.5709 7.24256 27.5477 6.76916C27.5477 6.31947 27.1995 5.75142 26.4801 5.06503C25.9695 4.56799 25.2733 4.02361 24.577 3.52657C22.5811 2.17745 21.1887 1.79875 20.5621 2.43781C20.1443 2.86384 20.1907 3.38455 20.33 3.76325C19.5873 4.26029 18.9607 4.61532 18.543 4.85201C18.8214 4.94668 19.0767 5.06503 19.3553 5.18337C20.0979 4.78101 21.1655 4.09461 22.3955 3.10053ZM26.7818 6.48515C26.8514 6.60349 26.8746 6.72183 26.8746 6.79283C26.8746 7.00583 26.805 7.07689 26.7586 7.12423C26.6658 7.19523 26.4801 7.24256 26.3177 7.24256C26.4569 6.95849 26.6194 6.72183 26.7818 6.48515ZM21.0494 2.95852C21.119 2.88751 21.3047 2.84017 21.6065 2.88751C21.3743 3.07686 21.1423 3.24254 20.9102 3.40822C20.887 3.24254 20.9102 3.07686 21.0494 2.95852Z" fill="#6E6E6E"/>
<path d="M13.7392 3.9762C6.15013 3.9762 0 10.2484 0 17.988C0 25.7277 6.15013 31.9999 13.7392 31.9999C21.3282 31.9999 27.4783 25.7277 27.4783 17.988C27.4783 10.2484 21.305 3.9762 13.7392 3.9762ZM13.7392 31.2188C6.56788 31.2188 0.765868 25.3016 0.765868 17.988C0.765868 10.6744 6.56788 4.75726 13.7392 4.75726C20.9104 4.75726 26.7124 10.6744 26.7124 17.988C26.7124 25.3016 20.8872 31.2188 13.7392 31.2188Z" fill="#6E6E6E"/>
<path opacity="0.6" d="M13.7389 31.219C20.9039 31.219 26.7122 25.2954 26.7122 17.9882C26.7122 10.6811 20.9039 4.75745 13.7389 4.75745C6.57397 4.75745 0.765625 10.6811 0.765625 17.9882C0.765625 25.2954 6.57397 31.219 13.7389 31.219Z" fill="url(#paint2_linear_1770_5090)"/>
<path opacity="0.6" d="M13.6464 29.6095C6.56791 28.4498 1.76384 21.6569 2.92425 14.438C3.43483 11.2427 5.01297 8.52076 7.24094 6.55627C3.99181 8.47343 1.57818 11.8107 0.928356 15.8817C-0.208838 23.1006 4.59523 29.8936 11.6505 31.0533C15.5958 31.716 19.402 30.4616 22.2101 28C19.7269 29.4675 16.7098 30.1066 13.6464 29.6095Z" fill="#939393"/>
<path opacity="0.6" d="M15.8052 4.94683C12.5328 4.40245 9.35338 5.15985 6.75403 6.84033C6.70762 6.88767 6.6612 6.935 6.6612 6.935C7.65916 6.31961 9.12124 5.77524 9.12124 5.77524C5.36157 8.00007 4.20117 10.5326 4.20117 10.5326C5.66328 7.64507 9.95675 5.60955 13.3219 5.46754C16.6871 5.32553 18.8919 6.34328 21.584 8.54447C24.2761 10.7693 25.9007 15.3137 25.7382 18.9113C25.599 22.5089 23.7423 25.4202 23.7423 25.4202C25.0188 23.7397 25.7847 22.5089 26.272 21.2545C26.3648 20.8758 26.4577 20.4971 26.5041 20.0947C27.6645 12.8995 22.8836 6.10659 15.8052 4.94683Z" fill="url(#paint3_linear_1770_5090)"/>
<path d="M26.0628 17.8698C26.0628 24.8047 20.5392 30.4378 13.7393 30.4378C6.9393 30.4378 1.39258 24.8047 1.39258 17.8698H26.0628Z" fill="url(#paint4_linear_1770_5090)"/>
<g opacity="0.6">
<path opacity="0.6" d="M25.088 17.8698C25.088 24.639 19.8431 30.1774 13.252 30.4378C13.4144 30.4378 13.5768 30.4378 13.7393 30.4378C20.5393 30.4378 26.0628 24.8047 26.0628 17.8698H25.088Z" fill="url(#paint5_linear_1770_5090)"/>
</g>
<g opacity="0.7">
<path opacity="0.7" d="M3.13318 17.8698H1.39258C1.39258 24.8047 6.91609 30.4378 13.7161 30.4378C14.0177 30.4378 14.2962 30.4378 14.5748 30.4142C8.19253 29.9408 3.13318 24.497 3.13318 17.8698Z" fill="url(#paint6_linear_1770_5090)"/>
</g>
<path d="M26.0395 17.9881C26.0395 16.5444 23.5794 15.716 20.3072 15.4319C17.9399 15.2426 15.5495 15.4792 12.8109 16.3313C10.4437 17.0414 8.30856 16.923 6.75365 16.7337C3.29563 16.3313 1.39258 16.284 1.39258 17.9881C1.39258 20.4496 6.31268 23.5266 13.6928 22.4615C17.4293 21.9171 19.3556 20.8047 21.5604 20.0473C23.9508 19.2426 26.0395 19.2662 26.0395 17.9881Z" fill="url(#paint7_linear_1770_5090)"/>
<path d="M17.7782 12.0237C18.9317 12.0237 19.8669 11.07 19.8669 9.8935C19.8669 8.71704 18.9317 7.76331 17.7782 7.76331C16.6246 7.76331 15.6895 8.71704 15.6895 9.8935C15.6895 11.07 16.6246 12.0237 17.7782 12.0237Z" fill="#E5E9EB"/>
<path d="M21.1886 13.6093C21.6756 13.6093 22.0705 13.2067 22.0705 12.7099C22.0705 12.2132 21.6756 11.8105 21.1886 11.8105C20.7015 11.8105 20.3066 12.2132 20.3066 12.7099C20.3066 13.2067 20.7015 13.6093 21.1886 13.6093Z" fill="#E5E9EB"/>
<g opacity="0.6">
<path opacity="0.6" d="M24.3448 8.18936C24.3216 8.18936 24.2984 8.18936 24.2984 8.18936C24.1591 8.16569 24.0663 8.02369 24.0895 7.85796C24.2984 6.76923 25.1803 5.7278 25.2267 5.68047C25.3196 5.56212 25.5052 5.56212 25.5981 5.6568C25.7141 5.75147 25.7141 5.94082 25.6213 6.03549C25.5981 6.05916 24.7858 7.02956 24.6001 7.97629C24.5769 8.11836 24.4609 8.18936 24.3448 8.18936Z" fill="url(#paint8_linear_1770_5090)"/>
</g>
<path opacity="0.2" d="M12.8823 27.8581C13.2411 27.8581 13.5321 27.5613 13.5321 27.1953C13.5321 26.8293 13.2411 26.5326 12.8823 26.5326C12.5234 26.5326 12.2324 26.8293 12.2324 27.1953C12.2324 27.5613 12.5234 27.8581 12.8823 27.8581Z" fill="#E5E9EB"/>
<g opacity="0.4">
<path opacity="0.6" d="M12.5089 27.622C12.2536 27.3616 12.2536 26.9356 12.5089 26.6753C12.5553 26.628 12.6017 26.6043 12.6481 26.5569C12.5553 26.5806 12.4857 26.628 12.4161 26.699C12.1608 26.9593 12.1608 27.3853 12.4161 27.6457C12.6249 27.8587 12.9498 27.906 13.2052 27.764C12.973 27.8587 12.6945 27.8114 12.5089 27.622Z" fill="url(#paint9_linear_1770_5090)"/>
</g>
<path opacity="0.3" d="M13.1119 27.006C13.1888 27.006 13.2511 26.9425 13.2511 26.864C13.2511 26.7856 13.1888 26.722 13.1119 26.722C13.035 26.722 12.9727 26.7856 12.9727 26.864C12.9727 26.9425 13.035 27.006 13.1119 27.006Z" fill="#E5E9EB"/>
<path opacity="0.2" d="M16.2709 27.5266C16.6298 27.5266 16.9207 27.2299 16.9207 26.8638C16.9207 26.4978 16.6298 26.2012 16.2709 26.2012C15.9121 26.2012 15.6211 26.4978 15.6211 26.8638C15.6211 27.2299 15.9121 27.5266 16.2709 27.5266Z" fill="#E5E9EB"/>
<g opacity="0.4">
<path opacity="0.6" d="M15.8976 27.2903C15.6423 27.03 15.6423 26.6039 15.8976 26.3436C15.944 26.2962 15.9904 26.2726 16.0368 26.2252C15.944 26.2489 15.8744 26.2962 15.8047 26.3672C15.5495 26.6276 15.5495 27.0536 15.8047 27.314C16.0136 27.527 16.3385 27.5744 16.5938 27.4323C16.3617 27.527 16.0832 27.4796 15.8976 27.2903Z" fill="url(#paint10_linear_1770_5090)"/>
</g>
<path opacity="0.3" d="M16.5006 26.6747C16.5774 26.6747 16.6398 26.6111 16.6398 26.5327C16.6398 26.4542 16.5774 26.3906 16.5006 26.3906C16.4236 26.3906 16.3613 26.4542 16.3613 26.5327C16.3613 26.6111 16.4236 26.6747 16.5006 26.6747Z" fill="#E5E9EB"/>
<path opacity="0.2" d="M14.5987 29.0651C14.8678 29.0651 15.086 28.8425 15.086 28.568C15.086 28.2935 14.8678 28.0709 14.5987 28.0709C14.3295 28.0709 14.1113 28.2935 14.1113 28.568C14.1113 28.8425 14.3295 29.0651 14.5987 29.0651Z" fill="#E5E9EB"/>
<g opacity="0.4">
<path opacity="0.6" d="M14.3202 28.8765C14.1345 28.6871 14.1345 28.3558 14.3202 28.1665C14.3434 28.1428 14.3898 28.1191 14.413 28.0955C14.3434 28.1191 14.297 28.1665 14.2506 28.2138C14.0649 28.4031 14.0649 28.7345 14.2506 28.9239C14.413 29.0895 14.6451 29.1132 14.8539 28.9949C14.6683 29.0659 14.4594 29.0185 14.3202 28.8765Z" fill="url(#paint11_linear_1770_5090)"/>
</g>
<path opacity="0.3" d="M14.7608 28.4023C14.8121 28.4023 14.8536 28.3599 14.8536 28.3076C14.8536 28.2553 14.8121 28.2129 14.7608 28.2129C14.7095 28.2129 14.668 28.2553 14.668 28.3076C14.668 28.3599 14.7095 28.4023 14.7608 28.4023Z" fill="#E5E9EB"/>
<path opacity="0.2" d="M17.5909 28.71C17.86 28.71 18.0783 28.4874 18.0783 28.2129C18.0783 27.9384 17.86 27.7158 17.5909 27.7158C17.3217 27.7158 17.1035 27.9384 17.1035 28.2129C17.1035 28.4874 17.3217 28.71 17.5909 28.71Z" fill="#E5E9EB"/>
<g opacity="0.4">
<path opacity="0.6" d="M17.3124 28.5212C17.1267 28.3319 17.1267 28.0006 17.3124 27.8112C17.3356 27.7876 17.382 27.7639 17.4052 27.7402C17.3356 27.7639 17.2892 27.8112 17.2428 27.8586C17.0571 28.0479 17.0571 28.3792 17.2428 28.5686C17.4052 28.7343 17.6373 28.758 17.8461 28.6396C17.6605 28.7106 17.4516 28.6633 17.3124 28.5212Z" fill="url(#paint12_linear_1770_5090)"/>
</g>
<path opacity="0.3" d="M17.7549 28.0471C17.8062 28.0471 17.8478 28.0048 17.8478 27.9525C17.8478 27.9002 17.8062 27.8578 17.7549 27.8578C17.7037 27.8578 17.6621 27.9002 17.6621 27.9525C17.6621 28.0048 17.7037 28.0471 17.7549 28.0471Z" fill="#E5E9EB"/>
<path opacity="0.2" d="M10.1184 27.6213C10.7079 27.6213 11.1859 27.1338 11.1859 26.5325C11.1859 25.9312 10.7079 25.4437 10.1184 25.4437C9.52875 25.4437 9.05078 25.9312 9.05078 26.5325C9.05078 27.1338 9.52875 27.6213 10.1184 27.6213Z" fill="#E5E9EB"/>
<g opacity="0.4">
<path opacity="0.6" d="M9.51503 27.2188C9.09731 26.7927 9.09731 26.1063 9.51503 25.6803C9.58465 25.6093 9.65427 25.562 9.7471 25.5146C9.60786 25.562 9.49182 25.6566 9.37579 25.7513C8.95807 26.1774 8.95807 26.8637 9.37579 27.2898C9.72389 27.6448 10.2577 27.7158 10.6754 27.4554C10.2809 27.6211 9.81672 27.5501 9.51503 27.2188Z" fill="url(#paint13_linear_1770_5090)"/>
</g>
<path opacity="0.3" d="M10.4899 26.2013C10.618 26.2013 10.7219 26.0953 10.7219 25.9646C10.7219 25.8338 10.618 25.7279 10.4899 25.7279C10.3617 25.7279 10.2578 25.8338 10.2578 25.9646C10.2578 26.0953 10.3617 26.2013 10.4899 26.2013Z" fill="#E5E9EB"/>
<path opacity="0.2" d="M19.6574 24.9467C20.247 24.9467 20.7249 24.4592 20.7249 23.8579C20.7249 23.2566 20.247 22.7692 19.6574 22.7692C19.0678 22.7692 18.5898 23.2566 18.5898 23.8579C18.5898 24.4592 19.0678 24.9467 19.6574 24.9467Z" fill="#E5E9EB"/>
<g opacity="0.4">
<path opacity="0.6" d="M19.0307 24.5443C18.6129 24.1183 18.6129 23.4319 19.0307 23.0059C19.1003 22.9349 19.1699 22.8875 19.2628 22.8402C19.1235 22.8875 19.0075 22.9822 18.8915 23.0769C18.4737 23.5029 18.4737 24.1893 18.8915 24.6153C19.2396 24.9703 19.7733 25.0413 20.1911 24.781C19.7965 24.9467 19.3556 24.8757 19.0307 24.5443Z" fill="url(#paint14_linear_1770_5090)"/>
</g>
<path opacity="0.3" d="M20.0289 23.5267C20.1571 23.5267 20.2611 23.4207 20.2611 23.29C20.2611 23.1593 20.1571 23.0533 20.0289 23.0533C19.9008 23.0533 19.7969 23.1593 19.7969 23.29C19.7969 23.4207 19.9008 23.5267 20.0289 23.5267Z" fill="#E5E9EB"/>
</g>
<defs>
<radialGradient id="paint0_radial_1770_5090" cx="0" cy="0" r="1" gradientUnits="userSpaceOnUse" gradientTransform="translate(28.0989 4.35487) scale(10.3727 10.5785)">
<stop stop-color="#E0E0E0" stop-opacity="0.6"/>
<stop offset="0.6807" stop-color="#888888"/>
<stop offset="1" stop-color="#1C1C1C"/>
</radialGradient>
<radialGradient id="paint1_radial_1770_5090" cx="0" cy="0" r="1" gradientUnits="userSpaceOnUse" gradientTransform="translate(22.3284 8.86644) scale(25.3782 25.8819)">
<stop stop-color="#E3E3E3" stop-opacity="0.6"/>
<stop offset="0.6807" stop-color="#969696"/>
<stop offset="1" stop-color="#313031"/>
</radialGradient>
<linearGradient id="paint2_linear_1770_5090" x1="11.6579" y1="31.0313" x2="15.9694" y2="4.94997" gradientUnits="userSpaceOnUse">
<stop offset="0.0001" stop-color="#ECECEC" stop-opacity="0.991602"/>
<stop offset="0.6202" stop-color="white" stop-opacity="0"/>
</linearGradient>
<linearGradient id="paint3_linear_1770_5090" x1="22.8825" y1="9.0028" x2="11.9624" y2="18.8273" gradientUnits="userSpaceOnUse">
<stop offset="0.2888" stop-color="white"/>
<stop offset="0.7796" stop-color="white" stop-opacity="0"/>
</linearGradient>
<linearGradient id="paint4_linear_1770_5090" x1="1.40302" y1="24.1464" x2="26.0568" y2="24.1464" gradientUnits="userSpaceOnUse">
<stop stop-color="#888888"/>
<stop offset="0.9952" stop-color="#BFBFBF"/>
</linearGradient>
<linearGradient id="paint5_linear_1770_5090" x1="27.2238" y1="18.9726" x2="13.5564" y2="31.6377" gradientUnits="userSpaceOnUse">
<stop offset="0.2888" stop-color="white"/>
<stop offset="0.7796" stop-color="white" stop-opacity="0"/>
</linearGradient>
<linearGradient id="paint6_linear_1770_5090" x1="1.40302" y1="24.1464" x2="14.5927" y2="24.1464" gradientUnits="userSpaceOnUse">
<stop stop-color="#565656"/>
<stop offset="0.9952" stop-color="#8D8D8D"/>
</linearGradient>
<linearGradient id="paint7_linear_1770_5090" x1="1.41957" y1="19.0322" x2="26.0402" y2="19.0322" gradientUnits="userSpaceOnUse">
<stop stop-color="#49494A"/>
<stop offset="0.9952" stop-color="#838383"/>
</linearGradient>
<linearGradient id="paint8_linear_1770_5090" x1="25.6357" y1="5.5652" x2="23.8153" y2="8.4658" gradientUnits="userSpaceOnUse">
<stop offset="0.2888" stop-color="white"/>
<stop offset="0.7796" stop-color="white" stop-opacity="0"/>
</linearGradient>
<linearGradient id="paint9_linear_1770_5090" x1="12.224" y1="27.2163" x2="13.2058" y2="27.2163" gradientUnits="userSpaceOnUse">
<stop offset="0.2888" stop-color="white"/>
<stop offset="0.7796" stop-color="white" stop-opacity="0"/>
</linearGradient>
<linearGradient id="paint10_linear_1770_5090" x1="15.6102" y1="26.8801" x2="16.5922" y2="26.8801" gradientUnits="userSpaceOnUse">
<stop offset="0.2888" stop-color="white"/>
<stop offset="0.7796" stop-color="white" stop-opacity="0"/>
</linearGradient>
<linearGradient id="paint11_linear_1770_5090" x1="14.1083" y1="28.5745" x2="14.8454" y2="28.5745" gradientUnits="userSpaceOnUse">
<stop offset="0.2888" stop-color="white"/>
<stop offset="0.7796" stop-color="white" stop-opacity="0"/>
</linearGradient>
<linearGradient id="paint12_linear_1770_5090" x1="17.0904" y1="28.2183" x2="17.8276" y2="28.2183" gradientUnits="userSpaceOnUse">
<stop offset="0.2888" stop-color="white"/>
<stop offset="0.7796" stop-color="white" stop-opacity="0"/>
</linearGradient>
<linearGradient id="paint13_linear_1770_5090" x1="9.05183" y1="26.5601" x2="10.6554" y2="26.5601" gradientUnits="userSpaceOnUse">
<stop offset="0.2888" stop-color="white"/>
<stop offset="0.7796" stop-color="white" stop-opacity="0"/>
</linearGradient>
<linearGradient id="paint14_linear_1770_5090" x1="18.5763" y1="23.8849" x2="20.1799" y2="23.8849" gradientUnits="userSpaceOnUse">
<stop offset="0.2888" stop-color="white"/>
<stop offset="0.7796" stop-color="white" stop-opacity="0"/>
</linearGradient>
<clipPath id="clip0_1770_5090">
<rect width="129" height="32" fill="white"/>
</clipPath>
</defs>
</svg>
