<svg width="127" height="27" viewBox="0 0 127 27" fill="none" xmlns="http://www.w3.org/2000/svg">
<mask id="mask0_21_2530" style="mask-type:luminance" maskUnits="userSpaceOnUse" x="0" y="0" width="127" height="27">
<path d="M126.697 0H0.789062V26.3437H126.697V0Z" fill="white"/>
</mask>
<g mask="url(#mask0_21_2530)">
<path d="M22.974 8.04698C22.4316 7.71278 21.7264 7.71278 21.1298 8.04698L16.8989 10.6089L14.0241 12.2797L9.79316 14.8417C9.25076 15.1759 8.54566 15.1759 7.94896 14.8417L4.58596 12.8367C4.04356 12.5026 3.66386 11.8899 3.66386 11.2215V7.26718C3.66386 6.59888 3.98926 5.98617 4.58596 5.65207L7.89476 3.70268C8.43716 3.36858 9.14226 3.36858 9.73896 3.70268L13.0477 5.65207C13.5901 5.98617 13.9698 6.59888 13.9698 7.26718V9.82918L16.8447 8.10258V5.54067C16.8447 4.87227 16.5193 4.25967 15.9226 3.92547L9.79316 0.249673C9.25076 -0.0845266 8.54566 -0.0845266 7.94896 0.249673L1.71116 3.92547C1.11446 4.25967 0.789062 4.87227 0.789062 5.54067V12.9481C0.789062 13.6164 1.11446 14.2291 1.71116 14.5632L7.94896 18.2391C8.49136 18.5733 9.19656 18.5733 9.79316 18.2391L14.0241 15.7328L16.8989 14.0063L21.1298 11.5C21.6722 11.1659 22.3774 11.1659 22.974 11.5L26.2827 13.4494C26.8252 13.7835 27.2049 14.3962 27.2049 15.0645V19.0189C27.2049 19.6872 26.8794 20.2998 26.2827 20.634L22.974 22.6391C22.4316 22.9732 21.7264 22.9732 21.1298 22.6391L17.8211 20.6897C17.2786 20.3555 16.8989 19.7429 16.8989 19.0745V16.5126L14.0241 18.2391V20.8011C14.0241 21.4694 14.3495 22.082 14.9462 22.4162L21.184 26.0921C21.7264 26.4263 22.4316 26.4263 23.0282 26.0921L29.2661 22.4162C29.8085 22.082 30.1882 21.4694 30.1882 20.8011V13.3937C30.1882 12.7253 29.8627 12.1127 29.2661 11.7785L22.974 8.04698Z" fill="white"/>
<path d="M41.6398 23.9752V17.8256C42.3013 18.6653 43.5017 19.1346 44.8982 19.1346C48.4505 19.1346 50.8515 16.5908 50.8515 12.7133C50.8515 8.83579 48.6466 6.29199 45.1922 6.29199C43.5997 6.29199 42.3748 6.88479 41.6398 7.84799V6.48959H38.2344V23.9752H41.6398ZM44.4817 16.1709C42.6443 16.1709 41.4438 14.7879 41.4438 12.7133C41.4438 10.614 42.6443 9.23099 44.4817 9.23099C46.2701 9.23099 47.4951 10.614 47.4951 12.7133C47.4951 14.7879 46.2701 16.1709 44.4817 16.1709Z" fill="white"/>
<path d="M58.5949 19.1346C62.3923 19.1346 65.1118 16.4179 65.1118 12.7133C65.1118 9.00869 62.3923 6.29199 58.5949 6.29199C54.7976 6.29199 52.0781 9.00869 52.0781 12.7133C52.0781 16.4179 54.7976 19.1346 58.5949 19.1346ZM58.5949 16.1709C56.7575 16.1709 55.508 14.7632 55.508 12.7133C55.508 10.6387 56.7575 9.23099 58.5949 9.23099C60.4324 9.23099 61.6819 10.6387 61.6819 12.7133C61.6819 14.7632 60.4324 16.1709 58.5949 16.1709Z" fill="white"/>
<path d="M70.5694 18.9381V1.08203H67.1641V18.9381H70.5694Z" fill="white"/>
<path d="M80.812 6.48633L78.24 14.5129L75.643 6.48633H72.1641L76.647 18.8349L74.835 23.9719H78.093L79.832 18.8843L84.316 6.48633H80.812Z" fill="white"/>
<path d="M93.8667 7.72449C93.1807 6.86009 91.9557 6.29199 90.4617 6.29199C86.8597 6.29199 84.6797 8.83579 84.6797 12.7133C84.6797 16.5908 86.8597 19.1346 90.5097 19.1346C91.9557 19.1346 93.2537 18.5912 93.8917 17.6774V19.3075C93.8917 20.4682 93.1317 21.2832 92.1027 21.2832H86.4187V23.9752H92.6417C95.4347 23.9752 97.2967 22.2711 97.2967 19.6779V6.48959H93.8667V7.72449ZM91.0487 16.1709C89.2357 16.1709 88.0357 14.8126 88.0357 12.7133C88.0357 10.614 89.2357 9.23099 91.0487 9.23099C92.8867 9.23099 94.0867 10.614 94.0867 12.7133C94.0867 14.8126 92.8867 16.1709 91.0487 16.1709Z" fill="white"/>
<path d="M105.892 19.1346C109.69 19.1346 112.409 16.4179 112.409 12.7133C112.409 9.00869 109.69 6.29199 105.892 6.29199C102.095 6.29199 99.375 9.00869 99.375 12.7133C99.375 16.4179 102.095 19.1346 105.892 19.1346ZM105.892 16.1709C104.054 16.1709 102.805 14.7632 102.805 12.7133C102.805 10.6387 104.054 9.23099 105.892 9.23099C107.729 9.23099 108.979 10.6387 108.979 12.7133C108.979 14.7632 107.729 16.1709 105.892 16.1709Z" fill="white"/>
<path d="M117.696 18.937V12.1206C117.696 10.5153 118.749 9.35449 120.243 9.35449C121.664 9.35449 122.619 10.4412 122.619 11.9477V18.937H126.049V11.1821C126.049 8.31719 124.236 6.29199 121.443 6.29199C119.753 6.29199 118.381 7.00819 117.696 8.21839V6.48959H114.266V18.937H117.696Z" fill="white"/>
</g>
</svg>
