<svg width="200" height="47" viewBox="0 0 200 47" fill="none" xmlns="http://www.w3.org/2000/svg">
<g clip-path="url(#clip0_3_3)">
<mask id="mask0_3_3" style="mask-type:luminance" maskUnits="userSpaceOnUse" x="0" y="0" width="200" height="47">
<path d="M0 0H200V46.924H0V0Z" fill="white"/>
</mask>
<g mask="url(#mask0_3_3)">
<path d="M30.137 26.228L46.924 23.462L30.137 20.696L40.052 6.872L26.228 16.787L23.462 0L20.698 16.787L6.872 6.872L16.787 20.696L0 23.462L16.787 26.228L6.872 40.052L20.698 30.137L23.462 46.924L26.228 30.137L40.052 40.052L30.137 26.228Z" fill="white"/>
<path d="M116.125 15.288C114.574 14.511 112.798 14.124 110.801 14.124H102.618V22.425H106.095V17.066H110.642C112.014 17.066 113.222 17.329 114.267 17.855C115.311 18.38 116.113 19.129 116.674 20.102C117.234 21.074 117.516 22.202 117.516 23.485C117.516 24.769 117.234 25.897 116.674 26.869C116.113 27.84 115.311 28.589 114.267 29.116C113.222 29.642 112.014 29.905 110.642 29.905H106.095V24.53H102.618V32.847H110.801C112.798 32.847 114.572 32.46 116.125 31.683C117.676 30.907 118.879 29.811 119.736 28.393C120.592 26.977 121.019 25.341 121.019 23.485C121.019 21.632 120.592 19.995 119.736 18.577C118.879 17.16 117.676 16.062 116.125 15.287V15.288ZM85.41 14.124L76.985 32.847H80.57L82.417 28.513H91.778L93.65 32.847H97.287L88.836 14.124H85.41ZM83.592 25.784L87.095 17.601L90.626 25.785L83.592 25.784ZM70.953 24.422C71.638 23.406 71.983 22.192 71.983 20.785C71.983 19.413 71.662 18.228 71.021 17.228C70.378 16.228 69.456 15.464 68.253 14.928C67.049 14.394 65.637 14.126 64.013 14.126H56.31V22.427H59.788V17.07H63.854C65.369 17.07 66.519 17.391 67.304 18.032C68.088 18.674 68.483 19.592 68.483 20.786C68.483 21.98 68.091 22.905 67.305 23.554C66.519 24.207 65.369 24.531 63.854 24.531H56.31V32.848H59.788V27.39H64.013C64.335 27.39 64.573 27.38 64.736 27.364L68.56 32.847H72.305L67.999 26.695C69.28 26.195 70.266 25.438 70.953 24.422ZM127.588 32.847H131.065V14.124H127.588V32.847ZM144.831 14.124L136.405 32.847H139.99L141.837 28.513H151.198L153.07 32.847H156.707L148.256 14.124H144.831ZM143.012 25.784L146.515 17.601L150.046 25.785L143.012 25.784ZM184.111 14.124V17.066H190.316V32.846H193.794V17.066H199.999V14.124H184.111ZM175.223 26.803L164.9 14.124H162.038V32.847H165.489V20.168L175.812 32.847H178.675V14.124H175.223V26.803Z" fill="white"/>
</g>
</g>
<defs>
<clipPath id="clip0_3_3">
<rect width="200" height="47" fill="white"/>
</clipPath>
</defs>
</svg>
