<svg width="744" height="370" viewBox="0 0 744 370" fill="none" xmlns="http://www.w3.org/2000/svg">
<path fill-rule="evenodd" clip-rule="evenodd" d="M29.8996 0.328787C16.9842 2.09893 8.11648 7.40357 4.13089 15.7426C1.97727 20.2494 1.20921 24.1321 1.20921 30.5164C1.20921 44.8211 6.85884 51.4725 29.8996 64.2952C40.6466 70.2762 42.4112 71.41 45.5703 74.3613C49.0126 77.5776 50.1671 79.9425 50.1671 83.7752C50.1671 91.1303 44.9681 95.3432 37.308 94.1957C34.1394 93.7213 31.7121 91.9859 30.2944 89.1824C29.2657 87.1482 29.1099 86.0255 29.1099 80.6409V74.4417H14.5552H0L0.310593 81.6727C0.771218 92.4056 2.55371 97.736 7.43896 102.993C14.2073 110.276 23.8451 113.519 38.8489 113.564C52.9461 113.606 62.1791 110.881 69.1006 104.634C73.7337 100.452 76.1379 94.8215 77.0644 85.9818C78.9822 67.6846 73.4015 59.1678 51.7464 47.3432C34.2068 37.7663 31.4331 35.8888 29.6437 32.3854C28.2129 29.5834 28.2613 25.8691 29.768 22.8847C32.9586 16.5635 43.5035 16.563 46.849 22.8836C47.8503 24.7747 48.0614 25.9832 48.0614 29.8238V34.4742H61.5537H75.0466L74.7697 27.5062C74.4439 19.3139 73.6558 16.3736 70.5551 11.7805C67.0096 6.52901 60.8625 2.91037 52.2728 1.0177C47.9629 0.0684726 34.7638 -0.338039 29.8996 0.328787ZM376.09 0.878341C361.642 2.55277 352.503 8.44588 348.651 18.5729C346.982 22.9615 346.315 29.9295 347.061 35.1831C348.674 46.5276 355.045 53.0281 375.763 64.4672C380.106 66.8653 384.963 69.705 386.555 70.7784C390.403 73.3715 394.146 77.4461 394.969 79.9373C395.856 82.6235 395.358 87.0331 393.867 89.683C390.14 96.3082 376.99 94.8714 374.973 87.6189C374.687 86.5903 374.452 83.2041 374.45 80.095L374.447 74.4417H360.234H346.02L346.029 80.358C346.051 94.3345 350.578 103.044 360.505 108.209C373.247 114.837 395.626 114.893 408.133 108.328C413.822 105.341 418.33 100.262 420.326 94.5885C421.953 89.966 422.676 81.1168 421.923 75.0607C420.443 63.1677 413.992 56.5447 392.872 45.2318C380.025 38.3505 375.84 35.2399 374.423 31.5203C373.569 29.2732 373.854 25.887 375.105 23.4411C376.879 19.9744 378.534 19.0078 383.028 18.8174C390.074 18.5193 392.909 21.5621 393.306 29.8459L393.528 34.4742H406.623H419.72V29.3121C419.72 19.5653 417.899 14.1828 412.912 9.18948C405.939 2.20779 391.92 -0.956484 376.09 0.878341ZM696.87 0.803139C681.004 3.0571 671.928 10.3596 668.883 23.3212C668.024 26.9782 667.931 30.2566 667.931 56.8245C667.931 83.3997 668.022 86.6076 668.866 89.6925C670.304 94.9519 672.271 98.4985 675.59 101.813C682.96 109.176 696.773 112.823 711.715 111.352C728.68 109.681 738.612 102.926 742.3 90.5507C742.936 88.4198 743.153 83.8415 743.334 68.7884L743.564 49.725H724.567H705.571V57.6133V65.5016H711.138H716.706L716.534 75.6655C716.368 85.4996 716.32 85.8919 715.046 87.7698C710.211 94.9009 697.279 93.2496 695.094 85.2224C694.717 83.8362 694.52 73.9595 694.519 56.2628C694.515 26.8793 694.635 25.5504 697.53 22.78C700.598 19.845 706.135 18.8721 710.175 20.5581C714.677 22.4377 716.099 25.2054 716.099 32.0867V37.1036H729.868H743.636L743.306 30.5947C743.069 25.9212 742.621 22.972 741.72 20.1353C738.614 10.3659 730.946 4.11518 718.991 1.60775C714.155 0.593835 701.567 0.135786 696.87 0.803139ZM113.865 3.84646C113.865 4.06628 109.482 27.8843 104.126 56.7745C98.7696 85.6652 94.3871 109.387 94.3871 109.49C94.3871 109.592 100.876 109.676 108.808 109.676H123.228L123.748 106.652C124.034 104.99 127.316 83.3329 131.043 58.5278C134.769 33.7222 137.983 13.8436 138.186 14.3532C138.389 14.8622 141.423 34.9212 144.929 58.928C148.435 82.9348 151.561 104.174 151.876 106.127L152.448 109.676H166.858H181.268L180.989 108.493C180.506 106.443 161.77 4.57218 161.77 3.99581C161.77 3.62243 154.11 3.44678 137.817 3.44678C124.644 3.44678 113.865 3.62663 113.865 3.84646ZM204.402 3.57825C204.257 5.66603 202.318 97.4367 202.312 102.445L202.305 109.676H215.397H228.488L228.815 107.704C228.994 106.62 229.174 90.3499 229.214 71.5493C229.253 52.7488 229.434 32.2397 229.614 25.9737L229.942 14.5809L238.589 61.2083C243.344 86.8532 247.339 108.25 247.468 108.756C247.682 109.603 248.789 109.676 261.327 109.676C268.82 109.676 274.947 109.499 274.941 109.282C274.935 109.065 278.903 87.4906 283.759 61.3387L292.587 13.79L292.91 37.4108C293.087 50.4023 293.264 71.9769 293.304 85.3539L293.377 109.676H306.801H320.225L320.215 104.286C320.21 101.321 319.741 79.1353 319.172 54.9839C318.604 30.8324 318.134 9.35672 318.129 7.25947L318.119 3.44678H296.329H274.54L274.269 4.63003C274.12 5.28108 271.215 23.207 267.815 44.4661C264.415 65.7251 261.481 83.2935 261.297 83.507C261.112 83.721 259.236 73.1901 257.127 60.105C255.018 47.0203 252.091 28.9198 250.624 19.8808L247.956 3.44678H226.183C214.209 3.44678 204.406 3.50568 204.402 3.57825ZM446.696 46.1752C446.874 87.539 446.915 89.0162 447.964 92.4339C452.114 105.952 464.338 112.832 484.207 112.832C501.084 112.832 512.776 107.626 518.017 97.7801C521.345 91.5278 521.304 92.1768 521.313 45.6493L521.321 3.44678H507.909H494.498L494.353 45.1624L494.21 86.8774L492.727 89.1151C490.183 92.9556 484.472 94.487 479.867 92.5649C477.257 91.4753 476.083 90.3541 474.932 87.8519C474.021 85.8682 473.965 83.4013 473.954 44.5976L473.942 3.44678H460.227H446.511L446.696 46.1752ZM550.801 56.0293V108.624H563.961C574.146 108.624 577.12 108.476 577.11 107.967C577.103 107.606 576.754 88.9694 576.332 66.5534C575.911 44.1374 575.574 24.8504 575.582 23.6935C575.592 22.2983 579.982 35.9393 588.615 64.1869C595.775 87.6152 601.796 107.198 601.995 107.704C602.331 108.557 603.75 108.624 621.326 108.624H640.294V56.0356V3.44678H626.977H613.66L613.808 8.31125C614.131 18.8921 615.103 86.1086 614.937 86.2747C614.839 86.3726 609.31 67.835 602.65 45.0808L590.541 3.70972L570.671 3.57194L550.801 3.43416V56.0293ZM0.286904 255.742L0.419564 369.728L28.9762 369.864L57.5329 370L57.6666 307.339L57.8003 244.677L97.5283 307.334L137.256 369.991H165.043H192.829V255.873V141.755H164.141H135.453L135.319 201.679L135.185 261.603L97.0524 201.679L58.9195 141.755H29.5369H0.153717L0.286904 255.742ZM205.594 255.742L205.727 369.728L277.189 369.862L348.652 369.995V342.121V314.247H305.74H262.828L262.968 298.602L263.107 282.957L305.88 282.822L348.652 282.687V255.084V227.482L305.88 227.347L263.107 227.212L262.967 212.356L262.828 197.5H305.74H348.652V169.628V141.755H277.057H205.461L205.594 255.742ZM355.056 142.192C355.153 142.438 370.749 168.03 389.714 199.066C408.678 230.101 424.139 255.687 424.07 255.924C424.002 256.16 408.535 281.573 389.699 312.397C370.863 343.221 355.318 368.789 355.155 369.216C354.894 369.894 358.921 369.991 387.207 369.991C417.367 369.991 419.61 369.929 420.341 369.071C422.553 366.474 491.908 255.764 491.67 255.21C491.517 254.851 475.322 229.237 455.682 198.288L419.973 142.018L387.426 141.883C369.525 141.809 354.958 141.948 355.056 142.192ZM489.209 142.103C489.209 142.293 497.441 155.884 507.502 172.306C521.325 194.867 525.941 202.01 526.393 201.54C526.722 201.198 534.634 188.849 543.976 174.098C553.318 159.346 561.751 146.035 562.717 144.516L564.475 141.755H526.842C506.143 141.755 489.209 141.912 489.209 142.103ZM574.49 169.628V197.5H602.391H630.291V283.745V369.991H658.982H687.672V283.745V197.5H715.836H744V169.628V141.755H659.245H574.49V169.628ZM507.427 339.237C497.407 355.584 489.209 369.192 489.209 369.475C489.209 369.808 502.609 369.991 526.865 369.991H564.522L563.847 368.754C562.087 365.528 526.291 309.514 525.99 309.514C525.8 309.514 517.447 322.889 507.427 339.237Z" fill="white"/>
</svg>
