<?xml version="1.0" encoding="UTF-8"?>
<svg id="GITBOOK_2" data-name="GITBOOK 2" xmlns="http://www.w3.org/2000/svg" viewBox="0 0 1634.63 500">
  <defs>
    <style>
      .cls-1 {
        fill: none;
      }

      .cls-2 {
        fill: #f5f5f5;
      }
    </style>
  </defs>
  <g>
    <path class="cls-2" d="m633.18,139.06h171.81v36.46h-66.13v189.42h-39.55v-189.42h-66.13v-36.46Z"/>
    <path class="cls-2" d="m781.5,321.38c0-28.12,20.39-45.73,56.55-48.51l45.73-3.4v-3.4c0-20.7-12.36-29.05-31.52-29.05-22.25,0-34.61,9.27-34.61,25.34h-32.14c0-33.06,27.19-54.69,68.6-54.69s66.44,22.25,66.44,64.58v92.7h-33.06l-2.78-22.56c-6.49,15.76-27.19,26.57-50.99,26.57-32.45,0-52.22-18.85-52.22-47.59Zm102.59-18.23v-8.03l-31.83,2.47c-23.48,2.16-32.45,9.89-32.45,22.25,0,13.91,9.27,20.7,26.27,20.7,23.18,0,38.01-13.91,38.01-37.39Z"/>
    <path class="cls-2" d="m942.17,212.3h34.92l2.47,23.17c9.27-17.61,29.36-27.81,52.53-27.81,42.95,0,71.38,31.21,71.38,79.11s-25.96,82.2-71.38,82.2c-22.87,0-42.64-8.96-52.22-24.41v91.16h-37.7v-223.41Zm80.96,122.67c26.57,0,42.33-19.16,42.33-46.35s-15.76-46.66-42.33-46.66-42.95,19.16-42.95,46.66,17,46.35,42.95,46.35Z"/>
    <path class="cls-2" d="m1113.66,158.84c0-12.67,10.2-22.56,23.18-22.56s22.56,9.89,22.56,22.56-10.2,22.87-22.56,22.87c-12.98,0-23.18-10.2-23.18-22.87Zm4.33,53.46h37.7v152.65h-37.7v-152.65Z"/>
    <path class="cls-2" d="m1251.78,207.97c47.28,0,81.58,32.75,81.58,80.34s-34.3,80.34-81.58,80.34-81.58-32.75-81.58-80.34,34.3-80.34,81.58-80.34Zm0,127c25.96,0,43.88-18.85,43.88-46.66s-17.92-46.66-43.88-46.66-43.88,18.85-43.88,46.66,17.92,46.66,43.88,46.66Z"/>
    <path class="cls-2" d="m1415.24,207.66c41.72,0,70.14,23.18,74.16,59.95h-37.7c-4.33-17.3-17-26.27-34.92-26.27-24.1,0-40.17,18.23-40.17,46.97s14.83,46.66,38.93,46.66c18.85,0,32.14-9.27,36.15-25.96h38.01c-4.63,35.54-34.3,59.95-74.16,59.95-46.35,0-76.63-32.14-76.63-80.65s31.21-80.65,76.32-80.65Z"/>
    <path class="cls-2" d="m1495.58,321.38c0-28.12,20.39-45.73,56.55-48.51l45.73-3.4v-3.4c0-20.7-12.36-29.05-31.52-29.05-22.25,0-34.61,9.27-34.61,25.34h-32.14c0-33.06,27.19-54.69,68.6-54.69s66.44,22.25,66.44,64.58v92.7h-33.06l-2.78-22.56c-6.49,15.76-27.19,26.57-50.99,26.57-32.45,0-52.22-18.85-52.22-47.59Zm102.59-18.23v-8.03l-31.83,2.47c-23.48,2.16-32.45,9.89-32.45,22.25,0,13.91,9.27,20.7,26.27,20.7,23.18,0,38.01-13.91,38.01-37.39Z"/>
  </g>
  <g>
    <path class="cls-1" d="m252.78,159.6c74.9,0,135.96,53.29,138.94,120.05,3.16-4.31,6.07-8.77,8.73-13.38.31-3.51.47-7.05.47-10.63,0-73.63-66.32-133.32-148.13-133.32s-148.13,59.69-148.13,133.32c0,3.58.16,7.12.47,10.63,2.66,4.61,5.57,9.07,8.73,13.38,2.98-66.75,64.04-120.05,138.94-120.05Z"/>
    <path class="cls-1" d="m98.31,252.9c-1.79-8.55-2.74-17.36-2.74-26.37,0-78.14,70.38-141.49,157.21-141.49s157.21,63.35,157.21,141.49c0,9.01-.95,17.83-2.74,26.37,7.62-17.16,11.81-35.88,11.81-55.49,0-82.65-74.45-149.65-166.28-149.65S86.5,114.76,86.5,197.41c0,19.61,4.2,38.33,11.81,55.49Z"/>
    <path class="cls-1" d="m380.71,293.01c-10.93-54.66-64.04-96.13-127.92-96.13s-117,41.47-127.92,96.13c4.36,4.72,9.05,9.2,14.02,13.41,16.69-42.11,61.38-72.26,113.91-72.26s97.22,30.15,113.91,72.26c4.97-4.21,9.65-8.68,14.02-13.41Z"/>
    <path class="cls-1" d="m252.78,9.35C122.67,9.35,17.19,112.34,17.19,239.38s105.48,230.03,235.59,230.03,235.59-102.99,235.59-230.03c0-127.04-105.48-230.03-235.59-230.03Zm0,429.48c-120.62,0-218.4-94.05-218.4-210.06S132.16,18.7,252.78,18.7c120.62,0,218.4,94.05,218.4,210.06,0,116.01-97.78,210.06-218.4,210.06Z"/>
    <path class="cls-1" d="m322.52,333.29c9.1-3.79,17.75-8.29,25.87-13.44-19.62-29.03-55.1-48.41-95.61-48.41s-75.99,19.39-95.61,48.41c8.12,5.14,16.77,9.65,25.87,13.44,18.32-15.25,42.82-24.57,69.74-24.57s51.42,9.32,69.74,24.57Z"/>
    <path class="cls-1" d="m252.78,28.05c-111.13,0-201.22,85.11-201.22,190.09s90.09,190.09,201.22,190.09,201.22-85.11,201.22-190.09S363.91,28.05,252.78,28.05Zm0,349.6c-101.64,0-184.03-76.17-184.03-170.13S151.14,37.4,252.78,37.4s184.03,76.17,184.03,170.12-82.39,170.13-184.03,170.13Z"/>
    <path class="cls-2" d="m252.78,0C113.17,0,0,111.93,0,250s113.17,250,252.78,250,252.78-111.93,252.78-250S392.39,0,252.78,0Zm0,469.41c-130.11,0-235.59-102.99-235.59-230.03S122.67,9.35,252.78,9.35s235.59,102.99,235.59,230.03c0,127.04-105.48,230.03-235.59,230.03Z"/>
    <path class="cls-2" d="m252.78,18.7c-120.62,0-218.4,94.05-218.4,210.06s97.78,210.06,218.4,210.06,218.4-94.05,218.4-210.06c0-116.01-97.78-210.06-218.4-210.06Zm0,389.54c-111.13,0-201.22-85.11-201.22-190.09S141.65,28.05,252.78,28.05s201.22,85.11,201.22,190.09-90.09,190.09-201.22,190.09Z"/>
    <path class="cls-2" d="m252.78,37.4c-101.64,0-184.03,76.17-184.03,170.12s82.39,170.13,184.03,170.13,184.03-76.17,184.03-170.13S354.42,37.4,252.78,37.4Zm-95.61,282.46c19.62-29.03,55.1-48.41,95.61-48.41s75.99,19.39,95.61,48.41c-8.12,5.14-16.77,9.65-25.87,13.44-18.32-15.25-42.82-24.57-69.74-24.57s-51.42,9.32-69.74,24.57c-9.1-3.79-17.75-8.29-25.87-13.44Zm95.61-85.69c-52.53,0-97.22,30.15-113.91,72.26-4.97-4.21-9.65-8.68-14.02-13.41,10.93-54.66,64.04-96.13,127.92-96.13s117,41.47,127.92,96.13c-4.36,4.72-9.05,9.2-14.02,13.41-16.69-42.11-61.38-72.26-113.91-72.26Zm0-186.41c91.84,0,166.28,67,166.28,149.65,0,19.61-4.2,38.33-11.81,55.49,1.79-8.55,2.74-17.36,2.74-26.37,0-78.14-70.38-141.49-157.21-141.49s-157.21,63.35-157.21,141.49c0,9.01.95,17.83,2.74,26.37-7.62-17.16-11.81-35.88-11.81-55.49,0-82.65,74.45-149.65,166.28-149.65ZM104.65,255.64c0-73.63,66.32-133.32,148.13-133.32s148.13,59.69,148.13,133.32c0,3.58-.16,7.12-.47,10.63-2.66,4.61-5.57,9.07-8.73,13.38-2.98-66.75-64.04-120.05-138.94-120.05s-135.96,53.29-138.94,120.05c-3.16-4.31-6.07-8.77-8.73-13.38-.31-3.51-.47-7.05-.47-10.63Z"/>
  </g>
</svg>