<svg width="26" height="24" viewBox="0 0 26 24" fill="none" xmlns="http://www.w3.org/2000/svg">
<path d="M13.2275 0.129906C6.43855 0.129906 0.935547 5.39591 0.935547 11.8929C0.935547 18.3889 6.43855 23.6559 13.2275 23.6559C20.0165 23.6559 25.5195 18.3889 25.5195 11.8929C25.5195 5.39591 20.0165 0.128906 13.2275 0.128906V0.129906ZM13.2275 21.9439C6.97255 21.9439 1.90255 17.1769 1.90255 11.2989C1.90255 5.41891 6.97255 0.652906 13.2275 0.652906C19.4825 0.652906 24.5525 5.41891 24.5525 11.2979C24.5525 17.1769 19.4825 21.9439 13.2275 21.9439Z" fill="#FFCAF8"/>
<path d="M13.2271 1.17578C7.50714 1.17578 2.86914 5.44178 2.86914 10.7028C2.86914 15.9638 7.50614 20.2298 13.2271 20.2298C18.9471 20.2298 23.5841 15.9648 23.5841 10.7028C23.5841 5.44078 18.9471 1.17578 13.2271 1.17578ZM7.84614 16.9938C8.95014 15.3678 10.9471 14.2838 13.2261 14.2838C15.5061 14.2838 17.5041 15.3688 18.6081 16.9938C18.1511 17.2818 17.6641 17.5338 17.1521 17.7468C16.1211 16.8928 14.7421 16.3708 13.2271 16.3708C11.7121 16.3708 10.3331 16.8928 9.30214 17.7468C8.79634 17.5375 8.30925 17.2856 7.84614 16.9938ZM13.2261 12.1948C10.2701 12.1948 7.75614 13.8838 6.81614 16.2418C6.53773 16.0078 6.2739 15.757 6.02614 15.4908C6.64214 12.4298 9.63114 10.1078 13.2261 10.1078C16.8221 10.1078 19.8111 12.4298 20.4261 15.4908C20.1811 15.7548 19.9161 16.0058 19.6361 16.2408C18.6981 13.8838 16.1821 12.1948 13.2261 12.1948ZM13.2261 1.75578C18.3961 1.75578 22.5861 5.50778 22.5861 10.1358C22.5859 11.2071 22.3592 12.2662 21.9211 13.2438C22.0211 12.7648 22.0751 12.2718 22.0751 11.7678C22.0751 7.39178 18.1141 3.84378 13.2271 3.84378C8.34014 3.84378 4.37914 7.39178 4.37914 11.7668C4.37914 12.2718 4.43214 12.7658 4.53314 13.2438C4.09492 12.2666 3.8683 11.2077 3.86814 10.1368C3.86814 5.50778 8.05814 1.75678 13.2271 1.75678L13.2261 1.75578ZM4.89014 13.3978C4.89014 9.27378 8.62314 5.93178 13.2271 5.93178C17.8311 5.93178 21.5641 9.27378 21.5641 13.3978C21.5641 13.5978 21.5551 13.7958 21.5381 13.9928C21.3879 14.2516 21.2237 14.5019 21.0461 14.7428C20.8781 11.0038 17.4421 8.01878 13.2261 8.01878C9.01114 8.01878 5.57414 11.0038 5.40614 14.7418C5.22928 14.5012 5.0657 14.2512 4.91614 13.9928C4.89836 13.7949 4.89035 13.5964 4.89014 13.3978Z" fill="#FFCAF8"/>
</svg>
