<svg width="3284" height="308" viewBox="0 0 3284 308" fill="none" xmlns="http://www.w3.org/2000/svg">
<path fill-rule="evenodd" clip-rule="evenodd" d="M127.907 0.588487C110.204 3.05349 94.8034 7.94849 79.1054 16.0985C65.3534 23.2395 54.5994 31.0945 42.8654 42.5715C21.8364 63.1385 9.30635 86.1655 2.86835 116.071C1.18835 123.873 0.603355 130.797 0.204355 147.571C-0.248645 166.629 -0.0566454 170.548 1.89535 182.071C7.64935 216.046 22.3564 245.031 45.8554 268.713C65.9284 288.943 85.7544 299.485 114.533 305.232C127.017 307.725 157.918 307.758 170.089 305.291C188.717 301.516 205.024 294.694 221.27 283.878C232.406 276.465 250.47 259.613 257.864 249.739C273.779 228.487 283.695 203.139 286.929 175.435C288.744 159.888 287.704 129.026 284.928 116.071C280.283 94.3935 271.408 74.3115 259.464 58.4555C247.345 42.3655 224.218 22.8435 206.85 14.0425C188.722 4.85649 171.531 0.642487 149.907 0.0844867C141.382 -0.136513 131.482 0.0914866 127.907 0.588487ZM167.907 19.5555C205.332 30.3215 227.303 64.0125 235.087 122.571C237.059 137.412 236.764 180.454 234.592 194.571C227.579 240.164 210.104 269.238 181.407 283.059C167.719 289.651 161.132 291.014 142.907 291.026C129.812 291.034 126.197 290.688 119.608 288.793C109.929 286.009 102.238 282.174 94.1644 276.105C73.4764 260.554 58.2504 228.507 52.2494 187.888C50.9634 179.182 50.4994 169.622 50.4854 151.571C50.4624 120.772 52.5684 104.205 59.1294 83.5715C70.2554 48.5835 93.8004 25.0225 124.508 18.1485C134.582 15.8935 157.794 16.6455 167.907 19.5555ZM1500.41 77.8215C1500.18 78.5095 1498.84 83.6585 1497.44 89.2635C1496.04 94.8695 1494.49 100.549 1493.98 101.886C1493.02 104.408 1494.17 106.571 1496.47 106.571C1497.11 106.571 1499.56 103.593 1501.91 99.9525C1508.01 90.5145 1511.02 89.3355 1529.36 89.1865L1543.41 89.0715V140.794C1543.41 200.937 1544.38 195.96 1532.25 197.949C1526.45 198.9 1525.41 199.375 1525.41 201.071C1525.41 203.012 1526.16 203.079 1551.16 203.338L1576.91 203.605V201.213C1576.91 198.763 1574.1 197.571 1568.34 197.571C1567.06 197.571 1564.76 196.485 1563.21 195.158L1560.41 192.746L1560.12 140.55L1559.82 88.3555L1575.12 88.7525C1587.97 89.0865 1591.15 89.4855 1595.04 91.2545C1599.82 93.4205 1600.73 94.9195 1602.42 103.321C1602.92 105.833 1603.58 106.571 1605.32 106.571C1607.46 106.571 1607.63 105.986 1608.77 94.8215C1609.44 88.3585 1610.24 81.8345 1610.56 80.3215C1611.02 78.1235 1610.78 77.5715 1609.34 77.5715C1608.35 77.5715 1606.6 78.4555 1605.45 79.5355C1603.43 81.4265 1601.6 81.5035 1556.22 81.6205C1508.32 81.7435 1504.91 81.5045 1504.91 78.0365C1504.91 76.2545 1501.02 76.0685 1500.41 77.8215ZM3172.33 79.3215C3170.74 86.3795 3169.65 90.6215 3167.69 97.4065C3165.88 103.643 3165.78 104.876 3166.99 105.641C3169.55 107.262 3170.68 106.629 3172.89 102.321C3175.94 96.4105 3180.67 91.7405 3184.86 90.5185C3186.81 89.9505 3194.26 89.2165 3201.42 88.8885C3212.55 88.3775 3214.62 88.5205 3215.74 89.8745C3217.54 92.0375 3216.97 188.593 3215.14 192.833C3213.71 196.143 3211.3 197.248 3203.66 198.085C3198.4 198.661 3197.91 198.923 3197.91 201.16V203.605L3223.66 203.338C3249.31 203.072 3249.41 203.063 3249.72 200.878C3250 198.885 3249.47 198.621 3243.91 197.992C3240.46 197.601 3236.84 196.526 3235.6 195.524L3233.41 193.749L3233.13 141.16L3232.86 88.5715H3245.17C3258.58 88.5715 3268.11 90.3755 3271.28 93.5135C3272.31 94.5335 3273.69 97.7755 3274.35 100.719C3275.4 105.415 3275.88 106.11 3278.23 106.387C3280.88 106.701 3280.91 106.649 3280.92 100.387C3280.92 94.5015 3282.3 83.3315 3283.51 79.3215C3284.26 76.8445 3280.15 76.9945 3277.44 79.5435C3275.41 81.4455 3273.67 81.5185 3227.88 81.6115L3180.42 81.7075L3178.21 79.1395C3175.34 75.8025 3173.1 75.8715 3172.33 79.3215ZM379.563 78.3215C379.309 78.7335 378.121 84.8745 376.924 91.9665C375.727 99.0595 374.306 106.02 373.768 107.437C372.987 109.491 373.143 110.27 374.539 111.291C378.064 113.869 379.764 112.806 383.281 105.82C389.489 93.4945 393.512 91.2425 408.407 91.7595L417.407 92.0715L417.667 138.927C417.837 169.618 417.561 187.142 416.867 189.721C415.713 194.004 413.251 195.56 407.592 195.585C400.764 195.614 398.492 197.267 399.577 201.416C400.1 203.416 400.681 203.45 430.758 203.262L461.407 203.071L461.716 199.877C462.006 196.88 461.791 196.646 458.216 196.06C450.047 194.722 449.055 194.392 447.261 192.41C445.509 190.475 445.407 187.666 445.407 141.217V92.0715L454.407 91.7595C469.567 91.2335 473.577 93.7075 477.608 106.071C479.138 110.766 480.048 112.142 481.79 112.398C485.844 112.993 486.559 111.201 487.402 98.3265C488.738 77.9365 488.75 78.1205 486.059 77.7395C484.546 77.5245 483.192 78.1475 482.252 79.4895C480.81 81.5485 480.277 81.5715 434.005 81.5715C388.487 81.5715 387.168 81.5175 385.407 79.5715C383.601 77.5765 380.439 76.8995 379.563 78.3215ZM778.352 78.3365C777.772 78.7405 776.263 85.1465 774.998 92.5715C773.733 99.9965 772.472 107.288 772.196 108.775C771.776 111.034 772.114 111.585 774.243 112.119C777.754 113 778.409 112.401 781.877 105.133C785.331 97.8975 790.352 92.9495 795.136 92.0665C796.935 91.7345 802.232 91.5995 806.907 91.7675L815.407 92.0715V141.786C815.407 197.271 815.818 194.168 808.338 195.159C797.288 196.622 797.762 196.403 798.098 199.877L798.407 203.071L828.888 203.256C859.382 203.441 860.876 203.292 860.876 200.071C860.876 197.554 858.661 196.203 853.354 195.483C850.195 195.054 846.924 194.017 846.085 193.177C845.245 192.338 844.22 189.271 843.806 186.361C842.909 180.061 842.668 97.0635 843.537 93.8215C844.111 91.6795 844.618 91.5715 854.073 91.5715C868.056 91.5715 871.942 93.9885 875.463 104.878C877.561 111.366 879.041 113.005 882.107 112.236C884.645 111.599 884.32 113.619 887.19 80.5715C887.482 77.2115 883.514 76.5425 880.769 79.4895C878.857 81.5415 878.159 81.5715 832.023 81.5715C786.487 81.5715 785.168 81.5175 783.407 79.5715C781.5 77.4645 780.096 77.1215 778.352 78.3365ZM940.615 84.0615C937.979 86.4875 934.318 89.0165 932.479 89.6815C929.602 90.7215 929.055 91.4615 928.564 94.9815C927.949 99.3925 898.561 178.629 894.303 187.358C891.278 193.559 888.527 195.634 882.42 196.322C877.782 196.845 876.224 198.627 877.499 201.95C878.069 203.436 880.31 203.582 898.772 203.341L919.407 203.071V200.12C919.407 197.313 919.088 197.092 912.915 195.62C908.793 194.637 906.33 193.523 906.17 192.571C906.031 191.746 908.053 184.773 910.662 177.075L915.407 163.079L931.907 163.402C942.799 163.616 948.802 164.124 949.57 164.898C950.786 166.124 957.376 186.225 958.465 192.028C959.152 195.688 958.954 195.836 951.646 197.131C947.253 197.91 946.495 198.792 947.336 202.144L947.953 204.603L975.18 204.337L1002.41 204.071V201.071C1002.41 198.263 1002.06 197.986 996.907 196.739C990.146 195.102 987.485 192.731 985.026 186.156C981.801 177.535 953.776 96.5195 951.294 88.6445C949.244 82.1425 947.689 79.5395 945.907 79.6265C945.632 79.6395 943.251 81.6355 940.615 84.0615ZM1121.27 81.0475C1111.61 82.8005 1107.79 84.1115 1098.41 88.8945C1065.9 105.466 1054.92 148.686 1075.54 178.87C1086.39 194.749 1104.91 204.107 1129.57 206.163C1144.2 207.383 1169.68 202.852 1173.01 198.438C1175.2 195.527 1179.82 182.037 1180.15 177.571C1180.38 174.493 1180.11 174.04 1177.91 173.811C1175.84 173.596 1175.08 174.281 1173.47 177.811C1170.44 184.467 1161.78 192.908 1154.73 196.071C1146.05 199.967 1135.2 200.546 1123.99 197.711C1106.32 193.243 1094.37 182.098 1088.19 164.337C1084.81 154.609 1083.88 134.585 1086.32 124.184C1090.82 105.049 1103.59 91.8925 1121.91 87.5095C1129.41 85.7155 1143.18 85.9025 1149.97 87.8905C1160.03 90.8345 1168.36 99.0985 1170.94 108.703C1171.49 110.717 1172.6 112.623 1173.42 112.937C1175.36 113.68 1177.93 112.673 1177.82 111.214C1177.78 110.585 1177.21 104.446 1176.57 97.5715L1175.4 85.0715L1170.4 83.8315C1154.04 79.7695 1134.43 78.6585 1121.27 81.0475ZM1249.31 81.6735C1248.27 82.8305 1246.17 84.4165 1244.66 85.1995C1242.77 86.1785 1241.91 87.4055 1241.91 89.1325C1241.91 93.3005 1206.86 186.543 1203.1 192.362C1201.11 195.443 1198.29 196.872 1192.91 197.525C1188.92 198.009 1188.37 198.38 1188.09 200.783L1187.78 203.495L1207.09 203.283L1226.41 203.071V200.571C1226.41 198.313 1225.93 198.023 1221.51 197.571C1213.68 196.772 1213.66 196.27 1220.51 175.387L1226.51 157.071H1245.93H1265.35L1268.19 166.571C1269.75 171.796 1272.16 179.581 1273.53 183.871C1277.05 194.834 1276.75 195.859 1269.66 196.983C1264.54 197.794 1263.91 198.155 1263.91 200.252V202.609L1286.66 202.34C1308.34 202.084 1309.41 201.98 1309.41 200.15C1309.41 198.615 1308.27 198.002 1303.75 197.099C1297.12 195.776 1295.47 194.596 1292.73 189.231C1290.97 185.781 1269.36 123.697 1258.47 90.8215C1254.47 78.7605 1253.15 77.4365 1249.31 81.6735ZM1663.91 83.2565C1660.86 85.6635 1659.18 87.8765 1658.69 90.0995C1657.85 93.9505 1632.28 162.835 1625.47 179.582C1619.74 193.669 1616.28 197.571 1609.53 197.571C1604.99 197.571 1603.37 199.019 1604.53 202.038C1605 203.267 1608.2 203.47 1624.25 203.288L1643.41 203.071V200.571C1643.41 198.432 1642.9 198.032 1639.91 197.801C1632.73 197.247 1631.9 196.78 1631.98 193.302C1632.02 191.525 1634.6 182.646 1637.73 173.571L1643.41 157.071L1662.02 156.799C1676.14 156.593 1680.87 156.835 1681.65 157.799C1682.21 158.499 1683.88 163.121 1685.35 168.071C1686.83 173.021 1689.17 180.795 1690.57 185.347C1691.96 189.899 1692.86 194.251 1692.57 195.017C1692.25 195.846 1689.77 196.694 1686.46 197.108C1680.5 197.852 1679.55 198.472 1680.51 200.981C1681.04 202.369 1683.97 202.571 1703.51 202.571H1725.91V200.186C1725.91 198.048 1725.34 197.731 1720.45 197.12C1715.97 196.56 1714.48 195.846 1712.09 193.129C1708.72 189.287 1707.92 187.14 1688.5 130.071C1670.38 76.8125 1671.61 80.1215 1669.87 79.8915C1669.06 79.7855 1666.38 81.2995 1663.91 83.2565ZM2124.92 83.1875C2121.26 86.0735 2120.13 87.7765 2118.81 92.3995C2117.92 95.5195 2111.48 113.327 2104.51 131.974C2080.56 196.014 2080.44 196.236 2070.8 197.413C2065.89 198.012 2065.41 198.295 2065.41 200.571V203.071L2084.57 203.271C2100.51 203.437 2103.83 203.227 2104.29 202.021C2105.38 199.167 2103.8 197.571 2099.88 197.571C2094.26 197.571 2092.91 196.757 2092.91 193.386C2092.91 190.189 2102.48 159.892 2104.15 157.821C2104.89 156.903 2110.01 156.571 2123.41 156.571C2136.82 156.571 2141.92 156.902 2142.64 157.821C2143.18 158.509 2145.94 166.932 2148.76 176.54C2154.55 196.231 2154.58 195.934 2146.41 197.289C2142.37 197.957 2141.41 198.499 2141.41 200.094C2141.41 201.997 2142.25 202.081 2164.16 202.34L2186.91 202.609V200.205C2186.91 198.049 2186.36 197.732 2181.54 197.13C2175.55 196.383 2172.91 194.47 2170.02 188.783C2168.47 185.726 2150.26 133.275 2135.76 90.0765C2133.65 83.7875 2131.85 80.0005 2130.91 79.8635C2130.08 79.7435 2127.39 81.2395 2124.92 83.1875ZM2400.35 81.6295C2399.29 82.8105 2397.17 84.4165 2395.66 85.1995C2393.6 86.2645 2392.91 87.3655 2392.91 89.5725C2392.91 92.4895 2369.39 156.732 2359.71 180.241C2356.96 186.935 2353.66 193.392 2352.39 194.591C2350.9 195.99 2348.16 197.003 2344.74 197.421C2339.89 198.012 2339.41 198.298 2339.41 200.571V203.071H2358.41H2377.41V200.571C2377.41 198.332 2376.91 198.014 2372.66 197.526C2370.05 197.226 2367.4 196.466 2366.77 195.837C2365.92 194.979 2366.94 190.495 2370.87 177.882C2373.75 168.636 2376.75 160.059 2377.53 158.821C2378.92 156.621 2379.36 156.571 2397.35 156.571H2415.74L2417.28 160.821C2421.24 171.745 2427 191.914 2426.72 193.881C2426.46 195.673 2425.41 196.263 2420.91 197.125C2416.49 197.972 2415.41 198.56 2415.41 200.125C2415.41 201.995 2416.28 202.071 2437.91 202.071C2459.58 202.071 2460.41 201.999 2460.41 200.112C2460.41 198.519 2459.29 197.93 2454.44 196.957C2444.66 194.999 2445.94 197.797 2421.02 124.071C2405.13 77.0785 2404.9 76.6085 2400.35 81.6295ZM2528.24 80.9895C2511.53 84.1685 2500.54 89.6125 2490.15 99.8565C2478.8 111.051 2472.69 126.286 2472.62 143.571C2472.51 172.754 2490.23 194.841 2520.41 203.129C2528.33 205.304 2551.15 206.158 2560.91 204.643C2572.27 202.88 2586.91 199.345 2586.91 198.363C2586.91 197.883 2585.92 196.161 2584.72 194.536C2582.74 191.857 2582.53 190.334 2582.47 178.118C2582.4 162.984 2582.8 161.984 2589.68 160.053C2592.37 159.299 2593.41 158.457 2593.41 157.039C2593.41 155.144 2592.52 155.061 2569.66 154.803C2546.65 154.543 2545.91 154.596 2545.91 156.494C2545.91 159.116 2546.49 159.377 2555.04 160.589C2565.97 162.137 2566.41 162.795 2566.41 177.849C2566.41 192.705 2565.84 195.026 2561.64 197.252C2557.42 199.494 2539.75 200.292 2531.98 198.591C2508.89 193.536 2494.87 175.264 2491.75 146.149C2488.63 117.04 2502.04 94.2095 2525.93 87.9485C2534.78 85.6295 2549.74 85.7035 2557.37 88.1045C2565.41 90.6325 2573.12 97.9135 2576.4 106.071C2578.36 110.968 2579.23 112.071 2581.11 112.071C2583.14 112.071 2583.39 111.613 2583.29 108.071C2583.15 103.39 2581.12 85.4505 2580.68 85.0065C2580.51 84.8395 2575.88 83.7295 2570.39 82.5395C2557.78 79.8075 2538.24 79.0885 2528.24 80.9895ZM1329.24 82.2475C1319.95 83.0075 1319.42 87.9925 1328.51 89.1275C1332.64 89.6435 1334.42 90.4115 1335.93 92.3245C1337.84 94.7545 1337.91 96.5055 1337.89 142.956C1337.88 179.64 1337.58 191.665 1336.62 193.571C1335.75 195.289 1334.11 196.338 1331.38 196.926C1324.82 198.337 1322.74 199.444 1323.1 201.332C1323.41 202.926 1325.43 203.071 1347.42 203.071C1371.31 203.071 1371.41 203.062 1371.72 200.891C1371.99 198.981 1371.43 198.632 1367.22 198.069C1360.62 197.188 1357.05 195.685 1355.62 193.184C1354.73 191.626 1354.33 177.895 1354.11 140.943C1353.75 82.2425 1352.78 87.0695 1364.85 87.7845C1373.66 88.3065 1379.98 90.7925 1384.61 95.5595C1389.64 100.739 1391.3 105.129 1391.73 114.406C1392.28 126.096 1390.74 130.848 1384.35 137.251C1380.08 141.523 1377.93 142.811 1372.04 144.599C1366.46 146.296 1364.91 147.179 1364.91 148.668C1364.91 150.29 1365.66 150.571 1370.01 150.571C1380.09 150.571 1393.16 145.798 1400.33 139.504C1402.25 137.816 1405.08 133.877 1406.62 130.753C1409.05 125.806 1409.41 123.907 1409.4 116.071C1409.39 108.206 1409.04 106.413 1406.65 101.854C1401.63 92.3065 1395.17 87.4995 1382.41 83.8165C1377.4 82.3715 1340.9 81.2945 1329.24 82.2475ZM1428.55 83.0535C1427.4 86.0545 1428.98 87.5705 1433.26 87.5865C1438.95 87.6065 1442.19 89.4875 1443.6 93.5975C1445.14 98.0725 1445.39 185.281 1443.88 190.713C1442.54 195.572 1441.07 196.596 1434.48 197.276C1429.18 197.823 1428.91 197.986 1428.91 200.661V203.471L1452.66 203.271L1476.41 203.071V200.571C1476.41 198.29 1475.93 198.012 1470.93 197.402C1461.96 196.308 1461.28 194.917 1460.38 175.891C1459.28 152.693 1460.36 95.7735 1461.96 92.3125C1463.26 89.5135 1467.02 87.8755 1473.41 87.3285C1475.87 87.1175 1476.41 86.6255 1476.41 84.5715V82.0715L1452.77 81.8035C1432.39 81.5725 1429.05 81.7455 1428.55 83.0535ZM1738.09 84.3035C1738.35 86.5705 1738.95 87.1175 1741.41 87.3285C1743.06 87.4695 1746.04 88.0345 1748.04 88.5825C1754.42 90.3365 1754.41 90.2115 1754.41 144.291C1754.41 192.39 1754.4 192.516 1752.24 194.676C1750.93 195.995 1748.03 197.167 1744.83 197.673C1738.98 198.597 1737.35 199.673 1738.25 202.014C1738.79 203.424 1743.53 203.564 1782.63 203.332L1826.4 203.071L1829.6 192.571C1833.24 180.648 1833.62 177.057 1831.32 176.175C1829 175.284 1828.18 176.092 1824.97 182.447C1821.15 190.022 1817.17 194.128 1812.35 195.465C1807.18 196.9 1784.49 196.745 1779.51 195.242C1777.37 194.595 1774.67 192.797 1773.51 191.245C1771.44 188.469 1771.41 187.67 1771.41 140.525C1771.41 93.0475 1771.43 92.6085 1773.53 90.5055C1774.91 89.1285 1777.54 88.1545 1781.03 87.7275C1785.92 87.1305 1786.41 86.8465 1786.41 84.5715V82.0715L1762.09 81.8035L1737.77 81.5355L1738.09 84.3035ZM2617.27 83.0715C2616.22 85.7965 2617.68 87.2775 2621.97 87.8525C2627.56 88.6035 2630.11 91.3145 2630.83 97.2725C2631.15 99.9115 2631.18 122.197 2630.91 146.795L2630.41 191.519L2628.14 193.784C2626.49 195.429 2624.3 196.19 2620.14 196.56C2614.77 197.039 2614.39 197.246 2614.09 199.831L2613.77 202.591L2659.59 202.331L2705.4 202.071L2709.17 191.071C2713.31 178.973 2713.58 175.238 2710.34 174.776C2708.75 174.548 2707.62 175.682 2705.44 179.692C2701.52 186.888 2696.46 192.218 2692.09 193.755C2686.98 195.55 2659.72 195.534 2654.62 193.732C2647.83 191.328 2647.45 189.918 2647.06 165.366L2646.71 143.571H2662.24H2677.76L2679.83 146.206C2680.97 147.655 2681.91 149.343 2681.91 149.956C2681.92 150.569 2682.39 152.759 2682.96 154.821C2683.78 157.791 2684.49 158.571 2686.34 158.571H2688.69V139.571V120.571H2686.37C2683.9 120.571 2683.47 121.409 2682.41 128.232C2681.31 135.323 2680.05 135.83 2663.18 135.958L2648.41 136.071V112.571V89.0715L2664.5 89.1915C2673.97 89.2615 2682.08 89.8035 2684.22 90.5075C2688.74 91.9995 2692.33 96.1905 2694.62 102.619C2696.01 106.527 2696.84 107.571 2698.58 107.571C2699.8 107.571 2701 107.233 2701.25 106.821C2701.72 106.055 2700.42 90.6995 2699.39 84.8215L2698.82 81.5715H2658.33C2623.27 81.5715 2617.77 81.7725 2617.27 83.0715ZM2907.27 83.0715C2906.22 85.7965 2907.68 87.2775 2911.97 87.8525C2917.56 88.6035 2920.11 91.3145 2920.83 97.2725C2921.15 99.9115 2921.18 122.197 2920.91 146.795L2920.41 191.519L2918.14 193.784C2916.49 195.429 2914.3 196.19 2910.14 196.56C2904.77 197.039 2904.39 197.246 2904.09 199.831L2903.77 202.591L2949.59 202.331L2995.4 202.071L2999.17 191.071C3003.31 178.973 3003.58 175.238 3000.34 174.776C2998.75 174.548 2997.62 175.682 2995.44 179.692C2991.52 186.888 2986.46 192.218 2982.09 193.755C2976.98 195.55 2949.72 195.534 2944.62 193.732C2937.83 191.328 2937.45 189.918 2937.06 165.366L2936.71 143.571H2952.24H2967.76L2969.83 146.206C2970.97 147.655 2971.91 149.343 2971.91 149.956C2971.92 150.569 2972.39 152.759 2972.96 154.821C2973.78 157.791 2974.49 158.571 2976.34 158.571H2978.69V139.571V120.571H2976.37C2973.9 120.571 2973.47 121.409 2972.41 128.232C2971.31 135.323 2970.05 135.83 2953.18 135.958L2938.41 136.071V112.571V89.0715L2954.5 89.1915C2963.97 89.2615 2972.08 89.8035 2974.22 90.5075C2978.74 91.9995 2982.33 96.1905 2984.62 102.619C2986.01 106.527 2986.84 107.571 2988.58 107.571C2989.8 107.571 2991 107.233 2991.25 106.821C2991.72 106.055 2990.42 90.6995 2989.39 84.8215L2988.82 81.5715H2948.33C2913.27 81.5715 2907.77 81.7725 2907.27 83.0715ZM504.094 85.8145C504.389 88.8765 504.681 89.0965 509.31 89.7535C517.925 90.9765 517.369 87.6225 517.704 140.356C517.867 166.049 517.735 188.528 517.41 190.309C516.746 193.957 514.712 195.367 508.61 196.409C504.776 197.063 504.407 197.387 504.407 200.099V203.071L532.657 203.337L560.907 203.602V200.18C560.907 196.832 560.8 196.744 555.901 196.07C547.958 194.978 546.576 193.256 545.76 183.428C544.866 172.658 544.753 154.139 545.552 149.304L546.174 145.537L571.291 145.804L596.407 146.071L596.677 168.467C596.993 194.786 596.951 194.934 588.687 196.249C583.678 197.047 583.407 197.243 583.407 200.08V203.071H610.907H638.407V200.079C638.407 197.271 638.049 196.995 632.576 195.579C628.928 194.636 626.307 193.322 625.576 192.071C624.278 189.85 623.253 109.226 624.404 99.8475C625.26 92.8625 627.322 90.5045 633.147 89.8475C637.908 89.3115 638.995 88.0965 638.092 84.3215C637.706 82.7075 635.541 82.5715 610.227 82.5715H582.78L583.094 85.7515C583.385 88.7115 583.777 89.0155 588.749 90.1295C597.555 92.1025 597.407 91.6805 597.407 114.855V135.071H571.907H546.407V114.355C546.407 90.9375 546.367 91.0675 553.961 89.7805C558.054 89.0875 558.432 88.7705 558.72 85.7995L559.034 82.5715H531.407H503.78L504.094 85.8145ZM659.291 84.0135C658 87.3785 659.394 88.9175 664.847 90.1455C667.839 90.8195 670.845 92.1345 671.528 93.0675C672.21 94.0005 673.059 97.5335 673.414 100.917C674.294 109.314 673.557 188.671 672.58 190.686C671.487 192.939 668.157 194.271 661.55 195.096C656.744 195.697 655.798 196.156 655.303 198.131C654.981 199.41 655.013 200.933 655.372 201.514C655.816 202.233 671.678 202.571 705.017 202.571H754.009L755.542 198.901C757.303 194.687 760.333 183.04 761.276 176.859C761.824 173.266 761.618 172.487 759.875 171.554C756.608 169.806 754.61 171.166 751.415 177.314C747.394 185.052 741.126 191.227 736.245 192.259C734.134 192.706 727.14 193.062 720.702 193.05C701.983 193.017 701.049 191.635 700.963 163.821L700.907 145.571H713.233C724.736 145.571 725.696 145.721 727.625 147.821C728.761 149.059 729.998 151.646 730.374 153.571C731.697 160.357 731.854 160.571 735.495 160.571H738.948L738.678 140.321L738.407 120.071L736.102 119.744C732.763 119.271 731.215 121.03 730.444 126.175C729.291 133.864 727.867 134.571 713.538 134.571H701.169L700.549 130.821C699.736 125.9 699.732 103.13 700.543 97.2115L701.179 92.5715L714.793 92.5935C733.953 92.6245 737.834 94.6185 743.003 107.089C745.357 112.768 747.544 114.371 750.663 112.702C752.392 111.776 752.426 111.006 751.267 98.8965C750.593 91.8425 750.011 85.2845 749.974 84.3215C749.911 82.6815 747.071 82.5715 704.876 82.5715C666.581 82.5715 659.761 82.7875 659.291 84.0135ZM1906.91 84.9415C1906.91 87.0395 1907.59 87.4465 1912.88 88.4865C1921.12 90.1065 1921.91 91.4725 1921.91 104.044C1921.9 116.539 1919.33 163.327 1917.83 178.071C1916.16 194.468 1914.89 196.554 1905.69 198.046C1901.57 198.715 1900.61 199.619 1901.51 201.981C1902.04 203.36 1904.75 203.571 1921.96 203.571C1932.86 203.571 1942.04 203.162 1942.35 202.661C1943.77 200.368 1941.52 198.667 1936.19 198.001C1929.05 197.109 1927.3 195.297 1926.46 187.932C1925.83 182.462 1927.1 139.434 1928.54 117.233L1929.18 107.396L1936.41 123.733C1940.38 132.719 1947.35 147.946 1951.89 157.571C1956.43 167.196 1963.01 181.596 1966.51 189.571C1973.81 206.196 1975.29 207.486 1978.28 199.849C1979.94 195.623 2022.56 109.708 2023.53 108.654C2023.74 108.425 2023.91 127.352 2023.91 150.713C2023.91 183.828 2023.62 193.578 2022.62 194.954C2021.87 195.975 2018.81 197.215 2015.37 197.895C2010.47 198.862 2009.41 199.426 2009.41 201.071C2009.41 203.013 2010.07 203.071 2032.41 203.071C2054.74 203.071 2055.41 203.013 2055.41 201.071C2055.41 199.426 2054.35 198.862 2049.45 197.895C2046.17 197.248 2042.97 196.009 2042.34 195.141C2041.7 194.274 2040.86 189.628 2040.46 184.818C2039.36 171.501 2038.17 101.597 2038.97 97.2135C2039.95 91.8865 2042.64 89.5915 2049.52 88.2325C2054.44 87.2625 2055.46 86.7005 2055.73 84.8215L2056.05 82.5715H2040.2H2024.35L2022.56 89.5245C2021.41 93.9785 2014.02 110.059 2001.99 134.274C1991.66 155.062 1982.3 173.556 1981.19 175.371L1979.17 178.672L1972.42 164.871C1962.26 144.114 1942.34 100.683 1940.64 95.5715C1939.81 93.0965 1938.82 89.1595 1938.43 86.8215L1937.73 82.5715H1922.32H1906.91V84.9415ZM2196.29 84.0235C2195.42 86.2885 2196.66 87.4415 2200.69 88.1085C2206.6 89.0855 2209.77 90.6155 2212.43 93.7775L2214.91 96.7245L2214.9 139.398C2214.9 179.64 2214.22 192.662 2212.01 194.871C2211.49 195.392 2208.44 196.344 2205.23 196.986C2200.51 197.932 2199.41 198.524 2199.41 200.112C2199.41 201.987 2200.31 202.083 2220.66 202.341L2241.91 202.611V200.22C2241.91 198.043 2241.38 197.769 2235.96 197.157C2228.49 196.311 2226.18 194.414 2224.88 188.071C2223.54 181.49 2222.4 114.066 2223.57 109.712L2224.46 106.352L2235.43 119.209C2241.47 126.28 2258.07 145.341 2272.33 161.568C2286.59 177.795 2300.98 194.333 2304.31 198.321C2307.64 202.316 2311.16 205.571 2312.14 205.571C2313.11 205.571 2313.92 205.458 2313.94 205.321C2313.96 205.184 2314.21 182.796 2314.49 155.571C2315.02 104.386 2315.75 92.9905 2318.61 90.8325C2319.52 90.1515 2322.4 89.3095 2325.02 88.9615C2329.8 88.3285 2331.35 86.8825 2330.27 84.0715C2329.78 82.8045 2326.46 82.5715 2308.91 82.5715C2290.63 82.5715 2288.05 82.7685 2287.5 84.1985C2286.51 86.7645 2288.52 88.2475 2293.84 88.8765C2299.19 89.5115 2302.67 91.2165 2303.4 93.5695C2305.15 99.2115 2305.87 113.366 2305.85 142.071L2305.83 175.071L2298.12 167.024C2283.58 151.848 2238.92 100.239 2232.68 91.4055L2226.45 82.5715H2211.64C2199.63 82.5715 2196.74 82.8445 2196.29 84.0235ZM2734.91 84.9415C2734.91 87.0395 2735.59 87.4465 2740.88 88.4865C2749.05 90.0935 2749.91 91.5275 2749.9 103.544C2749.89 115.476 2747.3 162.242 2745.8 177.571C2744.13 194.613 2743.23 196.118 2733.41 198.216C2730.36 198.868 2729.41 199.547 2729.41 201.071C2729.41 202.995 2730.16 203.081 2749.34 203.343C2760.3 203.492 2769.65 203.23 2770.12 202.76C2772.26 200.623 2769.61 198.637 2763.75 197.974C2756.85 197.193 2755.46 195.765 2754.38 188.377C2753.68 183.534 2755.59 123.34 2756.76 113.571L2757.42 108.071L2761.36 117.071C2763.52 122.021 2770.2 136.646 2776.2 149.571C2785.98 170.615 2797.52 196.246 2799.96 202.321C2800.84 204.511 2804.91 205.579 2804.91 203.62C2804.91 201.663 2817.28 175.966 2834.31 142.571L2851.9 108.071L2851.65 151.272C2851.48 182.071 2851.08 194.801 2850.26 195.616C2849.63 196.245 2846.48 197.279 2843.26 197.915C2838.46 198.863 2837.41 199.43 2837.41 201.071C2837.41 203.013 2838.07 203.071 2860.41 203.071C2882.74 203.071 2883.41 203.013 2883.41 201.071C2883.41 199.426 2882.35 198.862 2877.45 197.895C2874.17 197.248 2870.97 196.003 2870.33 195.128C2869.69 194.253 2868.86 190.484 2868.49 186.753C2867.53 176.976 2865.95 102.65 2866.61 97.7855C2867.34 92.3075 2870.4 89.6385 2877.58 88.2225C2882.36 87.2785 2883.41 86.7115 2883.41 85.0715C2883.41 83.1685 2882.65 83.0585 2867.83 82.7975L2852.26 82.5225L2851.07 87.7075C2849.49 94.5315 2819.83 156.596 2809.6 174.47L2807.08 178.87L2802.62 169.97C2800.17 165.076 2791.58 146.791 2783.53 129.337C2770.24 100.537 2765.91 89.4685 2765.91 84.3615C2765.91 82.7185 2764.63 82.5715 2750.41 82.5715H2734.91V84.9415ZM3017.46 83.4815C3016.12 85.6505 3018.36 87.4005 3023.86 88.4825C3030.78 89.8435 3034.39 92.9475 3036.03 98.9555C3037.37 103.857 3036.52 182.478 3035.06 189.419C3033.86 195.083 3032.26 196.545 3026.31 197.389C3021.96 198.007 3021.37 198.384 3021.1 200.74L3020.79 203.394L3041.77 203.415C3059.07 203.433 3062.84 203.185 3063.29 202.004C3064.46 198.973 3062.82 197.805 3056.81 197.37C3045.24 196.533 3044.77 194.325 3045.14 142.746L3045.41 106.421L3055.9 118.746C3061.67 125.525 3078.34 144.571 3092.93 161.071C3107.53 177.571 3122.12 194.221 3125.35 198.071C3129.18 202.621 3131.97 205.071 3133.32 205.071C3135.4 205.071 3135.41 204.94 3136.04 151.571C3136.38 122.146 3137 96.8065 3137.41 95.2605C3138.35 91.7645 3141.35 89.7325 3147.03 88.7635C3150.82 88.1165 3151.41 87.6835 3151.41 85.5435V83.0715L3130.09 82.8015L3108.77 82.5315L3109.09 85.3015C3109.35 87.5555 3109.97 88.1295 3112.41 88.3825C3114.06 88.5525 3117.13 89.1415 3119.23 89.6915C3126.19 91.5065 3126.35 92.4995 3126.65 136.571L3126.92 175.071L3120.28 168.071C3110.98 158.266 3067.18 108.525 3060.4 100.071C3057.31 96.2215 3053.35 90.7215 3051.6 87.8495L3048.41 82.6285L3033.22 82.5995C3024.86 82.5845 3017.77 82.9805 3017.46 83.4815ZM90.9074 153.571V206.681L95.6574 206.376L100.407 206.071L101.031 198.398C102.148 184.653 107.753 177.186 119.296 174.067C124.335 172.705 129.092 172.486 146.407 172.82C169.756 173.271 173.077 173.923 178.919 179.201C183.655 183.479 185.887 189.039 186.75 198.708L187.407 206.071L192.157 206.376L196.907 206.681V153.571V100.461L192.157 100.766L187.407 101.071L186.773 108.165C186.094 115.755 183.183 123.573 179.608 127.406C173.457 134 163.261 136.012 139.54 135.311C115.345 134.596 109.393 132.351 104.348 122.04C102.478 118.219 101.474 114.209 101.036 108.814L100.407 101.071L95.6574 100.766L90.9074 100.461V153.571ZM1254.94 124.952C1258.85 136.391 1261.81 146.385 1261.51 147.16C1261.08 148.288 1257.95 148.571 1245.94 148.571C1237.67 148.571 1230.91 148.173 1230.91 147.687C1230.91 146.745 1245.77 105.631 1246.61 104.254C1246.88 103.805 1247.27 103.599 1247.47 103.796C1247.66 103.994 1251.03 113.514 1254.94 124.952ZM1671.38 125.354C1675.07 136.51 1677.84 146.298 1677.53 147.104C1677.07 148.3 1674.29 148.571 1662.5 148.571C1654.54 148.571 1647.81 148.227 1647.55 147.806C1647.29 147.386 1649.96 139.173 1653.48 129.556C1662.99 103.54 1663.08 103.334 1663.9 104.236C1664.32 104.695 1667.68 114.198 1671.38 125.354ZM2132.91 126.135C2137.97 141.45 2139.49 147.215 2138.61 147.776C2137.95 148.196 2131 148.547 2123.16 148.556C2110.76 148.569 2108.91 148.363 2108.91 146.972C2108.91 143.877 2124.28 103.545 2125.14 104.399C2125.61 104.873 2129.11 114.654 2132.91 126.135ZM2405.9 125.046C2409.84 136.857 2412.77 146.982 2412.42 147.546C2411.48 149.074 2381.91 148.926 2381.91 147.392C2381.91 145.135 2397.43 103.571 2398.27 103.571C2398.53 103.571 2401.96 113.235 2405.9 125.046ZM938.348 130.479C941.405 139.779 943.907 148.301 943.907 149.418C943.907 151.063 943.038 151.579 939.323 152.136C934.452 152.866 920.268 152.265 919.289 151.287C918.392 150.389 931.153 113.571 932.361 113.571C932.596 113.571 935.29 121.18 938.348 130.479Z" fill="white"/>
</svg>
