<?xml version="1.0" encoding="utf-8"?>
<!-- Generator: Adobe Illustrator 26.2.1, SVG Export Plug-In . SVG Version: 6.00 Build 0)  -->
<svg version="1.1" id="Layer_1" xmlns="http://www.w3.org/2000/svg" xmlns:xlink="http://www.w3.org/1999/xlink" x="0px" y="0px"
	 viewBox="0 0 135.7 76" style="enable-background:new 0 0 135.7 76;" xml:space="preserve">
<style type="text/css">
	.st0{clip-path:url(#SVGID_00000088129828729907307090000012622400094502999681_);}
	.st1{fill:none;stroke:#FFFFFF;stroke-linecap:round;stroke-linejoin:round;}
	.st2{fill:none;stroke:#FFFFFF;stroke-miterlimit:10;}
	.st3{clip-path:url(#SVGID_00000129201507219980564710000004751122156741858961_);}
	.st4{clip-path:url(#SVGID_00000003077589330474813500000010274036628487672506_);}
	.st5{enable-background:new    ;}
	.st6{fill:#FFFFFF;}
</style>
<g id="Group_1189" transform="translate(-651.002 -37.146)">
	<g id="Group_1066" transform="translate(658.079 37.146)">
		<g id="Group_2">
			<g>
				<defs>
					<rect id="SVGID_1_" x="0" width="120.3" height="43.6"/>
				</defs>
				<clipPath id="SVGID_00000137111976522952136210000014939728533260352136_">
					<use xlink:href="#SVGID_1_"  style="overflow:visible;"/>
				</clipPath>
				<g id="Group_1" style="clip-path:url(#SVGID_00000137111976522952136210000014939728533260352136_);">
					<path id="Path_1" class="st1" d="M0.3,43.2l9.5-9.5L17.4,20l6-2.9l8.2-16.4l9.2,2.5l5.7-2.8l9.7,1.3l25.3,10.7l11,14.2l6.6-0.3
						l15.5,7.9l5.4,9.2"/>
					<line id="Line_1" class="st1" x1="17.5" y1="43.2" x2="0.3" y2="43.2"/>
					<line id="Line_2" class="st1" x1="64.7" y1="43.2" x2="42.8" y2="43.2"/>
					<line id="Line_3" class="st1" x1="119.5" y1="43.2" x2="82.1" y2="43.2"/>
					<path id="Path_2" class="st1" d="M114.3,34.1l-32.2,8.8l17-16.7"/>
					<path id="Path_3" class="st1" d="M34.4,30l8.4,13.3l9.6-9.5l7.6,0.3l6.6-12.9l6,0.3l4.4,5.4l5.1-2.5l10.4,2.2L82.1,43.2
						L77,26.8L64.7,43.2"/>
					<path id="Path_4" class="st2" d="M64.9,43.2L60,34.1L64.9,43.2z"/>
					<path id="Path_5" class="st1" d="M10.1,34.1l7.3,8.8l6-25.8l11,12.9l6.3-26.8l40.7,9.2l-8.8,9.2"/>
				</g>
			</g>
		</g>
		<path id="Path_6" class="st1" d="M66.6,21.2L52.4,33.8L41,3.8"/>
		<g id="Group_4">
			<g>
				<defs>
					<rect id="SVGID_00000140695916987244381780000015868587044903212973_" x="0" width="120.3" height="43.6"/>
				</defs>
				<clipPath id="SVGID_00000115494698109763024170000005447812037727974278_">
					<use xlink:href="#SVGID_00000140695916987244381780000015868587044903212973_"  style="overflow:visible;"/>
				</clipPath>
				<g id="Group_3" style="clip-path:url(#SVGID_00000115494698109763024170000005447812037727974278_);">
					<line id="Line_4" class="st1" x1="17.5" y1="43.2" x2="34.4" y2="30"/>
				</g>
			</g>
		</g>
		<line id="Line_5" class="st1" x1="40.7" y1="3.2" x2="66.6" y2="21.2"/>
		<g id="Group_6">
			<g>
				<defs>
					<rect id="SVGID_00000132785288509893072530000004993703418973487497_" x="0" width="120.3" height="43.6"/>
				</defs>
				<clipPath id="SVGID_00000160153223069466883390000009239262258918633638_">
					<use xlink:href="#SVGID_00000132785288509893072530000004993703418973487497_"  style="overflow:visible;"/>
				</clipPath>
				<g id="Group_5" style="clip-path:url(#SVGID_00000160153223069466883390000009239262258918633638_);">
					<line id="Line_6" class="st1" x1="34.4" y1="29.2" x2="31.6" y2="1"/>
					<path id="Path_7" class="st1" d="M55.9,1.6l-6.9,3.2l-2.5-4.5"/>
					<line id="Line_7" class="st1" x1="17.4" y1="20" x2="17.1" y2="42.6"/>
				</g>
			</g>
		</g>
		<line id="Line_8" class="st1" x1="82.1" y1="24.3" x2="81.4" y2="12.3"/>
	</g>
	<g class="st5">
		<path class="st6" d="M655.5,108.1V96.9h-4.1v-1.4h9.6v1.4H657v11.2H655.5z"/>
		<path class="st6" d="M663.5,108.1V95.5h1.5v12.6H663.5z"/>
		<path class="st6" d="M672.9,108.4c-1.5,0-2.7-0.4-3.6-1.3s-1.3-2.1-1.3-3.8v-2.9c0-1.7,0.4-2.9,1.3-3.8s2.1-1.3,3.6-1.3
			c1.5,0,2.7,0.4,3.6,1.3c0.9,0.9,1.3,2.1,1.3,3.8v2.9c0,1.7-0.4,2.9-1.3,3.8C675.6,108,674.4,108.4,672.9,108.4z M672.9,107.1
			c1.1,0,1.9-0.3,2.5-1c0.6-0.7,0.9-1.6,0.9-2.7v-3c0-1.2-0.3-2.1-0.9-2.7c-0.6-0.7-1.4-1-2.5-1c-1.1,0-1.9,0.3-2.5,1
			c-0.6,0.7-0.9,1.6-0.9,2.7v3c0,1.2,0.3,2.1,0.9,2.7C671,106.7,671.8,107.1,672.9,107.1z"/>
		<path class="st6" d="M685.2,108.4c-0.9,0-1.8-0.2-2.5-0.6c-0.7-0.4-1.3-1-1.7-1.7c-0.4-0.8-0.6-1.7-0.6-2.8v-2.9
			c0-1.7,0.4-2.9,1.3-3.8c0.9-0.9,2.1-1.3,3.6-1.3c1.5,0,2.6,0.4,3.4,1.2c0.8,0.8,1.2,1.9,1.2,3.3v0.1h-1.5v-0.1
			c0-0.6-0.1-1.1-0.3-1.6s-0.6-0.8-1-1.1c-0.5-0.3-1-0.4-1.7-0.4c-1.1,0-1.9,0.3-2.5,1c-0.6,0.7-0.9,1.6-0.9,2.7v3
			c0,1.2,0.3,2.1,0.9,2.7c0.6,0.7,1.4,1,2.5,1c1.1,0,1.8-0.3,2.3-0.9c0.5-0.6,0.7-1.4,0.7-2.4v-0.3h-3.8v-1.3h5.3v6h-1.4v-1.4h-0.3
			c-0.1,0.3-0.3,0.5-0.6,0.8s-0.6,0.5-1,0.6C686.4,108.3,685.8,108.4,685.2,108.4z"/>
		<path class="st6" d="M692.1,108.1l3.9-12.6h2.7l3.9,12.6H701l-1-3.2h-5.4l-1,3.2H692.1z M695.1,103.6h4.6l-2.2-7.1h-0.3
			L695.1,103.6z"/>
	</g>
	<g class="st5">
		<path class="st6" d="M720.7,108.4c-1.5,0-2.7-0.4-3.6-1.3c-0.9-0.9-1.3-2.1-1.3-3.8v-2.9c0-1.7,0.4-2.9,1.3-3.8
			c0.9-0.9,2.1-1.3,3.6-1.3c1.5,0,2.6,0.4,3.4,1.2s1.2,2,1.2,3.4v0.1h-1.5v-0.1c0-0.9-0.3-1.7-0.8-2.3c-0.5-0.6-1.3-0.9-2.4-0.9
			c-1.1,0-1.9,0.3-2.5,1c-0.6,0.7-0.9,1.6-0.9,2.7v3c0,1.2,0.3,2.1,0.9,2.7c0.6,0.7,1.4,1,2.5,1c1.1,0,1.9-0.3,2.4-0.9
			c0.5-0.6,0.8-1.4,0.8-2.3v-0.3h1.5v0.2c0,1.4-0.4,2.6-1.2,3.4S722.2,108.4,720.7,108.4z"/>
		<path class="st6" d="M727,108.1l3.9-12.6h2.7l3.9,12.6h-1.6l-1-3.2h-5.4l-1,3.2H727z M729.9,103.6h4.6l-2.2-7.1h-0.3L729.9,103.6z
			"/>
		<path class="st6" d="M739.8,108.1V95.5h4.8c0.8,0,1.4,0.1,2,0.4s1.1,0.7,1.4,1.3c0.3,0.5,0.5,1.2,0.5,2v0.2c0,0.8-0.2,1.4-0.5,2
			c-0.4,0.5-0.8,1-1.4,1.3c-0.6,0.3-1.3,0.4-2,0.4h-3.3v5.1H739.8z M741.3,101.7h3.1c0.8,0,1.4-0.2,1.9-0.6s0.7-1,0.7-1.7v-0.2
			c0-0.7-0.2-1.3-0.7-1.7s-1.1-0.6-1.9-0.6h-3.1V101.7z"/>
		<path class="st6" d="M751.1,108.1V95.5h1.5v12.6H751.1z"/>
		<path class="st6" d="M759,108.1V96.9h-4v-1.4h9.6v1.4h-4v11.2H759z"/>
		<path class="st6" d="M764.6,108.1l3.9-12.6h2.7l3.9,12.6h-1.6l-1-3.2h-5.4l-1,3.2H764.6z M767.5,103.6h4.6l-2.2-7.1h-0.3
			L767.5,103.6z"/>
		<path class="st6" d="M777.4,108.1V95.5h1.5v11.2h6.4v1.4H777.4z"/>
	</g>
</g>
</svg>
