<svg width="104" height="32" viewBox="0 0 104 32" fill="none" xmlns="http://www.w3.org/2000/svg">
<path d="M27.78 10.76L20.1 24.06C19.86 24.46 19.54 24.8 19.14 25.02C18.74 25.26 18.28 25.38 17.82 25.38C17.36 25.38 16.9 25.26 16.5 25.02C16.1 24.78 15.76 24.46 15.54 24.06L14.2 21.74V21.72C14.2 21.72 14.2 21.7 14.22 21.7H14.24C14.24 21.7 14.26 21.7 14.26 21.72C14.5 21.96 14.8 22.14 15.12 22.24C15.44 22.34 15.78 22.38 16.12 22.34C16.46 22.3 16.78 22.18 17.06 21.98C17.34 21.8 17.58 21.54 17.74 21.26L24.16 10.12C24.32 9.82003 24.42 9.50003 24.46 9.16003C24.48 8.82003 24.42 8.48003 24.3 8.16003C24.16 7.84003 23.96 7.56003 23.72 7.34003C23.46 7.12003 23.16 6.96003 22.84 6.86003H22.82V6.84003V6.82003H22.84H25.56C26.02 6.82003 26.48 6.94003 26.88 7.18003C27.28 7.42003 27.62 7.74003 27.84 8.14003C28.08 8.54003 28.2 9.00003 28.2 9.46003C28.12 9.90003 28 10.34 27.78 10.76ZM18.68 6.78003H16.02H16V6.80003V6.82003C16 6.82003 16 6.82003 16.02 6.82003C16.2 6.88003 16.36 7.00003 16.5 7.14003C16.64 7.28003 16.74 7.44003 16.8 7.62003C16.86 7.80003 16.88 8.00003 16.88 8.18003C16.86 8.38003 16.8 8.56003 16.7 8.72003L12.82 15.42C12.72 15.6 12.58 15.74 12.42 15.84C12.26 15.96 12.08 16.02 11.88 16.06C11.68 16.1 11.48 16.08 11.3 16.02C11.12 15.96 10.94 15.86 10.78 15.74C10.78 15.74 10.76 15.74 10.76 15.72H10.74C10.74 15.72 10.74 15.74 10.72 15.74V15.76L12.08 18.12C12.24 18.38 12.46 18.6 12.72 18.76C12.98 18.92 13.28 19 13.6 19C13.9 19 14.2 18.92 14.48 18.76C14.76 18.6 14.96 18.38 15.12 18.12L20.2 9.40003C20.36 9.14003 20.44 8.84003 20.44 8.52003C20.44 8.22003 20.36 7.92003 20.2 7.64003C20.04 7.38003 19.82 7.16003 19.56 7.00003C19.3 6.86003 19 6.78003 18.68 6.78003ZM9.45999 6.78003C8.99999 6.78003 8.55999 6.92003 8.17999 7.16003C7.79999 7.42003 7.49999 7.78003 7.33999 8.20003C7.15999 8.62003 7.11999 9.08003 7.19999 9.52003C7.27999 9.96003 7.49999 10.38 7.81999 10.7C8.13999 11.02 8.55999 11.24 8.99999 11.32C9.43999 11.4 9.89999 11.36 10.32 11.18C10.74 11 11.1 10.72 11.36 10.34C11.62 9.96003 11.74 9.52003 11.74 9.06003C11.74 8.76003 11.68 8.46003 11.56 8.18003C11.44 7.90003 11.28 7.64003 11.06 7.44003C10.84 7.22003 10.6 7.06003 10.32 6.94003C10.06 6.84003 9.75999 6.78003 9.45999 6.78003Z" fill="white"/>
<path d="M46.2 10.96H43.9L40.76 18.42L37.64 10.96H35.34L39.76 21.2H41.76L46.2 10.96Z" fill="white"/>
<path d="M57.48 19.32H51.78V17H57V15.16H51.78V12.86H57.46V10.98H49.72V21.2H57.5V19.32H57.48Z" fill="white"/>
<path d="M71.18 10.96H69.1V17.72L63.42 10.96H61.68V21.2H63.76V14.62L69.44 21.2H71.18V10.96Z" fill="#D8D8D8"/>
<path d="M84.42 10.9599H82.34V16.5999C82.34 17.4599 82.12 18.1399 81.7 18.6599C81.28 19.1799 80.7 19.4199 80.02 19.4199C79.28 19.4199 78.68 19.1799 78.24 18.6599C77.8 18.1399 77.58 17.4599 77.58 16.5999V10.9399H75.5V16.5999C75.5 18.0399 75.92 19.1999 76.74 20.0799C77.56 20.9599 78.66 21.3999 80.02 21.3999C81.34 21.3999 82.4 20.9599 83.22 20.0799C84.02 19.1999 84.42 18.0399 84.42 16.5999V10.9599Z" fill="white"/>
<path d="M92.52 10.72C91.32 10.72 90.38 11.02 89.68 11.6C88.98 12.18 88.62 12.92 88.62 13.84C88.62 15.42 89.5 16.4 91.32 16.78L93.5 17.2C93.92 17.3 94.24 17.42 94.42 17.6C94.6 17.78 94.7 18.02 94.7 18.32C94.7 18.7 94.54 19 94.22 19.26C93.9 19.5 93.46 19.62 92.88 19.62C91.62 19.62 90.84 19.06 90.58 17.96L88.4 18.4C88.52 19.38 88.98 20.14 89.78 20.66C90.58 21.18 91.56 21.44 92.68 21.44C93.9 21.44 94.88 21.14 95.64 20.56C96.38 19.98 96.76 19.2 96.76 18.2C96.76 17.42 96.52 16.78 96.04 16.28C95.56 15.8 94.9 15.44 94.06 15.26L91.86 14.82C91.18 14.7 90.84 14.34 90.84 13.78C90.84 13.42 91 13.12 91.3 12.88C91.6 12.64 92 12.52 92.5 12.52C93.02 12.52 93.46 12.68 93.84 12.96C94.2 13.26 94.44 13.64 94.52 14.1L96.6 13.68C96.4 12.78 95.94 12.06 95.2 11.52C94.46 11 93.56 10.72 92.52 10.72Z" fill="white"/>
</svg>
