<svg width="24" height="24" viewBox="0 0 24 24" fill="none" xmlns="http://www.w3.org/2000/svg">
<path d="M20.6573 7.4819L13.7453 19.4519C13.5293 19.8119 13.2413 20.1179 12.8813 20.3159C12.5213 20.5319 12.1073 20.6399 11.6933 20.6399C11.2793 20.6399 10.8653 20.5319 10.5053 20.3159C10.1453 20.0999 9.83933 19.8119 9.64133 19.4519L8.43533 17.3639V17.3459C8.43533 17.3459 8.43533 17.3279 8.45333 17.3279H8.47133C8.47133 17.3279 8.48934 17.3279 8.48934 17.3459C8.70534 17.5619 8.97533 17.7239 9.26333 17.8139C9.55133 17.9039 9.85733 17.9399 10.1633 17.9039C10.4693 17.8679 10.7573 17.7599 11.0093 17.5799C11.2613 17.4179 11.4773 17.1839 11.6213 16.9319L17.3993 6.9059C17.5433 6.6359 17.6333 6.3479 17.6693 6.0419C17.6873 5.7359 17.6333 5.4299 17.5253 5.1419C17.3993 4.8539 17.2193 4.6019 17.0033 4.4039C16.7693 4.2059 16.4993 4.0619 16.2113 3.9719H16.1933V3.9539V3.9359H16.2113H18.6593C19.0733 3.9359 19.4873 4.0439 19.8473 4.2599C20.2073 4.4759 20.5133 4.7639 20.7113 5.1239C20.9273 5.4839 21.0353 5.8979 21.0353 6.3119C20.9633 6.7079 20.8553 7.1039 20.6573 7.4819ZM12.4673 3.8999H10.0733H10.0553V3.9179V3.9359C10.0553 3.9359 10.0553 3.9359 10.0733 3.9359C10.2353 3.9899 10.3793 4.0979 10.5053 4.2239C10.6313 4.3499 10.7213 4.4939 10.7753 4.6559C10.8293 4.8179 10.8473 4.9979 10.8473 5.1599C10.8293 5.3399 10.7753 5.5019 10.6853 5.6459L7.19333 11.6759C7.10333 11.8379 6.97733 11.9639 6.83333 12.0539C6.68933 12.1619 6.52734 12.2159 6.34734 12.2519C6.16734 12.2879 5.98734 12.2699 5.82534 12.2159C5.66334 12.1619 5.50134 12.0719 5.35734 11.9639C5.35734 11.9639 5.33934 11.9639 5.33934 11.9459H5.32133C5.32133 11.9459 5.32134 11.9639 5.30334 11.9639V11.9819L6.52734 14.1059C6.67134 14.3399 6.86933 14.5379 7.10333 14.6819C7.33733 14.8259 7.60733 14.8979 7.89533 14.8979C8.16533 14.8979 8.43534 14.8259 8.68734 14.6819C8.93934 14.5379 9.11933 14.3399 9.26333 14.1059L13.8353 6.2579C13.9793 6.0239 14.0513 5.7539 14.0513 5.4659C14.0513 5.1959 13.9793 4.9259 13.8353 4.6739C13.6913 4.4399 13.4933 4.2419 13.2593 4.0979C13.0253 3.9719 12.7553 3.8999 12.4673 3.8999ZM4.16934 3.8999C3.75534 3.8999 3.35934 4.0259 3.01734 4.2419C2.67534 4.4759 2.40533 4.7999 2.26133 5.1779C2.09933 5.5559 2.06334 5.9699 2.13534 6.3659C2.20734 6.7619 2.40534 7.1399 2.69334 7.4279C2.98134 7.7159 3.35934 7.91391 3.75534 7.98591C4.15134 8.05791 4.56534 8.0219 4.94334 7.8599C5.32133 7.6979 5.64534 7.4459 5.87934 7.1039C6.11334 6.7619 6.22133 6.3659 6.22133 5.9519C6.22133 5.6819 6.16734 5.4119 6.05934 5.1599C5.95134 4.9079 5.80734 4.6739 5.60934 4.4939C5.41134 4.2959 5.19534 4.1519 4.94334 4.0439C4.70934 3.9539 4.43934 3.8999 4.16934 3.8999Z" fill="url(#paint0_linear_12771_7728)"/>
<defs>
<linearGradient id="paint0_linear_12771_7728" x1="21.2281" y1="16.3989" x2="-0.349027" y2="1.74608" gradientUnits="userSpaceOnUse">
<stop stop-color="#454D9C"/>
<stop offset="0.5" stop-color="#47B8EA"/>
<stop offset="1" stop-color="#82C28A"/>
</linearGradient>
</defs>
</svg>
