<svg width="189" height="31" viewBox="0 0 189 31" fill="none" xmlns="http://www.w3.org/2000/svg">
<g clip-path="url(#clip0_30_2570)">
<path d="M47.43 8.90776C47.3496 8.62942 47.5089 8.4284 47.7888 8.4284H49.6227C49.782 8.4284 49.9412 8.56757 49.9814 8.70674L52.0551 16.6641H52.1339L55.3039 8.4485C55.3441 8.32943 55.4431 8.23047 55.6425 8.23047H56.0013C56.2007 8.23047 56.2997 8.32943 56.3399 8.4485L59.5346 16.6641H59.615L61.6484 8.70674C61.6886 8.56757 61.8479 8.4284 62.0072 8.4284H63.8411C64.1194 8.4284 64.2803 8.62787 64.1999 8.90776L60.4315 22.3082C60.3913 22.4674 60.232 22.5865 60.0727 22.5865H59.7542C59.5748 22.5865 59.4557 22.486 59.4155 22.3669L55.8466 13.3349H55.7477L52.2174 22.3669C52.1571 22.486 52.0783 22.5865 51.8788 22.5865H51.5602C51.401 22.5865 51.2417 22.4659 51.2015 22.3082L47.43 8.90776Z" fill="white"/>
<path d="M68.1494 8.80951C68.1494 8.61004 68.3288 8.43066 68.5283 8.43066H70.3823C70.5818 8.43066 70.7612 8.61004 70.7612 8.80951V22.0105C70.7612 22.2099 70.5818 22.3893 70.3823 22.3893H68.5283C68.3288 22.3893 68.1494 22.2099 68.1494 22.0105V8.80951Z" fill="white"/>
<path d="M76.0787 8.58921C76.0787 8.38974 76.2581 8.23047 76.4575 8.23047H76.9554L85.2499 17.0429H85.27V8.80879C85.27 8.60932 85.4293 8.42994 85.6489 8.42994H87.4828C87.6823 8.42994 87.8617 8.60932 87.8617 8.80879V22.2278C87.8617 22.4272 87.6823 22.5865 87.4828 22.5865H87.0034L78.6688 13.4338H78.6487V22.0082C78.6487 22.2077 78.4894 22.387 78.2698 22.387H76.456C76.2565 22.387 76.0771 22.2077 76.0771 22.0082V8.58921H76.0787Z" fill="white"/>
<path d="M95.0245 10.8228H91.9736C91.754 10.8228 91.5947 10.6434 91.5947 10.444V8.80951C91.5947 8.61004 91.754 8.43066 91.9736 8.43066H100.687C100.907 8.43066 101.066 8.61004 101.066 8.80951V10.444C101.066 10.6434 100.907 10.8228 100.687 10.8228H97.6362V22.0089C97.6362 22.2084 97.4568 22.3878 97.2574 22.3878H95.4033C95.2038 22.3878 95.0245 22.2084 95.0245 22.0089V10.8228Z" fill="white"/>
<path d="M104.788 8.80951C104.788 8.61004 104.947 8.43066 105.167 8.43066H113.282C113.502 8.43066 113.661 8.61004 113.661 8.80951V10.444C113.661 10.6434 113.502 10.8228 113.282 10.8228H107.38V14.0933H112.305C112.504 14.0933 112.684 14.2727 112.684 14.4721V16.1267C112.684 16.3463 112.504 16.5056 112.305 16.5056H107.38V19.9956H113.282C113.502 19.9956 113.661 20.175 113.661 20.3745V22.0105C113.661 22.2099 113.502 22.3893 113.282 22.3893H105.167C104.947 22.3893 104.788 22.2099 104.788 22.0105V8.80951Z" fill="white"/>
<path d="M118.326 8.80951C118.326 8.61004 118.485 8.43066 118.705 8.43066H124.408C126.8 8.43066 128.755 10.345 128.755 12.7186C128.755 14.5525 127.538 16.0478 125.804 16.7468L128.536 21.811C128.676 22.0708 128.536 22.3893 128.198 22.3893H126.104C125.925 22.3893 125.826 22.2903 125.786 22.2099L123.134 16.9262H120.921V22.0105C120.921 22.2099 120.741 22.3893 120.542 22.3893H118.708C118.488 22.3893 118.329 22.2099 118.329 22.0105V8.80951H118.326ZM124.188 14.7907C125.244 14.7907 126.163 13.8737 126.163 12.7573C126.163 11.7011 125.246 10.8228 124.188 10.8228H120.938V14.7907H124.188Z" fill="white"/>
<path d="M134.698 8.52891C134.718 8.36964 134.837 8.23047 135.057 8.23047H135.375C135.535 8.23047 135.654 8.30933 135.714 8.42994L140.101 17.8424C140.141 17.8424 140.141 17.8424 140.161 17.8424L144.548 8.42994C144.609 8.31088 144.708 8.23047 144.887 8.23047H145.205C145.425 8.23047 145.544 8.36964 145.564 8.52891L147.918 21.9278C147.978 22.2061 147.818 22.387 147.559 22.387H145.745C145.566 22.387 145.406 22.2278 145.366 22.0886L144.19 14.5317C144.169 14.5317 144.129 14.5317 144.129 14.5317L140.639 22.3685C140.599 22.4876 140.48 22.5881 140.301 22.5881H139.943C139.764 22.5881 139.665 22.4876 139.605 22.3685L136.074 14.5317C136.074 14.5317 136.034 14.5317 136.014 14.5317L134.857 22.0886C134.837 22.2278 134.678 22.387 134.499 22.387H132.703C132.444 22.387 132.284 22.2077 132.325 21.9278L134.698 8.52891Z" fill="white"/>
<path d="M152.028 8.80951C152.028 8.61004 152.208 8.43066 152.407 8.43066H154.301C154.521 8.43066 154.68 8.61004 154.68 8.80951V16.9648C154.68 18.6596 155.837 19.9956 157.572 19.9956C159.307 19.9956 160.484 18.6596 160.484 16.9849V8.80951C160.484 8.61004 160.643 8.43066 160.862 8.43066H162.757C162.956 8.43066 163.136 8.61004 163.136 8.80951V17.104C163.136 20.1348 160.723 22.5872 157.572 22.5872C154.442 22.5872 152.028 20.1348 152.028 17.104V8.80951Z" fill="white"/>
<path d="M170.197 10.8228H167.146C166.927 10.8228 166.768 10.6434 166.768 10.444V8.80951C166.768 8.61004 166.927 8.43066 167.146 8.43066H175.86C176.08 8.43066 176.239 8.61004 176.239 8.80951V10.444C176.239 10.6434 176.08 10.8228 175.86 10.8228H172.809V22.0089C172.809 22.2084 172.63 22.3878 172.43 22.3878H170.576C170.377 22.3878 170.197 22.2084 170.197 22.0089V10.8228Z" fill="white"/>
<path d="M179.961 8.80951C179.961 8.61004 180.12 8.43066 180.34 8.43066H188.455C188.674 8.43066 188.834 8.61004 188.834 8.80951V10.444C188.834 10.6434 188.674 10.8228 188.455 10.8228H182.553V14.0933H187.478C187.677 14.0933 187.856 14.2727 187.856 14.4721V16.1267C187.856 16.3463 187.677 16.5056 187.478 16.5056H182.553V19.9956H188.455C188.674 19.9956 188.834 20.175 188.834 20.3745V22.0105C188.834 22.2099 188.674 22.3893 188.455 22.3893H180.34C180.12 22.3893 179.961 22.2099 179.961 22.0105V8.80951Z" fill="white"/>
</g>
<path d="M0.0247411 20.0867C0.0185559 20.1115 0.0154632 20.1362 0.0123706 20.1625C0.00773161 20.1919 0.00463896 20.2197 0.00309264 20.2491C0.00309264 20.2568 0 20.2645 0 20.2738C0 20.2908 0.00463896 20.3063 0.00463896 20.3218C0.00618529 20.3511 0.00773161 20.379 0.0139169 20.4083C0.0185559 20.4346 0.0247411 20.4594 0.0309264 20.4841C0.0371117 20.5089 0.0448433 20.5336 0.0541212 20.5583C0.0633992 20.5831 0.0742234 20.6078 0.086594 20.631C0.0974182 20.6542 0.109789 20.6759 0.123706 20.6991C0.137623 20.7207 0.153086 20.7424 0.168549 20.7625C0.184012 20.7841 0.201022 20.8042 0.219578 20.8243C0.236587 20.8429 0.256689 20.8614 0.275245 20.8784C0.295347 20.8954 0.313903 20.9124 0.335552 20.9279C0.358747 20.9449 0.383488 20.9588 0.408229 20.9743C0.422146 20.982 0.434516 20.9929 0.44998 21.0006L19.912 30.7316C19.9197 30.7347 19.9274 30.7362 19.9336 30.7393C19.9445 30.744 19.9537 30.7501 19.9646 30.7548C19.9738 30.7594 19.9847 30.761 19.9955 30.7656C20.0109 30.7718 20.028 30.7764 20.0434 30.7811C20.0589 30.7857 20.0743 30.7904 20.0898 30.7934C20.0991 30.795 20.1068 30.7996 20.1161 30.8012C20.1254 30.8027 20.1346 30.8027 20.1439 30.8043C20.1609 30.8074 20.1779 30.8089 20.1965 30.8105C20.2151 30.812 20.2336 30.8135 20.2506 30.8135C20.2661 30.8135 20.2831 30.8135 20.2986 30.8135C20.3171 30.8135 20.3341 30.812 20.3527 30.8105C20.3697 30.8089 20.3867 30.8058 20.4053 30.8043C20.4145 30.8027 20.4238 30.8027 20.4331 30.8012C20.4424 30.7996 20.4501 30.7965 20.4594 30.7934C20.4748 30.7904 20.4903 30.7857 20.5058 30.7811C20.5212 30.7764 20.5382 30.7702 20.5537 30.7656C20.5645 30.7625 20.5738 30.7594 20.5846 30.7548C20.5955 30.7501 20.6047 30.744 20.6156 30.7393C20.6233 30.7362 20.631 30.7347 20.6372 30.7316L40.0992 21.0006C40.1147 20.9929 40.1255 20.982 40.141 20.9743C40.1657 20.9604 40.1904 20.9449 40.2136 20.9279C40.2353 20.9124 40.2538 20.8954 40.2739 20.8784C40.294 20.8614 40.3126 20.8429 40.3296 20.8243C40.3482 20.8042 40.3636 20.7841 40.3806 20.7625C40.3961 20.7424 40.4116 20.7207 40.4255 20.6991C40.4394 20.6774 40.4502 20.6542 40.4626 20.631C40.475 20.6078 40.4858 20.5831 40.4951 20.5583C40.5043 20.5336 40.5121 20.5089 40.5183 20.4841C40.5244 20.4594 40.5306 20.4346 40.5353 20.4083C40.5399 20.379 40.5415 20.3511 40.5445 20.3218C40.5461 20.3063 40.5492 20.2908 40.5492 20.2738C40.5492 20.2661 40.5476 20.2584 40.5461 20.2491C40.5445 20.2197 40.5415 20.1919 40.5368 20.1625C40.5337 20.1377 40.5306 20.1115 40.5244 20.0867C40.5183 20.0635 40.5105 20.0388 40.5028 20.0156C40.4935 19.9878 40.4842 19.9584 40.4703 19.9321C40.4672 19.9243 40.4657 19.9166 40.4626 19.9104L30.73 0.448433C30.7254 0.439155 30.7177 0.43297 30.713 0.425238C30.6852 0.37421 30.6527 0.326274 30.6141 0.282977C30.6048 0.272153 30.5971 0.261328 30.5878 0.25205C30.5429 0.205661 30.4919 0.16391 30.4362 0.128345C30.4223 0.119067 30.4084 0.112881 30.3945 0.10515C30.3496 0.0804087 30.3017 0.0603065 30.2522 0.043297C30.2352 0.0371117 30.2182 0.0324727 30.2012 0.0278338C30.1393 0.0123706 30.076 0.00154632 30.011 0.00154632C30.0079 0.00154632 30.0048 0 30.0048 0C29.9971 0 29.9878 0.00309264 29.9801 0.00309264C29.929 0.00463896 29.8796 0.00927793 29.8316 0.0201022C29.8162 0.0231948 29.8007 0.0309264 29.7852 0.0340191C29.7435 0.0463896 29.7033 0.0603065 29.6646 0.0773161C29.6584 0.0804087 29.6507 0.081955 29.6445 0.0850477C29.6291 0.0927793 29.6182 0.103604 29.6028 0.111335C29.578 0.125252 29.5533 0.140715 29.5301 0.157725C29.5085 0.173188 29.4899 0.190198 29.4698 0.207207C29.4497 0.224217 29.4311 0.242772 29.4141 0.261328C29.3956 0.28143 29.3801 0.301533 29.3631 0.323181C29.3476 0.343283 29.3322 0.364932 29.3183 0.38658C29.3043 0.408229 29.2935 0.431424 29.2811 0.454618C29.2688 0.477813 29.2579 0.502554 29.2487 0.527296C29.2394 0.552037 29.2332 0.576778 29.2255 0.601519C29.2193 0.62626 29.2131 0.651001 29.2085 0.677289C29.2038 0.706669 29.2023 0.734503 29.1992 0.763883C29.1976 0.779346 29.1945 0.794809 29.1945 0.811819V18.3162L20.8491 9.97068C20.8104 9.93202 20.7686 9.898 20.7238 9.86862C20.7052 9.85625 20.6836 9.84697 20.6635 9.83615C20.6372 9.82223 20.6125 9.80677 20.5846 9.7944C20.5583 9.78358 20.5305 9.77739 20.5042 9.76966C20.481 9.76347 20.4578 9.7542 20.4346 9.74956C20.3821 9.73873 20.3295 9.73409 20.2754 9.73409C20.2228 9.73409 20.1687 9.74028 20.1161 9.74956C20.0914 9.7542 20.0697 9.76347 20.045 9.76966C20.0171 9.77739 19.9908 9.78358 19.9646 9.7944C19.9367 9.80522 19.912 9.82223 19.8857 9.83615C19.8656 9.84697 19.8455 9.85625 19.8254 9.86862C19.7805 9.898 19.7388 9.93202 19.7001 9.97068L11.3546 18.3162V0.811819C11.3546 0.794809 11.35 0.779346 11.35 0.763883C11.3485 0.734503 11.3469 0.706669 11.3407 0.677289C11.3361 0.651001 11.3299 0.62626 11.3237 0.601519C11.3175 0.576778 11.3098 0.552037 11.3005 0.527296C11.2912 0.502554 11.2804 0.477813 11.268 0.454618C11.2572 0.431424 11.2448 0.409775 11.2309 0.38658C11.217 0.364932 11.2016 0.343283 11.1861 0.323181C11.1706 0.301533 11.1536 0.28143 11.1351 0.261328C11.1181 0.242772 11.0979 0.224217 11.0794 0.207207C11.0593 0.190198 11.0407 0.173188 11.0191 0.157725C10.9959 0.140715 10.9712 0.126798 10.9464 0.111335C10.9325 0.103604 10.9201 0.0927793 10.9047 0.0850477C10.8985 0.081955 10.8907 0.0804087 10.8846 0.0773161C10.8459 0.0587602 10.8057 0.0463896 10.7655 0.0340191C10.7485 0.0293801 10.733 0.0216485 10.716 0.0185559C10.6681 0.00773161 10.6201 0.00309264 10.5691 0.00154632C10.5614 0.00309264 10.5521 0 10.5444 0C10.5413 0 10.5382 0.00154632 10.5382 0.00154632C10.4717 0.00154632 10.4083 0.0123706 10.348 0.0278338C10.331 0.0324727 10.314 0.038658 10.297 0.043297C10.2475 0.0587602 10.1995 0.0804087 10.1547 0.10515C10.1408 0.112881 10.1269 0.119067 10.1129 0.128345C10.0573 0.16391 10.0062 0.204114 9.9614 0.25205C9.95213 0.261328 9.94439 0.273699 9.93511 0.282977C9.89646 0.326274 9.86398 0.37421 9.83615 0.425238C9.83151 0.434516 9.82378 0.440702 9.81914 0.448433L0.086594 19.9104C0.0835014 19.9182 0.081955 19.9243 0.0788624 19.9321C0.0664918 19.9584 0.0572139 19.9878 0.0463896 20.0156C0.038658 20.0388 0.0309264 20.062 0.0247411 20.0867ZM10.2073 21.0841L16.1668 27.0436L4.24774 21.0841H10.2073ZM30.3404 21.0841H36.2999L24.3808 27.0436L30.3404 21.0841ZM30.8151 19.462V4.2462L38.423 19.462H30.8151ZM21.0841 28.0456V12.4989L28.8574 20.2723L21.0841 28.0456ZM19.4635 28.0456L11.6902 20.2723L19.4635 12.4989V28.0456ZM2.12465 19.462L9.73255 4.2462V19.462H2.12465Z" fill="white"/>
<defs>
<clipPath id="clip0_30_2570">
<rect width="142" height="15" fill="white" transform="translate(47 8)"/>
</clipPath>
</defs>
</svg>
