<svg width="106" height="30" viewBox="0 0 106 30" fill="none" xmlns="http://www.w3.org/2000/svg">
<path d="M86.1804 28.6716C85.8272 28.3184 85.6329 27.8415 85.6505 27.3292V2.10601C85.6505 1.59378 85.8272 1.11686 86.1804 0.745935C86.5337 0.375005 87.0106 0.18071 87.5228 0.198373H104.197C104.674 0.18071 105.133 0.375007 105.451 0.728273C105.804 1.04621 105.981 1.50546 105.981 1.98237C105.999 2.45928 105.804 2.90086 105.451 3.2188C105.115 3.53674 104.656 3.73103 104.197 3.73103H89.4481V12.916H102.713C103.19 12.8983 103.649 13.0926 103.985 13.4459C104.321 13.7638 104.515 14.223 104.515 14.7C104.533 15.1769 104.338 15.6184 103.985 15.9364C103.649 16.2543 103.19 16.4486 102.713 16.431H89.4481V25.6689H104.215C104.692 25.6512 105.151 25.8455 105.469 26.1988C105.822 26.5167 105.999 26.976 105.999 27.4529C106.016 27.9298 105.822 28.3714 105.469 28.6893C105.133 29.0072 104.674 29.2015 104.215 29.1839H87.5405C87.0106 29.2545 86.516 29.0602 86.1804 28.6716Z" fill="white"/>
<path d="M65.356 27.5235L55.0936 2.61827C55.0229 2.38865 54.97 2.15903 54.97 1.91174C54.9523 1.3995 55.1289 0.90493 55.4645 0.534C55.8178 0.16307 56.3124 -0.031226 56.8246 0.0041006C57.2132 0.0041006 57.5665 0.127744 57.8844 0.357367C58.2023 0.604653 58.4673 0.922593 58.6086 1.29352L68.3764 25.6689L78.1442 1.29352C78.3032 0.922593 78.5505 0.604653 78.8684 0.357367C79.1687 0.127744 79.5396 0.0041006 79.9282 0.0041006C80.4405 -0.031226 80.935 0.16307 81.2883 0.534C81.6239 0.90493 81.8182 1.3995 81.7829 1.91174C81.7829 2.15903 81.7299 2.38865 81.6592 2.61827L71.3968 27.5235C71.0259 28.654 70.0014 29.4135 68.818 29.4488H67.9172C66.7514 29.4135 65.7269 28.6363 65.356 27.5235Z" fill="white"/>
<path d="M57.4251 26.8171L47.1627 1.91179C46.7918 0.781337 45.7673 0.0218137 44.5839 0.00415039H43.683C42.4996 0.0218137 41.4751 0.799 41.1042 1.91179L36.6354 12.7571H33.2617C32.2549 12.7747 31.4247 13.5872 31.4247 14.594V14.6294C31.4424 15.6362 32.2549 16.4664 33.2617 16.4664H35.081L30.8065 26.8171C30.7358 27.0467 30.6828 27.2763 30.6828 27.5236C30.6652 28.0358 30.8418 28.5304 31.1951 28.9013C31.5484 29.2723 32.0429 29.4666 32.5552 29.4312C32.9438 29.4312 33.297 29.3076 33.615 29.078C33.9329 28.8307 34.1978 28.5127 34.3392 28.1418L39.0376 16.4664H42.27C43.2945 16.4664 44.107 15.6362 44.107 14.6294V14.5764C44.0893 13.5519 43.2768 12.7394 42.27 12.7394H40.5213L44.1246 3.7841L53.8924 28.1595C54.0514 28.5304 54.2987 28.8483 54.6166 29.0956C54.9169 29.3253 55.2878 29.4489 55.6764 29.4489C56.1887 29.4842 56.6832 29.2899 57.0365 28.919C57.3721 28.5481 57.5664 28.0358 57.5487 27.5413C57.5487 27.2763 57.5134 27.0467 57.4251 26.8171Z" fill="white"/>
<path d="M26.7435 26.8171L16.4811 1.91179C16.1102 0.781337 15.0857 0.0218137 13.9022 0.00415039H13.0014C11.818 0.0218137 10.7758 0.781337 10.4226 1.91179L5.95374 12.7571H2.58005C1.55558 12.7747 0.743065 13.5872 0.743065 14.594V14.6294C0.760729 15.6362 1.57324 16.4664 2.58005 16.4664H4.39937L0.124849 26.8171C0.0365327 27.0467 0.00120598 27.2763 0.00120598 27.5236C-0.0164573 28.0358 0.160176 28.5304 0.513442 28.9013C0.866708 29.2723 1.36128 29.4666 1.87352 29.4312C2.26211 29.4312 2.61538 29.3076 2.93332 29.078C3.26892 28.8307 3.51621 28.5127 3.65751 28.1418L8.35596 16.4664H11.606C12.6305 16.4664 13.443 15.6362 13.443 14.6294V14.5764C13.4253 13.5519 12.6128 12.7394 11.606 12.7394H9.875L13.4607 3.7841L23.2285 28.1595C23.3874 28.5304 23.6347 28.8483 23.9527 29.0956C24.2529 29.3253 24.6239 29.4489 25.0125 29.4489C25.5247 29.4842 26.0193 29.2899 26.3725 28.919C26.7258 28.5481 26.9024 28.0358 26.8848 27.5236C26.8848 27.2763 26.8318 27.0467 26.7435 26.8171Z" fill="white"/>
</svg>
