<svg width="119" height="24" viewBox="0 0 119 24" fill="none" xmlns="http://www.w3.org/2000/svg">
<path d="M32.058 7.81372H33.3385L36.9271 16.1862H35.2286L34.4534 14.2703H30.8386L30.0895 16.1862H28.4258L32.0493 7.81372H32.058ZM33.9395 12.993L32.659 9.58971L31.3525 12.993H33.9395Z" fill="#E5E9EB"/>
<path d="M38.5215 7.81372H40.2287L42.5021 14.139L44.8452 7.81372H46.448L43.077 16.1862H41.7966L38.5215 7.81372Z" fill="#E5E9EB"/>
<path d="M51.7427 7.81372H53.0231L56.6118 16.1862H54.9133L54.138 14.2703H50.5232L49.7741 16.1862H48.1191L51.7427 7.81372ZM53.6241 12.993L52.3437 9.58971L51.0371 12.993H53.6241Z" fill="#E5E9EB"/>
<path d="M59.8965 7.81372H61.3773V14.8389H64.9224V16.1862H59.8965V7.81372Z" fill="#E5E9EB"/>
<path d="M71.0454 7.81372H72.3258L75.9145 16.1862H74.216L73.4408 14.2703H69.8259L69.0769 16.1862H67.4219L71.0454 7.81372ZM72.9269 12.993L71.6464 9.58971L70.3399 12.993H72.9269Z" fill="#E5E9EB"/>
<path d="M79.1992 7.81372H81.1678L85.2007 14.0341H85.2268V7.81372H86.7076V16.1862H84.8261L80.7061 9.76468H80.68V16.1862H79.1992V7.81372Z" fill="#E5E9EB"/>
<path d="M96.6366 9.77348C96.3318 9.44103 96.0356 9.22231 95.7394 9.10858C95.4607 8.99485 95.1733 8.94235 94.8771 8.94235C94.4416 8.94235 94.0496 9.02109 93.7012 9.17857C93.3528 9.3273 93.0566 9.53727 92.804 9.81722C92.5514 10.0884 92.3598 10.4034 92.2117 10.7621C92.0811 11.1208 92.0114 11.5145 92.0114 11.9344C92.0114 12.3806 92.0811 12.8005 92.2117 13.1767C92.3511 13.5529 92.5514 13.8854 92.804 14.1566C93.0566 14.4365 93.3528 14.6465 93.7012 14.804C94.0583 14.9615 94.4503 15.0402 94.8771 15.0402C95.2168 15.0402 95.5391 14.9615 95.8527 14.804C96.175 14.6378 96.4711 14.3753 96.7499 14.0254L97.9693 14.9002C97.5948 15.4164 97.1331 15.8013 96.5931 16.0376C96.053 16.2738 95.4781 16.3963 94.8597 16.3963C94.2151 16.3963 93.6228 16.2913 93.0828 16.0901C92.5514 15.8801 92.0898 15.5826 91.6978 15.2064C91.3146 14.8215 91.0097 14.3578 90.7919 13.8241C90.5742 13.2905 90.4609 12.6956 90.4609 12.0394C90.4609 11.3657 90.5742 10.7621 90.7919 10.2197C91.0097 9.6685 91.3146 9.19607 91.6978 8.81112C92.0898 8.42618 92.5514 8.12872 93.0828 7.9275C93.6228 7.71753 94.2151 7.61255 94.8597 7.61255C95.4259 7.61255 95.9485 7.71753 96.4276 7.91875C96.9154 8.11997 97.3683 8.45243 97.7777 8.9336L96.6279 9.78223L96.6366 9.77348Z" fill="#E5E9EB"/>
<path d="M101.332 7.81372H102.813V11.147H106.706V7.81372H108.196V16.1862H106.706V12.4943H102.813V16.1862H101.332V7.81372Z" fill="#E5E9EB"/>
<path d="M112.41 7.81372H117.924V9.16102H113.891V11.217H117.715V12.5643H113.891V14.8389H118.142V16.1862H112.41V7.81372Z" fill="#E5E9EB"/>
<path fill-rule="evenodd" clip-rule="evenodd" d="M24.044 12.0042C24.044 18.6357 18.6958 24.0074 12.0933 24.0074C5.49077 24.0074 0.142578 18.6357 0.142578 12.0042C0.142578 5.37269 5.49077 0.000976562 12.0933 0.000976562C18.6958 0.000976562 24.044 5.37269 24.044 12.0042ZM8.70492 16.781H6.38795C5.90016 16.781 5.65627 16.781 5.5169 16.6848C5.36012 16.5798 5.2643 16.4136 5.24688 16.2211C5.23817 16.0461 5.36012 15.8361 5.5953 15.4075L11.3268 5.2677C11.5706 4.83901 11.6926 4.6203 11.8494 4.54156C12.0149 4.45407 12.2152 4.45407 12.3807 4.54156C12.5375 4.6203 12.6594 4.83901 12.9033 5.2677L14.0792 7.3324L14.088 7.34115C14.3493 7.80483 14.4886 8.04104 14.5409 8.28601C14.6019 8.55722 14.6019 8.83718 14.5409 9.10839C14.4799 9.35335 14.3493 9.58957 14.0792 10.062L11.0742 15.4075L11.0654 15.425C10.8041 15.8886 10.6648 16.1249 10.4818 16.3086C10.2815 16.501 10.0376 16.641 9.76759 16.7285C9.5237 16.7985 9.25367 16.7985 8.70492 16.7985V16.781ZM14.5583 16.781H17.8857C18.3735 16.781 18.6261 16.781 18.7654 16.6848C18.9222 16.5798 19.0268 16.4048 19.0355 16.2211C19.0442 16.0549 18.9222 15.8449 18.6958 15.4512C18.6871 15.4337 18.6783 15.425 18.6696 15.4075L17.0059 12.5466L16.9885 12.5116C16.7533 12.1179 16.6401 11.9167 16.4833 11.838C16.3178 11.7505 16.1175 11.7505 15.952 11.838C15.7952 11.9167 15.6733 12.1267 15.4294 12.5466L13.7744 15.4075L13.7657 15.4162C13.5218 15.8361 13.3998 16.0461 13.4085 16.2211C13.4173 16.4136 13.5131 16.5798 13.6786 16.6848C13.8266 16.781 14.0705 16.781 14.5583 16.781Z" fill="#D8D8D8"/>
</svg>
