<svg width="96" height="29" viewBox="0 0 96 29" fill="none" xmlns="http://www.w3.org/2000/svg">
<path d="M1.7627 26.2125V5.69995H12.5627C16.4627 5.69995 18.4877 8.21245 18.4877 10.95C18.4877 13.5375 16.8752 15.2625 14.9627 15.675C17.1377 16.0125 18.9002 18.15 18.9002 20.7375C18.9002 23.8125 16.8377 26.2875 12.9377 26.2875L1.7627 26.2125ZM14.0252 11.7C14.0252 10.425 13.0877 9.44995 11.6252 9.44995H6.1502V13.9125H11.6252C13.0877 13.9125 14.0252 12.975 14.0252 11.7ZM14.4377 20.0625C14.4377 18.75 13.5002 17.6625 11.7752 17.6625H6.1502V22.425H11.7752C13.4252 22.425 14.4377 21.5625 14.4377 20.0625Z" fill="white"/>
<path d="M22.2002 26.2125V5.69995H36.7502V9.56245H26.5877V13.875H36.5252V17.7375H26.5877V22.3875H36.7502V26.25H22.2002V26.2125Z" fill="white"/>
<path d="M54.3371 26.2125L44.5496 12.825V26.2125H40.1621V5.69995H44.6621L54.1871 18.6V5.69995H58.5746V26.25H54.3371V26.2125Z" fill="white"/>
<path d="M88.8379 12.7124H94.2379V26.2124H88.8379V12.7124Z" fill="white"/>
<path d="M88.8373 11.0626L93.6373 8.9626C93.9748 8.8126 94.2373 8.4751 94.2373 8.0626V5.6626H94.1998L89.6248 7.6501C89.1373 7.8751 88.7998 8.3626 88.7998 8.8876V11.0626H88.8373Z" fill="white"/>
<path d="M66.3749 12.6375C67.2749 8.58748 71.2499 6.03748 75.2999 6.93748C78.7499 7.68748 81.1874 10.725 81.1874 14.25C81.1874 14.7 81.1499 15.1875 81.0374 15.6375L83.5499 21.1125C87.4124 15.6375 86.0999 8.02498 80.6249 4.16248C75.1499 0.299976 67.5374 1.61248 63.6749 7.08748C59.8124 12.5625 61.1249 20.175 66.5999 24.0375C69.2249 25.875 72.4874 26.625 75.6374 26.1L73.6874 21.7875C69.5624 21.7875 66.1874 18.4125 66.2249 14.25C66.1874 13.6875 66.2624 13.1625 66.3749 12.6375Z" fill="white"/>
<path d="M83.5875 26.2124H77.9625L74.4375 18.3374H80.025L83.5875 26.2124Z" fill="white"/>
</svg>
