<svg width="118" height="36" viewBox="0 0 118 36" fill="none" xmlns="http://www.w3.org/2000/svg">
<path d="M40.5821 17.7837C40.4451 14.2658 43.2032 11.3147 46.7241 11.1779H46.9784C50.2254 11.1779 52.1423 13.0736 52.7096 15.3016L50.6753 15.9857C50.3036 14.2658 48.7192 13.0736 46.9784 13.2104C44.8854 13.2104 42.7728 14.7349 42.7728 17.8228C42.7728 20.9108 44.8267 22.3765 46.9979 22.3765C48.7584 22.4156 50.3232 21.2625 50.7927 19.5818L52.7683 20.2267C52.0641 22.8065 49.6582 24.5655 46.9784 24.4287C43.4966 24.4873 40.6212 21.7316 40.5625 18.2528C40.5625 18.0964 40.5625 17.9401 40.5821 17.7837Z" fill="#E5E9EB"/>
<path d="M56.72 24.1369H54.5879V11.1401H56.72V16.2411C57.3264 15.518 58.2457 15.1076 59.2042 15.1467C61.3558 15.1467 62.4121 16.6906 62.4121 18.6059V24.1369H60.3387V18.9577C60.4756 18.0392 59.8301 17.1792 58.9108 17.0424C58.7934 17.0229 58.6565 17.0229 58.5391 17.0424C57.5415 17.0424 56.72 17.8633 56.72 18.86C56.72 18.9186 56.72 18.9577 56.72 19.0164V24.1369Z" fill="#E5E9EB"/>
<path d="M67.0276 19.1327L69.2771 18.781C69.7857 18.7223 69.9226 18.4487 69.9226 18.1555C69.9226 17.4129 69.4336 16.8266 68.26 16.8266C67.3602 16.7484 66.5582 17.4129 66.4604 18.3119V18.3901L64.563 17.9601C64.7195 16.4552 66.0887 15.1067 68.2404 15.1067C70.9398 15.1067 71.9569 16.6311 71.9569 18.4096V22.7484C71.9569 23.2174 71.9765 23.6865 72.0743 24.1555H70.1378C70.0595 23.7842 70.04 23.4129 70.0595 23.0415C69.4727 23.9406 68.436 24.4682 67.3602 24.4292C65.854 24.5464 64.5434 23.452 64.387 21.9471V21.8103C64.3674 20.1881 65.5215 19.3477 67.0276 19.1327ZM69.903 20.5399V20.149L67.6145 20.4813C66.969 20.5008 66.4604 21.0285 66.4408 21.6735C66.4408 22.3184 66.969 22.8266 67.6145 22.807H67.7123C68.8076 22.9438 69.8052 22.1425 69.9226 21.0481C69.9226 21.0285 69.9226 21.0285 69.9226 21.009C69.9617 20.8526 69.9422 20.6963 69.903 20.5399Z" fill="#E5E9EB"/>
<path d="M75.4966 10.9635C76.2399 10.9635 76.8658 11.5498 76.8854 12.312C76.8854 13.0547 76.279 13.6606 75.5357 13.6801C74.7924 13.6801 74.186 13.0742 74.1665 12.3316C74.1469 11.5694 74.7533 10.9635 75.4966 10.9635ZM74.4794 24.1752V15.4H76.5724V24.1361L74.4794 24.1752Z" fill="#E5E9EB"/>
<path d="M81.3078 24.1378H79.2148V15.4017H81.2491V16.5743C81.7968 15.6753 82.7749 15.1281 83.8311 15.1476C85.9632 15.1476 86.9804 16.6916 86.9804 18.6069V24.1378H84.907V18.9587C84.907 17.8838 84.4179 17.0238 83.1074 17.0238C82.0902 17.0238 81.2687 17.8642 81.2687 18.8805C81.2687 18.9587 81.2687 19.0173 81.2687 19.0955L81.3078 24.1378Z" fill="#E5E9EB"/>
<path d="M91.6144 11.1401H89.541V24.1369H91.6144V11.1401Z" fill="#E5E9EB"/>
<path d="M95.3516 10.9635C96.0949 10.9635 96.7013 11.5694 96.7209 12.312C96.7209 13.0547 96.1145 13.6606 95.3712 13.6801C94.6279 13.6801 94.0215 13.0742 94.002 12.3316V12.312C94.002 11.5694 94.5888 10.9635 95.3516 10.9635ZM94.3149 24.1752V15.4H96.3883V24.1361L94.3149 24.1752Z" fill="#E5E9EB"/>
<path d="M101.161 24.1378H99.0879V15.4017H101.122V16.5743C101.67 15.6753 102.648 15.1281 103.704 15.1476C105.836 15.1476 106.873 16.6916 106.873 18.6069V24.1378H104.8V18.9587C104.936 18.0401 104.291 17.1802 103.372 17.0434C103.254 17.0238 103.117 17.0238 103 17.0434C101.983 17.0434 101.161 17.8642 101.181 18.8805C101.181 18.9587 101.181 19.0369 101.181 19.0955L101.161 24.1378Z" fill="#E5E9EB"/>
<path d="M113.974 19.075L117.651 24.1369H115.089L112.526 20.5212L111.45 21.6548V24.1369H109.377V11.1401H111.45V18.9186L114.815 15.4007H117.573L113.974 19.075Z" fill="#E5E9EB"/>
<path d="M15.8964 7.62215L24.9138 12.8013V23.1792L15.9355 28.3779L6.91813 23.2573V12.8404L15.8964 7.62215ZM15.8964 0L12.5907 1.91531L3.59284 7.13355L0.287109 9.04886V27.0489L3.59284 28.9446L12.6103 34.1042L15.916 36L19.2217 34.0847L28.2 28.8664L31.5057 26.9511V8.9316L28.2 7.03583L19.1826 1.85668L15.8964 0Z" fill="#E5E9EB"/>
</svg>
