<svg width="192" height="31" viewBox="0 0 192 31" fill="none" xmlns="http://www.w3.org/2000/svg">
<path d="M10.2157 19.5872C10.5667 20.3836 11.0452 21.1163 11.6194 21.7534C10.3752 22.4224 9.0992 22.7409 7.6636 22.7409C3.4525 22.7409 0.421875 19.9376 0.421875 15.4459C0.421875 10.9224 3.6121 8.1191 7.6636 8.1191C9.0992 8.1191 10.2476 8.4377 11.3961 9.0429C10.8538 9.7119 10.4072 10.4764 10.0881 11.3047C9.3863 11.018 8.6845 10.8906 7.9507 10.8906C5.46239 10.8906 3.5164 12.5152 3.5164 15.4459C3.5164 18.2174 5.3986 20.0013 8.0464 20.0013C8.844 20.0013 9.5458 19.8739 10.2157 19.5872ZM18.6697 8.151C22.817 8.151 25.7838 11.1136 25.7838 15.4778C25.7838 19.8102 22.7851 22.7728 18.6697 22.7728C14.5544 22.7728 11.5875 19.8102 11.5875 15.4778C11.5875 11.1136 14.5863 8.151 18.6697 8.151ZM18.6697 10.8268C16.3728 10.8268 14.682 12.6108 14.682 15.4778C14.682 18.2811 16.3728 20.0969 18.6697 20.0969C21.0305 20.0969 22.6894 18.313 22.6894 15.4778C22.6894 12.6108 21.0624 10.8268 18.6697 10.8268ZM27.7618 22.4224V8.4377H30.8562V22.4224H27.7618ZM27.3789 4.169C27.3789 3.0859 28.2722 2.2576 29.293 2.2576C30.3139 2.2576 31.2071 3.1177 31.2071 4.169C31.2071 5.2839 30.3139 6.144 29.293 6.144C28.2722 6.144 27.3789 5.2521 27.3789 4.169ZM33.536 9.3296C35.4501 8.5651 37.8427 8.1191 39.8525 8.1191C43.3618 8.1191 45.6268 9.4889 45.6268 13.4072V22.3905H42.5642V13.7257C42.5642 11.7188 41.32 10.9861 39.5973 10.9861C38.5127 10.9861 37.428 11.1454 36.5986 11.4003V22.4542H33.5041V9.3296H33.536ZM48.2108 0.983398H51.3053V8.8518C51.9433 8.5014 53.2194 8.151 54.4636 8.151C58.4513 8.151 61.4501 10.7313 61.4501 15.223C61.4501 19.7465 58.4832 22.7728 53.3789 22.7728C51.401 22.7728 49.6464 22.3587 48.2427 21.849V0.983398H48.2108ZM51.2734 19.7783C51.8795 19.9695 52.6452 20.065 53.4108 20.065C56.2501 20.065 58.2599 18.4722 58.2599 15.2548C58.2599 12.5471 56.3458 10.9224 54.017 10.9224C52.8047 10.9224 51.8795 11.241 51.2415 11.5914V19.7783H51.2734ZM70.2869 13.0568C70.2869 11.5277 69.1703 10.8587 67.6391 10.8587C66.044 10.8587 64.7998 11.3365 63.6513 12.0055V9.2659C64.8636 8.5651 66.4268 8.1191 68.1176 8.1191C71.1483 8.1191 73.2857 9.3933 73.2857 12.8975V22.1357C71.9777 22.4861 70.1274 22.7091 68.5642 22.7091C64.9912 22.7091 62.3753 21.5941 62.3753 18.4404C62.3753 15.6052 64.7679 14.2036 68.7556 14.2036H70.2869V13.0568ZM70.2869 16.3061H68.9789C66.8415 16.3061 65.4378 16.9432 65.4378 18.3448C65.4378 19.8102 66.7458 20.3517 68.628 20.3517C69.1065 20.3517 69.7446 20.288 70.3188 20.1925L70.2869 16.3061ZM75.5507 18.6315C76.8268 19.6191 78.3581 20.2243 79.7618 20.2243C81.1335 20.2243 82.0268 19.7465 82.0268 18.6315C82.0268 17.4847 81.2292 17.0706 79.4427 16.6246C76.5716 15.9556 75.3593 14.8088 75.3593 12.3559C75.3593 9.5208 77.4648 8.1191 80.2722 8.1191C81.8354 8.1191 83.0795 8.4695 84.228 9.2022V12.0692C83.0157 11.1773 81.8354 10.6357 80.3679 10.6357C79.028 10.6357 78.3262 11.3047 78.3262 12.2285C78.3262 13.1523 78.9323 13.6302 80.4955 14.0443C83.6538 14.7451 84.9937 15.9238 84.9937 18.4722C84.9937 21.403 82.7924 22.7409 79.7937 22.7409C78.1667 22.7409 76.5716 22.295 75.5188 21.5941V18.6315H75.5507ZM89.2366 16.1468V16.2105C89.428 18.6952 91.5335 20.065 93.703 20.065C95.617 20.065 96.957 19.6191 98.329 18.6952V21.4348C97.084 22.3268 95.234 22.7409 93.48 22.7409C89.1728 22.7409 86.2697 19.9695 86.2697 15.5415C86.2697 11.0817 89.1409 8.1191 92.937 8.1191C96.957 8.1191 98.839 10.7313 98.839 14.554V16.1468H89.2366ZM95.936 14.1399C95.872 11.9737 94.819 10.7631 92.81 10.7631C91.0231 10.7631 89.7151 12.0374 89.3323 14.1399H95.936Z" fill="#E5E9EB"/>
<path d="M109.813 0.314453H110.1C110.387 0.314453 110.611 0.537454 110.611 0.824154V29.4944C110.611 29.7811 110.387 30.0041 110.1 30.0041H109.813C109.526 30.0041 109.303 29.7811 109.303 29.4944V0.824154C109.303 0.537454 109.558 0.314453 109.813 0.314453Z" fill="#E5E9EB"/>
<path d="M127.581 22.4544H125.858L120.562 8.34229H122.126L126.783 20.989L131.441 8.34229H132.94L127.581 22.4544ZM141.331 17.3575H133.674V17.3893C133.674 19.9378 135.461 21.435 137.439 21.435C138.874 21.435 139.863 21.0527 140.884 20.2563V21.6899C139.991 22.3907 138.683 22.6774 137.439 22.6774C134.504 22.6774 132.27 20.6386 132.27 17.2619C132.27 14.14 134.344 11.8464 137.088 11.8464C139.64 11.8464 141.331 13.4073 141.331 16.3699V17.3575ZM133.77 16.1469H139.959C139.863 13.9807 138.715 13.1206 137.024 13.1206C135.461 13.1206 134.185 14.2037 133.77 16.1469ZM142.894 22.4544V12.6428C144.234 12.1331 145.765 11.8464 147.137 11.8464C149.689 11.8464 151.252 12.8658 151.252 15.4461V22.4225H149.848V15.7328C149.848 13.6303 148.381 13.1525 147.009 13.1525C145.956 13.1525 144.999 13.3436 144.266 13.5348V22.4225H142.894V22.4544ZM152.113 13.3118V12.1012H153.677V9.58458H155.08V12.1012H157.92V13.3118H155.08V19.6192C155.08 20.9572 155.591 21.4669 156.548 21.4669C157.186 21.4669 157.728 21.2439 158.43 20.8935V22.1677C157.824 22.4862 157.122 22.6774 156.261 22.6774C154.793 22.6774 153.709 21.881 153.709 19.7466V13.2799H152.113V13.3118ZM167.618 12.1012V22.327C166.374 22.55 165.129 22.6774 164.077 22.6774C161.142 22.6774 159.483 21.658 159.483 19.0777V12.1012H160.886V19.014C160.886 20.9572 162.386 21.4669 164.013 21.4669C164.715 21.4669 165.512 21.435 166.246 21.3394V12.1331H167.618V12.1012ZM171.382 13.8215V22.4544H169.978V13.0569C171.031 12.3561 172.339 11.942 173.743 11.942C174.285 11.942 174.859 12.0057 175.434 12.165V13.5666C174.828 13.3436 174.126 13.3118 173.647 13.3118C172.658 13.2799 171.893 13.5029 171.382 13.8215ZM184.462 17.3575H176.805V17.3893C176.805 19.9378 178.592 21.435 180.57 21.435C182.005 21.435 182.994 21.0527 184.015 20.2563V21.6899C183.122 22.3907 181.814 22.6774 180.57 22.6774C177.635 22.6774 175.402 20.6386 175.402 17.2619C175.402 14.14 177.475 11.8464 180.219 11.8464C182.771 11.8464 184.462 13.4073 184.462 16.3699V17.3575ZM176.901 16.1469H183.09C182.994 13.9807 181.846 13.1206 180.155 13.1206C178.56 13.1206 177.284 14.2037 176.901 16.1469ZM185.515 21.8491V20.2245C186.376 21.0209 187.269 21.4669 188.354 21.4669C189.63 21.4669 190.428 20.9572 190.428 19.8104C190.428 18.568 189.534 18.2494 187.939 17.7079C186.153 17.1026 185.387 16.3381 185.387 14.6816C185.387 12.8658 186.727 11.8783 188.577 11.8783C189.566 11.8783 190.555 12.1013 191.353 12.6747V14.2037C190.555 13.5348 189.758 13.0888 188.577 13.0888C187.461 13.0888 186.759 13.694 186.759 14.6816C186.759 15.6372 187.301 16.1151 188.864 16.6248C190.619 17.1663 191.799 17.8672 191.799 19.7466C191.799 21.7854 190.236 22.7092 188.354 22.7092C187.237 22.6774 186.153 22.3588 185.515 21.8491Z" fill="#E5E9EB"/>
</svg>
