<svg width="103" height="34" viewBox="0 0 103 34" fill="none" xmlns="http://www.w3.org/2000/svg">
<path d="M94.7468 0.75L72.7148 32.96H79.4789L101.625 0.75H94.7468Z" fill="white"/>
<path d="M80.1853 0.75L86.6673 10.241L83.2853 15.418L73.2793 0.75H80.1853Z" fill="url(#paint0_linear_13_562)"/>
<path d="M95.4038 32.9629L88.2168 22.4649L91.5988 17.4319L102.168 32.9619L95.4038 32.9629Z" fill="url(#paint1_linear_13_562)"/>
<path fill-rule="evenodd" clip-rule="evenodd" d="M64.8254 0.75H70.7434V32.96H64.8254V31.757C63.0647 32.7384 61.082 33.2524 59.0664 33.25C52.4404 33.25 47.0684 27.794 47.0684 21.062C47.0684 14.332 52.4404 8.875 59.0664 8.875C61.082 8.87262 63.0647 9.38663 64.8254 10.368V0.75ZM59.0034 27.901C62.7554 27.901 65.7984 24.811 65.7984 20.998C65.7984 17.186 62.7554 14.096 59.0034 14.096C55.2504 14.096 52.2084 17.186 52.2084 20.998C52.2084 24.811 55.2504 27.901 59.0034 27.901Z" fill="white"/>
<path d="M47.6565 0.75L25.6465 32.96H32.5465L54.5345 0.75H47.6565Z" fill="white"/>
<path d="M32.5522 0.75L39.4572 10.529L35.6532 15.993L25.3652 0.75H32.5522Z" fill="url(#paint2_linear_13_562)"/>
<path fill-rule="evenodd" clip-rule="evenodd" d="M17.756 0.75H23.675V32.96H17.756V31.757C15.9954 32.7385 14.0127 33.2526 11.997 33.25C5.371 33.25 0 27.794 0 21.062C0 14.332 5.371 8.875 11.997 8.875C14.084 8.875 16.047 9.416 17.756 10.368V0.75ZM11.934 27.901C15.687 27.901 18.729 24.811 18.729 20.998C18.729 17.186 15.687 14.096 11.934 14.096C8.181 14.096 5.139 17.186 5.139 20.998C5.139 24.811 8.181 27.901 11.934 27.901Z" fill="white"/>
<defs>
<linearGradient id="paint0_linear_13_562" x1="78.6343" y1="2.763" x2="88.1383" y2="14.006" gradientUnits="userSpaceOnUse">
<stop stop-color="white"/>
<stop offset="1" stop-color="white" stop-opacity="0.55"/>
</linearGradient>
<linearGradient id="paint1_linear_13_562" x1="96.9538" y1="30.5179" x2="85.2528" y2="15.0599" gradientUnits="userSpaceOnUse">
<stop stop-color="#999999"/>
<stop offset="1" stop-color="#C7C7C7" stop-opacity="0.36"/>
</linearGradient>
<linearGradient id="paint2_linear_13_562" x1="31.0022" y1="2.842" x2="40.8562" y2="14.651" gradientUnits="userSpaceOnUse">
<stop stop-color="white"/>
<stop offset="1" stop-color="white" stop-opacity="0.55"/>
</linearGradient>
</defs>
</svg>
