<svg version="1.1" id="Layer_1" xmlns="http://www.w3.org/2000/svg" xmlns:xlink="http://www.w3.org/1999/xlink" x="0px" y="0px"
	 width="100%" viewBox="0 0 400 400" enable-background="new 0 0 400 400" xml:space="preserve">
<path fill="#1F1F1F" opacity="1.000000" stroke="none" 
	d="
M145.482086,377.557648 
	C73.449661,351.925995 29.606852,302.074707 18.175240,226.779755 
	C6.603651,150.562820 42.915234,78.802620 109.261490,40.335068 
	C176.808746,1.171176 264.175507,9.708327 322.686920,61.792568 
	C367.172913,101.392021 388.221802,151.471573 385.729675,210.895599 
	C382.064545,298.291168 313.330750,372.750214 226.815094,384.223236 
	C199.296188,387.872589 172.373901,385.675629 145.482086,377.557648 
M203.500549,128.002686 
	C228.766235,128.002686 254.031921,128.002686 279.780273,128.002686 
	C279.780273,142.584335 279.780273,156.639114 279.780273,170.656998 
	C285.992584,170.656998 291.711823,170.656998 297.325897,170.656998 
	C297.325897,150.267410 297.325897,130.225769 297.325897,110.198883 
	C296.452240,110.107185 295.957581,110.009903 295.462921,110.009804 
	C251.146729,110.000847 206.830414,109.962440 162.514801,110.121841 
	C160.587631,110.128777 158.141785,111.499268 156.825760,113.008888 
	C145.457611,126.049278 134.282852,139.258469 123.071266,152.435059 
	C109.419037,168.480057 95.787010,184.542252 82.108002,200.642014 
	C83.333694,202.204666 84.312531,203.547699 85.387383,204.808929 
	C109.034264,232.556427 132.730698,260.261902 156.282425,288.089874 
	C158.455475,290.657501 160.637817,291.579773 163.914993,291.572571 
	C206.731567,291.478424 249.548416,291.510040 292.365204,291.510040 
	C293.985199,291.510040 295.605164,291.510040 297.346863,291.510040 
	C297.346863,270.917999 297.346863,250.894608 297.346863,230.725037 
	C291.378540,230.725037 285.772705,230.725037 279.570129,230.725037 
	C279.570129,245.002365 279.570129,259.057739 279.570129,273.189331 
	C247.432571,273.189331 215.894821,273.189331 183.361725,273.189331 
	C204.620438,248.582443 225.308258,224.636353 245.972336,200.717743 
	C225.056854,176.522217 204.436356,152.667923 183.114822,128.002686 
	C190.313980,128.002686 196.407410,128.002686 203.500549,128.002686 
z"/>
<path fill="#FDFDFD" opacity="1.000000" stroke="none" 
	d="
M203.000702,128.002686 
	C196.407410,128.002686 190.313980,128.002686 183.114822,128.002686 
	C204.436356,152.667923 225.056854,176.522217 245.972336,200.717743 
	C225.308258,224.636353 204.620438,248.582443 183.361725,273.189331 
	C215.894821,273.189331 247.432571,273.189331 279.570129,273.189331 
	C279.570129,259.057739 279.570129,245.002365 279.570129,230.725037 
	C285.772705,230.725037 291.378540,230.725037 297.346863,230.725037 
	C297.346863,250.894608 297.346863,270.917999 297.346863,291.510040 
	C295.605164,291.510040 293.985199,291.510040 292.365204,291.510040 
	C249.548416,291.510040 206.731567,291.478424 163.914993,291.572571 
	C160.637817,291.579773 158.455475,290.657501 156.282425,288.089874 
	C132.730698,260.261902 109.034264,232.556427 85.387383,204.808929 
	C84.312531,203.547699 83.333694,202.204666 82.108002,200.642014 
	C95.787010,184.542252 109.419037,168.480057 123.071266,152.435059 
	C134.282852,139.258469 145.457611,126.049278 156.825760,113.008888 
	C158.141785,111.499268 160.587631,110.128777 162.514801,110.121841 
	C206.830414,109.962440 251.146729,110.000847 295.462921,110.009804 
	C295.957581,110.009903 296.452240,110.107185 297.325897,110.198883 
	C297.325897,130.225769 297.325897,150.267410 297.325897,170.656998 
	C291.711823,170.656998 285.992584,170.656998 279.780273,170.656998 
	C279.780273,156.639114 279.780273,142.584335 279.780273,128.002686 
	C254.031921,128.002686 228.766235,128.002686 203.000702,128.002686 
M114.216316,190.714645 
	C111.431274,193.985565 108.646225,197.256470 105.663246,200.759857 
	C124.973160,223.430695 144.112915,245.901764 163.469849,268.627808 
	C183.268021,245.727859 202.697876,223.253952 222.178818,200.720947 
	C202.496231,177.967896 183.075668,155.517731 163.437592,132.816132 
	C146.964142,152.202362 130.826630,171.193268 114.216316,190.714645 
z"/>
<path fill="#1F1F1F" opacity="1.000000" stroke="none" 
	d="
M114.452713,190.449402 
	C130.826630,171.193268 146.964142,152.202362 163.437592,132.816132 
	C183.075668,155.517731 202.496231,177.967896 222.178818,200.720947 
	C202.697876,223.253952 183.268021,245.727859 163.469849,268.627808 
	C144.112915,245.901764 124.973160,223.430695 105.663246,200.759857 
	C108.646225,197.256470 111.431274,193.985565 114.452713,190.449402 
z"/>
</svg>