<svg width="756" height="123" viewBox="0 0 756 123" fill="none" xmlns="http://www.w3.org/2000/svg">
<path fill-rule="evenodd" clip-rule="evenodd" d="M273.605 1.44673C261.669 4.65573 253.483 11.3217 248.68 21.7437C246.598 26.2617 246.081 28.9327 246.045 35.3637C245.985 46.0447 247.818 51.8887 253.055 57.7137C258.575 63.8527 266.322 67.5817 284.223 72.7157C305.269 78.7527 308.955 81.0197 308.955 87.9337C308.955 95.7577 302.209 99.3937 289.125 98.6217C279.374 98.0467 272.378 95.5447 263.069 89.3017C259.336 86.7977 256.186 84.8877 256.07 85.0567C255.953 85.2257 252.627 89.2437 248.679 93.9857C244.731 98.7277 241.5 103.077 241.5 103.651C241.5 105.419 250.923 111.724 259.674 115.812C278.056 124.399 302.069 125.226 316.674 117.775C330.405 110.77 337.937 95.4797 335.405 79.7527C334.112 71.7277 331.604 67.0057 326.025 62.0947C319.837 56.6477 312.765 53.4827 296.172 48.7357C275.849 42.9197 272.5 40.8567 272.5 34.1517C272.5 21.8157 293.57 20.3047 311.871 31.3277C315.1 33.2727 318.025 34.8477 318.371 34.8277C318.717 34.8087 322.043 30.3337 325.763 24.8847L332.526 14.9777L327.951 11.8297C321.39 7.31573 311.191 2.90671 303.577 1.29271C295.156 -0.492289 280.535 -0.417266 273.605 1.44673ZM162.565 3.61373C158.15 13.2837 113.5 119.092 113.5 119.886C113.5 120.475 118.808 120.864 126.836 120.864H140.172L145.462 107.864L150.751 94.8637H175.954H201.157L206.21 107.614L211.263 120.364L225.499 120.642C236.742 120.862 239.627 120.652 239.219 119.642C238.935 118.939 229.635 96.9887 218.551 70.8637C207.468 44.7387 196.285 18.3097 193.7 12.1317L189 0.899737L176.411 0.881731L163.821 0.863726L162.565 3.61373ZM0 61.3637V120.864H13.75H27.5V96.8637V72.8637H51H74.5V96.8637V120.864H88H101.5V61.3637V1.86373H88H74.5V25.3637V48.8637H51H27.5V25.3637V1.86373H13.75H0V61.3637ZM350.5 61.3637V120.864H363.982H377.464L377.732 97.1137L378 73.3637H401.5H425L425.268 97.1137L425.536 120.864H439.018H452.5V61.3637V1.86373H439.018H425.537L425.268 25.1137L425 48.3637H401.5H378L377.732 25.1137L377.463 1.86373H363.982H350.5V61.3637ZM476.505 20.3587L458.031 38.8527L466.995 47.8587C471.925 52.8117 476.421 56.8637 476.986 56.8637C477.551 56.8637 490.383 44.4887 505.5 29.3637L532.986 1.86373H513.983H494.98L476.505 20.3587ZM542.5 61.3637V120.864H588H633.5V109.364V97.8637H601.5H569.5V85.3637V72.8637H597.5H625.5V60.8637V48.8637H597.5H569.5V36.8777V24.8917L601.25 24.6277L633 24.3637L633.177 13.1137L633.354 1.86373H587.927H542.5V61.3637ZM641.12 7.61373C643.144 10.7767 651.2 23.4887 659.022 35.8637C666.843 48.2387 675.55 61.9637 678.371 66.3637L683.5 74.3637V97.6137V120.864H697H710.5V97.0657V73.2667L733.018 37.8157L755.537 2.36373L741.314 2.08473C733.492 1.93173 726.55 2.01372 725.888 2.26872C725.226 2.52272 718.455 13.1157 710.842 25.8097C700.117 43.6927 696.775 48.5567 696 47.4137C695.45 46.6017 689.15 36.0287 682 23.9167L669 1.89473L653.219 1.87972L637.439 1.86373L641.12 7.61373ZM183.892 52.6667L191.345 70.8637H175.947H160.55L161.41 68.6137C161.884 67.3757 164.809 60.1747 167.912 52.6097C171.014 45.0447 174.003 37.6697 174.554 36.2207C175.105 34.7717 175.755 33.7847 175.997 34.0277C176.24 34.2707 179.793 42.6577 183.892 52.6667ZM467.735 75.1277L458.509 84.3927L476.764 102.628L495.02 120.864H514.003H532.986L505.5 93.3637C490.383 78.2387 477.777 65.8637 477.487 65.8637C477.197 65.8637 472.809 70.0327 467.735 75.1277Z" fill="white"/>
</svg>
