<svg width="200" height="64" viewBox="0 0 200 64" fill="none" xmlns="http://www.w3.org/2000/svg">
<g clip-path="url(#clip0_9_18)">
<path d="M15.2911 15.1849H17.5823V50.2785C17.5823 58.0481 11.5696 63.2912 0 63.2912V55.9114C4.96709 55.9114 7.45063 53.8405 7.45063 49.6304V15.1849H15.2911ZM8.55696 9.48359C8.03249 8.97526 7.61512 8.36706 7.32945 7.69486C7.04379 7.02265 6.89561 6.30005 6.89367 5.56967C6.89213 4.83702 7.03893 4.11165 7.32522 3.43726C7.61151 2.76286 8.03137 2.15341 8.55949 1.64561C9.07627 1.12169 9.69249 0.706252 10.372 0.423674C11.0515 0.141096 11.7806 -0.00293036 12.5165 4.5181e-05C13.2519 0.000457346 13.98 0.146533 14.6588 0.429841C15.3375 0.713148 15.9534 1.12808 16.4709 1.65068C16.9969 2.15917 17.4155 2.768 17.7021 3.44114C17.9887 4.11429 18.1373 4.83807 18.1392 5.56967C18.1394 6.30121 17.9917 7.02525 17.705 7.69828C17.4183 8.3713 16.9985 8.97943 16.4709 9.48612C15.955 10.0111 15.3395 10.4278 14.6605 10.7117C13.9814 10.9955 13.2525 11.1409 12.5165 11.1393C11.7804 11.1389 11.0517 10.9926 10.3725 10.7088C9.6933 10.4251 9.07709 10.0095 8.55949 9.48612L8.55696 9.48359ZM46.9165 15.1849H57.0481V48.4H46.9165V43.5443C45.3779 45.3127 43.4696 46.7215 41.3266 47.6709C39.1786 48.624 36.8484 49.0967 34.4987 49.0557C26.9139 49.0557 21.881 44.395 21.881 35.6532V15.1924H32.0152V31.833C32.0152 37.5874 34.3038 40.5089 38.9468 40.5089C43.3924 40.5089 46.9215 37.076 46.9215 30.276L46.9165 15.1849ZM120.273 27.9595V48.4152H110.144V31.4532C110.144 25.8836 107.987 23.1013 103.671 23.1038C99.4886 23.1038 95.8911 26.5975 95.8911 33.3317V48.4178H85.7595V31.4557C85.7595 25.8861 83.6025 23.1013 79.2886 23.1038C75.1063 23.1038 71.5114 26.5975 71.5114 33.3317V48.4178H61.3772V15.2026H71.5114V19.995C74.843 16.3697 78.7671 14.5545 83.4101 14.5545C89.2886 14.5545 93.0886 16.8228 94.8456 21.3545C98.4456 16.8102 102.759 14.5368 107.79 14.5368C115.57 14.5368 120.273 18.6785 120.273 27.9595ZM157.942 19.0684C161.21 22.1773 162.843 26.3849 162.843 31.7595C162.843 37.1368 161.21 41.3494 157.942 44.3874C154.676 47.4937 150.554 49.0456 145.522 49.0456C141.076 49.0456 137.481 47.6228 134.737 44.7747V62.6481H124.605V15.1823H134.734V18.7519C137.481 15.9064 141.076 14.4811 145.522 14.4785C150.554 14.4684 154.673 16.0254 157.942 19.0684ZM152.256 31.7595C152.256 25.8051 148.529 21.8532 143.496 21.8532C138.529 21.8532 134.737 25.6076 134.737 31.7595C134.737 37.9114 138.529 41.6684 143.496 41.6684C148.529 41.6684 152.256 37.719 152.256 31.7595Z" fill="#F9F7F4"/>
<path d="M198.785 39.2179V47.0634H167.106V39.2153H198.785V39.2179Z" fill="white"/>
</g>
<defs>
<clipPath id="clip0_9_18">
<rect width="200" height="63.2911" fill="white"/>
</clipPath>
</defs>
</svg>
