<svg width="260" height="80" viewBox="0 0 260 80" fill="none" xmlns="http://www.w3.org/2000/svg">
<path d="M93.9999 55.9166H115.75V50.2916H100.417V18.7083H93.9583V55.9166H93.9999Z" fill="white"/>
<path d="M127.042 28.1664H120.792V55.9164H127.042V28.1664ZM123.958 23.5831C126.042 23.5831 127.875 21.8331 127.875 19.7081C127.875 17.5831 126.042 15.8748 123.958 15.8748C121.792 15.8748 119.958 17.5831 119.958 19.7081C119.958 21.8331 121.833 23.5831 123.958 23.5831Z" fill="white"/>
<path d="M159.125 29.6246C156.292 28.4163 152.375 27.5413 148.5 27.5413C138.583 27.5413 132.375 33.1663 132.375 42.0829C132.375 51.2913 138.583 56.5413 147.583 56.5413C149.792 56.5413 151.833 56.0829 152.875 55.6663V67.2079H159.083V29.6246H159.125ZM152.917 50.2913C151.333 50.8746 150 51.1663 148 51.1663C142.375 51.1663 138.708 47.5829 138.708 42.0829C138.708 36.3329 142.417 33.0829 148.5 33.0829C150.208 33.0829 151.667 33.4163 152.917 33.7913V50.2913Z" fill="white"/>
<path d="M189.208 28.1667H183V51.0417C181.375 51.2917 179.583 51.4167 178.208 51.4167C174.083 51.4167 171.583 49.9167 171.583 45.7917V28.2084H165.375V46.2501C165.375 54.0001 170.292 56.5834 178.333 56.5834C181.625 56.5834 185.917 56.1251 189.208 55.3334V28.1667Z" fill="white"/>
<path d="M203.458 28.1664H197.208V55.9164H203.458V28.1664ZM200.375 23.5831C202.458 23.5831 204.292 21.8331 204.292 19.7081C204.292 17.5831 202.458 15.8748 200.375 15.8748C198.208 15.8748 196.375 17.5831 196.375 19.7081C196.375 21.8331 198.208 23.5831 200.375 23.5831Z" fill="white"/>
<path d="M208.208 33.3751H212.459V47.9584C212.459 54.2918 216.292 56.5418 220.875 56.5418C223.542 56.5418 225.792 55.9584 227.625 55.0418V49.4584C225.917 50.4584 224.333 51.0417 222.5 51.0417C220.083 51.0417 218.667 49.9167 218.667 46.5834V33.3751H226.625V28.1668H218.667V21.4167H212.459V28.1668H208.208V33.3751Z" fill="white"/>
<path d="M235.417 28.1667H228.708L240.25 57.1668L236.333 67.2084H242.5L257.667 28.1667H251.208L243.375 50.0417L235.417 28.1667Z" fill="white"/>
<path d="M36.8332 68.5836C52.7344 68.5836 65.6248 55.6931 65.6248 39.7919C65.6248 23.8907 52.7344 11.0002 36.8332 11.0002C20.932 11.0002 8.0415 23.8907 8.0415 39.7919C8.0415 55.6931 20.932 68.5836 36.8332 68.5836Z" fill="white"/>
<path d="M36.6665 68.6246C7.99983 68.6246 -3.29183 30.9163 21.9998 15.0413C18.9998 46.5413 34.9998 47.2496 49.8748 46.5413C74.7498 45.3746 74.7915 68.6246 74.7915 68.6246H36.6665Z" fill="#C9C9C9"/>
<path fill-rule="evenodd" clip-rule="evenodd" d="M64.0414 49.2502C59.7081 60.3752 49.0414 68.2919 36.4998 68.6669C36.7914 68.6669 37.0831 68.6669 37.3748 68.6669H75.2498C75.2498 68.6669 75.2498 55.0419 64.0414 49.2502Z" fill="#9C9C9C"/>
</svg>
