<svg width="144" height="144" viewBox="0 0 144 144" fill="none" xmlns="http://www.w3.org/2000/svg">
<g clip-path="url(#clip0_2142_29150)">
<path d="M72 144C111.764 144 144 111.764 144 72C144 32.2355 111.764 0 72 0C32.2355 0 0 32.2355 0 72C0 111.764 32.2355 144 72 144Z" fill="url(#paint0_linear_2142_29150)"/>
<path d="M36.5636 93.6001V59.7121L62.2628 79.0537V93.6001H68.822V77.6881C68.8208 77.0968 68.6825 76.5138 68.4181 75.985C68.1537 75.4561 67.7702 74.9958 67.298 74.6401L36.1316 51.1753C35.5615 50.7519 34.8852 50.4948 34.1778 50.4327C33.4705 50.3706 32.7597 50.5058 32.1246 50.8234C31.4895 51.1409 30.9549 51.6284 30.5801 52.2316C30.2054 52.8347 30.0053 53.53 30.002 54.2401V93.6001H36.5636ZM107.637 93.6001V59.7121L81.938 79.0537V93.6001H75.3788V77.6881C75.38 77.0968 75.5182 76.5138 75.7826 75.985C76.0471 75.4561 76.4305 74.9958 76.9028 74.6401L108.069 51.1849C108.639 50.7619 109.314 50.505 110.02 50.4425C110.727 50.38 111.437 50.5144 112.072 50.8308C112.707 51.1472 113.241 51.6332 113.617 52.235C113.992 52.8368 114.194 53.5308 114.199 54.2401V93.6001H107.637Z" fill="white"/>
</g>
<defs>
<linearGradient id="paint0_linear_2142_29150" x1="72" y1="0" x2="72" y2="144" gradientUnits="userSpaceOnUse">
<stop stop-color="#4FA89B"/>
<stop offset="1" stop-color="#6ACEBB"/>
</linearGradient>
<clipPath id="clip0_2142_29150">
<rect width="144" height="144" fill="white"/>
</clipPath>
</defs>
</svg>
