<svg width="1311" height="300" viewBox="0 0 1311 300" fill="none" xmlns="http://www.w3.org/2000/svg">
<path fill-rule="evenodd" clip-rule="evenodd" d="M132.462 0.216476C73.6592 7.59648 24.2032 48.2385 6.63225 103.622C1.16525 120.853 -0.0197528 129.157 0.000247231 150.086C0.0202472 170.812 1.04425 177.797 6.66625 195.586C21.0172 240.989 58.0153 277.986 103.498 292.416C120.729 297.883 129.033 299.068 149.962 299.048C170.688 299.028 177.673 298.004 195.462 292.382C240.865 278.031 277.862 241.033 292.292 195.55C297.759 178.319 298.944 170.015 298.924 149.086C298.904 128.325 297.867 121.273 292.236 103.586C278.17 59.4095 242.99 23.1645 199.621 8.16648C182.647 2.29648 172.201 0.493476 152.962 0.113476C143.612 -0.0715236 134.387 -0.0255237 132.462 0.216476ZM160.007 62.0415C162.243 64.2765 162.462 65.2835 162.462 73.3255C162.462 81.8895 162.545 82.2055 165.212 83.8135C170.163 86.7985 181.703 97.9205 187.797 105.579C194.801 114.383 200.011 124.67 200.96 131.569C202.37 141.827 196.573 153.987 183.796 167.569L176.254 175.586H169.358H162.462V183.586V191.586H173.028C178.839 191.586 184.576 191.085 185.778 190.473C186.979 189.861 190.662 186.756 193.962 183.572L199.962 177.785L222.962 171.178C235.612 167.544 246.3 164.574 246.712 164.578C247.124 164.583 247.462 167.278 247.462 170.569V176.552L242.212 179.181C233.23 183.678 230.652 186.329 221.037 200.946C215.905 208.749 209.801 216.854 207.473 218.957C199.308 226.333 201.298 226.087 149.962 226.078C104.565 226.07 103.877 226.04 97.4622 223.777C84.5922 219.235 73.4533 209.58 67.5723 197.867C65.0483 192.841 62.4972 182.564 62.4772 177.336L62.4622 173.586H85.4622H108.462V176.27C108.462 180.39 112.061 186.835 115.759 189.336C118.792 191.387 120.25 191.586 132.274 191.586H145.462V183.586V175.586H134.462C121.87 175.586 121.533 175.284 126.304 168.266C131.111 161.194 136.369 151.17 138.464 145.079C143.679 129.921 139.044 105.753 125.877 79.4555C124.051 75.8085 122.769 72.6125 123.029 72.3525C123.289 72.0925 128.105 73.1485 133.732 74.6975C139.358 76.2475 144.3 77.5315 144.712 77.5515C145.124 77.5705 145.462 74.8515 145.462 71.5095C145.462 66.1265 145.796 65.0985 148.385 62.5095C152.115 58.7795 156.567 58.6005 160.007 62.0415ZM434.001 79.6985C397.16 85.0665 371.462 114.102 371.462 150.36C371.462 177.767 385.923 201.371 409.924 213.142C421.625 218.88 428.468 220.619 442.014 221.296C456.9 222.039 466.729 220.056 479.962 213.638C506.32 200.856 520.792 175.948 519.188 146.127C517.283 110.716 491.88 84.2035 455.488 79.6475C445.927 78.4505 442.514 78.4585 434.001 79.6985ZM984.462 79.1725C983.087 79.4125 979.262 80.0895 975.962 80.6755C961.157 83.3045 946.896 93.7515 942.364 105.289C938.893 114.124 939.021 128.026 942.642 135.782C948.4 148.113 957.68 154.043 984.675 162.643C1006.03 169.446 1012.13 174.145 1011.08 182.993C1010.41 188.566 1006.37 192.27 999.421 193.665C989.402 195.677 980.87 191.461 978.014 183.086L976.65 179.086L957.914 178.813L939.178 178.541L939.736 183.947C941.034 196.531 950.679 209.047 963.712 215.062C982.356 223.667 1008.39 223.749 1025.12 215.256C1040.46 207.461 1049.52 191.818 1048.16 175.473C1046.64 157.337 1036.18 148.309 1003.87 137.256C988.586 132.029 981.221 128.507 979.032 125.382C977.012 122.498 977.007 114.681 979.023 111.803C982.818 106.385 992.459 104.954 1000.14 108.67C1003.51 110.304 1004.93 111.814 1006.7 115.67L1008.95 120.586H1027.82H1046.69L1045.98 115.873C1043.4 98.6585 1030.24 85.5025 1011.22 81.1195C1004.6 79.5945 988.67 78.4355 984.462 79.1725ZM119.273 101.899C123.751 114.304 125.789 124.767 125.236 132.499C124.85 137.892 123.909 140.813 120.36 147.634L115.962 156.086L94.7122 156.356C80.3962 156.538 73.4622 156.284 73.4622 155.578C73.4622 155.002 82.5182 140.359 93.5872 123.039C109.35 98.3735 113.994 91.7825 115.015 92.6305C115.732 93.2255 117.648 97.3965 119.273 101.899ZM600.242 108.616C593.151 109.811 585.122 113.889 579.494 119.153L574.462 123.86V116.723V109.586H556.455H538.449L538.705 181.336L538.962 253.086H556.462H573.962L574.231 229.76L574.499 206.434L579.451 210.886C588.058 218.625 596.378 221.52 610.123 221.562C629.241 221.619 645.845 210.85 654.027 193.086C658.326 183.752 659.849 176.122 659.816 164.086C659.768 146.591 654.481 132.617 643.893 121.998C632.591 110.663 616.811 105.825 600.242 108.616ZM718.332 108.591C705.497 110.627 695.005 115.87 686.458 124.517C676.43 134.663 671.449 148.12 671.477 164.996C671.504 181.806 676.239 194.362 686.635 205.188C693.626 212.468 701.42 216.89 712.058 219.611C720.784 221.842 735.191 222.243 743.663 220.489C758.427 217.433 773.556 206.117 779.94 193.358C781.877 189.485 783.462 185.703 783.462 184.952C783.462 183.846 779.895 183.587 764.712 183.592L745.962 183.599L744.294 186.53C739.58 194.817 721.272 196.15 713.142 188.798C710.778 186.66 707.926 181.105 707.007 176.848L706.308 173.609L746.135 173.348L785.962 173.086L786.25 164.405C787.132 137.825 771.723 116.608 746.791 110.074C739.431 108.145 725.665 107.428 718.332 108.591ZM1107.5 109.049C1084.45 113.426 1067.96 129.885 1063.84 152.614C1057.95 185.2 1074.99 213.139 1105.03 220.147C1114.85 222.438 1132.63 221.731 1141.46 218.696C1155.54 213.861 1167.8 202.675 1172.97 189.968L1175.36 184.086L1156.74 183.813L1138.12 183.541L1135.12 187.188C1133.46 189.193 1130.63 191.454 1128.82 192.21C1124.91 193.845 1114.74 194.02 1110.78 192.522C1104.92 190.308 1098.54 181.653 1098.48 175.836L1098.46 173.586H1137.4C1167.47 173.586 1176.52 173.301 1177.13 172.336C1178.57 170.025 1177.85 153.312 1176.04 147.086C1170.49 128.065 1156.11 114.207 1137.23 109.697C1129.32 107.807 1115.62 107.508 1107.5 109.049ZM1228.73 109.1C1210.17 113.132 1195.24 128.969 1190.96 149.174C1186.31 171.139 1192 194.072 1205.5 207.72C1214.84 217.171 1225.8 221.553 1240.12 221.574C1253.26 221.593 1263.42 217.549 1271.71 209.008L1275.46 205.144V212.865V220.586H1292.96H1310.46V165.086V109.586H1292.96H1275.46V116.902V124.218L1270.62 119.548C1260.12 109.427 1244.8 105.607 1228.73 109.1ZM860.462 110.462C853.212 112.793 850.885 114.06 845.212 118.765L840.462 122.705V116.146V109.586H822.454H804.445L804.704 164.836L804.962 220.086L822.712 220.359L840.462 220.632L840.484 186.859C840.509 149.004 840.648 148.142 847.745 141.911C851.906 138.258 860.224 136.101 866.147 137.14C871.776 138.128 877.971 142.059 880.625 146.327C882.93 150.035 882.969 150.564 883.462 185.086L883.962 220.086H901.462H918.962V183.086C918.962 149.925 918.766 145.377 917.077 139.248C913.969 127.972 906.212 118.127 896.462 113.085C887.325 108.359 870.757 107.152 860.462 110.462ZM463.175 114.168C477.522 121.111 484.524 135.262 483.196 154.633C482.197 169.214 474.761 180.852 462.628 186.825C456.429 189.877 455.342 190.084 445.486 190.085C436.179 190.086 434.306 189.778 429.287 187.426C417.098 181.712 410.345 172.162 408.23 157.647C405.385 138.126 413.495 120.081 428.083 113.473C438.808 108.615 452.25 108.881 463.175 114.168ZM738.971 137.451C743.043 139.301 749.451 145.657 749.476 147.871C749.483 148.539 749.761 150.098 750.092 151.336L750.695 153.586H728.623H706.551L708.045 149.35C711.113 140.656 718.775 135.63 728.962 135.63C732.631 135.63 736.519 136.337 738.971 137.451ZM1133.26 138.834C1138.23 142.12 1140.35 145.127 1141.14 149.98L1141.72 153.586H1119.98H1098.25L1098.9 150.836C1099.99 146.192 1104.74 140.361 1109.46 137.838C1113.3 135.789 1115.07 135.485 1121.54 135.761C1127.79 136.03 1129.83 136.563 1133.26 138.834ZM610.034 140.387C619.305 145.163 623.696 152.91 623.749 164.586C623.805 176.837 618.327 186.237 608.817 190.211C604.606 191.97 593.351 191.986 589.18 190.238C579.762 186.291 574.487 177.493 574.472 165.702C574.466 161.641 574.984 156.575 575.623 154.444C577.689 147.546 584.515 141.065 592.456 138.461C596.43 137.158 605.747 138.179 610.034 140.387ZM1257.7 138.775C1263.35 140.467 1270.93 147.628 1273.14 153.364C1275.8 160.249 1275.52 171.643 1272.54 177.824C1270 183.082 1264.84 188.114 1259.82 190.211C1258.01 190.967 1253.47 191.582 1249.74 191.577C1234.01 191.555 1224.4 179.655 1225.68 161.78C1225.94 158.089 1226.96 153.499 1227.93 151.578C1233.56 140.423 1245.73 135.19 1257.7 138.775Z" fill="white"/>
</svg>
