<svg xmlns="http://www.w3.org/2000/svg" width="64" height="64" fill="none"><g clip-path="url(#a)"><path fill="#5E12A0" d="M61.163 11.314c-.651-2.51-2.745-5.018-6.515-7.811C51.624 1.278 48.413 0 45.853 0c-.512 0-.977.047-1.443.142-1.163.237-2.187 1.089-2.838 2.367-.791 1.515-.978 3.55-.466 4.78.187.38.42.853.698 1.279-2.466 1.515-3.862 1.94-4.048 1.988 6.422 2.178 11.773 6.722 15.124 12.64l.047-.569c.14-1.562.605-3.36 1.256-5.207.651.19 1.303.284 1.955.284 1.721 0 3.21-.71 4.141-1.988s1.303-2.982.884-4.402Z"/><path fill="url(#b)" d="M54.461 16.044c4.235 1.183 5.957-2.13 5.399-4.355-.605-2.225-2.56-4.497-6.004-7.053-3.443-2.557-6.933-3.598-9.167-3.125-2.234.474-2.885 3.93-2.327 5.255.233.52.745 1.278 1.443 2.13-.885.615-1.722 1.089-2.42 1.515a27.605 27.605 0 0 1 10.796 8.757c.326-1.278.791-2.414 1.21-3.408.326.047.698.142 1.07.284Z"/><path fill="url(#c)" d="M30.216 62.439c14.367 0 26.013-11.848 26.013-26.462 0-14.614-11.646-26.461-26.013-26.461S4.202 21.363 4.202 35.977c0 14.614 11.647 26.462 26.014 26.462Z"/><path fill="#A98698" d="M57.719 9.516c-3.537-3.787-6.515-4.781-10.098-5.586-2.792-.663-2.048-2.272 1.35-1.94-1.63-.569-3.165-.71-4.282-.474-2.234.473-2.885 3.929-2.327 5.254.233.52.745 1.278 1.443 2.13a35.31 35.31 0 0 1-3.211 1.941c.419.19.93.426 1.535.758 1.583.852 3.305 2.272 3.305 2.272-2.606-2.272-2.048-3.314 1.535-5.87 1.117-.805 3.165-.71 5.073.284 1.908.994 4.141 3.503 4.141 3.503l-2.14 4.166.419.142c1.35.378 2.42.284 3.257-.048.977-.615 3.537-2.698 0-6.532Z" opacity=".6"/><path fill="#5E12A0" d="M47.575 6.202c.93.378 2.14 1.041 3.63 2.035 1.768 1.184 3.303 2.51 4.28 3.55-1.628 2.178-2.699 5.16-3.35 7.243.326.474.698.947 1.024 1.42a38.896 38.896 0 0 1 1.629-4.686c.186.047.418.047.651.047.559 0 1.21-.095 1.722-.52.372-.284.791-.805.745-1.752 0-.9-.698-2.035-2.141-3.408-1.024-.994-2.42-2.083-3.816-3.077-4.002-2.698-6.794-3.456-8.05-2.178-.839.852-.745 1.894-.466 2.651-1.49.994-2.746 1.704-3.583 2.178.558.19 1.07.426 1.628.662 1.49-.804 3.63-2.177 6.096-4.165Zm8.795 6.769c.14.237.186.473.186.615 0 .426-.14.569-.233.663-.186.142-.558.237-.884.237.28-.568.605-1.042.93-1.515ZM44.876 5.918c.14-.142.511-.237 1.116-.142-.465.378-.93.71-1.396 1.041-.046-.331 0-.663.28-.9Z"/><path fill="#5E12A0" d="M30.216 7.953C15 7.953 2.667 20.497 2.667 35.977S14.999 64 30.217 64c15.217 0 27.549-12.545 27.549-28.024 0-15.48-12.379-28.024-27.55-28.024Zm0 54.485c-14.38 0-26.013-11.834-26.013-26.461 0-14.627 11.634-26.462 26.013-26.462 14.38 0 26.014 11.835 26.014 26.462 0 14.627-11.68 26.461-26.014 26.461Z"/><path fill="url(#d)" d="M30.216 62.439c14.367 0 26.013-11.848 26.013-26.462 0-14.614-11.646-26.461-26.013-26.461S4.202 21.363 4.202 35.977c0 14.614 11.647 26.462 26.014 26.462Z" opacity=".6"/><path fill="#A98698" d="M30.03 59.222c-14.193-2.32-23.826-15.906-21.5-30.343 1.024-6.39 4.189-11.835 8.656-15.764-6.515 3.835-11.355 10.51-12.658 18.651-2.28 14.438 7.353 28.024 21.5 30.343 7.911 1.326 15.543-1.183 21.174-6.106a25.717 25.717 0 0 1-17.172 3.219Z" opacity=".6"/><path fill="url(#e)" d="M34.358 9.896c-6.562-1.09-12.937.426-18.15 3.787l-.185.189c2-1.23 4.932-2.32 4.932-2.32-7.538 4.45-9.865 9.515-9.865 9.515 2.932-5.775 11.54-9.846 18.288-10.13 6.748-.284 11.17 1.752 16.567 6.154 5.399 4.45 8.656 13.538 8.33 20.734-.279 7.195-4.002 13.017-4.002 13.017 2.56-3.36 4.095-5.822 5.073-8.331.186-.757.372-1.515.465-2.32 2.327-14.39-7.26-27.976-21.453-30.295Z" opacity=".6"/><path fill="url(#f)" d="M54.927 35.74c0 13.87-11.076 25.136-24.71 25.136-13.636 0-24.758-11.266-24.758-25.136h49.468Z"/><path fill="url(#g)" d="M52.972 35.74c0 13.539-10.517 24.616-23.734 25.136h.977c13.635 0 24.711-11.266 24.711-25.136h-1.954Z" opacity=".6"/><path fill="url(#h)" d="M8.95 35.74H5.458c0 13.87 11.076 25.136 24.71 25.136.606 0 1.164 0 1.723-.047C19.093 59.882 8.948 48.995 8.948 35.74Z" opacity=".7"/><path fill="url(#i)" d="M54.88 35.975c0-2.888-4.933-4.544-11.494-5.112-4.747-.38-9.54.094-15.031 1.798-4.747 1.42-9.028 1.184-12.146.805-6.934-.805-10.75-.9-10.75 2.509 0 4.923 9.866 11.077 24.664 8.947 7.492-1.089 11.355-3.314 15.776-4.829 4.793-1.61 8.981-1.562 8.981-4.118Z"/><path fill="#fff" d="M38.313 24.046c2.313 0 4.188-1.907 4.188-4.26 0-2.353-1.875-4.26-4.188-4.26-2.313 0-4.188 1.907-4.188 4.26 0 2.353 1.875 4.26 4.188 4.26ZM45.154 27.217c.977 0 1.768-.806 1.768-1.8 0-.993-.791-1.798-1.768-1.798s-1.768.805-1.768 1.799c0 .993.791 1.799 1.768 1.799Z"/><path fill="url(#j)" d="M51.483 16.38h-.093c-.28-.048-.465-.332-.419-.663.419-2.178 2.187-4.26 2.28-4.355a.516.516 0 0 1 .745-.048c.233.19.233.568.046.758-.046.047-1.675 1.988-2.047 3.881a.5.5 0 0 1-.512.427Z" opacity=".6"/><path fill="#fff" d="M28.497 55.713c.72 0 1.303-.593 1.303-1.325s-.583-1.325-1.303-1.325-1.303.593-1.303 1.325.584 1.325 1.303 1.325Z" opacity=".2"/><g opacity=".4"><path fill="url(#k)" d="M27.75 55.245a1.36 1.36 0 0 1 0-1.893c.093-.095.186-.142.279-.237a.964.964 0 0 0-.465.284 1.36 1.36 0 0 0 0 1.894c.418.426 1.07.52 1.582.236a1.284 1.284 0 0 1-1.396-.284Z" opacity=".6"/></g><path fill="#fff" d="M28.96 54.011c.155 0 .28-.127.28-.284a.282.282 0 0 0-.28-.284.282.282 0 0 0-.278.284c0 .157.125.284.279.284Z" opacity=".3"/><path fill="#fff" d="M35.291 55.051c.72 0 1.303-.593 1.303-1.325s-.583-1.326-1.303-1.326-1.303.594-1.303 1.326c0 .732.584 1.325 1.303 1.325Z" opacity=".2"/><g opacity=".4"><path fill="url(#l)" d="M34.545 54.583a1.36 1.36 0 0 1 0-1.893c.093-.095.186-.142.279-.237a.963.963 0 0 0-.465.284 1.36 1.36 0 0 0 0 1.894c.418.426 1.07.52 1.582.236a1.284 1.284 0 0 1-1.396-.284Z" opacity=".6"/></g><path fill="#fff" d="M35.755 53.35c.154 0 .279-.128.279-.285a.282.282 0 0 0-.28-.284.282.282 0 0 0-.278.284c0 .157.124.284.279.284Z" opacity=".3"/><path fill="#fff" d="M31.938 58.129c.54 0 .977-.445.977-.994a.986.986 0 0 0-.977-.994.986.986 0 0 0-.977.994c0 .549.437.994.977.994Z" opacity=".2"/><g opacity=".4"><path fill="url(#m)" d="M31.38 57.755a1.043 1.043 0 0 1 0-1.42c.046-.047.14-.094.186-.142-.14.048-.233.142-.326.237a1.043 1.043 0 0 0 0 1.42c.326.331.791.379 1.21.142a1 1 0 0 1-1.07-.236Z" opacity=".6"/></g><path fill="#fff" d="M32.263 56.806a.188.188 0 0 0 .186-.189.188.188 0 0 0-.186-.19.188.188 0 0 0-.186.19c0 .105.084.19.186.19Z" opacity=".3"/><path fill="#fff" d="M37.941 57.42c.54 0 .977-.445.977-.994a.986.986 0 0 0-.977-.994.986.986 0 0 0-.977.994c0 .549.437.994.977.994Z" opacity=".2"/><g opacity=".4"><path fill="url(#n)" d="M37.383 57.04a1.042 1.042 0 0 1 0-1.42c.046-.047.14-.094.186-.142-.14.048-.233.142-.326.237a1.042 1.042 0 0 0 0 1.42c.326.332.791.379 1.21.142a1 1 0 0 1-1.07-.236Z" opacity=".6"/></g><path fill="#fff" d="M38.267 56.092a.188.188 0 0 0 .186-.19.188.188 0 0 0-.186-.19.188.188 0 0 0-.186.19c0 .105.083.19.186.19Z" opacity=".3"/><path fill="#fff" d="M22.956 55.24c1.182 0 2.14-.975 2.14-2.178 0-1.202-.958-2.177-2.14-2.177-1.182 0-2.14.975-2.14 2.177 0 1.203.958 2.178 2.14 2.178Z" opacity=".2"/><g opacity=".4"><path fill="url(#o)" d="M21.747 54.44a2.198 2.198 0 0 1 0-3.077c.14-.142.28-.237.466-.332-.28.095-.512.284-.745.474a2.198 2.198 0 0 0 0 3.076c.698.71 1.768.852 2.606.332-.791.331-1.722.19-2.327-.473Z" opacity=".6"/></g><path fill="#fff" d="M23.702 52.406a.47.47 0 0 0 .465-.474.47.47 0 0 0-.465-.473.47.47 0 0 0-.466.473.47.47 0 0 0 .466.474Z" opacity=".3"/><path fill="#fff" d="M42.084 49.892c1.182 0 2.14-.975 2.14-2.177 0-1.203-.958-2.178-2.14-2.178-1.182 0-2.14.975-2.14 2.178 0 1.202.958 2.177 2.14 2.177Z" opacity=".2"/><g opacity=".4"><path fill="url(#p)" d="M40.827 49.09a2.198 2.198 0 0 1 0-3.077c.14-.142.28-.237.466-.331-.28.094-.512.284-.745.473a2.198 2.198 0 0 0 0 3.077c.698.71 1.768.852 2.606.331a2.063 2.063 0 0 1-2.327-.473Z" opacity=".6"/></g><path fill="#fff" d="M42.828 47.056a.47.47 0 0 0 .465-.473.47.47 0 0 0-.465-.474.47.47 0 0 0-.466.474.47.47 0 0 0 .466.473Z" opacity=".3"/></g><defs><linearGradient id="d" x1="26.043" x2="34.645" y1="62.063" y2="9.894" gradientUnits="userSpaceOnUse"><stop stop-color="#81FFFF"/><stop offset=".62" stop-color="#fff" stop-opacity="0"/></linearGradient><linearGradient id="e" x1="48.549" x2="26.703" y1="18.008" y2="37.713" gradientUnits="userSpaceOnUse"><stop offset=".289" stop-color="#fff"/><stop offset=".78" stop-color="#fff" stop-opacity="0"/></linearGradient><linearGradient id="f" x1="5.48" x2="54.915" y1="48.294" y2="48.294" gradientUnits="userSpaceOnUse"><stop stop-color="#0002E9"/><stop offset=".995" stop-color="#FF00C7"/></linearGradient><linearGradient id="g" x1="57.254" x2="29.914" y1="37.946" y2="63.346" gradientUnits="userSpaceOnUse"><stop offset=".289" stop-color="#fff"/><stop offset=".78" stop-color="#fff" stop-opacity="0"/></linearGradient><linearGradient id="h" x1="5.48" x2="31.927" y1="48.294" y2="48.294" gradientUnits="userSpaceOnUse"><stop stop-color="#000292"/><stop offset=".995" stop-color="#7D00C7"/></linearGradient><linearGradient id="i" x1="5.513" x2="54.882" y1="38.063" y2="38.063" gradientUnits="userSpaceOnUse"><stop stop-color="#000292"/><stop offset=".995" stop-color="#BE00C7"/></linearGradient><linearGradient id="j" x1="54.071" x2="50.435" y1="11.131" y2="16.941" gradientUnits="userSpaceOnUse"><stop offset=".289" stop-color="#fff"/><stop offset=".78" stop-color="#fff" stop-opacity="0"/></linearGradient><linearGradient id="k" x1="27.178" x2="29.147" y1="54.434" y2="54.434" gradientUnits="userSpaceOnUse"><stop offset=".289" stop-color="#fff"/><stop offset=".78" stop-color="#fff" stop-opacity="0"/></linearGradient><linearGradient id="l" x1="33.968" x2="35.937" y1="53.763" y2="53.763" gradientUnits="userSpaceOnUse"><stop offset=".289" stop-color="#fff"/><stop offset=".78" stop-color="#fff" stop-opacity="0"/></linearGradient><linearGradient id="m" x1="30.955" x2="32.433" y1="57.151" y2="57.151" gradientUnits="userSpaceOnUse"><stop offset=".289" stop-color="#fff"/><stop offset=".78" stop-color="#fff" stop-opacity="0"/></linearGradient><linearGradient id="n" x1="36.938" x2="38.416" y1="56.435" y2="56.435" gradientUnits="userSpaceOnUse"><stop offset=".289" stop-color="#fff"/><stop offset=".78" stop-color="#fff" stop-opacity="0"/></linearGradient><linearGradient id="o" x1="20.818" x2="24.034" y1="53.122" y2="53.122" gradientUnits="userSpaceOnUse"><stop offset=".289" stop-color="#fff"/><stop offset=".78" stop-color="#fff" stop-opacity="0"/></linearGradient><linearGradient id="p" x1="39.916" x2="43.132" y1="47.771" y2="47.771" gradientUnits="userSpaceOnUse"><stop offset=".289" stop-color="#fff"/><stop offset=".78" stop-color="#fff" stop-opacity="0"/></linearGradient><radialGradient id="b" cx="0" cy="0" r="1" gradientTransform="matrix(20.7989 0 0 21.1571 59.01 8.707)" gradientUnits="userSpaceOnUse"><stop stop-color="#FFEAFF" stop-opacity=".6"/><stop offset=".681" stop-color="#A087C9"/><stop offset="1" stop-color="#10002F"/></radialGradient><radialGradient id="c" cx="0" cy="0" r="1" gradientTransform="matrix(50.8876 0 0 51.7639 47.439 17.734)" gradientUnits="userSpaceOnUse"><stop stop-color="#FFEAFF" stop-opacity=".6"/><stop offset=".681" stop-color="#A087C9"/><stop offset="1" stop-color="#10002F"/></radialGradient><clipPath id="a"><path fill="#fff" d="M0 0h64v64H0z"/></clipPath></defs></svg>