<svg width="120" height="120" viewBox="0 0 120 120" fill="none" xmlns="http://www.w3.org/2000/svg">
<path d="M100 0H20C8.9543 0 0 8.9543 0 20V100C0 111.046 8.9543 120 20 120H100C111.046 120 120 111.046 120 100V20C120 8.9543 111.046 0 100 0Z" fill="#F56900"/>
<path fill-rule="evenodd" clip-rule="evenodd" d="M60 16C51.1634 16 44 23.1635 44 32C44 36.0955 45.5387 39.8315 48.0696 42.6616C38.5723 47.1412 32 56.803 32 68C32 69.123 32.0661 70.2305 32.1947 71.319C31.1624 71.1098 30.094 71 29 71C20.1634 71 13 78.1635 13 87C13 95.8365 20.1634 103 29 103C36.3575 103 42.555 98.034 44.4236 91.271C48.877 94.2577 54.235 96 60 96C65.765 96 71.1231 94.2577 75.5764 91.271C77.445 98.034 83.6427 103 91.0002 103C99.837 103 107 95.8364 107 87C107 78.1636 99.837 71 91.0002 71C89.9061 71 88.8377 71.1098 87.8053 71.319C87.9339 70.2306 88 69.123 88 68C88 56.803 81.4277 47.1411 71.9304 42.6616C74.4613 39.8315 76 36.0955 76 32C76 23.1635 68.8365 16 60 16ZM60 40C64.4182 40 68 36.4182 68 32C68 27.5817 64.4182 24 60 24C55.5817 24 52 27.5817 52 32C52 36.4183 55.5817 40 60 40ZM60 48C48.9543 48 40 56.9543 40 68C40 79.0457 48.9544 88 60 88C71.0457 88 80 79.0457 80 68C80 56.9543 71.0457 48 60 48ZM21 87C21 82.5817 24.5817 79 29 79C33.4183 79 37 82.5817 37 87C37 91.4183 33.4183 95 29 95C24.5817 95 21 91.4183 21 87ZM91.0002 79C86.5817 79 83 82.5818 83 87C83 91.4182 86.5817 95 91.0002 95C95.4185 95 99 91.4184 99 87C99 82.5816 95.4185 79 91.0002 79Z" fill="black"/>
</svg>
