<svg width="628" height="120" viewBox="0 0 628 120" fill="none" xmlns="http://www.w3.org/2000/svg">
<g clip-path="url(#clip0_3747_22705)">
<path d="M207.867 114.839C239.953 114.839 262.637 90.2148 262.637 60.815V60.5165C262.637 31.1168 240.251 6.79102 208.165 6.79102C176.079 6.79102 153.395 31.4152 153.395 60.815V61.1135C153.395 90.5132 175.781 114.839 207.867 114.839ZM208.165 97.9751C187.421 97.9751 172.647 81.1113 172.647 60.815V60.5165C172.647 40.2202 187.123 23.6549 207.867 23.6549C228.611 23.6549 243.385 40.5187 243.385 60.815V61.1135C243.385 81.4098 228.909 97.9751 208.165 97.9751Z" fill="white"/>
<path d="M300.783 114.54C317.199 114.54 330.034 106.332 330.034 89.7667V89.4682C330.034 75.2906 317.05 70.0673 305.559 66.4856C296.306 63.5009 287.799 61.1131 287.799 55.442V55.1436C287.799 50.5172 291.829 47.234 298.843 47.234C305.41 47.234 313.468 50.0695 321.079 54.6959L328.243 41.8614C319.886 36.3397 309.14 32.9072 299.291 32.9072C283.621 32.9072 271.234 42.0107 271.234 56.9344V57.2329C271.234 72.3059 284.218 77.0815 295.858 80.3647C305.111 83.2002 313.468 85.2895 313.468 91.4083V91.7067C313.468 96.93 308.991 100.213 301.231 100.213C293.172 100.213 283.919 96.93 275.413 90.5128L267.354 102.751C277.204 110.511 289.59 114.54 300.783 114.54Z" fill="white"/>
<path d="M364.393 114.391C371.109 114.391 376.183 112.899 380.66 110.362V95.5873C377.078 97.3782 373.497 98.2736 369.467 98.2736C363.349 98.2736 359.767 95.4381 359.767 88.4239V49.7714H380.959V34.2507H359.767V12.6113H341.709V34.2507H331.71V49.7714H341.709V91.2594C341.709 108.571 351.111 114.391 364.393 114.391Z" fill="white"/>
<path d="M390.533 22.1623H409.934V5H390.533V22.1623ZM391.279 113.048H409.337V34.2505H391.279V113.048Z" fill="white"/>
<path d="M451.143 114.69C463.381 114.69 470.693 108.272 475.768 100.81V113.048H493.825V34.251H475.768V78.7238C475.768 90.9612 468.455 98.2739 458.008 98.2739C447.263 98.2739 441.144 91.2597 441.144 79.0223V34.251H423.087V84.3948C423.087 102.751 433.384 114.69 451.143 114.69Z" fill="white"/>
<path d="M507.573 113.048H525.63V68.7249C525.63 56.4874 532.495 49.0255 542.494 49.0255C552.493 49.0255 558.463 55.8905 558.463 68.1279V113.048H576.52V68.5756C576.52 55.8905 583.534 49.0255 593.384 49.0255C603.532 49.0255 609.352 55.7412 609.352 68.2772V113.048H627.41V62.7554C627.41 43.5038 616.964 32.6094 599.801 32.6094C587.862 32.6094 579.505 38.1312 573.088 46.4885C568.909 38.1312 561 32.6094 549.658 32.6094C537.569 32.6094 530.704 39.1759 525.63 46.19V34.251H507.573V113.048Z" fill="white"/>
<path d="M100 0H20C8.9543 0 0 8.9543 0 20V100C0 111.046 8.9543 120 20 120H100C111.046 120 120 111.046 120 100V20C120 8.9543 111.046 0 100 0Z" fill="white"/>
<path fill-rule="evenodd" clip-rule="evenodd" d="M60 16C51.1634 16 44 23.1635 44 32C44 36.0955 45.5387 39.8315 48.0696 42.6616C38.5723 47.1412 32 56.803 32 68C32 69.123 32.0661 70.2305 32.1947 71.319C31.1624 71.1098 30.094 71 29 71C20.1634 71 13 78.1635 13 87C13 95.8365 20.1634 103 29 103C36.3575 103 42.555 98.034 44.4236 91.271C48.877 94.2577 54.235 96 60 96C65.765 96 71.1231 94.2577 75.5764 91.271C77.445 98.034 83.6427 103 91.0002 103C99.837 103 107 95.8364 107 87C107 78.1636 99.837 71 91.0002 71C89.9061 71 88.8377 71.1098 87.8053 71.319C87.9339 70.2306 88 69.123 88 68C88 56.803 81.4277 47.1411 71.9304 42.6616C74.4613 39.8315 76 36.0955 76 32C76 23.1635 68.8365 16 60 16ZM60 40C64.4182 40 68 36.4182 68 32C68 27.5817 64.4182 24 60 24C55.5817 24 52 27.5817 52 32C52 36.4183 55.5817 40 60 40ZM60 48C48.9543 48 40 56.9543 40 68C40 79.0457 48.9544 88 60 88C71.0457 88 80 79.0457 80 68C80 56.9543 71.0457 48 60 48ZM21 87C21 82.5817 24.5817 79 29 79C33.4183 79 37 82.5817 37 87C37 91.4183 33.4183 95 29 95C24.5817 95 21 91.4183 21 87ZM91.0002 79C86.5817 79 83 82.5818 83 87C83 91.4182 86.5817 95 91.0002 95C95.4185 95 99 91.4184 99 87C99 82.5816 95.4185 79 91.0002 79Z" fill="black"/>
</g>
<defs>
<clipPath id="clip0_3747_22705">
<rect width="628" height="120" fill="white"/>
</clipPath>
</defs>
</svg>
