<svg width="1232" height="434" viewBox="0 0 1232 434" fill="none" xmlns="http://www.w3.org/2000/svg">
<path d="M698.78 97.48C693.96 124.96 671.53 145.74 642.12 145.74H623.44C619.63 145.73 615.79 149.27 615.16 153.15L606.97 205.07C606.5 208.02 605.11 209 602.12 209H572.1C569.07 209 568.34 207.99 568.82 204.99L572.22 169.1L536.15 167.24C533.12 167.24 531.98 165.55 532.45 162.56L557.06 6.52002C557.53 3.57002 559.37 2.29004 562.36 2.29004H624.76C654.8 2.29004 673.8 22.51 676.14 48.73C694.03 60.84 702.39 76.9 698.78 97.48Z" fill="#9F9F9F"/>
<path d="M581.379 110.98L572.209 169.11L566.459 205.58C565.989 208.58 568.299 211.29 571.339 211.29H603.069C606.059 211.29 608.609 209.11 609.069 206.16L617.429 153.16C617.899 150.21 620.439 148.03 623.429 148.03H642.109C671.529 148.03 696.489 126.57 701.049 97.49C704.289 76.85 693.899 58.07 676.129 48.75C676.089 50.91 675.899 53.1 675.549 55.31C670.989 84.39 646.029 105.85 616.609 105.85H587.379C584.399 105.85 581.849 108.02 581.379 110.98Z" fill="#E3E3E3"/>
<path d="M572.22 169.11H535.3C532.27 169.11 529.95 166.4 530.42 163.4L555.32 5.5304C555.79 2.5804 558.33 0.400391 561.32 0.400391H624.76C654.8 0.400391 676.65 22.2604 676.14 48.7404C668.66 44.8204 659.88 42.5804 650.26 42.5804H597.37C594.38 42.5804 591.83 44.7604 591.37 47.7104L581.39 110.98L572.22 169.11Z" fill="#7E7E7E"/>
<path d="M42.5496 431.99L0.349609 330.13H9.65961L46.7596 420.78L83.8596 330.13H92.7396L50.6996 431.99H42.5496Z" fill="#E3E3E3"/>
<path d="M180.369 330.14H241.769V338H189.239V375.83H236.529V383.54H189.239V424.14H243.509V432H180.359V330.14H180.369Z" fill="#E3E3E3"/>
<path d="M347.289 342.8V432H338.699V330.14H348.589L408.249 417.45V330.14H416.839V432H408.979L347.289 342.8Z" fill="#E3E3E3"/>
<path d="M505.039 330.14H592.489V338H553.349V432H544.469V338H505.039V330.14Z" fill="#E3E3E3"/>
<path d="M676.609 390.09V330.14H685.489V389.07C685.489 413.81 697.569 425.45 717.209 425.45C736.859 425.45 748.929 413.81 748.929 389.07V330.14H757.809V390.09C757.809 419.05 740.929 433.6 717.209 433.6C693.489 433.6 676.609 419.04 676.609 390.09Z" fill="#E3E3E3"/>
<path d="M919.05 431.99C906.83 419.48 894.02 401 886.16 388.19H861.71V431.99H852.83V330.14H879.9C903.33 330.14 916.57 339.74 916.57 358.52C916.57 372.63 906.82 382.38 895.18 386.31C903.33 400.13 917.88 419.05 930.54 432H919.05V431.99ZM861.72 380.63H888.78C898.38 378.59 907.11 371.61 907.11 358.51C907.11 345.41 897.94 337.99 880.05 337.99H861.72V380.63Z" fill="#E3E3E3"/>
<path d="M1017.29 330.14H1078.69V338H1026.16V375.83H1073.45V383.54H1026.16V424.14H1080.43V432H1017.28V330.14H1017.29Z" fill="#E3E3E3"/>
<path d="M1164.57 414.82C1175.77 423.12 1186.98 425.59 1196.14 425.59C1212.15 425.59 1222.62 417.88 1222.62 405.95C1222.62 380.2 1170.09 387.18 1170.09 355.46C1170.09 339.02 1185.37 328.54 1202.25 328.54C1210.4 328.54 1218.69 329.85 1226.99 334.21V343.52C1218.12 338.14 1211.28 336.39 1202.25 336.39C1189.15 336.39 1178.97 343.08 1178.97 355.02C1178.97 379.9 1231.64 373.35 1231.64 405.51C1231.64 421.81 1216.22 433.59 1196.28 433.59C1185.08 433.59 1171.69 429.95 1164.56 424.57V414.82H1164.57Z" fill="#E3E3E3"/>
</svg>
