<svg width="2269" height="209" viewBox="0 0 2269 209" fill="none" xmlns="http://www.w3.org/2000/svg">
<path d="M2192.75 3.48604C2189.59 3.09204 2187 2.37102 2187 1.88502C2187 0.610024 2144.25 0.74302 2143.83 2.01802C2143.64 2.57802 2141.02 3.32204 2137.99 3.67104C2134.97 4.02004 2132.23 4.72102 2131.89 5.22902C2131.56 5.73602 2129.42 6.40199 2127.14 6.70698C2124.86 7.01299 2123 7.61802 2123 8.05202C2123 8.48602 2121.65 9.13801 2120 9.50001C2118.35 9.86201 2117 10.537 2117 11C2117 11.463 2115.65 12.138 2114 12.5C2112.35 12.862 2111 13.573 2111 14.079C2111 14.586 2110.32 15 2109.5 15C2108.68 15 2108 15.675 2108 16.5C2108 17.438 2107.05 18 2105.47 18C2104.08 18 2102.68 18.675 2102.36 19.5C2102.05 20.325 2101.16 21 2100.39 21C2099.63 21 2099 21.626 2099 22.392C2099 23.157 2097.88 24.066 2096.5 24.411C2095.12 24.756 2094 25.48 2094 26.019C2094 26.559 2093.32 27 2092.5 27C2091.68 27 2091 27.675 2091 28.5C2091 29.325 2090.32 30 2089.5 30C2088.68 30 2088 30.679 2088 31.51C2088 32.34 2087.1 33.79 2086 34.732C2084.9 35.674 2084 36.855 2084 37.358C2084 37.86 2082.88 39.313 2081.5 40.588C2080.12 41.862 2079 43.376 2079 43.952C2079 44.529 2078.32 45 2077.5 45C2076.56 45 2076 45.948 2076 47.531C2076 48.924 2075.32 50.322 2074.5 50.638C2073.68 50.955 2073 52.2911 2073 53.6071C2073 55.0671 2072.42 56 2071.5 56C2070.5 56 2070 57 2070 59C2070 61 2069.5 62 2068.5 62C2067.39 62 2067 63.167 2067 66.5C2067 69.833 2066.61 71 2065.5 71C2064.35 71 2064 72.278 2064 76.5C2064 80.722 2063.65 82 2062.5 82C2061.21 82 2061 85.333 2061 106C2061 126.667 2061.21 130 2062.5 130C2063.65 130 2064 131.278 2064 135.5C2064 139.722 2064.35 141 2065.5 141C2066.51 141 2067 142.008 2067 144.071C2067 145.761 2067.68 147.818 2068.5 148.643C2069.32 149.468 2070 151.461 2070 153.071C2070 155.008 2070.51 156 2071.5 156C2072.33 156 2073 156.889 2073 158C2073 159.1 2073.44 160 2073.98 160C2074.52 160 2075.24 161.125 2075.59 162.5C2075.93 163.875 2076.84 165 2077.61 165C2078.37 165 2079 165.675 2079 166.5C2079 167.325 2079.45 168 2080 168C2080.55 168 2081 168.679 2081 169.51C2081 170.34 2081.9 171.79 2083 172.732C2084.1 173.674 2085 175.019 2085 175.722C2085 176.425 2085.68 177 2086.5 177C2087.32 177 2088 177.485 2088 178.077C2088 179.476 2093.52 185 2094.92 185C2095.52 185 2096 185.639 2096 186.421C2096 187.202 2097.35 188.138 2099 188.5C2100.65 188.862 2102 189.573 2102 190.079C2102 190.586 2102.68 191 2103.5 191C2104.32 191 2105 191.639 2105 192.421C2105 193.202 2106.35 194.138 2108 194.5C2109.65 194.862 2111 195.573 2111 196.079C2111 196.586 2112.14 197 2113.53 197C2114.92 197 2116.32 197.675 2116.64 198.5C2116.95 199.325 2118.3 200 2119.64 200C2120.97 200 2122.32 200.675 2122.64 201.5C2123.01 202.478 2124.57 203 2127.11 203C2129.9 203 2131 203.424 2131 204.5C2131 205.63 2132.21 206 2135.93 206C2138.98 206 2141.43 206.572 2142.36 207.5C2143.61 208.757 2148.09 209 2169.93 209C2192.44 209 2196 208.795 2196 207.5C2196 206.333 2197.33 206 2202 206C2206.67 206 2208 205.667 2208 204.5C2208 203.424 2209.1 203 2211.89 203C2214.43 203 2215.99 202.478 2216.36 201.5C2216.7 200.623 2218.2 200 2219.97 200C2222 200 2223 199.503 2223 198.5C2223 197.5 2224 197 2226 197C2227.65 197 2229 196.559 2229 196.019C2229 195.48 2230.12 194.756 2231.5 194.411C2232.88 194.066 2234 193.431 2234 193C2234 192.569 2235.16 191.925 2236.58 191.568C2238.01 191.211 2240.15 189.875 2241.33 188.599C2242.53 187.322 2244.59 185.935 2245.93 185.516C2248.73 184.636 2255 178.85 2255 177.149C2255 176.517 2255.45 176 2256 176C2256.55 176 2257 174.875 2257 173.5C2257 172.125 2256.55 171 2256 171C2255.45 171 2255 170.425 2255 169.722C2255 168.288 2251.51 165 2249.99 165C2249.45 165 2249 164.325 2249 163.5C2249 162.675 2248.32 162 2247.5 162C2246.68 162 2246 161.325 2246 160.5C2246 159.675 2245.32 159 2244.5 159C2243.68 159 2243 158.325 2243 157.5C2243 156.333 2241.67 156 2237 156C2232.54 156 2231 156.357 2231 157.392C2231 158.157 2229.88 159.066 2228.5 159.411C2227.12 159.756 2226 160.48 2226 161.019C2226 161.559 2225.1 162 2224 162C2222.89 162 2222 162.667 2222 163.5C2222 164.433 2221.06 165 2219.5 165C2217.94 165 2217 165.567 2217 166.5C2217 167.5 2216 168 2214 168C2212 168 2211 168.5 2211 169.5C2211 170.5 2210 171 2208 171C2206 171 2205 171.5 2205 172.5C2205 173.611 2203.83 174 2200.5 174C2197.17 174 2196 174.389 2196 175.5C2196 176.699 2194.51 177 2188.58 177C2184.03 177 2181.02 177.429 2180.8 178.113C2180.24 179.77 2158.8 179.9 2158.25 178.25C2157.97 177.401 2155.48 177 2150.49 177C2145.29 177 2142.7 176.561 2141.64 175.5C2140.82 174.675 2138.97 174 2137.54 174C2136.11 174 2134.68 173.325 2134.36 172.5C2134.03 171.645 2132.54 171 2130.89 171C2128.99 171 2128 170.488 2128 169.5C2128 168.567 2127.06 168 2125.5 168C2123.94 168 2123 167.433 2123 166.5C2123 165.675 2122.32 165 2121.5 165C2120.68 165 2120 164.325 2120 163.5C2120 162.675 2119.55 162 2119 162C2118.45 162 2117.1 161.1 2116 160C2114.9 158.9 2114 157.55 2114 157C2114 156.45 2113.55 156 2113 156C2112.45 156 2111.1 155.1 2110 154C2108.9 152.9 2108 151.55 2108 151C2108 150.45 2107.32 150 2106.5 150C2105.57 150 2105 149.056 2105 147.5C2105 145.944 2104.43 145 2103.5 145C2102.68 145 2102 144.293 2102 143.429C2102 142.564 2101.32 141.182 2100.5 140.357C2099.68 139.532 2099 137.587 2099 136.036C2099 134.45 2098.34 132.962 2097.5 132.638C2096.42 132.224 2096 130.535 2096 126.615C2096 123.145 2095.55 121.015 2094.75 120.75C2093.82 120.441 2093.5 116.379 2093.5 105.003C2093.5 93.6291 2093.82 89.5641 2094.75 89.2531C2095.56 88.9801 2096 86.76 2096 82.917C2096 78.577 2096.36 77 2097.37 77C2098.22 77 2098.95 75.406 2099.3 72.772C2099.62 70.446 2100.35 68.383 2100.94 68.188C2101.52 67.993 2102 67.196 2102 66.417C2102 65.638 2102.68 65 2103.5 65C2104.44 65 2105 64.052 2105 62.469C2105 61.076 2105.68 59.6781 2106.5 59.3621C2107.32 59.0451 2108 58.159 2108 57.393C2108 56.627 2108.68 56 2109.5 56C2110.32 56 2111 55.325 2111 54.5C2111 53.675 2111.68 53 2112.5 53C2113.32 53 2114 52.325 2114 51.5C2114 50.675 2114.51 50 2115.14 50C2115.76 50 2117.26 48.928 2118.48 47.617C2119.69 46.306 2121.66 44.926 2122.84 44.55C2124.03 44.173 2125 43.446 2125 42.933C2125 42.42 2125.69 42 2126.53 42C2127.37 42 2128.32 41.325 2128.64 40.5C2128.95 39.675 2130.3 39 2131.64 39C2132.97 39 2134.32 38.325 2134.64 37.5C2135.01 36.522 2136.57 36 2139.11 36C2141.78 36 2143 35.561 2143 34.594C2143 33.5 2145.26 33.111 2153.17 32.844C2160.16 32.607 2163.47 32.109 2163.75 31.25C2163.98 30.563 2164.77 30 2165.5 30C2166.23 30 2167.02 30.563 2167.25 31.25C2167.53 32.101 2170.75 32.61 2177.33 32.847C2184.8 33.114 2187 33.513 2187 34.597C2187 35.593 2188.3 36 2191.5 36C2194.83 36 2196 36.389 2196 37.5C2196 38.5 2197 39 2199 39C2201 39 2202 39.5 2202 40.5C2202 41.325 2202.68 42 2203.5 42C2204.32 42 2205 42.45 2205 43C2205 43.55 2205.65 44 2206.45 44C2207.25 44 2209.43 45.575 2211.3 47.5C2213.17 49.425 2215.03 51 2215.42 51C2216.48 51 2218.51 53.243 2219.27 55.25C2219.64 56.213 2220.37 57 2220.9 57C2221.43 57 2222.17 57.97 2222.55 59.156C2222.93 60.342 2224.28 62.277 2225.55 63.457C2226.82 64.636 2228.17 66.816 2228.54 68.301C2228.91 69.785 2229.62 71 2230.11 71C2231.8 71 2231.11 81.848 2229.28 83.989C2227.63 85.917 2226.37 86 2198.86 86H2170.16L2169.5 89C2169.14 90.65 2168.43 92 2167.92 92C2167.41 92 2167 96.05 2167 101C2167 106.217 2167.41 110 2167.98 110C2168.52 110 2169.24 111.125 2169.59 112.5L2170.22 115H2217.11C2258.12 115 2264 114.812 2264 113.5C2264 112.675 2264.68 112 2265.5 112C2266.32 112 2267 111.325 2267 110.5C2267 109.675 2267.45 109 2268 109C2268.59 109 2269 105.5 2269 100.5C2269 95.825 2268.6 92 2268.11 92C2267.61 92 2266.89 87.95 2266.5 83C2266.11 78.05 2265.44 74 2265.03 74C2264.61 74 2264.01 72.135 2263.71 69.856C2263.4 67.577 2262.73 65.439 2262.22 65.106C2261.71 64.773 2260.98 62.813 2260.6 60.75C2260.22 58.688 2259.48 57 2258.96 57C2258.43 57 2258 56.1321 2258 55.0711C2258 54.0111 2257.35 52.49 2256.55 51.692C2255.75 50.894 2254.8 49.062 2254.44 47.621C2254.08 46.179 2253.38 45 2252.89 45C2252.4 45 2252 44.325 2252 43.5C2252 42.675 2251.32 42 2250.5 42C2249.68 42 2249 41.311 2249 40.469C2249 39.626 2248.32 38.678 2247.5 38.362C2246.68 38.045 2246 36.709 2246 35.393C2246 33.933 2245.42 33 2244.5 33C2243.68 33 2243 32.325 2243 31.5C2243 30.675 2242.32 30 2241.5 30C2240.68 30 2240 29.325 2240 28.5C2240 27.675 2239.32 27 2238.5 27C2237.68 27 2237 26.325 2237 25.5C2237 24.675 2236.32 24 2235.5 24C2234.68 24 2234 23.325 2234 22.5C2234 21.585 2233.07 21 2231.61 21C2230.29 21 2228.95 20.325 2228.64 19.5C2228.32 18.675 2227.37 18 2226.53 18C2225.69 18 2225 17.325 2225 16.5C2225 15.567 2224.06 15 2222.5 15C2221.12 15 2220 14.586 2220 14.079C2220 13.573 2218.65 12.862 2217 12.5C2215.35 12.138 2214 11.463 2214 11C2214 10.537 2212.65 9.86201 2211 9.50001C2209.35 9.13801 2208 8.48602 2208 8.05202C2208 7.61802 2206.14 7.01299 2203.86 6.70698C2201.58 6.40199 2199.44 5.71302 2199.11 5.17702C2198.77 4.64102 2195.91 3.88004 2192.75 3.48604Z" fill="white"/>
<path d="M123.792 6.75404C120.928 6.47904 118.416 5.74703 118.209 5.12703C117.936 4.30903 102.114 4.00001 60.417 4.00001H3V6.50001C3 8.05602 2.433 9.00001 1.5 9.00001C0.177 9.00001 0 20.325 0 104.929C0 188.865 0.188 201.045 1.5 202.357C2.325 203.182 3 204.339 3 204.929C3 205.641 7.83302 206 17.421 206H31.841L32.5 203C32.862 201.35 33.573 200 34.079 200C34.632 200 35.005 168.151 35.014 120.25C35.021 76.388 35.285 39.539 35.6 38.364C36.019 36.806 37.233 36.058 40.087 35.602C42.239 35.258 44 34.532 44 33.988C44 32.419 99.721 32.664 100.245 34.235C100.513 35.04 103.563 35.602 109.014 35.849C114.357 36.092 117.871 36.728 118.757 37.614C119.519 38.376 121.011 39 122.071 39C123.132 39 124 39.42 124 39.933C124 40.446 124.944 41.165 126.099 41.531C128.514 42.298 132 45.528 132 47C132 47.55 132.626 48 133.392 48C134.157 48 135.066 49.125 135.411 50.5C135.756 51.875 136.48 53 137.019 53C137.559 53 138 53.9 138 55C138 56.111 138.667 57 139.5 57C140.583 57 141 58.111 141 61C141 63.889 141.417 65 142.5 65C143.738 65 144 66.833 144 75.5C144 84.167 143.738 86 142.5 86C141.424 86 141 87.099 141 89.893C141 92.431 140.478 93.9861 139.5 94.3621C138.675 94.6781 138 96.076 138 97.469C138 99.052 137.438 100 136.5 100C135.675 100 135 100.627 135 101.393C135 102.159 134.325 103.045 133.5 103.362C132.675 103.678 132 104.626 132 105.469C132 106.311 131.559 107 131.019 107C130.48 107 129.756 108.125 129.411 109.5C129.066 110.875 128.382 112 127.892 112C127.401 112 127 112.675 127 113.5C127 114.325 127.401 115 127.892 115C128.382 115 129.086 116.206 129.456 117.679C129.825 119.153 131.899 122.077 134.064 124.178C136.229 126.279 138 128.448 138 128.999C138 129.55 138.638 130 139.417 130C140.196 130 140.993 130.479 141.188 131.065C141.383 131.65 143.363 132.373 145.588 132.672C149.142 133.148 150.009 132.838 152.739 130.107C154.448 128.398 156.331 127 156.923 127C157.515 127 158 126.311 158 125.469C158 124.626 158.658 123.685 159.462 123.376C160.266 123.068 161.229 121.844 161.601 120.658C161.973 119.471 163.322 117.526 164.599 116.335C165.875 115.145 167.211 113.007 167.568 111.585C167.925 110.163 168.618 109 169.108 109C169.599 109 170 107.897 170 106.55C170 105.202 170.611 103.74 171.359 103.3C172.106 102.86 172.962 100.265 173.26 97.533C173.559 94.801 174.298 92.401 174.902 92.199C176.363 91.712 176.436 59.312 174.976 58.825C174.413 58.638 173.662 56.692 173.306 54.501C172.951 52.31 172.061 49.919 171.33 49.187C170.598 48.456 170 46.989 170 45.929C170 44.868 169.559 44 169.019 44C168.48 44 167.756 42.875 167.411 41.5C167.066 40.125 166.418 39 165.971 39C165.524 39 164.862 37.65 164.5 36C164.138 34.35 163.202 33 162.421 33C161.639 33 161 32.325 161 31.5C161 30.675 160.55 30 160 30C159.45 30 159 29.325 159 28.5C159 27.675 158.325 27 157.5 27C156.675 27 156 26.325 156 25.5C156 24.675 155.325 24 154.5 24C153.675 24 153 23.325 153 22.5C153 21.675 152.325 21 151.5 21C150.675 21 150 20.325 150 19.5C150 18.675 149.325 18 148.5 18C147.675 18 147 17.586 147 17.079C147 16.573 145.65 15.862 144 15.5C142.35 15.138 141 14.463 141 14C141 13.537 139.65 12.862 138 12.5C136.35 12.138 135 11.463 135 11C135 10.537 133.65 9.86201 132 9.50001C130.35 9.13801 129 8.48399 129 8.04799C129 7.61099 126.657 7.02904 123.792 6.75404Z" fill="white"/>
<path d="M420 6.50001C416.7 6.11701 414 5.39799 414 4.90199C414 4.37599 390.732 4.01604 358.25 4.03804C307.235 4.07304 302.373 4.21902 301 5.76302C299.694 7.23202 299.461 19.497 299.195 100.475C299.028 151.639 299.176 196.313 299.525 199.75L300.159 206H314.58C326.731 206 329 205.764 329 204.5C329 203.675 329.675 203 330.5 203C331.821 203 332 193.222 332 121C332 48.778 332.179 39 333.5 39C334.325 39 335 38.325 335 37.5C335 36.562 335.948 36 337.531 36C338.924 36 340.322 35.325 340.638 34.5C341.132 33.215 345.338 33 370.024 33C391.636 33 398.934 33.302 399.236 34.207C399.483 34.95 402.472 35.574 407.014 35.831C411.435 36.081 414.942 36.799 415.767 37.624C416.524 38.381 418.236 39 419.571 39C420.907 39 422 39.464 422 40.031C422 40.599 422.788 41.364 423.75 41.731C426.12 42.637 432 48.424 432 49.851C432 50.483 432.675 51 433.5 51C434.415 51 435 51.933 435 53.393C435 54.709 435.675 56.0451 436.5 56.3621C437.325 56.6781 438 58.039 438 59.385C438 60.732 438.563 62.021 439.25 62.25C440.163 62.554 440.5 66.122 440.5 75.5C440.5 84.878 440.163 88.446 439.25 88.75C438.563 88.979 438 90.447 438 92.012C438 93.577 437.412 95.452 436.694 96.179C435.976 96.905 435.09 98.287 434.725 99.25C434.361 100.213 433.647 101 433.14 101C432.632 101 431.934 102.125 431.589 103.5C431.244 104.875 430.52 106 429.981 106C429.441 106 429 106.675 429 107.5C429 108.325 428.325 109 427.5 109C426.675 109 426 109.675 426 110.5C426 111.325 425.132 112 424.071 112C423.011 112 421.468 112.675 420.643 113.5C419.818 114.325 418.661 115 418.071 115C417.482 115 417 115.675 417 116.5C417 117.325 416.325 118 415.5 118C414.675 118 414 118.675 414 119.5C414 120.325 413.325 121 412.5 121C411.675 121 411 121.675 411 122.5C411 123.325 410.325 124 409.5 124C408.675 124 408 124.675 408 125.5C408 126.325 407.325 127 406.5 127C405.51 127 405 127.991 405 129.917C405 131.521 404.505 132.998 403.9 133.2C402.545 133.652 402.405 145.999 403.745 146.879C404.265 147.221 404.969 149.264 405.31 151.419C405.65 153.575 406.359 155.604 406.885 155.929C407.411 156.254 408.151 157.753 408.529 159.26C408.907 160.767 409.618 162 410.108 162C410.599 162 411 162.675 411 163.5C411 164.325 411.675 165 412.5 165C413.5 165 414 166 414 168C414 170 414.5 171 415.5 171C416.5 171 417 172 417 174C417 176 417.5 177 418.5 177C419.5 177 420 178 420 180C420 182 420.5 183 421.5 183C422.5 183 423 184 423 186C423 188 423.5 189 424.5 189C425.415 189 426 189.933 426 191.393C426 192.709 426.675 194.045 427.5 194.362C428.325 194.678 429 196.076 429 197.469C429 199.052 429.562 200 430.5 200C431.5 200 432 201 432 203V206H451H470V203C470 201 469.5 200 468.5 200C467.562 200 467 199.052 467 197.469C467 196.076 466.325 194.678 465.5 194.362C464.675 194.045 464 192.709 464 191.393C464 189.933 463.415 189 462.5 189C461.5 189 461 188 461 186C461 184 460.5 183 459.5 183C458.667 183 458 182.111 458 181C458 179.9 457.559 179 457.019 179C456.48 179 455.764 177.908 455.429 176.572C455.094 175.237 454.185 173.901 453.41 173.604C452.634 173.306 452 171.924 452 170.531C452 168.948 451.438 168 450.5 168C449.5 168 449 167 449 165C449 163 448.5 162 447.5 162C446.675 162 446 161.325 446 160.5C446 159.675 445.599 159 445.108 159C444.618 159 443.921 157.821 443.559 156.379C443.197 154.938 442.248 153.106 441.451 152.308C440.653 151.51 440 149.989 440 148.929C440 147.868 439.55 147 439 147C438.45 147 438 145.65 438 144C438 142.35 438.441 141 438.981 141C439.52 141 440.234 139.914 440.568 138.587C440.928 137.149 442.149 135.928 443.587 135.568C444.914 135.234 446 134.52 446 133.981C446 133.441 446.675 133 447.5 133C448.325 133 449 132.325 449 131.5C449 130.675 449.675 130 450.5 130C451.325 130 452 129.325 452 128.5C452 127.675 452.675 127 453.5 127C454.325 127 455 126.325 455 125.5C455 124.675 455.675 124 456.5 124C457.325 124 458 123.325 458 122.5C458 121.675 458.675 121 459.5 121C460.325 121 461 120.325 461 119.5C461 118.675 461.675 118 462.5 118C463.5 118 464 117 464 115C464 113 464.5 112 465.5 112C466.444 112 467 111.048 467 109.429C467 108.014 467.675 106.182 468.5 105.357C469.325 104.532 470 102.507 470 100.857C470 99.2071 470.675 97.1821 471.5 96.3571C472.522 95.3351 473 92.81 473 88.429C473 84.81 473.437 82 474 82C474.571 82 475 79 475 75C475 71 474.571 68 474 68C473.446 68 473 65.3571 473 62.0711C473 58.1351 472.496 55.639 471.5 54.643C470.675 53.818 470 51.9721 470 50.5401C470 49.1081 469.325 47.6781 468.5 47.3621C467.675 47.0451 467 45.709 467 44.393C467 42.933 466.415 42 465.5 42C464.5 42 464 41 464 39C464 37 463.5 36 462.5 36C461.675 36 461 35.325 461 34.5C461 33.675 460.325 33 459.5 33C458.675 33 458 32.325 458 31.5C458 30.675 457.55 30 457 30C456.45 30 456 29.36 456 28.577C456 26.787 450.295 21 448.53 21C447.806 21 446.955 20.325 446.638 19.5C446.322 18.675 445.374 18 444.531 18C443.689 18 443 17.325 443 16.5C443 15.567 442.056 15 440.5 15C439.125 15 438 14.586 438 14.079C438 13.573 436.65 12.862 435 12.5C433.35 12.138 432 11.463 432 11C432 10.537 430.65 9.86201 429 9.50001C427.35 9.13801 426 8.471 426 8.019C426 7.566 423.3 6.88301 420 6.50001Z" fill="white"/>
<path d="M641.5 6.00001C640.675 6.00001 640 5.55001 640 5.00001C640 4.38101 635.139 4.03202 627.25 4.08302C616.024 4.15702 614.291 4.39602 612.75 6.08302C611.109 7.88102 611 14.016 611 105C611 200.667 611.027 202.027 613 204C614.81 205.81 616.333 206 629 206H643V106C643 17.778 642.823 6.00001 641.5 6.00001Z" fill="white"/>
<path d="M851.5 6.54304C848.475 6.16504 846 5.43799 846 4.92799C846 4.39599 839.173 4.00001 830 4.00001C820.38 4.00001 814 4.38502 814 4.96602C814 5.49702 811.75 6.23001 809 6.59401C806.25 6.95901 804 7.65004 804 8.12904C804 8.60804 802.861 9.00001 801.469 9.00001C800.076 9.00001 798.694 9.63399 798.396 10.41C798.099 11.185 796.763 12.094 795.428 12.429C794.092 12.764 793 13.48 793 14.019C793 14.559 792.132 15 791.071 15C790.011 15 788.468 15.675 787.643 16.5C786.818 17.325 785.661 18 785.071 18C784.482 18 784 18.675 784 19.5C784 20.325 783.325 21 782.5 21C781.675 21 781 21.675 781 22.5C781 23.325 780.325 24 779.5 24C778.675 24 778 24.675 778 25.5C778 26.325 777.325 27 776.5 27C775.675 27 775 27.482 775 28.071C775 28.661 774.325 29.818 773.5 30.643C772.675 31.468 772 33.011 772 34.071C772 35.132 771.325 36 770.5 36C769.675 36 769 36.675 769 37.5C769 38.325 768.586 39 768.079 39C767.573 39 766.862 40.35 766.5 42C766.138 43.65 765.463 45 765 45C764.537 45 763.862 46.35 763.5 48C763.138 49.65 762.484 51 762.048 51C761.612 51 760.968 52.8 760.616 55C760.264 57.2 759.532 59 758.988 59C758.346 59 758 84.2651 758 131.071C758 192.2 758.217 203.36 759.429 204.571C760.521 205.664 763.933 206 773.929 206H787V138.5C787 79.167 787.181 71 788.5 71C789.588 71 790 69.881 790 66.929C790 64.643 790.658 62.1991 791.5 61.3571C792.325 60.5321 793 58.989 793 57.929C793 56.868 793.675 56 794.5 56C795.334 56 796 55.111 796 53.999C796 51.764 803.471 44 805.621 44C806.379 44 807 43.55 807 43C807 42.45 807.653 42 808.45 42C809.248 42 810.26 41.392 810.7 40.65C811.14 39.907 813.972 39.015 816.994 38.668C820.016 38.321 822.641 37.578 822.827 37.018C823.293 35.622 836.732 35.697 837.199 37.098C837.401 37.702 839.801 38.441 842.533 38.74C845.265 39.038 847.86 39.894 848.3 40.641C848.74 41.389 850.09 42.019 851.3 42.042C852.51 42.066 854.604 43.416 855.953 45.042C857.302 46.669 858.797 48 859.275 48C860.494 48 863 50.643 863 51.929C863 52.518 863.675 53 864.5 53C865.325 53 866 53.675 866 54.5C866 55.325 866.675 56 867.5 56C868.325 56 869 56.675 869 57.5C869 58.325 869.675 59 870.5 59C871.5 59 872 60 872 62C872 64 872.5 65 873.5 65C874.325 65 875 65.675 875 66.5C875 67.325 875.675 68 876.5 68C877.325 68 878 68.675 878 69.5C878 70.5 879 71 881 71C883 71 884 71.5 884 72.5C884 73.759 886.167 74 897.5 74C908.833 74 911 73.759 911 72.5C911 71.567 911.944 71 913.5 71C915.056 71 916 70.433 916 69.5C916 68.675 916.675 68 917.5 68C918.325 68 919 67.325 919 66.5C919 65.675 919.675 65 920.5 65C921.325 65 922 64.325 922 63.5C922 62.675 922.675 62 923.5 62C924.433 62 925 61.056 925 59.5C925 57.944 925.567 57 926.5 57C927.333 57 928 56.111 928 55C928 53.9 928.503 53 929.117 53C929.731 53 931.938 51.244 934.021 49.098C936.104 46.952 938.751 44.896 939.904 44.531C941.057 44.165 942 43.446 942 42.933C942 42.42 942.868 42 943.929 42C944.989 42 946.466 41.391 947.211 40.646C947.956 39.902 950.688 38.974 953.282 38.585C955.877 38.196 958 37.455 958 36.939C958 36.422 961.15 36 965 36C968.85 36 972 36.428 972 36.95C972 37.473 974.7 38.206 978 38.58C982.085 39.042 984 39.696 984 40.629C984 41.425 985.049 42 986.5 42C987.875 42 989 42.464 989 43.031C989 43.599 989.787 44.36 990.75 44.723C993.005 45.575 997.425 49.995 998.277 52.25C998.64 53.213 999.401 54 999.969 54C1000.54 54 1001 55.125 1001 56.5C1001 57.949 1001.58 59 1002.37 59C1003.22 59 1003.95 60.594 1004.3 63.228C1004.62 65.554 1005.35 67.617 1005.94 67.812C1006.67 68.058 1007 88.804 1007 135.583C1007 194.843 1007.18 203 1008.5 203C1009.33 203 1010 203.675 1010 204.5C1010 205.756 1012.1 206 1022.92 206H1035.84L1036.5 203C1036.86 201.35 1037.57 200 1038.08 200C1039.36 200 1039.31 71.273 1038.03 70.833C1037.49 70.65 1036.75 67.237 1036.38 63.25C1036.02 59.263 1035.33 56 1034.87 56C1034.4 56 1033.74 54.2 1033.38 52C1033.03 49.8 1032.39 48 1031.95 48C1031.52 48 1030.86 46.65 1030.5 45C1030.14 43.35 1029.43 42 1028.92 42C1028.41 42 1028 41.311 1028 40.469C1028 39.626 1027.32 38.678 1026.5 38.362C1025.68 38.045 1025 36.709 1025 35.393C1025 33.933 1024.42 33 1023.5 33C1022.67 33 1022 32.325 1022 31.5C1022 30.675 1021.33 30 1020.5 30C1019.67 30 1019 29.36 1019 28.577C1019 26.73 1013.27 21 1011.42 21C1010.64 21 1010 20.325 1010 19.5C1010 18.675 1009.33 18 1008.5 18C1007.67 18 1007 17.325 1007 16.5C1007 15.675 1006.33 15 1005.5 15C1004.67 15 1004 14.586 1004 14.079C1004 13.573 1002.65 12.862 1001 12.5C999.35 12.138 998 11.463 998 11C998 10.537 996.65 9.86201 995 9.50001C993.35 9.13801 992 8.47903 992 8.03603C992 7.59303 989.525 6.92104 986.5 6.54304C983.475 6.16504 981 5.43799 981 4.92799C981 4.39599 974.173 4.00001 965 4.00001C955.38 4.00001 949 4.38502 949 4.96602C949 5.49702 946.75 6.23001 944 6.59401C941.25 6.95901 939 7.59199 939 8.00099C939 8.40999 937.2 9.03199 935 9.38399C932.8 9.73599 931 10.468 931 11.012C931 11.555 930.325 12 929.5 12C928.675 12 928 12.675 928 13.5C928 14.325 927.132 15 926.071 15C925.011 15 923.468 15.675 922.643 16.5C921.818 17.325 920.661 18 920.071 18C919.482 18 919 18.675 919 19.5C919 20.325 918.325 21 917.5 21C916.675 21 916 21.675 916 22.5C916 23.325 915.325 24 914.5 24C913.675 24 913 24.675 913 25.5C913 26.325 912.325 27 911.5 27C910.675 27 910 27.675 910 28.5C910 29.325 909.325 30 908.5 30C907.675 30 907 30.675 907 31.5C907 32.325 906.55 33 906 33C905.45 33 905 33.675 905 34.5C905 35.325 904.373 36 903.607 36C902.841 36 901.955 36.675 901.638 37.5C901.258 38.49 899.692 39 897.031 39C894.115 39 893 38.585 893 37.5C893 36.675 892.325 36 891.5 36C890.675 36 890 35.325 890 34.5C890 33.675 889.361 33 888.579 33C887.798 33 886.862 31.65 886.5 30C886.138 28.35 885.202 27 884.421 27C883.639 27 883 26.555 883 26.011C883 24.057 879.51 21 877.278 21C875.92 21 875 20.394 875 19.5C875 18.675 874.325 18 873.5 18C872.675 18 872 17.325 872 16.5C872 15.675 871.325 15 870.5 15C869.675 15 869 14.586 869 14.079C869 13.573 867.65 12.862 866 12.5C864.35 12.138 863 11.463 863 11C863 10.537 861.65 9.86201 860 9.50001C858.35 9.13801 857 8.47903 857 8.03603C857 7.59303 854.525 6.92104 851.5 6.54304Z" fill="white"/>
<path d="M1183.81 100.428C1183.53 14.883 1183.36 7.22099 1181.82 5.67799C1179.45 3.30599 1154 3.14301 1154 5.50001C1154 6.32501 1153.32 7.00001 1152.5 7.00001C1151.18 7.00001 1151 18.556 1151 105C1151 191.444 1151.18 203 1152.5 203C1153.32 203 1154 203.675 1154 204.5C1154 205.764 1156.27 206 1168.42 206H1182.84L1183.48 199.75C1183.84 196.313 1183.98 151.618 1183.81 100.428Z" fill="white"/>
<path d="M1491.54 26.5C1492.55 17.057 1491.75 7.61103 1489.78 5.64003C1488.29 4.14503 1480.37 4.00001 1400.07 4.00001C1322.45 4.00001 1312 4.17801 1312 5.50001C1312 6.32501 1311.55 7.00001 1311 7.00001C1310.39 7.00001 1310 11.5 1310 18.5C1310 25.5 1310.39 30 1311 30C1311.55 30 1312 30.675 1312 31.5C1312 32.822 1322.6 33 1401.42 33H1490.84L1491.54 26.5Z" fill="white"/>
<path d="M1648.5 6.00001C1647.68 6.00001 1647 5.55001 1647 5.00001C1647 4.38101 1642.14 4.03202 1634.25 4.08302C1623.02 4.15702 1621.29 4.39602 1619.75 6.08302C1618.11 7.88102 1618 14.04 1618 105.5C1618 169.833 1618.34 203 1619 203C1619.55 203 1620 203.675 1620 204.5C1620 206.656 1646.42 206.722 1648.57 204.571C1649.79 203.353 1650 188.667 1650 104.571C1650 17.6191 1649.82 6.00001 1648.5 6.00001Z" fill="white"/>
<path d="M1800.98 7.00001C1800.44 7.00001 1800 6.32501 1800 5.50001C1800 4.22401 1797.39 4.00001 1782.5 4.00001H1765V7.89302C1765 10.431 1765.52 11.986 1766.5 12.362C1767.32 12.678 1768 14.076 1768 15.469C1768 16.861 1768.41 18 1768.92 18C1769.43 18 1770.14 19.35 1770.5 21C1770.86 22.65 1771.54 24 1772 24C1772.46 24 1773.14 25.35 1773.5 27C1773.86 28.65 1774.57 30 1775.08 30C1775.59 30 1776 31.318 1776 32.929C1776 34.539 1776.62 36.477 1777.38 37.235C1778.14 37.993 1779.07 40.05 1779.46 41.807C1779.84 43.563 1780.57 45 1781.08 45C1781.59 45 1782 46.139 1782 47.531C1782 48.924 1782.68 50.322 1783.5 50.638C1784.35 50.966 1785 52.4581 1785 54.1071C1785 56.0121 1785.51 57 1786.5 57C1787.58 57 1788 58.111 1788 61C1788 63.889 1788.42 65 1789.5 65C1790.5 65 1791 66 1791 68C1791 70 1791.5 71 1792.5 71C1793.5 71 1794 72 1794 74C1794 76 1794.5 77 1795.5 77C1796.58 77 1797 78.099 1797 80.893C1797 83.431 1797.52 84.9861 1798.5 85.3621C1799.32 85.6781 1800 87.0281 1800 88.3621C1800 89.6951 1800.68 91.0451 1801.5 91.3621C1802.38 91.6981 1803 93.197 1803 94.969C1803 96.636 1803.44 98 1803.98 98C1804.52 98 1805.27 99.233 1805.65 100.74C1806.03 102.247 1806.94 104.079 1807.67 104.812C1808.4 105.544 1809 107.413 1809 108.964C1809 110.55 1809.66 112.038 1810.5 112.362C1811.32 112.678 1812 114.076 1812 115.469C1812 116.861 1812.41 118 1812.92 118C1813.43 118 1814.14 119.35 1814.5 121C1814.86 122.65 1815.57 124 1816.08 124C1816.59 124 1817 125.139 1817 126.531C1817 127.924 1817.68 129.322 1818.5 129.638C1819.34 129.962 1820 131.45 1820 133.036C1820 134.587 1820.68 136.532 1821.5 137.357C1822.32 138.182 1823 140.028 1823 141.46C1823 142.892 1823.68 144.322 1824.5 144.638C1825.32 144.955 1826 146.305 1826 147.638C1826 148.972 1826.62 150.301 1827.38 150.593C1828.14 150.885 1829.05 152.896 1829.39 155.062C1829.74 157.228 1830.47 159 1831.01 159C1831.55 159 1832 160.35 1832 162C1832 164 1832.5 165 1833.5 165C1834.5 165 1835 166 1835 168C1835 170 1835.5 171 1836.5 171C1837.44 171 1838 171.952 1838 173.571C1838 174.986 1838.68 176.818 1839.5 177.643C1840.32 178.468 1841 180.461 1841 182.071C1841 184.008 1841.51 185 1842.5 185C1843.49 185 1844 185.988 1844 187.893C1844 189.542 1844.65 191.034 1845.5 191.362C1846.32 191.678 1847 193.076 1847 194.469C1847 195.861 1847.41 197 1847.92 197C1848.43 197 1849.16 198.437 1849.54 200.193C1850.8 205.913 1851.13 206 1871.93 206C1888.21 206 1891 205.781 1891 204.5C1891 203.675 1891.45 203 1891.99 203C1892.53 203 1893.26 201.2 1893.62 199C1893.97 196.8 1894.61 195 1895.05 195C1895.48 195 1896.14 193.65 1896.5 192C1896.86 190.35 1897.54 189 1898 189C1898.46 189 1899.14 187.65 1899.5 186C1899.86 184.35 1900.57 183 1901.08 183C1901.59 183 1902 181.636 1902 179.969C1902 178.301 1902.62 176.699 1903.38 176.407C1904.14 176.115 1905.05 174.104 1905.39 171.938C1905.74 169.772 1906.43 168 1906.93 168C1907.43 168 1908.14 166.65 1908.5 165C1908.86 163.35 1909.57 162 1910.08 162C1910.59 162 1911 160.65 1911 159C1911 157 1911.5 156 1912.5 156C1913.5 156 1914 155 1914 153C1914 151 1914.5 150 1915.5 150C1916.49 150 1917 149.008 1917 147.071C1917 145.461 1917.68 143.468 1918.5 142.643C1919.32 141.818 1920 139.986 1920 138.571C1920 136.952 1920.56 136 1921.5 136C1922.5 136 1923 135 1923 133C1923 131 1923.5 130 1924.5 130C1925.5 130 1926 129 1926 127C1926 125.35 1926.45 124 1926.99 124C1927.53 124 1928.26 122.228 1928.61 120.062C1928.95 117.896 1929.86 115.885 1930.62 115.593C1931.38 115.301 1932 113.699 1932 112.031C1932 110.003 1932.5 109 1933.5 109C1934.44 109 1935 108.048 1935 106.429C1935 105.014 1935.68 103.182 1936.5 102.357C1937.32 101.532 1938 99.989 1938 98.929C1938 97.868 1938.45 97 1938.99 97C1939.53 97 1940.26 95.2 1940.62 93C1940.97 90.8 1941.61 89 1942.05 89C1942.48 89 1943.14 87.65 1943.5 86C1943.86 84.35 1944.54 83 1945 83C1945.46 83 1946.14 81.65 1946.5 80C1946.86 78.35 1947.54 77 1948 77C1948.46 77 1949.14 75.65 1949.5 74C1949.86 72.35 1950.57 71 1951.08 71C1951.59 71 1952 69.6821 1952 68.0711C1952 66.4611 1952.6 64.544 1953.33 63.812C1954.06 63.079 1954.97 61.247 1955.35 59.74C1955.73 58.233 1956.48 57 1957.02 57C1957.56 57 1958 55.636 1958 53.969C1958 52.197 1958.62 50.6981 1959.5 50.3621C1960.32 50.0451 1961 48.6951 1961 47.3621C1961 46.0281 1961.68 44.678 1962.5 44.362C1963.34 44.038 1964 42.55 1964 40.964C1964 39.413 1964.68 37.468 1965.5 36.643C1966.32 35.818 1967 33.986 1967 32.571C1967 30.952 1967.56 30 1968.5 30C1969.5 30 1970 29 1970 27C1970 25 1970.5 24 1971.5 24C1972.5 24 1973 23 1973 21C1973 19 1973.5 18 1974.5 18C1975.44 18 1976 17.048 1976 15.429C1976 14.014 1976.68 12.182 1977.5 11.357C1978.32 10.532 1979 8.53903 1979 6.92903V4.00001H1961.43C1942.58 4.00001 1941.93 4.16402 1940.65 9.26002C1940.27 10.767 1939.52 12 1938.98 12C1938.44 12 1938 13.35 1938 15C1938 17 1937.5 18 1936.5 18C1935.5 18 1935 19.003 1935 21.031C1935 22.803 1934.38 24.302 1933.5 24.638C1932.52 25.014 1932 26.569 1932 29.107C1932 31.901 1931.58 33 1930.5 33C1929.5 33 1929 34 1929 36C1929 38 1928.5 39 1927.5 39C1926.42 39 1926 40.111 1926 43C1926 45.889 1925.58 47 1924.5 47C1923.5 47 1923 48 1923 50C1923 52 1922.5 53 1921.5 53C1920.51 53 1920 53.988 1920 55.893C1920 57.542 1919.35 59.0341 1918.5 59.3621C1917.51 59.7421 1917 61.308 1917 63.969C1917 66.885 1916.58 68 1915.5 68C1914.5 68 1914 69 1914 71C1914 73 1913.5 74 1912.5 74C1911.5 74 1911 75 1911 77C1911 78.65 1910.55 80 1910.01 80C1909.47 80 1908.74 81.8 1908.38 84C1908.03 86.2 1907.37 88 1906.92 88C1906.46 88 1905.8 89.575 1905.43 91.5C1905.07 93.425 1904.38 95 1903.89 95C1903.4 95 1903 96.139 1903 97.531C1903 98.924 1902.32 100.322 1901.5 100.638C1900.52 101.014 1900 102.569 1900 105.107C1900 107.734 1899.56 109 1898.63 109C1897.78 109 1897.05 110.594 1896.7 113.228C1896.38 115.554 1895.65 117.617 1895.06 117.812C1894.48 118.007 1894 119.479 1894 121.083C1894 122.885 1893.48 124 1892.63 124C1891.78 124 1891.05 125.594 1890.7 128.228C1890.38 130.554 1889.65 132.617 1889.06 132.812C1888.48 133.007 1888 134.479 1888 136.083C1888 138.009 1887.49 139 1886.5 139C1885.42 139 1885 140.111 1885 143C1885 145.889 1884.58 147 1883.5 147C1882.45 147 1882 148.056 1882 150.5C1882 152.944 1881.55 154 1880.5 154C1879.42 154 1879 155.111 1879 158C1879 160.889 1878.58 162 1877.5 162C1876.42 162 1876 163.099 1876 165.893C1876 168.431 1875.48 169.986 1874.5 170.362C1873.68 170.678 1873 171.626 1873 172.469C1873 173.311 1872.32 174 1871.5 174C1870.5 174 1870 173 1870 171C1870 169 1869.5 168 1868.5 168C1867.5 168 1867 167 1867 165C1867 163.35 1866.55 162 1866.01 162C1865.47 162 1864.74 160.228 1864.39 158.062C1864.05 155.896 1863.14 153.885 1862.38 153.593C1861.62 153.301 1861 151.699 1861 150.031C1861 148.364 1860.55 147 1860.01 147C1859.47 147 1858.74 145.2 1858.38 143C1858.03 140.8 1857.37 139 1856.92 139C1856.46 139 1855.8 137.425 1855.43 135.5C1855.07 133.575 1854.44 132 1854.02 132C1853.6 132 1852.97 130.2 1852.62 128C1852.26 125.8 1851.53 124 1850.99 124C1850.45 124 1850 122.682 1850 121.071C1850 119.461 1849.32 117.468 1848.5 116.643C1847.68 115.818 1847 113.972 1847 112.54C1847 111.108 1846.32 109.678 1845.5 109.362C1844.66 109.038 1844 107.55 1844 105.964C1844 104.413 1843.32 102.468 1842.5 101.643C1841.68 100.818 1841 98.9721 1841 97.5401C1841 96.1081 1840.32 94.6781 1839.5 94.3621C1838.65 94.0341 1838 92.542 1838 90.893C1838 88.988 1837.49 88 1836.5 88C1835.42 88 1835 86.889 1835 84C1835 81.111 1834.58 80 1833.5 80C1832.5 80 1832 79 1832 77C1832 75 1831.5 74 1830.5 74C1829.56 74 1829 73.048 1829 71.429C1829 70.014 1828.32 68.1821 1827.5 67.3571C1826.68 66.5321 1826 64.587 1826 63.036C1826 61.45 1825.34 59.962 1824.5 59.638C1823.62 59.302 1823 57.803 1823 56.031C1823 54.003 1822.5 53 1821.5 53C1820.56 53 1820 52.048 1820 50.429C1820 49.014 1819.32 47.182 1818.5 46.357C1817.68 45.532 1817 43.539 1817 41.929C1817 39.992 1816.49 39 1815.5 39C1814.5 39 1814 38 1814 36C1814 34.35 1813.59 33 1813.08 33C1812.57 33 1811.86 31.65 1811.5 30C1811.14 28.35 1810.43 27 1809.93 27C1809.43 27 1808.74 25.2 1808.38 23C1808.03 20.8 1807.4 19 1806.98 19C1806.56 19 1805.93 17.425 1805.57 15.5C1805.2 13.575 1804.53 12 1804.06 12C1803.6 12 1802.93 10.875 1802.59 9.50001C1802.24 8.12501 1801.52 7.00001 1800.98 7.00001Z" fill="white"/>
<path d="M1488.38 92C1486.93 92 1486 91.414 1486 90.5C1486 89.178 1475.9 89 1401.11 89C1326.57 89 1316.14 89.183 1315.64 90.5C1315.32 91.325 1313.92 92 1312.53 92H1310V105V118H1312.5C1314.06 118 1315 118.567 1315 119.5C1315 120.803 1319.28 121 1347.5 121C1375.72 121 1380 121.197 1380 122.5C1380 123.325 1380.68 124 1381.5 124C1382.81 124 1383 128.889 1383 162C1383 195.111 1383.19 200 1384.5 200C1385.5 200 1386 201 1386 203V206H1400.5C1412.72 206 1415 205.764 1415 204.5C1415 203.675 1415.68 203 1416.5 203C1417.81 203 1418 197.944 1418 163.5C1418 129.056 1418.19 124 1419.5 124C1420.32 124 1421 123.325 1421 122.5C1421 121.197 1425.39 121 1454.5 121C1483.61 121 1488 120.803 1488 119.5C1488 118.675 1488.62 118 1489.38 118C1491.33 118 1491.97 114.787 1491.97 105C1491.97 94.02 1491.42 92 1488.38 92Z" fill="white"/>
</svg>
