<?xml version="1.0" encoding="UTF-8"?>
<!-- Generator: visioncortex VTracer 0.6.3 -->
<svg version="1.1" xmlns="http://www.w3.org/2000/svg" width="1300" height="350">
<path d="M0 0 C0.86 0 1.72 0 2.6 0 C15.93 0.06 28.28 1 40.94 5.5 C41.6 5.72 42.27 5.95 42.96 6.18 C47.4 7.7 51.69 9.5 55.94 11.5 C56.61 11.81 57.28 12.13 57.97 12.45 C82.11 24.01 103.9 42.58 117.94 65.5 C118.33 66.12 118.71 66.75 119.11 67.39 C130.6 86.09 138.13 107.69 138.07 129.81 C138.07 130.97 138.07 130.97 138.07 132.15 C138.07 133.78 138.07 135.4 138.07 137.02 C138.06 139.49 138.07 141.96 138.07 144.43 C138.07 146.02 138.07 147.6 138.07 149.19 C138.07 149.92 138.07 150.65 138.08 151.4 C138.03 162.32 138.03 162.32 135.94 166.5 C135.72 168.06 135.72 168.06 135.51 169.66 C130.77 201.57 109.02 231.59 83.81 250.75 C79.96 253.52 75.99 256.06 71.94 258.5 C71.34 258.87 70.74 259.24 70.12 259.62 C48.63 272.66 22.92 278.31 -2.06 277.5 C-2.39 277.17 -2.72 276.84 -3.06 276.5 C-3.06 276.83 -3.06 277.16 -3.06 277.5 C-9.26 277.62 -15.07 277.26 -21.19 276.25 C-22.01 276.11 -22.84 275.98 -23.69 275.84 C-48.55 271.57 -71.12 261.26 -90.06 244.5 C-91.54 243.22 -91.54 243.22 -93.05 241.91 C-107.88 228.88 -119.01 213.34 -127.56 195.62 C-128.19 194.32 -128.19 194.32 -128.84 193 C-131.07 188.21 -132.69 183.69 -133.63 178.49 C-134.08 176.4 -134.79 174.6 -135.62 172.62 C-139.52 162.52 -138.31 150.28 -138.36 139.6 C-138.37 137.75 -138.39 135.9 -138.42 134.05 C-138.93 102 -126.34 73.05 -106.06 48.5 C-105.62 47.97 -105.19 47.44 -104.73 46.89 C-86.73 25.44 -60.14 10.18 -33.06 3.5 C-32.1 3.24 -31.14 2.99 -30.15 2.72 C-20.06 0.26 -10.34 -0.06 0 0 Z M-51.06 68.5 C-58.54 77.22 -63.14 86.9 -66.48 97.82 C-67.06 99.5 -67.06 99.5 -68.06 100.5 C-68.13 102.19 -68.15 103.88 -68.12 105.56 C-68.12 106.48 -68.11 107.4 -68.1 108.35 C-68.09 109.06 -68.07 109.77 -68.06 110.5 C-67.4 110.5 -66.74 110.5 -66.06 110.5 C-65.99 111.3 -65.99 111.3 -65.91 112.12 C-63.93 125.77 -56.41 138.9 -45.44 147.12 C-34.84 154.16 -21.89 158.5 -9.06 158.5 C-8.94 152.59 -8.85 146.68 -8.79 140.78 C-8.76 138.77 -8.73 136.76 -8.69 134.75 C-8.62 131.86 -8.6 128.97 -8.57 126.08 C-8.55 125.18 -8.52 124.28 -8.5 123.36 C-8.42 118.11 -8.42 118.11 -11.53 114.03 C-12.78 113.27 -12.78 113.27 -14.06 112.5 C-14.39 111.84 -14.72 111.18 -15.06 110.5 C-15.72 110.5 -16.38 110.5 -17.06 110.5 C-16.73 109.51 -16.4 108.52 -16.06 107.5 C-16.72 107.5 -17.38 107.5 -18.06 107.5 C-16.32 101.98 -15.21 98.61 -10.06 95.5 C-6.75 94.25 -6.75 94.25 -4.06 93.5 C-3.73 94.16 -3.4 94.82 -3.06 95.5 C-2.44 95.81 -1.82 96.12 -1.19 96.44 C1.04 97.55 2.34 98.6 3.94 100.5 C4.27 101.49 4.6 102.48 4.94 103.5 C19.79 103.5 34.64 103.5 49.94 103.5 C49.94 91.62 46.75 82.2 39.94 72.5 C39.5 71.86 39.06 71.23 38.61 70.57 C29.47 58.7 13.86 53.38 -0.36 50.98 C-18.16 48.67 -38.35 55.71 -51.06 68.5 Z M-17.06 103.5 C-16.06 105.5 -16.06 105.5 -16.06 105.5 Z M50.94 100.5 C50.94 101.82 50.94 103.14 50.94 104.5 C36.09 104.5 21.24 104.5 5.94 104.5 C5.94 104.83 5.94 105.16 5.94 105.5 C21.12 105.5 36.3 105.5 51.94 105.5 C51.94 103.85 51.94 102.2 51.94 100.5 C51.61 100.5 51.28 100.5 50.94 100.5 Z M-135.06 105.5 C-134.06 107.5 -134.06 107.5 -134.06 107.5 Z M-8.06 117.5 C-8.06 131.36 -8.06 145.22 -8.06 159.5 C-7.73 159.5 -7.4 159.5 -7.06 159.5 C-7.06 145.64 -7.06 131.78 -7.06 117.5 C-7.39 117.5 -7.72 117.5 -8.06 117.5 Z M7.94 119.5 C7.81 125.43 7.72 131.35 7.66 137.28 C7.64 139.3 7.6 141.31 7.56 143.33 C7.5 146.23 7.47 149.12 7.45 152.02 C7.42 152.92 7.4 153.83 7.37 154.76 C7.37 157.11 7.4 159.21 7.94 161.5 C10.23 163.59 10.23 163.59 12.94 164.5 C15.77 167.13 15.94 168.5 16.38 172.44 C16.23 176.53 14.9 178.62 11.94 181.5 C8.67 183.13 5.45 183.18 1.94 182.5 C-1.94 180.16 -4.62 177.82 -6.06 173.5 C-20.25 173.5 -34.44 173.5 -49.06 173.5 C-49.06 172.84 -49.06 172.18 -49.06 171.5 C-50.05 171.5 -51.04 171.5 -52.06 171.5 C-52.03 172.64 -52.03 172.64 -52 173.81 C-52.06 176.5 -52.06 176.5 -53.06 179.5 C-52.4 179.5 -51.74 179.5 -51.06 179.5 C-51 180.06 -50.94 180.62 -50.87 181.2 C-48.98 193.59 -42.61 205.35 -33.06 213.5 C-22.31 220.99 -10.28 225.92 2.94 226.5 C4.03 226.58 4.03 226.58 5.15 226.66 C21.43 227.31 36.21 222.21 48.62 211.69 C58.04 202.79 64.73 191.66 65.11 178.46 C65.12 176.93 65.13 175.4 65.12 173.88 C65.13 172.68 65.13 172.68 65.13 171.47 C65.07 165.32 64.41 159.48 62.94 153.5 C62.28 153.5 61.62 153.5 60.94 153.5 C60.8 152.95 60.67 152.41 60.53 151.85 C57.28 140.49 49.84 133.55 39.94 127.5 C31.97 123.27 24.09 119.5 14.94 119.5 C14.94 118.84 14.94 118.18 14.94 117.5 C11.83 117.5 10.58 118.04 7.94 119.5 Z M-16.06 158.5 C-12.06 159.5 -12.06 159.5 -12.06 159.5 Z M133.94 166.5 C134.94 168.5 134.94 168.5 134.94 168.5 Z M65.94 171.5 C66.94 175.5 66.94 175.5 66.94 175.5 Z M-1.06 226.5 C2.94 227.5 2.94 227.5 2.94 227.5 Z M12.94 226.5 C16.94 227.5 16.94 227.5 16.94 227.5 Z M3.94 275.5 C3.94 275.83 3.94 276.16 3.94 276.5 C5.92 276.5 7.9 276.5 9.94 276.5 C9.94 276.17 9.94 275.84 9.94 275.5 C7.96 275.5 5.98 275.5 3.94 275.5 Z " fill="#F6F9F8" transform="translate(138.0625,28.5)"/>
<path d="M0 0 C1.68 1.31 3.36 2.64 5 4 C9.64 5.64 12.24 4.32 16.56 2.25 C30.1 -3.85 47.19 -7.67 61.75 -2.44 C70.87 2.11 77.57 9.61 81.06 19.11 C84.52 29.77 84.27 40.73 84.2 51.8 C84.19 53.48 84.19 55.17 84.19 56.86 C84.18 61.26 84.16 65.66 84.14 70.05 C84.12 74.56 84.11 79.07 84.1 83.57 C84.08 92.38 84.04 101.19 84 110 C79.91 110.05 75.81 110.09 71.72 110.11 C70.33 110.12 68.93 110.13 67.54 110.15 C65.54 110.18 63.54 110.19 61.54 110.2 C60.33 110.21 59.13 110.22 57.89 110.23 C55 110 55 110 53 108 C52.74 105.23 52.74 105.23 52.73 101.65 C52.72 100.99 52.72 100.34 52.71 99.67 C52.7 98.25 52.7 96.83 52.7 95.41 C52.69 93.15 52.67 90.89 52.65 88.63 C52.6 82.2 52.57 75.78 52.54 69.35 C52.53 65.42 52.5 61.49 52.46 57.56 C52.45 56.07 52.44 54.58 52.44 53.09 C52.44 43.71 51.56 35.07 49 26 C38.91 23.28 28.82 25.11 19 28 C18.67 28 18.34 28 18 28 C17.67 30.97 17.34 33.94 17 37 C17.66 37 18.32 37 19 37 C19.97 45.56 20.13 54.03 20.1 62.64 C20.1 64.01 20.09 65.39 20.09 66.76 C20.09 70.34 20.08 73.92 20.07 77.5 C20.06 81.16 20.05 84.83 20.05 88.5 C20.04 95.67 20.02 102.83 20 110 C18.74 109.99 18.74 109.99 17.46 109.98 C14.36 109.97 11.25 109.95 8.15 109.95 C6.14 109.94 4.13 109.92 2.13 109.91 C0.87 109.91 -0.38 109.91 -1.68 109.9 C-3.42 109.89 -3.42 109.89 -5.2 109.89 C-7.96 109.81 -7.96 109.81 -10 111 C-12.4 107.41 -12.26 105.79 -12.27 101.52 C-12.28 100.86 -12.28 100.21 -12.29 99.53 C-12.3 98.11 -12.3 96.69 -12.3 95.27 C-12.31 93.01 -12.33 90.75 -12.35 88.49 C-12.4 82.07 -12.43 75.64 -12.46 69.22 C-12.47 65.29 -12.5 61.35 -12.54 57.42 C-12.55 55.93 -12.56 54.44 -12.56 52.96 C-12.44 39.66 -12.44 39.66 -16 27 C-19.55 24.57 -22.89 24.67 -27.12 24.62 C-28.37 24.6 -29.61 24.57 -30.88 24.54 C-36.14 24.94 -36.14 24.94 -45 29 C-45.33 55.73 -45.66 82.46 -46 110 C-54.91 110 -63.82 110 -73 110 C-73.99 110.5 -73.99 110.5 -75 111 C-75 74.37 -75 37.74 -75 0 C-65.43 0 -55.86 0 -46 0 C-45.34 1.32 -44.68 2.64 -44 4 C-43.04 3.51 -42.07 3.01 -41.08 2.5 C-39.8 1.86 -38.53 1.21 -37.25 0.56 C-36.62 0.24 -35.98 -0.09 -35.33 -0.42 C-24.53 -5.88 -10.63 -6.2 0 0 Z M-12 37 C-11 39 -11 39 -11 39 Z M53 37 C54 39 54 39 54 39 Z " fill="#F5F8F7" transform="translate(801,140)"/>
<path d="M0 0 C1.15 0.01 2.3 0.01 3.48 0.02 C18.07 0.27 35.16 0.82 48.44 7.44 C47.94 15.46 47.42 23.46 46.44 31.44 C38.05 31.64 29.99 31.08 21.69 29.94 C20.6 29.79 19.51 29.65 18.38 29.5 C15.73 29.16 13.09 28.8 10.44 28.44 C10.44 27.78 10.44 27.12 10.44 26.44 C-0.51 26.32 -8.41 28.4 -17.56 34.44 C-20.86 38 -21.66 41.64 -21.56 46.44 C-21.02 49.78 -21.02 49.78 -18.56 52.44 C-9.66 57.81 1.08 60.74 10.94 63.88 C24.42 68.37 39.96 74.75 47.68 87.49 C54.56 101.65 53.04 116.88 48.44 131.44 C46.85 134.92 44.98 137.6 42.44 140.44 C41.58 141.48 41.58 141.48 40.7 142.54 C31.53 152.7 18.74 156.62 5.39 157.59 C-13.46 158.47 -32.09 154.64 -50.56 151.44 C-53.07 143.93 -51.29 134.99 -49.56 127.44 C-48.57 126.45 -48.57 126.45 -47.56 125.44 C-44.83 125.48 -42.22 125.63 -39.51 125.9 C-38.7 125.97 -37.89 126.04 -37.06 126.11 C-34.45 126.33 -31.85 126.57 -29.25 126.81 C-5.6 130.42 -5.6 130.42 16 123.44 C18.55 119.89 18.6 116.8 18.62 112.56 C18.64 111.53 18.65 110.51 18.67 109.45 C18.43 106.29 17.95 104.21 16.44 101.44 C9.43 95.94 -0.96 93.86 -9.34 91.16 C-25.54 85.91 -41.5 79.85 -50.62 64.46 C-55.36 54.27 -55.57 39.75 -51.88 29.12 C-51.15 27.54 -50.39 25.97 -49.56 24.44 C-49.21 23.73 -48.86 23.02 -48.5 22.29 C-42.72 11.81 -32.96 6.06 -21.82 2.58 C-14.46 0.62 -7.61 -0.07 0 0 Z M10.44 1.44 C14.44 2.44 14.44 2.44 14.44 2.44 Z M45.44 17.44 C46.44 20.44 46.44 20.44 46.44 20.44 Z M30.44 28.44 C30.44 28.77 30.44 29.1 30.44 29.44 C33.41 29.93 33.41 29.93 36.44 30.44 C36.44 29.78 36.44 29.12 36.44 28.44 C34.46 28.44 32.48 28.44 30.44 28.44 Z M-52.56 35.44 C-51.56 37.44 -51.56 37.44 -51.56 37.44 Z M20.44 110.44 C21.44 113.44 21.44 113.44 21.44 113.44 Z M-28.56 128.44 C-24.56 129.44 -24.56 129.44 -24.56 129.44 Z M-16.56 129.44 C-16.56 129.77 -16.56 130.1 -16.56 130.44 C-14.25 130.44 -11.94 130.44 -9.56 130.44 C-9.56 130.11 -9.56 129.78 -9.56 129.44 C-11.87 129.44 -14.18 129.44 -16.56 129.44 Z M-50.56 140.44 C-49.56 143.44 -49.56 143.44 -49.56 143.44 Z " fill="#F6F9F8" transform="translate(426.5625,95.5625)"/>
<path d="M0 0 C9.4 7.4 15.11 16.47 17.12 28.31 C17.21 30.26 17.26 32.22 17.26 34.17 C17.26 35.29 17.26 36.4 17.26 37.55 C17.26 38.71 17.25 39.87 17.25 41.06 C17.25 42.2 17.26 43.35 17.26 44.52 C17.26 45.64 17.26 46.77 17.26 47.92 C17.26 48.93 17.26 49.94 17.25 50.98 C17.09 55.11 16.58 59.21 16.12 63.31 C-5 63.64 -26.12 63.97 -47.88 64.31 C-49.05 67.85 -48.67 68.88 -47.44 72.31 C-47.15 73.18 -46.86 74.05 -46.57 74.94 C-44.1 78.41 -40.87 79.32 -36.88 80.31 C-33.14 80.67 -29.45 80.62 -25.7 80.54 C-24.13 80.52 -24.13 80.52 -22.53 80.51 C-19.2 80.48 -15.88 80.43 -12.56 80.38 C-9.22 80.33 -5.88 80.28 -2.54 80.25 C-0.47 80.23 1.6 80.2 3.67 80.16 C4.61 80.15 5.54 80.14 6.51 80.13 C7.33 80.12 8.15 80.11 9 80.09 C11.12 80.31 11.12 80.31 14.12 82.31 C14.57 84.14 14.57 84.14 14.67 86.34 C14.73 87.53 14.73 87.53 14.79 88.74 C14.83 89.98 14.83 89.98 14.88 91.25 C14.94 92.49 14.94 92.49 15 93.75 C15.16 97.32 15.27 99.88 14.12 103.31 C11.61 104.19 11.61 104.19 8.31 104.88 C7.13 105.12 5.95 105.37 4.74 105.62 C-15.66 109.52 -43.29 114.66 -61.88 102.31 C-70.52 95.99 -76.4 86.68 -78.88 76.31 C-79.05 75.61 -79.22 74.9 -79.4 74.17 C-83.91 53.82 -82.44 30.17 -71.65 12.02 C-65.02 1.93 -56.53 -3.69 -44.83 -6.99 C-29.62 -10.13 -12.98 -8.78 0 0 Z M-45.59 23.23 C-49.22 29.18 -49.11 32.68 -49.88 40.31 C-37.66 40.31 -25.46 40.31 -12.88 40.31 C-13.26 29.99 -13.26 29.99 -16.88 21.31 C-25.52 15.79 -38.23 15 -45.59 23.23 Z M-12.88 31.31 C-11.88 34.31 -11.88 34.31 -11.88 34.31 Z M-79.88 40.31 C-78.88 44.31 -78.88 44.31 -78.88 44.31 Z M-79.88 61.31 C-79.88 62.96 -79.88 64.61 -79.88 66.31 C-79.55 66.31 -79.21 66.31 -78.88 66.31 C-78.88 64.66 -78.88 63.01 -78.88 61.31 C-79.2 61.31 -79.54 61.31 -79.88 61.31 Z M-1.88 81.31 C-1.88 81.64 -1.88 81.97 -1.88 82.31 C0.11 82.31 2.09 82.31 4.12 82.31 C4.12 81.98 4.12 81.65 4.12 81.31 C2.14 81.31 0.16 81.31 -1.88 81.31 Z M-30.88 82.31 C-30.88 82.64 -30.88 82.97 -30.88 83.31 C-28.57 83.31 -26.25 83.31 -23.88 83.31 C-23.88 82.98 -23.88 82.65 -23.88 82.31 C-26.18 82.31 -28.5 82.31 -30.88 82.31 Z M12.12 84.31 C12.12 89.59 12.12 94.87 12.12 100.31 C12.78 99.98 13.44 99.65 14.12 99.31 C13.79 94.36 13.47 89.41 13.12 84.31 C12.79 84.31 12.47 84.31 12.12 84.31 Z " fill="#F6F9F8" transform="translate(573.875,143.6875)"/>
<path d="M0 0 C1.47 -0.02 1.47 -0.02 2.96 -0.05 C15.86 -0.06 26.52 4.26 35.94 13.12 C45.24 23.18 48.36 36.28 48.72 49.82 C48.51 52.67 48.07 55.49 47.62 58.31 C46.96 62.6 46.31 66.89 45.62 71.31 C24.17 71.64 2.73 71.97 -19.38 72.31 C-17.89 77.26 -17.89 77.26 -16.38 82.31 C-16.04 83.63 -15.72 84.95 -15.38 86.31 C-8.46 88.12 -2.2 88.57 4.93 88.47 C5.98 88.47 7.03 88.46 8.11 88.46 C11.43 88.44 14.74 88.41 18.06 88.38 C21.41 88.35 24.75 88.32 28.09 88.3 C30.16 88.29 32.24 88.27 34.31 88.25 C35.71 88.24 35.71 88.24 37.13 88.23 C37.96 88.22 38.78 88.21 39.62 88.21 C41.62 88.31 41.62 88.31 43.62 89.31 C43.62 96.57 43.62 103.83 43.62 111.31 C36.66 113.16 29.71 114.76 22.62 116.06 C21.53 116.27 21.53 116.27 20.41 116.49 C16.84 117.12 14.09 117.45 10.62 116.31 C8.95 116.62 7.29 116.95 5.62 117.31 C5.29 116.98 4.97 116.65 4.62 116.31 C4.62 116.64 4.62 116.97 4.62 117.31 C-11.48 117.92 -25.64 116.34 -38.12 105.19 C-49.22 93.28 -50.96 77.08 -50.81 61.56 C-50.81 60.86 -50.81 60.15 -50.8 59.42 C-50.68 41.82 -48.05 25.48 -35.69 11.88 C-25.54 2.56 -13.3 -0.04 0 0 Z M-15.31 30.94 C-18.84 36.71 -19.72 42.58 -19.38 49.31 C-18.72 48.98 -18.05 48.65 -17.38 48.31 C-14.82 48.23 -12.3 48.2 -9.74 48.21 C-8.61 48.22 -8.61 48.22 -7.46 48.22 C-5.06 48.22 -2.65 48.24 -0.25 48.25 C1.38 48.26 3.01 48.26 4.64 48.26 C8.63 48.27 12.63 48.29 16.62 48.31 C16.62 43.69 16.62 39.07 16.62 34.31 C15.96 34.31 15.31 34.31 14.62 34.31 C14.4 33.55 14.17 32.79 13.94 32 C12.09 28.22 9.62 27.04 5.75 25.62 C-2.17 24.46 -9.27 25.54 -15.31 30.94 Z M17.62 44.31 C17.62 45.96 17.62 47.61 17.62 49.31 C17.95 49.31 18.29 49.31 18.62 49.31 C18.62 47.66 18.62 46.01 18.62 44.31 C18.3 44.31 17.96 44.31 17.62 44.31 Z M27.62 89.31 C27.62 89.64 27.62 89.97 27.62 90.31 C29.61 90.31 31.59 90.31 33.62 90.31 C33.62 89.98 33.62 89.65 33.62 89.31 C31.64 89.31 29.66 89.31 27.62 89.31 Z M-0.38 90.31 C-0.38 90.64 -0.38 90.97 -0.38 91.31 C1.93 91.31 4.25 91.31 6.62 91.31 C6.62 90.98 6.62 90.65 6.62 90.31 C4.32 90.31 2 90.31 -0.38 90.31 Z M11.62 114.31 C11.62 114.64 11.62 114.97 11.62 115.31 C13.61 115.31 15.59 115.31 17.62 115.31 C17.62 114.98 17.62 114.65 17.62 114.31 C15.64 114.31 13.66 114.31 11.62 114.31 Z " fill="#F6F9F8" transform="translate(1015.375,135.6875)"/>
<path d="M0 0 C1.26 -0.03 2.52 -0.06 3.82 -0.09 C15.36 -0.17 25.22 2.19 33.75 10.31 C40.91 18.14 42.04 26 42.75 36.31 C42.42 36.31 42.09 36.31 41.75 36.31 C41.42 53.14 41.09 69.97 40.75 87.31 C41.41 87.31 42.07 87.31 42.75 87.31 C43.04 87.95 43.33 88.59 43.62 89.25 C44.58 91.46 44.58 91.46 46.75 92.31 C46.75 92.97 46.75 93.63 46.75 94.31 C47.74 94.31 48.73 94.31 49.75 94.31 C49.89 102.04 49.5 109.62 48.75 117.31 C48.09 117.31 47.43 117.31 46.75 117.31 C46.42 116.98 46.09 116.65 45.75 116.31 C45.75 116.64 45.75 116.97 45.75 117.31 C36.63 117.18 29.68 116.51 21.43 112.27 C15.39 110.11 8.89 113.47 3.07 115.38 C-8.14 118.54 -22.53 119.37 -33.32 114.35 C-41.92 109.48 -47.3 102.06 -50.44 92.81 C-53.04 81.32 -51.56 69.9 -45.94 59.62 C-39.67 50.88 -27.78 47.64 -17.69 45.8 C-7.87 44.41 1.85 44.17 11.75 44.31 C11.49 42.21 11.22 40.1 10.94 38 C10.79 36.83 10.64 35.66 10.48 34.45 C9.74 31.27 9.4 30.12 6.75 28.31 C3.46 27.22 0.58 27.28 -2.86 27.47 C-3.92 27.52 -4.99 27.57 -6.08 27.63 C-7.74 27.72 -7.74 27.72 -9.44 27.81 C-11.64 27.93 -13.84 28.05 -16.04 28.16 C-17.51 28.24 -17.51 28.24 -19 28.32 C-21.25 28.31 -21.25 28.31 -22.25 27.31 C-25.05 27.4 -27.83 27.55 -30.62 27.75 C-39.04 28.31 -39.04 28.31 -42.25 28.31 C-44.31 24.05 -44.58 20.4 -44.62 15.69 C-44.65 14.38 -44.68 13.06 -44.71 11.71 C-44.25 8.31 -44.25 8.31 -42.81 6.48 C-38.98 4.73 -35.06 3.98 -30.94 3.19 C-30.11 3.02 -29.28 2.85 -28.42 2.68 C-18.89 0.76 -9.72 0.07 0 0 Z M-43.25 13.31 C-43.25 16.61 -43.25 19.91 -43.25 23.31 C-42.92 23.31 -42.59 23.31 -42.25 23.31 C-42.25 20.01 -42.25 16.71 -42.25 13.31 C-42.58 13.31 -42.91 13.31 -43.25 13.31 Z M-21.25 25.31 C-21.25 25.64 -21.25 25.97 -21.25 26.31 C-16.96 26.31 -12.67 26.31 -8.25 26.31 C-8.25 25.98 -8.25 25.65 -8.25 25.31 C-12.54 25.31 -16.83 25.31 -21.25 25.31 Z M-39.25 26.31 C-39.25 26.64 -39.25 26.97 -39.25 27.31 C-37.27 27.31 -35.29 27.31 -33.25 27.31 C-33.25 26.98 -33.25 26.65 -33.25 26.31 C-35.23 26.31 -37.21 26.31 -39.25 26.31 Z M11.75 34.31 C12.75 36.31 12.75 36.31 12.75 36.31 Z M-1.25 45.31 C-1.25 45.64 -1.25 45.97 -1.25 46.31 C0.4 46.31 2.05 46.31 3.75 46.31 C3.75 45.98 3.75 45.65 3.75 45.31 C2.1 45.31 0.45 45.31 -1.25 45.31 Z M-14.25 46.31 C-14.25 46.64 -14.25 46.97 -14.25 47.31 C-12.6 47.31 -10.95 47.31 -9.25 47.31 C-9.25 46.98 -9.25 46.65 -9.25 46.31 C-10.9 46.31 -12.55 46.31 -14.25 46.31 Z M-17.25 72.31 C-19.3 75.62 -20.43 78.62 -20.02 82.54 C-19.36 85.26 -18.5 87.8 -17.25 90.31 C-9.1 93.03 2.72 92.08 10.75 89.31 C13.38 85.82 13.02 82.04 13 77.81 C13.01 76.5 13.01 75.19 13.02 73.84 C12.78 70.66 12.45 68.95 10.75 66.31 C1.53 65.95 -10.24 65.49 -17.25 72.31 Z M11.75 66.31 C12.75 68.31 12.75 68.31 12.75 68.31 Z M-50.25 74.31 C-49.25 77.31 -49.25 77.31 -49.25 77.31 Z M-50.25 85.31 C-49.25 88.31 -49.25 88.31 -49.25 88.31 Z M-10.25 92.31 C-6.25 93.31 -6.25 93.31 -6.25 93.31 Z " fill="#F6F9F8" transform="translate(655.25,135.6875)"/>
<path d="M0 0 C1.17 0.17 2.34 0.35 3.55 0.53 C12.61 1.96 12.61 1.96 16.44 4.12 C16.49 6.5 16.53 8.87 16.56 11.25 C16.58 11.92 16.6 12.58 16.61 13.27 C16.66 17.62 16.04 21.08 14.44 25.12 C15.1 25.12 15.76 25.12 16.44 25.12 C16.44 26.44 16.44 27.76 16.44 29.12 C5.4 28.44 -5.57 27.33 -16.56 26.12 C-16.56 25.47 -16.56 24.81 -16.56 24.12 C-24.29 24.29 -31.28 25.29 -37.56 30.12 C-38.87 33.19 -38.87 33.19 -38.56 36.12 C-38.56 36.78 -38.56 37.44 -38.56 38.12 C-37.87 38.26 -37.17 38.4 -36.46 38.54 C-33.24 39.17 -30.03 39.8 -26.81 40.44 C-25.72 40.65 -24.63 40.86 -23.5 41.08 C5.5 46.83 5.5 46.83 15 57.8 C19.18 64.55 19.96 70.67 19.88 78.44 C19.87 79.37 19.86 80.29 19.85 81.25 C19.61 90.56 18.14 97.57 11.69 104.56 C-1.24 116.15 -19.63 116.18 -36.13 115.4 C-46.51 114.57 -57.56 113.11 -67.56 110.12 C-69.23 106.78 -68.75 103.05 -68.75 99.38 C-68.76 98.58 -68.77 97.78 -68.79 96.95 C-68.8 92.27 -68.36 88.53 -66.56 84.12 C-59.55 83.99 -52.72 84.4 -45.75 85.12 C-34.38 86.22 -23.72 87.15 -12.56 84.12 C-12.56 80.82 -12.56 77.53 -12.56 74.12 C-13.26 73.99 -13.95 73.85 -14.67 73.71 C-17.88 73.08 -21.1 72.45 -24.31 71.81 C-25.4 71.6 -26.5 71.39 -27.62 71.17 C-55.68 65.6 -55.68 65.6 -65.56 55.12 C-71.2 45.91 -72.11 35.51 -69.91 25.02 C-66.7 15.24 -61.14 8.3 -52.12 3.34 C-35.62 -4.5 -17.58 -2.61 0 0 Z M-69.56 28.12 C-68.56 31.12 -68.56 31.12 -68.56 31.12 Z M-69.56 39.12 C-68.56 43.12 -68.56 43.12 -68.56 43.12 Z M-10.56 78.12 C-9.56 82.12 -9.56 82.12 -9.56 82.12 Z M-50.56 86.12 C-46.56 87.12 -46.56 87.12 -46.56 87.12 Z M-39.56 87.12 C-39.56 87.45 -39.56 87.78 -39.56 88.12 C-37.91 88.12 -36.26 88.12 -34.56 88.12 C-34.56 87.8 -34.56 87.47 -34.56 87.12 C-36.21 87.12 -37.86 87.12 -39.56 87.12 Z M-67.56 90.12 C-67.56 93.09 -67.56 96.06 -67.56 99.12 C-67.23 99.12 -66.9 99.12 -66.56 99.12 C-66.56 96.16 -66.56 93.19 -66.56 90.12 C-66.89 90.12 -67.22 90.12 -67.56 90.12 Z M-42.56 112.12 C-40.58 113.12 -40.58 113.12 -38.56 114.12 C-38.23 113.47 -37.9 112.81 -37.56 112.12 C-39.21 112.12 -40.86 112.12 -42.56 112.12 Z " fill="#F6F9F8" transform="translate(1147.5625,137.875)"/>
<path d="M0 0 C0.88 0 1.76 0 2.66 0 C10.58 0.14 18.35 1.06 26.19 2.19 C27.94 2.44 27.94 2.44 29.74 2.69 C30.84 2.86 31.93 3.03 33.07 3.21 C34.53 3.43 34.53 3.43 36.03 3.67 C38.95 4.46 40.55 5.16 42.62 7.38 C42.99 9.92 42.99 9.92 42.8 12.92 C42.74 13.99 42.68 15.06 42.62 16.17 C42.5 17.85 42.5 17.85 42.38 19.56 C42.31 20.69 42.24 21.82 42.18 22.99 C42.01 25.79 41.83 28.58 41.62 31.38 C30.59 30.67 19.62 29.58 8.62 28.38 C8.62 27.72 8.62 27.06 8.62 26.38 C0.98 26.63 -4.82 27.29 -11.38 31.38 C-12.73 34.08 -12.44 36.38 -12.38 39.38 C-6.07 41.66 0.17 43.22 6.75 44.44 C20.39 47 32.61 50.05 41.62 61.38 C47.27 70.52 46.68 83.39 44.56 93.56 C42.44 101.13 38.31 106.81 31.81 111.25 C22.1 116.7 11.35 117.55 0.44 117.5 C-0.34 117.5 -1.12 117.51 -1.93 117.51 C-12.26 117.49 -12.26 117.49 -14.38 115.38 C-14.94 115.54 -15.51 115.7 -16.1 115.86 C-18.92 116.5 -20.95 116.12 -23.8 115.6 C-24.82 115.41 -25.85 115.23 -26.9 115.04 C-28.5 114.74 -28.5 114.74 -30.12 114.44 C-31.2 114.24 -32.28 114.05 -33.39 113.85 C-36.06 113.36 -38.72 112.87 -41.38 112.38 C-42.2 106.66 -42.5 101.15 -42.44 95.38 C-42.43 94.6 -42.43 93.83 -42.42 93.03 C-42.41 91.14 -42.39 89.26 -42.38 87.38 C-38.5 86.08 -35.01 86.48 -31 86.75 C-30.19 86.8 -29.38 86.85 -28.55 86.9 C-23.88 87.19 -19.22 87.54 -14.56 87.94 C-5.31 88.66 3.7 89.29 12.62 86.38 C13.94 85.27 13.94 85.27 13.88 82.5 C13.89 79.49 13.89 79.49 12.55 77.8 C9.8 75.77 6.84 75.17 3.56 74.44 C2.86 74.27 2.16 74.1 1.44 73.93 C-2.38 73.02 -6.23 72.19 -10.08 71.41 C-21.62 69.03 -33.08 66.57 -40.38 56.38 C-40.38 55.38 -40.38 54.4 -40.38 53.38 C-41.04 53.38 -41.69 53.38 -42.38 53.38 C-46.2 43.83 -45.99 31.18 -42.31 21.62 C-37.12 11.31 -28.87 6.58 -18.38 2.38 C-12.28 0.57 -6.34 -0.01 0 0 Z M-14.38 89.38 C-14.38 89.7 -14.38 90.03 -14.38 90.38 C-12.39 90.38 -10.41 90.38 -8.38 90.38 C-8.38 90.05 -8.38 89.72 -8.38 89.38 C-10.36 89.38 -12.34 89.38 -14.38 89.38 Z " fill="#F6F9F8" transform="translate(1226.375,135.625)"/>
<path d="M0 0 C1.88 -0 1.88 -0 3.79 -0 C5.11 -0 6.43 0 7.79 0.01 C9.76 0 9.76 0 11.77 -0 C13.02 -0 14.27 -0 15.56 0 C17.3 0 17.3 0 19.07 0 C21.85 0.13 21.85 0.13 23.85 1.13 C23.85 52.8 23.85 104.47 23.85 156.13 C23.01 156.13 22.17 156.12 21.31 156.12 C18.2 156.1 15.1 156.09 11.99 156.08 C9.99 156.07 7.98 156.06 5.98 156.04 C4.72 156.04 3.46 156.04 2.17 156.04 C1.01 156.03 -0.16 156.02 -1.35 156.02 C-4.11 155.94 -4.11 155.94 -6.15 157.13 C-6.31 136.81 -6.45 116.49 -6.6 96.17 C-6.66 86.73 -6.73 77.29 -6.8 67.86 C-6.86 59.64 -6.92 51.42 -6.98 43.2 C-7.01 38.84 -7.04 34.48 -7.07 30.13 C-7.11 26.03 -7.13 21.94 -7.16 17.84 C-7.17 16.34 -7.18 14.83 -7.19 13.32 C-7.21 11.27 -7.22 9.22 -7.23 7.18 C-7.24 6.03 -7.25 4.88 -7.26 3.69 C-7.06 -1.18 -4.25 0 0 0 Z " fill="#F4F7F6" transform="translate(919.15234375,93.8671875)"/>
<path d="M0 0 C0.33 0 0.66 0 1 0 C1 50.16 1 100.32 1 152 C0.67 152 0.34 152 0 152 C0 101.84 0 51.68 0 0 Z " fill="#D0D3D2" transform="translate(911,96)"/>
<path d="M0 0 C0.33 0 0.66 0 1 0 C1 35.64 1 71.28 1 108 C0.67 108 0.34 108 0 108 C0 72.36 0 36.72 0 0 Z " fill="#D0D3D2" transform="translate(724,140)"/>
<path d="M0 0 C0.33 0 0.66 0 1 0 C1 16.17 1 32.34 1 49 C0.67 49 0.34 49 0 49 C0 32.83 0 16.66 0 0 Z " fill="#D0D3D2" transform="translate(697,173)"/>
<path d="M0 0 C0.99 0.33 1.98 0.66 3 1 C3 5.95 3 10.9 3 16 C2.01 15.67 1.02 15.34 0 15 C0 10.05 0 5.1 0 0 Z " fill="#E4E7E6" transform="translate(1077,166)"/>
<path d="M0 0 C0.99 0 1.98 0 3 0 C3 4.95 3 9.9 3 15 C2.01 14.67 1.02 14.34 0 14 C0 9.38 0 4.76 0 0 Z " fill="#E5E8E7" transform="translate(604,210)"/>
<path d="M0 0 C8.91 0 17.82 0 27 0 C27 0.33 27 0.66 27 1 C18.09 1 9.18 1 0 1 C0 0.67 0 0.34 0 0 Z " fill="#F7FAF9" transform="translate(726,138)"/>
<path d="M0 0 C6.6 0 13.2 0 20 0 C20 0.33 20 0.66 20 1 C13.4 1 6.8 1 0 1 C0 0.67 0 0.34 0 0 Z " fill="#F7FAF9" transform="translate(128,28)"/>
<path d="M0 0 C4.29 0 8.58 0 13 0 C13 0.33 13 0.66 13 1 C8.71 1 4.42 1 0 1 C0 0.67 0 0.34 0 0 Z " fill="#D0D3D2" transform="translate(423,123)"/>
<path d="M0 0 C0.33 0 0.66 0 1 0 C1 3.63 1 7.26 1 11 C0.67 11 0.34 11 0 11 C0 7.37 0 3.74 0 0 Z " fill="#E5E8E7" transform="translate(964,191)"/>
<path d="M0 0 C0.33 0 0.66 0 1 0 C1.33 2.97 1.66 5.94 2 9 C1.34 8.67 0.68 8.34 0 8 C0 5.36 0 2.72 0 0 Z " fill="#DADDDC" transform="translate(819,168)"/>
<path d="M0 0 C3.63 0 7.26 0 11 0 C11 0.33 11 0.66 11 1 C7.37 1 3.74 1 0 1 C0 0.67 0 0.34 0 0 Z " fill="#D0D3D2" transform="translate(1223,163)"/>
<path d="M0 0 C3.3 0 6.6 0 10 0 C10 0.33 10 0.66 10 1 C6.7 1 3.4 1 0 1 C0 0.67 0 0.34 0 0 Z " fill="#D0D3D2" transform="translate(1120,163)"/>
<path d="M0 0 C3.3 0 6.6 0 10 0 C10 0.33 10 0.66 10 1 C6.7 1 3.4 1 0 1 C0 0.67 0 0.34 0 0 Z " fill="#E7EAE9" transform="translate(652,135)"/>
<path d="M0 0 C0.99 0.5 0.99 0.5 2 1 C1.67 3.64 1.34 6.28 1 9 C0.67 9 0.34 9 0 9 C0 6.03 0 3.06 0 0 Z " fill="#D3D6D5" transform="translate(71,129)"/>
<path d="M0 0 C2.64 0 5.28 0 8 0 C8 0.33 8 0.66 8 1 C5.36 1 2.72 1 0 1 C0 0.67 0 0.34 0 0 Z " fill="#EDF0EF" transform="translate(1011,135)"/>
<path d="M0 0 C0.33 0 0.66 0 1 0 C1 2.31 1 4.62 1 7 C0.67 7 0.34 7 0 7 C0 4.69 0 2.38 0 0 Z " fill="#F7FAF9" transform="translate(666,214)"/>
<path d="M0 0 C2.31 0 4.62 0 7 0 C7 0.33 7 0.66 7 1 C4.69 1 2.38 1 0 1 C0 0.67 0 0.34 0 0 Z " fill="#E6E9E8" transform="translate(540,135)"/>
<path d="M0 0 C0.66 0 1.32 0 2 0 C1.34 1.32 0.68 2.64 0 4 C0 2.68 0 1.36 0 0 Z " fill="#DDE0DF" transform="translate(1163,158)"/>
<path d="M0 0 C1.98 0 3.96 0 6 0 C6 0.33 6 0.66 6 1 C4.02 1 2.04 1 0 1 C0 0.67 0 0.34 0 0 Z " fill="#F7FAF9" transform="translate(844,135)"/>
<path d="M0 0 C0.33 0 0.66 0 1 0 C1 1.65 1 3.3 1 5 C0.67 5 0.34 5 0 5 C0 3.35 0 1.7 0 0 Z " fill="#F7FAF9" transform="translate(1183,240)"/>
<path d="M0 0 C1.65 0 3.3 0 5 0 C5 0.33 5 0.66 5 1 C3.35 1 1.7 1 0 1 C0 0.67 0 0.34 0 0 Z " fill="#F7FAF9" transform="translate(780,135)"/>
<path d="M0 0 C1 4 1 4 1 4 Z " fill="#F7FAF9" transform="translate(666,206)"/>
<path d="M0 0 C1 4 1 4 1 4 Z " fill="#F7FAF9" transform="translate(372,140)"/>
<path d="" fill="#F7FAF9" transform="translate(0,0)"/>
<path d="" fill="#F7FAF9" transform="translate(0,0)"/>
<path d="" fill="#D0D3D2" transform="translate(0,0)"/>
<path d="" fill="#F7FAF9" transform="translate(0,0)"/>
<path d="" fill="#F7FAF9" transform="translate(0,0)"/>
<path d="" fill="#F7FAF9" transform="translate(0,0)"/>
</svg>
