<svg width="3864" height="911" viewBox="0 0 3864 911" fill="none" xmlns="http://www.w3.org/2000/svg">
<path fill-rule="evenodd" clip-rule="evenodd" d="M1681 54V108H1811.25H1941.49L1884.75 164.753C1853.54 195.968 1828 221.946 1828 222.484C1828 223.021 1865.07 260.595 1910.37 305.98C1997.82 393.595 1998.71 394.573 2007.08 412.422C2027.64 456.293 2018.5 508.322 1984.3 542.229C1970.51 555.897 1957.06 564.346 1940 570.062C1926.95 574.433 1917.65 575.924 1903.16 575.965C1865.9 576.07 1831.45 558.327 1809.69 527.823C1781.71 488.6 1780.9 437.57 1807.61 397.259C1812.66 389.636 1826.04 375.29 1856.86 344.477C1857.58 343.753 1782.85 269 1781.41 269C1779.77 269 1737.53 312.205 1730.08 321.5C1706.08 351.42 1690.92 385.308 1683.31 426.014C1681.65 434.898 1681.52 450.6 1681.25 673.25L1680.96 911H1734.48H1788V781.417C1788 710.146 1788.34 651.992 1788.75 652.187C1789.16 652.381 1796.93 656.212 1806 660.7C1846.85 680.901 1887.53 687.476 1933.95 681.379C2013.25 670.962 2083.21 614.73 2111.42 538.722C2120.5 514.277 2124.07 495.152 2124.73 467.43C2125.29 444.048 2123.84 428.11 2119.5 410.219C2111.51 377.216 2095.29 344.58 2074.65 320C2070.73 315.325 2047.6 291.479 2023.25 267.01L1978.99 222.519L2044.49 157.006L2110 91.493L2064.25 45.747L2018.49 0H1849.75H1681V54ZM406 411.5V644H431H456L456.02 558.25C456.032 506.829 456.438 469.698 457.035 465.5C461.548 433.759 477.077 409.957 500.5 398.883C521.554 388.928 550.527 388.634 570 398.177C587.342 406.676 597.461 421.36 603.302 446.5C605.331 455.231 605.404 458.32 605.739 549.75L606.086 644H630.575H655.064L654.772 543.75C654.48 443.689 654.476 443.48 652.194 432.7C646.562 406.086 637.022 387.734 621.011 372.711C608.008 360.511 591.981 352.898 572 349.433C557.387 346.898 530.789 347.881 518 351.427C492.708 358.441 472.106 373.636 459.494 394.579L456 400.382V289.691V179H431H406V411.5ZM1307.75 293.108L1307.5 407.215L1302.51 399.858C1290.62 382.341 1270.46 365.379 1252.04 357.396C1237.11 350.926 1226.67 348.785 1207.5 348.26C1182.56 347.578 1164.41 351.239 1144.5 360.969C1110.51 377.576 1084.63 406.279 1070.39 443.147C1054.81 483.489 1057.61 538.247 1077.25 577.5C1096.47 615.914 1127.22 640.72 1167.5 650.315C1175.34 652.184 1179.39 652.455 1199 652.426C1220.91 652.393 1221.8 652.312 1233 649.316C1263.11 641.264 1287.46 623.727 1304.53 597.815L1308 592.546V606.116C1308 613.579 1308.29 625.157 1308.65 631.843L1309.31 644H1333.15H1357V411.5V179H1332.5H1308.01L1307.75 293.108ZM0 230V252H74.5H149V448V644H175H201V448V252H275.5H350V230V208H175H0V230ZM2423 426V644H2448H2473V561V478L2514.75 477.997C2537.71 477.995 2561.68 477.52 2568 476.942C2608.24 473.265 2640.31 458.186 2665.43 431.12C2675.49 420.295 2686.29 401.63 2690.98 387C2695.89 371.672 2697.34 361.444 2697.39 342C2697.43 322.027 2696.21 313.103 2691.32 297.626C2684.06 274.613 2667.32 251.659 2646.5 236.18C2633.8 226.737 2613.34 217.314 2596.22 213.019C2577.07 208.215 2573 208.012 2495.75 208.006L2423 208V426ZM754.332 212.792C745.285 216.022 739.204 221.87 734.823 231.555C731.889 238.04 731.65 251.042 734.323 258.72C736.616 265.305 743.694 273.271 750.392 276.805C755 279.236 756.528 279.5 766 279.5C775.451 279.5 777.006 279.233 781.563 276.828C787.615 273.634 793.432 267.461 796.363 261.122C799.477 254.387 799.42 236.629 796.263 229.766C793.461 223.677 786.179 216.414 780.196 213.744C773.563 210.782 761.233 210.329 754.332 212.792ZM2986.33 212.792C2977.29 216.022 2971.2 221.87 2966.82 231.555C2963.89 238.04 2963.65 251.042 2966.32 258.72C2968.62 265.305 2975.69 273.271 2982.39 276.805C2987 279.236 2988.53 279.5 2998 279.5C3007.45 279.5 3009.01 279.233 3013.56 276.828C3019.61 273.634 3025.43 267.461 3028.36 261.122C3031.48 254.387 3031.42 236.629 3028.26 229.766C3025.46 223.677 3018.18 216.414 3012.2 213.744C3005.56 210.782 2993.23 210.329 2986.33 212.792ZM2558.79 252.055C2595.52 256.044 2622.25 272.34 2635.05 298.554C2648.11 325.301 2647.53 364.107 2633.68 390.463C2630.65 396.232 2627.16 400.777 2621 406.963C2611.14 416.867 2602.16 422.349 2588.14 427.022C2569.93 433.091 2568.51 433.228 2518.75 433.713L2473 434.158V342.579V251H2511.04C2531.96 251 2553.45 251.475 2558.79 252.055ZM3224.62 349.554C3195.23 355.394 3171.43 372.116 3157.36 396.809L3153 404.452V380.726V357H3129.5H3106V500.5V644H3131H3156L3156.01 557.75C3156.01 487.754 3156.28 469.71 3157.45 462C3162.9 426.074 3182.33 401.816 3212.02 393.861C3223.06 390.905 3243.99 390.667 3253.92 393.385C3261.9 395.571 3271.18 400.159 3276.74 404.678C3286.13 412.299 3295.15 429.099 3298.38 445C3301.43 459.958 3302 478.327 3302 561.145V644H3326.46H3350.91L3351.27 553.75C3351.62 466.069 3351.69 463.258 3353.73 455C3358.67 434.994 3365.23 422.542 3376.91 410.989C3385.6 402.391 3394.42 397.29 3406.54 393.849C3413.03 392.008 3416.99 391.592 3428 391.595C3450.24 391.602 3462.24 396.023 3475.02 408.914C3485.44 419.431 3490.72 430.625 3494.61 450.5C3496.21 458.612 3496.42 468.599 3496.75 551.75L3497.11 644H3521.56H3546V550.961C3546 492.581 3545.61 454.304 3544.95 448.211C3539.16 394.856 3514.31 362.444 3470.3 350.833C3462.47 348.767 3459.24 348.511 3441 348.506C3422.64 348.501 3419.57 348.746 3411.57 350.861C3392.42 355.92 3375.51 365.426 3362.46 378.468C3355.09 385.84 3346.33 398.253 3343.29 405.639C3342.31 408.033 3341.28 409.994 3341 409.995C3340.72 409.997 3338.94 406.539 3337.04 402.312C3331.94 390.971 3324.96 380.871 3316.57 372.726C3304.45 360.955 3290.26 353.681 3272.34 350.056C3260.25 347.608 3235.72 347.35 3224.62 349.554ZM3707.5 349.555C3678.88 354.391 3655.29 366.659 3634.29 387.626C3617.51 404.371 3605.5 423.996 3598.55 446C3587.56 480.787 3587.57 522.982 3598.58 557.08C3615.47 609.42 3659.18 643.466 3719.86 651.545C3732.24 653.193 3764.4 653.438 3777.5 651.985C3805.05 648.929 3838.99 638.887 3852.91 629.68L3856.64 627.209L3853.82 606.939C3852.27 595.79 3850.84 586.503 3850.63 586.3C3850.43 586.096 3846.72 587.557 3842.38 589.545C3823.81 598.062 3796.24 605.66 3775.5 607.978C3763.81 609.284 3740.67 609.278 3730.2 607.966C3701.36 604.35 3676.11 591.435 3661.2 572.67C3651.33 560.255 3642.85 540.947 3640.48 525.5C3640.14 523.3 3639.64 520.263 3639.35 518.75L3638.84 516H3750.27H3861.7L3862.35 507.75C3868.87 423.916 3827.63 361.616 3757.62 349.533C3746.6 347.631 3718.81 347.643 3707.5 349.555ZM993.624 354.573C966.495 360.645 943.099 379.561 929.5 406.419L925.5 414.32L925.235 385.66L924.969 357H901.485H878V500.5V644H902.952H927.904L928.262 560.75C928.615 478.71 928.653 477.356 930.868 467.568C936.439 442.949 947.062 424.531 962.507 412.71C969.985 406.986 977.348 403.574 988.084 400.859C999.776 397.903 1018.5 398.581 1031.41 402.428C1036.31 403.888 1040.63 404.727 1041.02 404.292C1041.41 403.856 1042.78 393.711 1044.06 381.748C1045.77 365.847 1046.1 359.698 1045.29 358.889C1040.58 354.176 1007.68 351.428 993.624 354.573ZM2867 354.496C2851.09 357.697 2836.51 365.643 2823.33 378.283C2814.93 386.347 2805.81 398.907 2801.15 408.848L2798.5 414.5L2798.24 385.75L2797.97 357H2774.49H2751V500.5V644H2776H2801L2801 566.25C2801 515.912 2801.39 485.327 2802.1 479.5C2805.51 451.6 2816.94 427.901 2833.78 413.829C2840.23 408.436 2852.89 402.517 2862.38 400.455C2873.8 397.972 2892.34 398.842 2904.38 402.425C2909.27 403.879 2913.54 404.796 2913.88 404.463C2914.22 404.13 2915.64 393.762 2917.04 381.421L2919.58 358.985L2914.54 357.104C2903.63 353.032 2880.56 351.767 2867 354.496ZM741 500.5V644H766H791V500.5V357H766H741V500.5ZM2973 500.5V644H2998H3023V500.5V357H2998H2973V500.5ZM3748.38 391.559C3782.44 397.517 3805.16 420.182 3812.48 455.5C3813.39 459.9 3814.4 466.538 3814.72 470.25L3815.29 477H3727.53H3639.77L3640.44 472.25C3641.73 463.151 3646.04 448.702 3649.99 440.286C3662.83 412.891 3686.01 395.218 3714.5 391.109C3724.26 389.702 3738.87 389.896 3748.38 391.559ZM1237.9 394.989C1271.19 403.823 1296.18 429.157 1306.45 464.467C1312.35 484.777 1312.32 516.305 1306.38 536.775C1297.67 566.767 1275.84 591.954 1249.81 602.024C1232.4 608.758 1210.7 610.823 1191.88 607.535C1152.09 600.583 1122.77 570.877 1113.37 527.997C1110.56 515.175 1110.78 484.057 1113.77 471.204C1123.39 429.857 1152.36 400.807 1191.34 393.422C1202.4 391.327 1227.25 392.163 1237.9 394.989Z" fill="white"/>
</svg>
