<svg xmlns="http://www.w3.org/2000/svg" width="160" height="40" fill="none"><path fill="#fff" fill-rule="evenodd" d="M.63 3.096C4.62 7.994 9 14.147 9.709 15.143l.081.114c.378.528.69.92.926 1.219.526.661.682.858.368 1.038a1.511 1.511 0 0 1-.774.193c-.295 0-.626-.143-.868-.375-.17-.164-1.34-1.88-2.93-4.378-1.218-1.912-2.237-3.497-2.265-3.524-.064-.061-.063-.059 2.14 3.93 1.384 2.503 2.33 4.354 2.33 4.472 0 .241-.065.368-.359.7-.49.552-.708 1.173-.866 2.457-.177 1.44-.675 2.458-2.055 4.2-.808 1.019-.94 1.205-1.144 1.616-.257.518-.327.807-.356 1.46-.03.691.029 1.138.237 1.798.183.578.374.96.86 1.724.421.658.663 1.148.663 1.34 0 .152.03.152.68.003 1.56-.356 2.827-.982 3.539-1.75.44-.476.544-.738.547-1.39.003-.425-.012-.515-.126-.76-.185-.399-.523-.73-1.266-1.244-.974-.674-1.39-1.217-1.505-1.963-.095-.611.015-1.043.554-2.186.558-1.183.696-1.687.79-2.88.06-.77.143-1.073.362-1.317.228-.254.434-.34.998-.418.92-.128 1.507-.369 1.989-.818.418-.39.592-.765.62-1.33l.02-.428-.234-.276C11.818 15.373.064 2.311.012 2.311c-.011 0 .267.353.619.785Zm5.541 25.951a.763.763 0 0 0-.23-.998c-.302-.203-.772-.108-.772.157 0 .081.045.14.144.192.168.087.18.185.048.386-.134.203-.123.382.03.503.247.196.597.088.78-.24Zm5.756-18.684c-.377-.06-.393-.066-.215-.094.34-.053 1.143.02 1.697.152 1.293.311 2.469 1.108 3.725 2.522l.333.376.477-.078c2.01-.327 4.056-.067 5.766.733.47.22 1.213.657 1.305.77.03.036.084.266.12.513.128.852.064 1.505-.193 1.993-.14.265-.148.35-.054.577a.55.55 0 0 0 .493.315c.425 0 .882-.696 1.094-1.663l.084-.385.167.191c.915 1.05 1.634 2.48 1.758 3.498l.032.265-.154-.241c-.265-.415-.53-.698-.871-.926-.614-.411-1.264-.55-2.982-.642-1.553-.083-2.432-.217-3.303-.505-1.483-.489-2.23-1.14-3.991-3.478-.782-1.038-1.266-1.613-1.747-2.075-1.092-1.051-2.166-1.602-3.54-1.818Zm13.439 2.318c.039-.696.132-1.154.32-1.573.074-.167.143-.302.154-.302.01 0-.021.122-.072.272-.136.407-.159.963-.065 1.61.12.821.188.94 1.045 1.827.403.416.87.94 1.04 1.166l.31.41-.31-.293c-.377-.358-1.244-1.056-1.436-1.156-.129-.067-.148-.066-.227.014-.073.073-.088.184-.099.706-.015.815-.125 1.338-.39 1.86-.143.283-.166.223-.036-.097.097-.238.106-.343.106-1.13-.002-1.585-.188-1.966-1.278-2.618a11.88 11.88 0 0 0-1.01-.53c-.28-.126-.503-.236-.495-.244.031-.03 1.094.283 1.522.45.636.247.741.28.819.25.051-.02.076-.173.102-.622Zm-13.843-1.216c-.103 1.223.371 2.859 1.137 3.926.594.827 1.515 1.47 2.194 1.532.445.04.579-.1.378-.398-.28-.413-.624-1.049-.715-1.321-.056-.17-.179-.669-.272-1.11-.32-1.507-.634-2.094-1.36-2.54a4.35 4.35 0 0 0-1.156-.435l-.174-.032-.032.378Zm12.914 11.867c-3.58-1.459-4.841-2.724-4.841-4.86 0-.314.01-.572.023-.572.014 0 .152.104.308.231.726.59 1.54.84 3.79 1.173 1.324.195 2.069.353 2.757.584 2.184.733 3.536 2.22 3.859 4.247.094.59.039 1.693-.113 2.275-.12.46-.486 1.288-.583 1.32-.027.009-.054-.095-.06-.237-.037-.761-.417-1.502-1.056-2.057-.725-.63-1.7-1.133-4.084-2.104Zm-2.687-.16c.05.15.128.495.173.765.287 1.727-.609 3.122-2.351 3.662-.185.058-.911.201-1.615.32-1.424.24-2.06.41-2.699.721-.453.22-1.001.551-.968.584.01.01.114-.014.23-.055.805-.286 1.701-.434 3.063-.506.54-.029 1.155-.074 1.366-.1 1.213-.155 2.054-.528 2.708-1.201.364-.375.58-.724.755-1.216.111-.313.126-.429.127-.982 0-.563-.013-.667-.133-1.013-.157-.455-.342-.796-.577-1.063l-.17-.192.091.275Zm1.814 3.714c-.475-1.034-.584-2.033-.324-2.964.028-.1.073-.182.1-.182.027 0 .139.062.25.137.218.15.658.4 1.83 1.047 1.46.806 2.294 1.43 2.86 2.143.497.625.804 1.336.951 2.203.084.492.035 1.674-.09 2.169-.392 1.56-1.306 2.785-2.608 3.5-.19.105-.362.19-.38.191-.02 0 .05-.178.154-.398.438-.926.488-1.828.157-2.83-.203-.615-.617-1.365-1.452-2.632-.97-1.473-1.209-1.865-1.448-2.384Zm-8.96 3.393c-1.504.247-3.158 1.053-4.486 2.188l-.396.338.348.055c1.814.287 2.302.54 3.56 1.852.724.754.969.922 1.57 1.077.882.228 1.751-.19 2.05-.986.133-.356.115-.945-.038-1.24-.364-.705-1.423-.933-1.935-.417-.427.43-.303 1.077.228 1.188.121.026.118.02-.031-.048-.232-.106-.333-.253-.334-.488-.003-.55.618-.858 1.197-.594.423.194.591.446.591.889 0 .682-.573 1.196-1.241 1.112a1.818 1.818 0 0 1-1.027-.544c-.59-.673-.36-1.736.462-2.144.626-.31 1.458-.234 2.103.193.742.491 1.057.94 1.695 2.413.208.48.476 1.02.595 1.2.604.916 1.33 1.365 2.202 1.365.481 0 .844-.088 1.3-.319.338-.17.818-.496.783-.53-.01-.01-.15.034-.312.098-.953.376-1.922.35-2.485-.067-.354-.262-.64-.785-.787-1.438-.025-.113-.109-.613-.186-1.11-.196-1.261-.383-1.828-.821-2.479-.448-.665-1.31-1.223-2.273-1.473-.601-.155-1.682-.198-2.331-.091Zm-2.108-9.75c.13-.485.55-.948.982-1.083.275-.085.843-.03 1.11.107.518.266.894.872.812 1.31-.1.534-.955.96-1.939.968-.503.003-.688-.065-.88-.324-.12-.16-.164-.68-.085-.977Zm1.96-.786c.258.16.324.395.173.613-.105.15-.428.293-.665.293-.355 0-.743-.255-.743-.489 0-.47.744-.72 1.235-.417Zm77.136 1.345c-.803-2.675.52-4.893 3.346-5.606.81-.204 4.478-.112 5.107.129.231.088.331.427.333 1.123.002.548.062 1.214.133 1.48.108.402.045.481-.379.475-.384-.006-.616-.232-.94-.913-.517-1.088-1.143-1.433-2.602-1.438-1.864-.005-3.227 1.252-3.005 2.77.145.987 1.13 1.96 3.342 3.296 2.104 1.27 3.332 2.316 3.821 3.253 1.309 2.503.191 5.183-2.724 6.533-1.497.693-4.005.765-5.768.165l-1.13-.384v-1.807c0-1.637.04-1.808.412-1.808.312 0 .447.206.556.852.272 1.607 1.49 2.583 3.227 2.583 1.7 0 2.89-.931 3.345-2.619.194-.719.16-.984-.224-1.777-.461-.95-1.255-1.582-3.952-3.14-1.496-.865-2.554-2.02-2.898-3.167ZM38.73 16.55c-.368 0-.512-.12-.512-.43 0-.408.144-.429 3.027-.429 2.676 0 3.019.04 2.957.348-.038.192-.408.457-.822.59l-.753.243-.064 5.474c-.043 3.652.017 5.76.182 6.332.488 1.704 1.977 2.683 4.078 2.683 1.463 0 2.318-.342 3.391-1.36 1.155-1.093 1.34-2.132 1.336-7.533-.004-5.328-.096-5.768-1.239-5.878-.52-.05-.694-.172-.694-.483 0-.388.172-.416 2.581-.416 2.438 0 2.581.024 2.581.43 0 .264-.145.43-.376.432-.996.009-1.015.104-1.149 5.945-.139 6.067-.269 6.785-1.496 8.271-.354.429-1.199 1.051-1.876 1.384-1.105.54-1.456.603-3.383.6-1.777-.004-2.338-.09-3.227-.495-1.297-.591-2.14-1.357-2.762-2.507-.434-.802-.47-1.237-.571-6.676-.115-6.225-.171-6.525-1.21-6.525Zm20.125 0c-.491 0-.635-.097-.635-.43 0-.402.138-.428 2.205-.411l2.204.017 1.055 1.217c.58.67 2.47 2.762 4.2 4.651 1.73 1.89 3.717 4.087 4.415 4.884.697.797 1.354 1.449 1.459 1.449.108 0 .162-2.252.123-5.171l-.068-5.17-.603-.518c-.332-.285-.84-.518-1.13-.518-.384 0-.525-.117-.525-.436 0-.419.11-.433 2.957-.375 2.421.049 2.958.116 2.958.373 0 .182-.3.374-.72.46-.395.08-.83.258-.967.395-.177.176-.267 2.455-.31 7.858l-.062 7.61h-.624c-.536 0-1.175-.605-4.59-4.347-2.182-2.391-4.73-5.233-5.66-6.315-.931-1.082-1.765-1.975-1.854-1.985-.25-.028-.19 9.64.066 10.558.2.715.336.838 1.182 1.064.681.181.957.366.957.64 0 .352-.26.385-3.011.385-2.801 0-3.012-.029-3.012-.403 0-.274.203-.443.636-.53 1.313-.261 1.4-.677 1.474-7.037.041-3.562-.02-6.054-.16-6.576-.248-.918-.864-1.34-1.96-1.34Zm22.553 0c-.461 0-.605-.102-.605-.43 0-.41.144-.429 3.227-.429 3.082 0 3.226.02 3.226.43 0 .314-.144.429-.538.429-.296 0-.735.197-.977.438-.426.425-.437.637-.376 7.208.06 6.416.085 6.787.48 7.075.23.168.64.305.914.305.353 0 .497.124.497.43 0 .41-.144.428-3.227.428-3.009 0-3.226-.026-3.226-.401 0-.302.212-.436.852-.538 1.273-.203 1.338-.62 1.259-8.04-.064-5.943-.09-6.313-.485-6.6-.23-.168-.69-.305-1.022-.305Zm22.504 0c-.295 0-.518-.163-.588-.43-.109-.415-.006-.429 3.094-.429 3.062 0 3.206.02 3.206.43 0 .33-.144.429-.619.429-1.354 0-1.324.245.725 5.86 1.043 2.857 2.056 5.571 2.251 6.031l.353.837 1.643-4.379c1.934-5.154 2.185-6.107 1.857-7.047-.229-.655-1.119-1.302-1.791-1.302-.189 0-.333-.185-.333-.43 0-.41.144-.429 3.334-.429s3.333.019 3.333.43c0 .305-.143.429-.496.429-.904 0-1.303.481-1.173 1.416.134.963 3.833 11.308 3.988 11.153.252-.252 4.349-11.388 4.349-11.822 0-.52-.365-.747-1.201-.747-.376 0-.52-.119-.52-.43 0-.405.144-.429 2.581-.429 2.189 0 2.581.05 2.581.333 0 .184-.268.427-.596.54-.737.257-.922.55-1.847 2.922l-2.825 7.243c-.733 1.878-1.465 3.756-2.196 5.635-.06.157-.416.285-.791.285h-.68l-1.545-4.025c-.746-1.941-1.49-3.884-2.231-5.827-.646-1.7-.701-1.773-.944-1.288-.142.283-1.162 2.91-2.268 5.838l-2.011 5.323-.75-.064-.751-.064-2.862-7.496c-1.599-4.188-3.069-7.717-3.332-7.997-.259-.274-.684-.5-.945-.5Zm43.005.09c-.036-.08-.036-.374-.036-.374s-.008-.105.036-.162c.044-.056.06-.057.218-.072h.001a60.765 60.765 0 0 1 3.014-.205h.004c1.071-.049 2.985-.114 4.302-.048 2.525.127 4.321 1.349 4.933 3.37.612 2.02.288 3.916-.546 5.123-.834 1.207-2.237 2.247-4.569 2.179-1.925-.056-2.44-.417-2.852-.705-.087-.061-.169-.12-.259-.17v2.576c.02 1.758.035 2.601.171 2.914.183.42.596.68 1.402.878 0 0 .365.086.459.177.094.091.094.294.094.294s.02.19-.056.286c-.076.097-.222.078-.222.078l-3.569-.03-2.153-.005s-.226.043-.31-.048c-.085-.09-.077-.28-.077-.28s.018-.205.117-.296c.099-.092.467-.194.467-.194.83-.234 1.19-.48 1.378-.946.151-.375.152-1.07.151-6.746-.002-5.382-.01-6.386-.133-6.675-.182-.427-.639-.54-1.289-.702-.129-.032-.266-.065-.409-.104 0 0-.231-.03-.267-.112Zm10.394 4.393c0 .882-.015 2.264-.953 3.147-.939.883-2.785 1.125-4.039.88-.395-.078-.621-.198-.796-.29l-.017-.01-.321-.168-.019-3.101c-.011-1.943.009-3.209.055-3.39.042-1.024 1.55-1.152 2.287-1.114 3.154 0 3.711 2.662 3.803 4.046Zm-20.298-5.222s-.154.06-.388.148l-.842.436-.606 1.516c-.333.834-.944 2.365-1.356 3.402a886.273 886.273 0 0 1-1.768 4.426l-1.029 2.578c-.413 1.038-.825 2.024-.917 2.194l-.048.09c-.231.435-.632 1.19-1.34 1.304 0 0-.389.038-.534.18-.144.143-.13.26-.13.26v.18s.013.087.095.13a.5.5 0 0 0 .192.046l2.59-.03h2.678s.189.023.262-.038a.303.303 0 0 0 .093-.15v-.19s-.037-.205-.143-.285c-.106-.08-.504-.135-.504-.135-1.071-.14-1.256-.953-1.124-1.683.066-.359.496-1.686.981-3.021l.168-.462 2.805-.022c1.543-.011 2.875-.003 2.96.018.122.031.293.378.793 1.613.759 1.87.819 2.099.651 2.449l-.033.07c-.157.338-.463.996-1.234 1.063 0 0-.409.014-.511.137-.101.122-.079.263-.079.263v.188s.027.11.079.153c.053.043.142.032.142.032l2.546-.018h3.579s.141.015.179-.039a.294.294 0 0 0 .046-.118v-.249s-.016-.132-.084-.205c-.069-.073-.533-.15-.533-.15-.593-.095-.889-.586-1.108-.95a3.363 3.363 0 0 0-.158-.247c-.102-.14-.466-.901-.751-1.635l-1.429-3.68-1.553-4.003a6842 6842 0 0 1-1.7-4.383v-.001c-.314-.81-.44-1.137-.475-1.181-.113-.144-.462 0-.462 0Zm-.167 4.93c-.149-.364-.296-.73-.441-1.096-.237-.596-.326-.734-.399-.61-.022.035-.171.443-.331.905a608.179 608.179 0 0 1-1.602 4.594c-.06.16-.108.324-.108.366 0 .047.844.075 2.291.075 1.26 0 2.291-.016 2.291-.035 0-.019-.112-.305-.25-.635-.137-.33-.474-1.154-.747-1.831-.274-.678-.59-1.457-.704-1.732Z" clip-rule="evenodd"/></svg>