<svg width="271" height="64" viewBox="0 0 271 64" fill="none" xmlns="http://www.w3.org/2000/svg">
<path fill-rule="evenodd" clip-rule="evenodd" d="M0 19.7411C0 32.3221 0.0536913 39.9258 0.147795 40.7052C0.518871 43.774 1.29898 46.4616 2.6046 49.1679C6.20524 56.632 12.9187 61.8448 21.2083 63.6133C22.8816 63.9703 23.2815 64 26.4126 64C29.5446 64 29.9426 63.9704 31.6086 63.6138C35.1815 62.8487 38.1992 61.596 41.0623 59.6894C46.9714 55.7545 50.9159 49.8847 52.4161 42.7943L52.752 41.2066L52.7924 20.6033L52.8328 0H26.4164H0V19.7411ZM22.8578 3.7887C22.9055 3.96738 22.9457 4.29501 22.9467 4.51685C22.9478 4.75586 23.1001 5.0718 23.3199 5.29162L23.6913 5.66299L24.0777 5.29278C24.6684 4.727 25.4257 4.47427 26.5308 4.47427C27.5068 4.47427 28.4333 4.68298 28.4333 4.90279C28.4333 4.96413 28.1211 5.05578 27.7396 5.10644C26.8977 5.21816 25.7793 5.75796 25.7197 6.08126C25.6403 6.51194 26.4731 6.63924 29.3714 6.63924C31.0597 6.63924 32.3346 6.70347 32.6335 6.80349C33.2115 6.99704 34.0622 7.59962 34.0622 7.81554C34.0622 7.89868 33.8674 8.1488 33.6292 8.37122C32.9752 8.98217 33.0644 9.24226 34.1002 9.74237C34.808 10.0841 35.0676 10.3043 35.3333 10.7875C35.7009 11.4557 35.6602 11.9109 35.2208 12.0505C35.0722 12.0976 34.7147 12.3973 34.4264 12.7165C33.9765 13.2145 33.9083 13.3801 33.9462 13.8854C33.9895 14.4655 34.001 14.4767 34.7507 14.6678C36.3276 15.0698 37.4039 15.9352 37.7418 17.0734C37.8613 17.4758 37.9592 17.9232 37.9592 18.0677C37.9592 18.4998 37.5962 18.3647 37.3456 17.8392C37.067 17.2551 36.3678 16.702 35.594 16.4539C34.966 16.2526 33.2179 16.3237 32.5841 16.5766C32.2253 16.7196 32.2038 16.7681 32.3533 17.0963C32.4441 17.2955 33.0442 17.8131 33.6872 18.2467C34.9133 19.0737 35.1945 19.3951 35.3693 20.17C35.5221 20.8479 35.29 20.8835 34.6265 20.284C33.962 19.6836 33.5195 19.4847 32.8484 19.4847C32.1915 19.4847 31.8332 19.9042 31.959 20.5255C32.2682 22.0508 32.3294 21.9108 31.2477 22.1527C30.7593 22.262 29.8766 22.7691 29.8766 22.9406C29.8766 23.0025 30.38 23.0973 30.9952 23.1515C32.9363 23.3219 33.6292 23.4185 33.6292 23.5187C33.6292 23.5721 33.3045 23.6991 32.9076 23.8007C32.2475 23.9698 31.6086 24.4834 31.6086 24.8445C31.6086 24.9132 32.2581 24.9693 33.0519 24.9693C34.1543 24.9693 34.4952 25.0145 34.4952 25.1607C34.4952 25.451 33.9502 25.8952 32.8716 26.4844C31.7695 27.0862 31.3697 27.5159 31.2327 28.2458C31.1414 28.7331 31.1796 28.7889 32.3204 29.8388C33.2098 30.657 33.8089 31.3957 34.7381 32.8192C36.8595 36.0694 36.9999 36.2659 37.8622 37.1904C38.7546 38.1471 39.969 38.8692 40.9703 39.0383C42.2764 39.259 43.325 38.5373 43.807 37.0859C44.3644 35.4075 43.4254 33.6637 40.9901 31.8551C38.3432 29.8893 37.4824 28.7928 37.0857 26.8813C36.5968 24.5267 37.607 22.629 40.0603 21.2938C43.4287 19.4606 44.4671 18.5785 45.0308 17.0715C45.8795 14.8035 45.5967 13.1394 44.2547 12.5024C42.9331 11.8753 41.2157 12.6446 40.9187 13.9967C40.866 14.2367 40.7409 14.4331 40.6407 14.4331C40.4186 14.4331 39.6911 13.1337 39.6911 12.7368C39.6911 12.5793 40.4015 11.5295 40.4015 11.5295C40.4015 11.5295 41.3993 10.085 40.7805 8.9191C40.1692 7.76705 40.1166 7.021 40.5877 6.18272C41.1196 5.23649 41.6519 5.0057 43.1278 5.08176C44.1378 5.13387 44.6066 5.24183 45.5366 5.63686C46.2292 5.93087 46.9367 6.12846 47.3046 6.13062C47.9742 6.13437 47.997 6.16367 47.7516 6.70217C47.4606 7.34084 46.659 7.35267 44.0626 6.75702C43.3885 6.60244 43.2799 6.61211 43.0162 6.85069C42.8544 6.99719 42.7221 7.22407 42.7221 7.35498C42.7221 7.84802 43.4879 9.09894 44.4606 10.1948C45.8379 11.7467 46.157 12.3273 46.3347 13.6047C46.6088 15.5755 46.2087 17.6559 45.296 19.0045C44.7515 19.8093 44.211 20.235 42.2122 21.4332C39.318 23.1682 38.3395 24.3125 38.1459 26.1876C38.0564 27.0548 38.3103 27.6533 39.2369 28.7599C39.9268 29.5837 40.7153 30.2566 42.0726 31.1799C43.3785 32.0683 43.9196 32.6476 44.3757 33.6457C44.8263 34.6319 45.0946 36.5297 44.9035 37.3798C44.7198 38.1979 44.1362 39.0336 43.4165 39.5094C42.8546 39.8811 42.7124 39.9076 41.2889 39.9076C39.9499 39.9076 39.5835 39.8487 38.293 39.4263C37.2815 39.095 36.7495 38.9859 36.5879 39.0764C36.2803 39.2485 34.6395 44.0492 34.619 44.8367C34.6073 45.287 34.7514 45.7035 35.1988 46.5142C35.5263 47.1074 35.7942 47.7598 35.7942 47.9639C35.7942 48.168 35.0185 49.9581 34.0706 51.942C33.1225 53.9257 32.3038 55.778 32.2513 56.0582C32.1364 56.6708 32.0061 56.7899 31.2212 56.9998C30.7546 57.1245 30.4298 57.3749 29.7913 58.1022L28.965 59.0432L27.9514 59.0014C26.9789 58.9611 26.9332 58.9431 26.8308 58.5581C26.7267 58.1674 26.7628 58.1374 28.192 57.4234C30.8533 56.0938 31.5891 55.3333 32.1257 53.3574C32.3022 52.7075 32.619 51.7007 32.8298 51.1199C33.313 49.788 33.352 48.6437 32.9416 47.8431C32.5629 47.1046 32.1993 46.785 30.9591 46.1013C29.6748 45.3934 29.4546 45.1477 28.547 43.4123C27.669 41.7334 26.8924 40.9278 26.0079 40.7784C24.3868 40.5046 23.5233 42.1853 24.2377 44.2241C24.402 44.6929 24.5363 45.1907 24.5363 45.3304C24.5363 45.7237 23.451 46.5854 21.4074 47.8142L19.5396 48.9373L18.7303 48.8422C17.9898 48.7551 17.8894 48.7785 17.5514 49.1165C17.3342 49.3338 17.1428 49.7307 17.0871 50.0797L16.9921 50.6733L15.3879 50.5809C14.5056 50.53 13.5239 50.4226 13.2063 50.3421L12.629 50.1959L13.4228 49.9469C14.5291 49.5999 15.4917 49.0862 17.6462 47.6933C18.6698 47.0314 19.8108 46.3767 20.1817 46.2383C21.1811 45.8652 21.4733 45.6382 21.6524 45.0952C21.7971 44.6573 21.7751 44.5544 21.4461 44.1228C20.5573 42.9576 19.9001 40.9488 19.8909 39.3696C19.885 38.3425 20.0927 37.8134 20.7348 37.219C21.3199 36.6775 21.5898 36.5674 22.785 36.3832C23.8943 36.2123 24.2171 36.0928 24.5972 35.7126C25.0269 35.2831 24.8591 35.1092 23.7786 34.8647C21.2503 34.2924 18.9729 33.1134 18.1858 31.9694C17.6888 31.2472 17.5399 31.175 16.5502 31.1775C15.6789 31.1796 12.3722 32.2719 11.5101 32.8423C10.809 33.3063 10.2097 34.1295 9.48517 35.6236C8.70405 37.2348 8.71834 37.6744 9.60929 39.4449L10.2965 40.8103L9.98326 41.2083C9.57624 41.7259 9.58793 41.8991 10.0789 42.6239C10.7803 43.6594 10.7859 43.6392 9.5289 44.5961C8.90164 45.0737 8.35202 45.4644 8.30757 45.4644C8.26326 45.4644 8.22689 42.6519 8.22689 39.2144V32.9643L10.5281 31.2401C11.7938 30.2917 13.4012 29.1857 14.1003 28.7823L15.3713 28.0486L15.4095 23.7699L15.4478 19.4914L15.1209 19.424C14.941 19.3869 14.2744 19.2498 13.6393 19.1194C9.72721 18.3159 5.75738 16.8482 4.60432 15.779C4.27365 15.4725 4.23598 15.3418 4.28606 14.6795C4.31724 14.2661 4.37714 13.7077 4.41899 13.4384L4.49506 12.949L5.17024 13.6025C6.46807 14.8586 7.56816 15.3657 11.8352 16.6746C15.6794 17.8538 16.5883 18.3092 17.7528 19.6397C19.5247 21.6641 19.5202 21.6627 21.1051 20.7306C21.7979 20.3233 22.9174 19.6776 23.5926 19.2958C25.0188 18.4896 26.3099 17.3655 26.7097 16.5818C27.047 15.9206 27.0719 14.9089 26.769 14.1837C26.4175 13.3424 25.8619 12.7012 25.4846 12.7012C25.1995 12.7012 25.0265 12.9504 24.3451 14.3408C23.1529 16.7736 21.9454 17.9541 20.2601 18.3343C19.8203 18.4334 19.7396 18.4082 19.6403 18.1397C19.5775 17.9701 19.5803 17.635 19.6462 17.3951C20.0186 16.043 20.1824 11.1432 19.8756 10.5368C19.4683 9.73169 17.8181 9.18049 15.0465 8.92386C13.7561 8.80421 13.2785 8.70838 13.2785 8.56852C13.2785 8.41683 13.901 8.36891 16.2734 8.33802L19.2682 8.29905L19.3501 6.85574C19.427 5.49787 19.7818 3.99798 20.068 3.82117C20.1384 3.77759 20.3581 3.9987 20.5563 4.31248C20.7543 4.62625 20.9881 4.92733 21.0756 4.98145C21.2854 5.11106 21.733 4.69452 22.116 4.0127C22.4652 3.3915 22.7299 3.31154 22.8578 3.7887ZM127.194 4.97236C125.28 5.40752 123.753 6.58108 122.993 8.20163C122.658 8.91737 122.61 9.20271 122.61 10.464C122.61 11.7505 122.653 11.9962 123.011 12.725C123.531 13.7831 124.87 15.0363 126.445 15.9388C129.387 17.6242 129.97 18.0115 130.607 18.7071C131.353 19.5205 131.63 20.2291 131.63 21.3235C131.63 22.7396 131.015 23.8027 129.826 24.4388C128.938 24.9142 127.188 24.8787 126.218 24.3656C124.94 23.6898 123.818 22.2484 123.256 20.5591L122.955 19.6536L122.51 19.7812C122.265 19.8513 122.036 19.9378 122.001 19.9732C121.838 20.1357 122.653 24.7676 122.876 24.9464C122.968 25.02 123.53 25.2596 124.125 25.4787C125.572 26.0113 128.195 26.1452 129.744 25.7656C131.645 25.2998 133.304 23.9984 134.07 22.3714C134.402 21.6672 134.445 21.3981 134.445 19.9899C134.445 18.5095 134.417 18.3514 134.028 17.6504C133.221 16.1941 132.08 15.3043 128.718 13.5104C126.169 12.15 125.276 11.0604 125.283 9.31717C125.286 8.42246 125.63 7.41834 126.117 6.87912C126.786 6.13928 128.274 5.76691 129.423 6.05153C130.842 6.40341 131.758 7.3814 132.359 9.18741C132.668 10.1145 132.672 10.1192 133.124 10.0225C133.374 9.96897 133.6 9.90604 133.626 9.8828C133.746 9.77484 133.131 5.70715 132.97 5.54637C132.407 4.98261 128.748 4.61904 127.194 4.97236ZM174.354 4.95143L173.85 5.12376L170.529 13.5071C168.702 18.1179 167.052 22.2223 166.862 22.628C166.308 23.8106 165.334 24.5363 164.3 24.5363C164.008 24.5363 163.96 24.6075 163.96 25.0415V25.5467H167.352H170.744V25.0603C170.744 24.5939 170.718 24.571 170.121 24.5037C169.779 24.465 169.308 24.3406 169.075 24.227C168.685 24.0372 168.653 23.9631 168.673 23.3043C168.687 22.8562 168.977 21.7897 169.447 20.4564L170.2 18.3247L173.448 18.3636L176.695 18.4023L177.544 20.7694C178.71 24.0182 178.684 24.2786 177.173 24.4858C176.543 24.5721 176.517 24.5944 176.517 25.0611V25.5467H180.486H184.456V25.0415C184.456 24.5666 184.427 24.5363 183.981 24.5363C183.72 24.5363 183.217 24.3901 182.862 24.2116C182.351 23.9537 182.124 23.7089 181.761 23.0209C181.386 22.3096 177.301 11.2656 175.502 6.098C175.247 5.36379 174.997 4.76654 174.948 4.77102C174.898 4.77549 174.631 4.85675 174.354 4.95143ZM9.35022 8.38147L10.897 8.39172L9.97893 8.65411C8.83178 8.98203 8.55741 9.25539 8.13683 10.4896L7.8014 11.4743L7.79765 9.92278L7.79389 8.37122L6.02584 8.35982C4.93642 8.35275 4.39633 8.30468 4.6186 8.23439C4.81706 8.17175 5.35008 8.01212 5.80313 7.87963C6.79426 7.58981 7.13791 7.20315 7.47651 5.99697L7.72173 5.12376L7.76257 6.74749L7.80342 8.37122L9.35022 8.38147ZM62.9285 5.68839C62.9285 6.1566 62.9586 6.18561 63.5419 6.27582C64.6755 6.45132 65.0887 6.64487 65.3437 7.1203C65.5594 7.52197 65.5999 8.33009 65.679 13.7836C65.7536 18.926 65.8099 20.1326 66.0074 20.8223C66.9415 24.0841 69.1734 25.7616 72.8152 25.9387C75.1647 26.053 76.868 25.597 78.3701 24.4515C79.1324 23.8701 80.1055 22.6037 80.4815 21.704C81.1998 19.985 81.2869 19.2219 81.4019 13.6393C81.468 10.434 81.5781 8.05687 81.6774 7.69344C81.8893 6.9178 82.3712 6.54615 83.4372 6.33644C84.2757 6.17147 84.2895 6.16078 84.2895 5.68233V5.19593H80.5369H76.7843V5.68565C76.7843 6.17118 76.7918 6.17666 77.6525 6.32835C78.8677 6.5424 79.2666 6.76885 79.5988 7.43307C79.8714 7.97835 79.8874 8.29905 79.8874 13.2063C79.8874 17.7297 79.8539 18.533 79.6288 19.4126C79.0903 21.515 78.1411 22.8959 76.7179 23.6471C76.0524 23.9986 75.8493 24.0312 74.3307 24.0312C72.9341 24.0312 72.5638 23.9817 71.996 23.7193C70.4694 23.0138 69.3833 21.4927 68.8947 19.3759C68.6065 18.1273 68.4447 9.52789 68.6808 8.01097C68.8761 6.75687 69.1004 6.52796 70.3353 6.32345L71.2997 6.16353V5.67973V5.19593H67.1141H62.9285V5.68839ZM86.1178 5.2922C86.0648 5.34502 86.0215 5.56397 86.0215 5.7786C86.0215 6.13827 86.0862 6.18142 86.8514 6.3324C87.9147 6.54225 88.5075 6.90914 89.0106 7.66919L89.4133 8.2774L89.4614 12.9328C89.5165 18.2625 89.3234 22.655 89.0001 23.4286C88.7527 24.0211 88.1565 24.3793 87.1902 24.5164C86.5704 24.6043 86.5236 24.6414 86.4815 25.0786L86.4362 25.5467H90.198H93.9597V25.0617C93.9597 24.5812 93.9525 24.576 93.1822 24.4965C92.1881 24.3939 91.5721 24.0722 91.277 23.5016C90.9305 22.8315 90.7683 19.5894 90.8158 14.2829L90.8566 9.73053L97.4199 17.7829L103.983 25.8353H104.592H105.202L105.246 16.8507C105.286 8.73349 105.314 7.81323 105.537 7.31962C105.805 6.72902 106.321 6.43155 107.368 6.26398C107.926 6.17479 107.96 6.14116 107.96 5.68016V5.19102L104.243 5.22956L100.527 5.2681L100.483 5.72245C100.439 6.16973 100.451 6.17868 101.204 6.28087C102.351 6.43646 103.031 6.75514 103.291 7.25857C103.65 7.95353 103.787 10.4946 103.743 15.6813L103.702 20.4658L97.2997 12.8308L90.8972 5.19593H88.5555C87.2677 5.19593 86.1706 5.23923 86.1178 5.2922ZM110.414 5.67973V6.16353L111.379 6.32359C112.084 6.44035 112.444 6.5831 112.714 6.85314L113.084 7.22292L113.122 15.1941C113.158 22.572 113.142 23.2027 112.906 23.6703C112.618 24.2407 112.017 24.515 111.027 24.5283C110.424 24.5362 110.414 24.5447 110.414 25.0415V25.5467H114.671H118.929V25.0415C118.929 24.5447 118.919 24.5362 118.316 24.5283C117.326 24.515 116.725 24.2407 116.437 23.6703C116.201 23.2027 116.185 22.572 116.221 15.1941L116.259 7.22292L116.629 6.85314C116.899 6.5831 117.259 6.44035 117.964 6.32359L118.929 6.16353V5.67973V5.19593H114.671H110.414V5.67973ZM136.78 5.28989C136.726 5.34401 136.682 5.56773 136.682 5.78711C136.682 6.15357 136.745 6.19889 137.467 6.3487C138.396 6.54153 138.898 6.90077 139.277 7.64336C139.506 8.09266 141.088 13.137 144.529 24.392L144.992 25.9075H145.556H146.12L148.597 18.435C149.959 14.325 151.103 10.9332 151.138 10.8977C151.174 10.8621 152.138 13.4778 153.279 16.7104C154.422 19.943 155.621 23.3348 155.945 24.2477L156.534 25.9075H157.108C157.678 25.9075 157.684 25.9021 157.925 25.1137C158.059 24.6771 158.828 22.144 159.634 19.4847C161.583 13.0522 162.887 9.07195 163.4 7.98456C163.881 6.9663 164.368 6.59003 165.531 6.34077C166.263 6.18388 166.285 6.16483 166.242 5.72346L166.198 5.2681L162.698 5.22941L159.198 5.19073V5.692C159.198 6.15876 159.235 6.19947 159.739 6.28404C161.419 6.56621 161.653 6.85762 161.394 8.3451C161.031 10.4235 158.061 20.7157 157.877 20.531C157.789 20.4422 156.075 15.6901 152.943 6.85574C152.485 5.56253 152.481 5.55661 151.957 5.51274C151.441 5.46973 151.426 5.48387 151.225 6.16223C150.604 8.26644 146.561 20.4951 146.487 20.4951C146.438 20.4951 145.774 18.4005 145.01 15.8404C142.264 6.63549 142.306 6.84925 143.177 6.54528C143.455 6.44829 143.929 6.32879 144.232 6.27943C144.748 6.19542 144.779 6.1618 144.737 5.72909L144.692 5.2681L140.785 5.2297C138.637 5.20863 136.835 5.23577 136.78 5.28989ZM187.053 5.67699C187.053 6.17695 187.069 6.19081 187.739 6.28924C188.793 6.44396 189.07 6.59522 189.298 7.13892C189.472 7.55633 189.507 8.95244 189.507 15.4749C189.506 22.9802 189.494 23.3289 189.225 23.7698C188.929 24.2565 188.259 24.534 187.378 24.5355C186.938 24.5363 186.909 24.5679 186.909 25.0415V25.5467H191.239H195.569V25.0613V24.5759L194.66 24.503C193.512 24.4108 192.905 24.1032 192.698 23.5088C192.6 23.2287 192.538 21.8554 192.538 19.9827V16.9155L193.584 17.1874C195.428 17.6663 197.082 17.493 198.864 16.6343C199.935 16.1181 201.181 14.8715 201.713 13.7836C202.115 12.9611 202.136 12.8236 202.136 11.0414C202.136 9.26766 202.114 9.12333 201.734 8.40211C201.144 7.28166 200.409 6.54601 199.412 6.07577C197.922 5.37346 197.419 5.31601 192.069 5.23836L187.053 5.16548V5.67699ZM196.702 6.88114C197.676 7.37937 198.365 8.23237 198.687 9.33867C199.024 10.4992 198.913 12.6548 198.463 13.6796C198.034 14.6548 196.979 15.6207 196.046 15.8916C195.25 16.1227 193.52 16.1247 192.935 15.8951L192.538 15.7393V11.4898C192.538 9.15249 192.58 7.13026 192.632 6.99589C192.928 6.22429 195.288 6.15775 196.702 6.88114ZM176.03 16.5477L176.116 16.8868H173.43C171.953 16.8868 170.744 16.8582 170.744 16.8231C170.744 16.7882 171.302 15.2456 171.984 13.3953C172.667 11.5449 173.294 9.84124 173.378 9.60944C173.52 9.2196 173.623 9.45226 174.739 12.6983C175.402 14.629 175.984 16.3613 176.03 16.5477ZM9.06141 24.8566L10.7527 24.8972L9.70787 25.1649C8.41972 25.495 7.95049 25.9607 7.6435 27.2134L7.43307 28.0725L7.3609 26.4848L7.28873 24.8972L5.70109 24.825C4.37699 24.7648 4.20928 24.7329 4.69077 24.6332C5.6728 24.4297 6.46099 24.0107 6.68211 23.5748C6.79628 23.3495 6.97943 22.808 7.08927 22.3714L7.28873 21.5775L7.32944 23.1968L7.37028 24.8159L9.06141 24.8566ZM46.4747 25.691L47.9902 25.7632L47.1613 25.9537C46.0817 26.2018 45.5917 26.6919 45.2339 27.8811L44.9592 28.7941L44.9182 27.2425L44.8772 25.691L43.1863 25.6796C41.4697 25.668 41.4326 25.6198 42.8578 25.2528C43.7445 25.0245 44.3605 24.3675 44.6123 23.3817L44.8149 22.5879L44.8871 24.1033L44.9592 25.6188L46.4747 25.691ZM193.929 36.4798C193.876 37.4124 193.791 38.7114 193.741 39.3664L193.65 40.5571H194.171C194.663 40.5571 194.701 40.5231 194.849 39.9437C195.11 38.9229 195.579 37.846 195.927 37.471C196.404 36.9559 197.143 36.8062 199.213 36.8054L201.054 36.8045L201.046 44.9953C201.04 50.9519 200.99 53.3202 200.865 53.6777C200.613 54.3975 200.122 54.6916 198.996 54.7969L198.023 54.8876V55.372V55.8562H202.65H207.278L207.233 55.3872C207.188 54.9191 207.186 54.9178 206.177 54.8083C205.107 54.6921 204.572 54.4158 204.267 53.8217C204.132 53.5583 204.088 51.4677 204.087 45.1396L204.085 36.8045H206.038C208.226 36.8045 208.707 36.9298 209.321 37.6597C209.535 37.9134 209.88 38.6691 210.089 39.3391C210.411 40.3693 210.517 40.5568 210.777 40.555C211.412 40.5503 211.444 40.4362 211.298 38.6755C211.223 37.7655 211.16 36.5176 211.159 35.9024C211.157 34.794 211.153 34.7839 210.781 34.7839C210.574 34.7839 210.212 34.9462 209.976 35.1447L209.547 35.5055H202.479H195.412L195.051 35.1447C194.852 34.9462 194.54 34.7839 194.358 34.7839C194.035 34.7839 194.023 34.8338 193.929 36.4798ZM17.2166 37.8278L18.9796 37.8409L18.0414 38.0918C16.4409 38.5197 16.2739 38.6685 15.793 40.0941L15.4664 41.0623L15.4549 39.4385L15.4435 37.8148L13.8197 37.8046L12.196 37.7943L13.2063 37.5068C14.4678 37.1477 14.8194 36.8215 15.1274 35.7248L15.3713 34.856L15.4124 36.3354L15.4536 37.8148L17.2166 37.8278ZM88.9783 35.2726C85.5062 35.9378 82.745 38.1823 81.3684 41.4586C80.7811 42.8565 80.542 44.1412 80.542 45.8974C80.542 47.8946 80.8195 49.1399 81.636 50.8046C82.199 51.9524 82.5111 52.3764 83.5516 53.4075C85.6193 55.4563 87.7162 56.2892 90.8067 56.2892C93.8619 56.2892 96.1884 55.3743 98.1453 53.403C99.4118 52.1274 100.044 51.1173 100.607 49.4712C103.025 42.3973 98.5889 35.4108 91.5061 35.1372C90.5851 35.1017 89.5936 35.1546 88.9783 35.2726ZM183.612 35.2692C183.133 35.4426 183.098 35.5221 179.628 44.2754C177.703 49.1324 175.956 53.3661 175.746 53.6835C175.302 54.354 174.762 54.6707 173.85 54.7958C173.223 54.8816 173.198 54.9044 173.198 55.3707V55.8562H176.662H180.126V55.3711C180.126 54.8938 180.114 54.8847 179.37 54.7966C178.52 54.6961 177.911 54.321 177.842 53.8562C177.817 53.6851 178.17 52.4401 178.628 51.0897L179.46 48.6343L182.715 48.6732L185.971 48.7118L186.66 50.5882C187.039 51.6201 187.456 52.8404 187.587 53.3C187.805 54.0623 187.806 54.1557 187.597 54.3641C187.471 54.4899 187.022 54.6704 186.598 54.7654C185.88 54.9262 185.823 54.97 185.781 55.3973L185.736 55.8562H189.715H193.693V55.3697C193.693 54.8947 193.676 54.8809 192.97 54.7873C192.192 54.684 191.393 54.1198 191.031 53.4173C190.76 52.8921 189.276 48.8902 186.69 41.7118C184.123 34.5858 184.306 35.0695 184.187 35.0835C184.136 35.0896 183.877 35.1731 183.612 35.2692ZM233.851 35.2327C227.829 36.236 224.079 42.2633 225.527 48.6136C225.983 50.6127 227.343 52.8176 228.882 54.0511C230.947 55.706 233.054 56.3626 235.956 56.2549C238.929 56.1445 241.008 55.2867 242.9 53.3901C245.076 51.2075 246.052 48.471 245.904 44.9688C245.781 42.0802 244.92 40.0072 243.054 38.1098C240.699 35.7141 237.314 34.656 233.851 35.2327ZM63.2171 35.9922C63.2171 36.4538 63.2489 36.4838 63.8306 36.5737C65.0071 36.7557 65.3978 36.9511 65.6126 37.4651C65.9131 38.1845 65.9115 53.1812 65.6109 53.9008C65.3589 54.5037 65.0382 54.683 63.9746 54.815C63.1688 54.9151 63.1437 54.9315 63.0998 55.3872L63.0545 55.8562H67.4658H71.877V55.372V54.8876L70.9041 54.7969C69.7782 54.6916 69.2869 54.3975 69.0346 53.6777C68.9208 53.353 68.8596 52.0231 68.8541 49.7582L68.8461 46.3304L70.975 46.3338C74.2031 46.339 74.745 46.5609 75.0693 48.0097C75.2365 48.7567 75.2596 48.784 75.7248 48.784H76.207V45.753V42.7221H75.7178C75.2678 42.7221 75.2208 42.7648 75.1282 43.2583C74.8442 44.7723 74.5255 44.9187 71.3358 45.0004L68.8461 45.0642L68.8482 41.1147C68.8495 38.9426 68.9052 37.0789 68.9724 36.9732C69.0685 36.8215 69.6595 36.7911 71.7744 36.8289C74.2257 36.8726 74.4894 36.9025 74.8618 37.1786C75.4645 37.6256 75.8906 38.3285 76.2234 39.4241C76.5196 40.3991 76.5209 40.4005 76.977 40.3138C77.2283 40.266 77.4466 40.2181 77.4622 40.2073C77.4778 40.1964 77.4178 39.1342 77.3286 37.8466L77.1665 35.5055H70.1918H63.2171V35.9922ZM103.873 35.5996C103.819 35.6537 103.774 35.8724 103.774 36.0856C103.774 36.4516 103.828 36.4821 104.74 36.6332C105.445 36.7499 105.804 36.8927 106.075 37.1627L106.444 37.5322L106.535 43.6272C106.606 48.4848 106.672 49.9273 106.858 50.7325C107.699 54.3691 110.266 56.2809 114.316 56.2871C118.55 56.2937 121.184 54.0755 122.111 49.7222C122.195 49.3252 122.315 46.5974 122.377 43.6602C122.499 37.9327 122.551 37.5478 123.274 37.0412C123.458 36.9125 123.984 36.7332 124.444 36.6427C125.264 36.4813 125.28 36.4692 125.28 35.9919V35.5055H121.527H117.774V35.9952C117.774 36.4816 117.781 36.4861 118.655 36.6401C119.14 36.7256 119.738 36.9135 119.986 37.0578C120.791 37.5279 120.856 38.0065 120.867 43.5159C120.879 49.0069 120.792 49.7239 119.884 51.6132C118.965 53.5256 117.496 54.4129 115.249 54.4129C112.232 54.4129 110.373 52.631 109.77 49.162C109.508 47.6532 109.447 38.686 109.693 37.8004C109.899 37.0594 110.249 36.8114 111.343 36.6301C112.302 36.4711 112.305 36.4695 112.261 36.0242L112.218 35.5777L108.094 35.5394C105.827 35.5184 103.927 35.5455 103.873 35.5996ZM127.012 35.9919C127.012 36.4691 127.027 36.4813 127.846 36.6423C128.928 36.8552 129.645 37.3543 130.039 38.1681C130.353 38.8166 130.354 38.8632 130.307 45.9312C130.261 52.7045 130.245 53.0688 129.97 53.6097C129.584 54.3699 129.108 54.6892 128.2 54.7966C127.457 54.8847 127.445 54.8938 127.445 55.3711V55.8562H131.197H134.95V55.369C134.95 54.8855 134.944 54.8811 134.192 54.8179C133.285 54.7416 132.692 54.4725 132.319 53.9688C131.892 53.3911 131.763 51.2251 131.807 45.3417L131.847 40.0954L138.39 48.1201L144.934 56.1449H145.483H146.031L146.102 47.4489C146.181 37.7802 146.2 37.5673 147.039 37.0033C147.298 36.8292 147.837 36.6417 148.238 36.5867C148.95 36.4887 148.965 36.4764 148.922 36.032L148.878 35.5777L145.161 35.5392L141.445 35.5006V35.9869V36.4731L142.414 36.6338C143.466 36.8081 144.009 37.1204 144.303 37.7197C144.597 38.3181 144.779 42.0987 144.733 46.6664L144.692 50.8273L138.269 43.1665L131.847 35.5057L129.429 35.5055H127.012V35.9919ZM151.512 35.5874C151.452 35.6481 151.404 35.8791 151.404 36.1003C151.404 36.4541 151.469 36.513 151.945 36.5873C153.073 36.7635 153.573 36.9654 153.822 37.3453C154.054 37.6996 154.074 38.3595 154.074 45.7001C154.074 53.563 154.07 53.6755 153.772 54.0776C153.419 54.5531 152.736 54.8263 151.873 54.8378C151.267 54.8458 151.259 54.8521 151.259 55.3632V55.8805L156.636 55.8164C161.414 55.7595 162.148 55.7197 163.239 55.4576C168.091 54.2911 170.994 51.4078 171.763 46.9908C172.031 45.4504 171.875 43.0286 171.423 41.7356C170.275 38.4505 167.985 36.5828 164.209 35.8529C163.299 35.677 161.691 35.6064 157.321 35.5501C154.186 35.5097 151.571 35.5264 151.512 35.5874ZM213.899 35.9942C213.899 36.4676 213.921 36.4861 214.585 36.5793C214.962 36.6323 215.488 36.7443 215.753 36.828C216.645 37.1092 216.641 37.0767 216.641 45.739C216.641 50.3399 216.585 53.6766 216.504 53.8909C216.3 54.4271 215.749 54.7183 214.77 54.807L213.899 54.8861V55.3711V55.8562H218.157H222.415V55.3511C222.415 54.8637 222.396 54.8459 221.873 54.8451C221 54.8438 220.269 54.577 219.996 54.1595C219.765 53.8067 219.745 53.1344 219.745 45.753C219.745 38.4966 219.768 37.6947 219.986 37.3615C220.264 36.9376 220.757 36.7193 221.729 36.5896C222.396 36.5005 222.415 36.4848 222.415 36.0019V35.5055H218.157H213.899V35.9942ZM248.25 35.9952C248.25 36.475 248.275 36.4972 248.979 36.6482C250.327 36.9374 251.125 37.5918 251.419 38.6492C251.609 39.3319 251.613 49.2174 251.426 51.6348C251.341 52.7204 251.199 53.5748 251.058 53.8473C250.796 54.3545 249.87 54.8378 249.152 54.8428C248.713 54.8458 248.683 54.878 248.683 55.3511V55.8562H252.445H256.207L256.161 55.3872C256.117 54.9318 256.092 54.9151 255.29 54.8155C253.391 54.5798 253.17 54.1849 253.003 50.7325C252.852 47.6214 252.834 40.1215 252.977 40.1324C253.036 40.1368 256.008 43.7398 259.58 48.1388L266.075 56.1371L266.678 56.141L267.282 56.1449L267.332 47.2324C267.37 40.3706 267.425 38.2204 267.568 37.887C267.891 37.1344 268.303 36.8207 269.201 36.6443C270.029 36.4812 270.044 36.4698 270.044 35.9919V35.5055H266.364H262.683V35.9952C262.683 36.4782 262.695 36.4871 263.513 36.6327C264.66 36.8371 265.083 37.0216 265.355 37.4361C265.739 38.0224 265.87 40.3084 265.827 45.6841L265.786 50.7388L259.426 43.1583L253.066 35.5777L250.658 35.5381L248.25 35.4986V35.9952ZM92.4923 36.6747C95.2669 37.6117 97.0662 40.3367 97.5739 44.3708C98.1693 49.1004 96.5536 53.3081 93.6295 54.6436C92.411 55.2001 90.587 55.234 89.2462 54.725C86.5334 53.6953 84.5691 50.5691 84.144 46.6049C83.6877 42.3478 85.2029 38.3483 87.7809 37.005C89.1352 36.2992 90.9946 36.169 92.4923 36.6747ZM237.152 36.6655C238.328 37.0614 238.942 37.4713 239.884 38.4891C241.741 40.4948 242.643 43.9229 242.316 47.7281C241.946 52.0211 239.78 54.7911 236.556 55.0939C233.262 55.4032 230.313 52.7956 229.174 48.5675C228.754 47.007 228.711 43.4209 229.096 42.0004C229.856 39.1971 231.334 37.3864 233.52 36.5808C234.332 36.2819 236.139 36.324 237.152 36.6655ZM162.501 37.0327C164.66 37.5241 166.562 38.9901 167.483 40.8725C168.228 42.3971 168.475 43.5285 168.471 45.3922C168.466 47.4104 168.164 48.8269 167.417 50.3426C166.046 53.1236 163.659 54.5525 160.333 54.5838C158.768 54.5985 158.073 54.3641 157.547 53.6447C157.256 53.2466 157.248 53.0591 157.209 45.4022C157.164 36.4031 157.073 37.0206 158.48 36.8029C159.46 36.6514 161.282 36.7554 162.501 37.0327ZM184.164 43.4208L185.459 47.1964H182.724H179.988L180.399 46.0778C180.624 45.4627 181.254 43.7445 181.797 42.2598C182.34 40.7751 182.804 39.5794 182.828 39.6027C182.851 39.626 183.452 41.3442 184.164 43.4208ZM43.3403 47.7867L44.9592 47.7998L43.9716 48.0629C42.7458 48.3894 42.3574 48.745 42.0108 49.8586L41.7388 50.7325L41.7253 49.2531L41.7118 47.7737L39.9437 47.7607L38.1757 47.7476L39.1747 47.4817C40.5837 47.1066 40.8523 46.8661 41.2788 45.5986L41.6396 44.5262L41.6804 46.15L41.7213 47.7737L43.3403 47.7867ZM26.9178 51.1008C27.791 51.1447 28.4036 51.1935 28.2791 51.2091C27.5963 51.2952 26.5511 51.716 26.235 52.032C26.0358 52.2312 25.7507 52.7996 25.6015 53.2952L25.3302 54.1964L25.2892 52.6493L25.2483 51.1024L23.5572 51.0617L21.8662 51.0211L22.911 50.7534C24.168 50.4313 24.6895 49.9314 24.9884 48.7622L25.1858 47.9902L25.258 49.5057L25.3302 51.0211L26.9178 51.1008Z" fill="white"/>
</svg>
