<svg width="54" height="65" viewBox="0 0 54 65" fill="none" xmlns="http://www.w3.org/2000/svg">
<path d="M0.148865 41.1622C0.0540791 40.3771 0 32.7184 0 20.0462V0.162109H26.6077H53.2155L53.1748 20.9147L53.1341 41.6672L52.7958 43.2664C51.2847 50.4081 47.3116 56.3205 41.3597 60.2839C38.4759 62.2043 35.4363 63.466 31.8375 64.2367C30.1594 64.5959 29.7586 64.6257 26.604 64.6257C23.4502 64.6257 23.0473 64.5957 21.362 64.2362C13.0122 62.4549 6.25019 57.2044 2.62347 49.6862C1.3084 46.9602 0.522629 44.2532 0.148865 41.1622Z" fill="#ED1579"/>
<path fill-rule="evenodd" clip-rule="evenodd" d="M0 19.8841C0 32.5563 0.0540802 40.215 0.148866 41.0001C0.52263 44.0911 1.30839 46.7981 2.62347 49.5241C6.25018 57.0422 13.0122 62.2928 21.362 64.0741C23.0473 64.4336 23.4502 64.4635 26.604 64.4635C29.7586 64.4635 30.1594 64.4338 31.8375 64.0745C35.4363 63.3039 38.4759 62.0422 41.3597 60.1218C47.3116 56.1583 51.2847 50.246 52.7958 43.1042L53.1341 41.5051L53.1748 20.7526L53.2155 0H26.6077H0V19.8841ZM23.0233 3.81615C23.0714 3.99613 23.1119 4.32612 23.1129 4.54956C23.114 4.79031 23.2674 5.10854 23.4888 5.32995L23.8629 5.70401L24.2521 5.33112C24.8471 4.76124 25.6099 4.50669 26.723 4.50669C27.7061 4.50669 28.6392 4.7169 28.6392 4.93831C28.6392 5.0001 28.3248 5.09241 27.9405 5.14344C27.0926 5.25596 25.966 5.79966 25.906 6.12531C25.826 6.55911 26.6649 6.68734 29.5842 6.68734C31.2847 6.68734 32.5688 6.75203 32.8698 6.85278C33.4521 7.04773 34.3089 7.65467 34.3089 7.87215C34.3089 7.95589 34.1127 8.20783 33.8728 8.43186C33.2141 9.04724 33.3039 9.30921 34.3472 9.81294C35.0601 10.1572 35.3216 10.3789 35.5893 10.8656C35.9595 11.5387 35.9185 11.9972 35.4759 12.1378C35.3263 12.1852 34.9662 12.4872 34.6757 12.8086C34.2226 13.3103 34.154 13.477 34.192 13.986C34.2357 14.5703 34.2473 14.5816 35.0024 14.7741C36.5908 15.179 37.6748 16.0506 38.0152 17.1971C38.1355 17.6024 38.2341 18.0531 38.2341 18.1986C38.2341 18.6338 37.8685 18.4978 37.6161 17.9684C37.3355 17.3801 36.6312 16.823 35.8518 16.5731C35.2193 16.3703 33.4585 16.442 32.8201 16.6967C32.4587 16.8408 32.4371 16.8896 32.5877 17.2202C32.6791 17.4208 33.2836 17.9421 33.9312 18.3788C35.1662 19.2119 35.4494 19.5356 35.6255 20.3161C35.7794 20.999 35.5456 21.0347 34.8773 20.431C34.208 19.8262 33.7623 19.6259 33.0863 19.6259C32.4247 19.6259 32.0637 20.0483 32.1905 20.6742C32.5019 22.2105 32.5635 22.0695 31.4741 22.3132C30.9821 22.4232 30.093 22.9341 30.093 23.1068C30.093 23.1692 30.6001 23.2647 31.2197 23.3192C33.1748 23.4909 33.8728 23.5881 33.8728 23.689C33.8728 23.7428 33.5457 23.8708 33.1459 23.9731C32.4811 24.1435 31.8375 24.6607 31.8375 25.0245C31.8375 25.0937 32.4917 25.1502 33.2913 25.1502C34.4017 25.1502 34.7451 25.1957 34.7451 25.343C34.7451 25.6353 34.1961 26.0828 33.1097 26.6762C31.9996 27.2824 31.5969 27.7152 31.459 28.4504C31.3669 28.9412 31.4055 28.9975 32.5545 30.0549C33.4503 30.8791 34.0538 31.6231 34.9897 33.057C37.1265 36.3307 37.2679 36.5286 38.1364 37.4598C39.0353 38.4234 40.2585 39.1507 41.2671 39.3211C42.5826 39.5434 43.6388 38.8165 44.1243 37.3546C44.6858 35.664 43.74 33.9076 41.287 32.0858C38.6209 30.1058 37.7539 29.0014 37.3543 27.076C36.8619 24.7043 37.8794 22.7929 40.3505 21.448C43.7433 19.6016 44.7891 18.7131 45.357 17.1952C46.2118 14.9107 45.927 13.2345 44.5753 12.593C43.2441 11.9613 41.5142 12.7362 41.215 14.0981C41.162 14.3398 41.0359 14.5377 40.9351 14.5377C40.7113 14.5377 39.9786 13.2289 39.9786 12.8291C39.9786 12.6705 40.3006 12.1233 40.6942 11.613C41.672 10.345 41.6992 10.1581 41.0759 8.98371C40.4601 7.82331 40.4072 7.07186 40.8817 6.22751C41.4174 5.27442 41.9536 5.04197 43.4402 5.11858C44.4575 5.17106 44.9297 5.2798 45.8664 5.6777C46.564 5.97383 47.2767 6.17285 47.6472 6.17503C48.3217 6.17881 48.3446 6.20832 48.0975 6.75072C47.8044 7.39401 46.997 7.40594 44.3818 6.80597C43.7027 6.65027 43.5934 6.66001 43.3278 6.90032C43.1648 7.04788 43.0315 7.2764 43.0315 7.40825C43.0315 7.90486 43.8029 9.16485 44.7826 10.2687C46.1699 11.8318 46.4914 12.4166 46.6703 13.7032C46.9464 15.6884 46.5434 17.7838 45.624 19.1422C45.0757 19.9528 44.5312 20.3816 42.5179 21.5885C39.6028 23.3361 38.6172 24.4886 38.4222 26.3773C38.3321 27.2508 38.5878 27.8536 39.5211 28.9682C40.216 29.798 41.0102 30.4758 42.3773 31.4058C43.6927 32.3006 44.2377 32.8841 44.6971 33.8894C45.151 34.8827 45.4212 36.7943 45.2288 37.6506C45.0437 38.4746 44.4559 39.3163 43.7309 39.7956C43.165 40.17 43.0218 40.1967 41.5879 40.1967C40.2393 40.1967 39.8702 40.1374 38.5704 39.7119C37.5516 39.3782 37.0157 39.2683 36.8529 39.3595C36.5431 39.5328 34.8904 44.3683 34.8698 45.1615C34.858 45.615 35.0031 46.0346 35.4538 46.8512C35.7836 47.4487 36.0534 48.1058 36.0534 48.3113C36.0534 48.5169 35.2722 50.32 34.3174 52.3182C33.3624 54.3163 32.5378 56.182 32.4849 56.4642C32.3692 57.0813 32.2379 57.2013 31.4473 57.4126C30.9773 57.5382 30.6502 57.7905 30.0071 58.523L29.1748 59.4709L28.1538 59.4287C27.1743 59.3882 27.1283 59.37 27.0251 58.9823C26.9203 58.5888 26.9566 58.5585 28.3962 57.8393C31.0768 56.5001 31.8179 55.7342 32.3584 53.7439C32.5362 53.0893 32.8553 52.0752 33.0676 51.4902C33.5543 50.1486 33.5935 48.9961 33.1802 48.1897C32.7987 47.4458 32.4325 47.1239 31.1833 46.4353C29.8898 45.7222 29.6679 45.4748 28.7538 43.7267C27.8695 42.0357 27.0872 41.2242 26.1963 41.0738C24.5634 40.798 23.6937 42.4909 24.4133 44.5445C24.5787 45.0167 24.7141 45.5181 24.7141 45.6588C24.7141 46.055 23.6208 46.9229 21.5624 48.1606L19.6811 49.2918L18.866 49.196C18.1201 49.1083 18.019 49.1318 17.6785 49.4723C17.4598 49.6911 17.267 50.0909 17.2109 50.4424L17.1152 51.0404L15.4993 50.9473C14.6107 50.896 13.6218 50.7878 13.302 50.7067L12.7205 50.5595L13.52 50.3087C14.6344 49.9592 15.6039 49.4418 17.7741 48.0388C18.8051 47.3721 19.9543 46.7126 20.3279 46.5732C21.3345 46.1974 21.6289 45.9688 21.8093 45.4218C21.9549 44.9808 21.9329 44.8771 21.6014 44.4424C20.7062 43.2688 20.0443 41.2455 20.035 39.6547C20.029 38.6202 20.2382 38.0873 20.885 37.4886C21.4743 36.9432 21.7462 36.8322 22.9501 36.6467C24.0674 36.4746 24.3925 36.3543 24.7754 35.9713C25.2082 35.5387 25.0391 35.3635 23.9508 35.1172C21.4043 34.5408 19.1104 33.3532 18.3175 32.201C17.8169 31.4735 17.6669 31.4008 16.6701 31.4033C15.7924 31.4055 12.4618 32.5057 11.5935 33.0802C10.8873 33.5476 10.2837 34.3767 9.55387 35.8816C8.76709 37.5045 8.78149 37.9473 9.6789 39.7306L10.371 41.1059L10.0556 41.5068C9.64561 42.0282 9.65738 42.2026 10.152 42.9327C10.8583 43.9756 10.864 43.9553 9.59792 44.9191C8.96611 45.4002 8.41252 45.7937 8.36774 45.7937C8.32311 45.7937 8.28648 42.9609 8.28648 39.4985V33.2031L10.6044 31.4664C11.8792 30.5111 13.4982 29.3971 14.2024 28.9908L15.4826 28.2518L15.5212 23.9421L15.5597 19.6326L15.2304 19.5647C15.0493 19.5273 14.3778 19.3892 13.7381 19.2579C9.79767 18.4486 5.79908 16.9703 4.63767 15.8933C4.30461 15.5846 4.26666 15.453 4.31711 14.7859C4.34851 14.3695 4.40884 13.807 4.451 13.5358L4.52762 13.0428L5.20769 13.7011C6.51492 14.9663 7.62298 15.477 11.9209 16.7954C15.793 17.9831 16.7084 18.4418 17.8813 19.782C19.6661 21.8211 19.6616 21.8196 21.258 20.8808C21.9558 20.4705 23.0834 19.8201 23.7634 19.4356C25.2001 18.6235 26.5004 17.4913 26.9031 16.7019C27.2429 16.0359 27.268 15.0169 26.9629 14.2865C26.6089 13.4391 26.0492 12.7932 25.6692 12.7932C25.3821 12.7932 25.2078 13.0442 24.5214 14.4447C23.3206 16.8951 22.1044 18.0842 20.4068 18.4671C19.9639 18.567 19.8826 18.5415 19.7826 18.2711C19.7193 18.1003 19.7221 17.7627 19.7885 17.5211C20.1636 16.1592 20.3286 11.224 20.0195 10.6131C19.6093 9.80218 17.9472 9.24698 15.1555 8.9885C13.8557 8.86798 13.3747 8.77146 13.3747 8.63059C13.3747 8.4778 14.0017 8.42954 16.3912 8.39843L19.4078 8.35916L19.4902 6.90541C19.5677 5.5377 19.9251 4.02694 20.2133 3.84885C20.2843 3.80495 20.5055 4.02767 20.7051 4.34372C20.9046 4.65977 21.1401 4.96303 21.2282 5.01754C21.4396 5.14809 21.8904 4.72853 22.2762 4.04177C22.6279 3.41607 22.8945 3.33553 23.0233 3.81615ZM9.41794 8.44217L10.9759 8.4525L10.0512 8.7168C8.89575 9.0471 8.61939 9.32244 8.19576 10.5656L7.85791 11.5575L7.85413 9.99466L7.85035 8.43186L6.06948 8.42037C4.97218 8.41324 4.42818 8.36484 4.65206 8.29404C4.85195 8.23095 5.38883 8.07017 5.84517 7.93671C6.84347 7.64479 7.18961 7.25532 7.53066 6.04041L7.77766 5.16088L7.8188 6.79637L7.85994 8.43186L9.41794 8.44217ZM9.12705 25.0367L10.8306 25.0775L9.77819 25.3472C8.4807 25.6797 8.00808 26.1488 7.69886 27.4105L7.48691 28.2758L7.41422 26.6767L7.34153 25.0775L5.74238 25.0048C4.4087 24.9442 4.23977 24.9121 4.72475 24.8116C5.71389 24.6066 6.50779 24.1846 6.73051 23.7456C6.8455 23.5187 7.02999 22.9732 7.14062 22.5334L7.34153 21.7339L7.38252 23.3648L7.42367 24.9957L9.12705 25.0367ZM46.8113 25.8771L48.3378 25.9498L47.5029 26.1417C46.4155 26.3916 45.9219 26.8853 45.5615 28.083L45.2849 29.0027L45.2436 27.4399L45.2023 25.8771L43.4991 25.8656C41.7701 25.854 41.7327 25.8054 43.1682 25.4357C44.0614 25.2057 44.6819 24.544 44.9354 23.5511L45.1395 22.7515L45.2122 24.278L45.2849 25.8044L46.8113 25.8771ZM17.3413 38.1018L19.1171 38.1151L18.1721 38.3677C16.56 38.7988 16.3918 38.9487 15.9074 40.3845L15.5784 41.3597L15.5668 39.7242L15.5553 38.0887L13.9198 38.0784L12.2843 38.0681L13.302 37.7785C14.5726 37.4168 14.9267 37.0883 15.2369 35.9835L15.4826 35.1085L15.5241 36.5986L15.5655 38.0887L17.3413 38.1018ZM43.6542 48.1328L45.2849 48.1461L44.2901 48.4111C43.0554 48.7399 42.6642 49.0981 42.3151 50.2197L42.0411 51.1L42.0276 49.6098L42.0139 48.1197L40.233 48.1067L38.4522 48.0934L39.4585 47.8256C40.8776 47.4478 41.1482 47.2056 41.5778 45.9289L41.9412 44.8488L41.9823 46.4843L42.0235 48.1197L43.6542 48.1328ZM27.1128 51.471C27.9923 51.5152 28.6093 51.5643 28.484 51.58C27.7962 51.6668 26.7434 52.0906 26.425 52.409C26.2244 52.6096 25.9373 53.1821 25.7869 53.6813L25.5136 54.589L25.4723 53.0307L25.4312 51.4725L23.7278 51.4316L22.0246 51.3907L23.077 51.121C24.3431 50.7966 24.8683 50.2931 25.1694 49.1154L25.3683 48.3378L25.4409 49.8642L25.5136 51.3907L27.1128 51.471Z" fill="#F8EFF6"/>
</svg>
